<?xml version="1.0" encoding="utf-8"?>
<!-- Generator: Adobe Illustrator 16.0.0, SVG Export Plug-In . SVG Version: 6.00 Build 0)  -->
<!DOCTYPE svg PUBLIC "-//W3C//DTD SVG 1.1//EN" "http://www.w3.org/Graphics/SVG/1.1/DTD/svg11.dtd">
<svg version="1.1" xmlns="http://www.w3.org/2000/svg" xmlns:xlink="http://www.w3.org/1999/xlink" x="0px" y="0px" width="104px"
	 height="106px" viewBox="0 0 104 106" enable-background="new 0 0 104 106" xml:space="preserve">
<g id="Layer_9">
</g>
<g id="Layer_1">
	<g>
		<path fill="#88C7D7" d="M83.407,96.492H20.608c-6.118,0-11.097-4.977-11.097-11.095V20.576c0-6.118,4.979-11.096,11.097-11.096
			h62.799c6.118,0,11.095,4.978,11.095,11.096v64.821C94.502,91.516,89.525,96.492,83.407,96.492z M20.608,14.147
			c-3.546,0-6.43,2.885-6.43,6.429v64.821c0,3.543,2.884,6.428,6.43,6.428h62.799c3.545,0,6.429-2.885,6.429-6.428V20.576
			c0-3.544-2.884-6.429-6.429-6.429H20.608z"/>
	</g>
	<g>
		<path fill-rule="evenodd" clip-rule="evenodd" fill="#88C7D7" d="M83.527,47.132c0,1.628,0,3.076,0,4.523
			c0,3.648-0.033,7.298,0.025,10.944c0.016,0.979-0.646,1.335-1.26,1.416c-0.662,0.087-1.401-0.24-2.078-0.473
			c-0.109-0.039-0.093-0.521-0.093-0.797c-0.007-2.516-0.006-5.03-0.006-7.547c0-0.379,0-0.759,0-1.327
			c-1.585,0.421-3.008,0.784-4.422,1.176c-4.795,1.338-9.579,2.708-14.385,4.004c-1.058,0.283-1.484,0.71-1.44,1.869
			c0.102,2.654,0.036,5.312,0.032,7.97c-0.005,1.295-1.034,1.915-2.292,1.664c-1.269-0.254-1.502-0.907-1.463-2.064
			c0.082-2.547,0.003-5.102,0.037-7.651c0.009-0.79-0.266-1.088-1.069-1.226c-4.701-0.797-9.391-1.662-14.083-2.501
			c-5.075-0.91-10.15-1.826-15.229-2.718c-1.475-0.259-1.482-0.227-1.483,1.231c-0.003,1.31-0.042,2.623,0.008,3.931
			c0.051,1.295-1.066,1.516-1.832,1.904c-0.435,0.222-1.221-0.043-1.749-0.293c-0.224-0.105-0.272-0.741-0.273-1.137
			c-0.015-6.623-0.012-13.248-0.012-19.871c0-2.048,0-4.096,0-6.039c1.315-0.283,2.559-0.393,3.678-0.822
			c2.121-0.811,3.635-2.363,4.797-4.318c0.809-1.362,1.74-2.66,2.708-3.919c1.321-1.722,5.214-2.622,7.341-1.604
			c0.826,0.395,1.638,1.05,2.161,1.794c1.329,1.9,2.993,3.07,5.358,3.104c0.722,0.01,0.979,0.355,0.954,1.069
			c-0.041,1.132,0.037,2.268-0.024,3.4c-0.047,0.88,0.252,1.149,1.148,1.129c2.899-0.062,5.807-0.166,8.697-0.005
			c5.583,0.311,11.001,1.391,16.009,4.048c3.425,1.818,6.214,4.296,8.08,7.73C81.818,46.561,82.204,47.395,83.527,47.132z"/>
	</g>
	<g>
		<g>
			<path fill="#88C7D7" d="M34.677,81.223c-0.315,0-0.655-0.042-1.017-0.123c-0.361-0.082-0.69-0.239-0.985-0.474
				c-0.173-0.142-0.319-0.313-0.436-0.511c-0.118-0.201-0.214-0.412-0.291-0.642c-0.076-0.231-0.132-0.463-0.168-0.703
				c-0.036-0.239-0.054-0.477-0.054-0.711c0-0.102,0-0.2,0-0.291c0-0.092,0.011-0.184,0.031-0.273
				c0.072-0.887,0.402-1.575,0.994-2.064c0.173-0.141,0.387-0.28,0.642-0.413c0.255-0.132,0.504-0.197,0.75-0.197H39.2
				c0.102,0,0.153,0.049,0.153,0.152v1.682c0,0.101-0.052,0.152-0.153,0.152h-4.415c-0.143,0-0.272,0.062-0.39,0.191
				c-0.117,0.128-0.202,0.247-0.251,0.358c-0.052,0.103-0.083,0.205-0.093,0.305c-0.011,0.104-0.015,0.205-0.015,0.305
				c0,0.165,0.009,0.333,0.03,0.507c0.021,0.173,0.092,0.326,0.214,0.459c0.113,0.11,0.267,0.177,0.466,0.197
				c0.199,0.02,0.416,0.031,0.649,0.031h1.713c0.315,0,0.646,0.044,0.992,0.131c0.346,0.086,0.667,0.25,0.963,0.493
				c0.173,0.144,0.319,0.317,0.437,0.521c0.116,0.204,0.213,0.425,0.289,0.659c0.076,0.233,0.13,0.478,0.161,0.733
				c0.031,0.254,0.046,0.498,0.046,0.732c0,0.112,0,0.22,0,0.319c0,0.094-0.011,0.18-0.03,0.261
				c-0.082,0.927-0.409,1.64-0.979,2.139c-0.173,0.144-0.383,0.282-0.633,0.422c-0.251,0.138-0.486,0.205-0.71,0.205H32.08
				c-0.103,0-0.153-0.051-0.153-0.152v-1.679c0-0.104,0.05-0.155,0.153-0.155H37c0.153,0,0.285-0.073,0.396-0.222
				c0.113-0.148,0.194-0.282,0.246-0.403c0.051-0.114,0.081-0.221,0.09-0.321c0.011-0.103,0.017-0.21,0.017-0.321
				c0-0.164-0.011-0.334-0.031-0.512c-0.021-0.179-0.091-0.339-0.214-0.482c-0.102-0.11-0.248-0.19-0.435-0.236
				c-0.189-0.045-0.411-0.068-0.664-0.068H34.677z"/>
			<path fill="#88C7D7" d="M48.216,83.944v1.679c0,0.102-0.051,0.152-0.153,0.152h-4.202c-0.083,0-0.159,0-0.229,0
				c-0.072,0-0.133-0.005-0.184-0.014c-0.846-0.072-1.446-0.318-1.803-0.743c-0.356-0.421-0.535-1.061-0.535-1.917v-8.129
				c0-0.104,0.051-0.152,0.154-0.152h1.91c0.102,0,0.152,0.049,0.152,0.152v8.312c0,0.337,0.199,0.504,0.596,0.504h4.141
				C48.165,83.789,48.216,83.841,48.216,83.944z"/>
			<path fill="#88C7D7" d="M48.933,77.158c0-0.692,0.19-1.256,0.567-1.689c0.375-0.433,0.921-0.648,1.635-0.648h5.179
				c0.132,0,0.198,0.049,0.198,0.152v1.682c0,0.101-0.051,0.152-0.152,0.152h-5.059c-0.101,0-0.152,0.055-0.152,0.168v2.079
				c0,0.101,0.051,0.153,0.152,0.153h4.691c0.102,0,0.153,0.049,0.153,0.151v1.757c0,0.104-0.052,0.153-0.153,0.153h-4.691
				c-0.101,0-0.152,0.05-0.152,0.151v2.216c0,0.102,0.051,0.153,0.152,0.153h5.059c0.102,0,0.152,0.052,0.152,0.155v1.679
				c0,0.102-0.051,0.152-0.152,0.152h-5.914c-0.184,0-0.367-0.047-0.55-0.144c-0.183-0.098-0.347-0.223-0.489-0.376
				s-0.257-0.323-0.344-0.512c-0.086-0.188-0.13-0.38-0.13-0.572V77.158z"/>
			<path fill="#88C7D7" d="M57.75,77.158c0-0.692,0.19-1.256,0.567-1.689c0.375-0.433,0.921-0.648,1.634-0.648h5.182
				c0.132,0,0.197,0.049,0.197,0.152v1.682c0,0.101-0.052,0.152-0.15,0.152h-5.06c-0.103,0-0.153,0.055-0.153,0.168v2.079
				c0,0.101,0.051,0.153,0.153,0.153h4.691c0.101,0,0.153,0.049,0.153,0.151v1.757c0,0.104-0.053,0.153-0.153,0.153H60.12
				c-0.103,0-0.153,0.05-0.153,0.151v2.216c0,0.102,0.051,0.153,0.153,0.153h5.06c0.099,0,0.15,0.052,0.15,0.155v1.679
				c0,0.102-0.052,0.152-0.15,0.152h-5.916c-0.184,0-0.368-0.047-0.55-0.144c-0.182-0.098-0.347-0.223-0.49-0.376
				c-0.141-0.153-0.257-0.323-0.345-0.512c-0.085-0.188-0.129-0.38-0.129-0.572V77.158z"/>
			<path fill="#88C7D7" d="M66.582,74.973c0-0.104,0.053-0.152,0.152-0.152h4.877c0.569,0,1.053,0.088,1.451,0.266
				c0.396,0.18,0.719,0.427,0.961,0.743c0.244,0.313,0.425,0.693,0.536,1.131c0.111,0.437,0.169,0.916,0.169,1.436
				c0,0.538-0.058,1.029-0.169,1.466c-0.111,0.438-0.292,0.817-0.536,1.132c-0.242,0.317-0.564,0.558-0.961,0.727
				c-0.398,0.168-0.882,0.252-1.451,0.252h-2.659c-0.104,0-0.152,0.051-0.152,0.15v3.501c0,0.102-0.054,0.152-0.152,0.152h-1.913
				c-0.1,0-0.152-0.051-0.152-0.152V75.142V74.973z M68.952,76.807c-0.104,0-0.152,0.049-0.152,0.153v2.873
				c0,0.101,0.049,0.152,0.152,0.152h2.919c0.181,0,0.327-0.062,0.435-0.191c0.108-0.128,0.185-0.278,0.236-0.451
				c0.05-0.173,0.083-0.349,0.1-0.527c0.016-0.178,0.022-0.318,0.022-0.42s-0.007-0.241-0.022-0.419
				c-0.017-0.18-0.05-0.356-0.1-0.529c-0.052-0.174-0.128-0.321-0.236-0.449c-0.107-0.129-0.254-0.191-0.435-0.191H68.952z"/>
		</g>
	</g>
</g>
<g id="Layer_2" display="none">
	<g display="inline">
		<path fill-rule="evenodd" clip-rule="evenodd" fill="#74C9D7" d="M72.128,33.77c0.022,0.021,0.041,0.056,0.065,0.061
			c1.897,0.326,3.191,1.962,3.187,4.257c-0.004,5.771-0.002,11.539-0.002,17.31c0,7.709,0,15.417,0.002,23.125
			c0,0.909-0.226,1.729-0.985,2.302c-0.787,0.593-1.655,0.669-2.55,0.301c-0.88-0.36-1.355-1.055-1.489-1.982
			c-0.038-0.276-0.04-0.558-0.04-0.836c-0.003-5.041-0.003-10.081-0.003-15.122c0-0.2,0-0.399,0-0.642c-0.9,0-1.765,0-2.677,0
			c-0.006-0.205-0.021-0.373-0.021-0.535c-0.003-7.942-0.003-15.882-0.003-23.824c0-1.557,0.439-2.925,1.82-3.802
			c0.443-0.283,0.987-0.412,1.485-0.611C71.321,33.77,71.726,33.77,72.128,33.77z"/>
		<path fill-rule="evenodd" clip-rule="evenodd" fill="#74C9D7" d="M55.651,81.427c-1.606-0.649-2.061-1.336-2.061-3.114
			c0-8.377,0-16.753,0-25.129c0-0.199,0-0.399,0-0.636c-0.251-0.037-0.481-0.057-0.704-0.105c-1.603-0.347-2.623-1.675-2.625-3.431
			c-0.006-3.784,0-7.569,0-11.354c0-0.884,0.018-1.77-0.009-2.652c-0.016-0.522,0.12-0.936,0.56-1.235c0.248,0,0.496,0,0.744,0
			c0.425,0.333,0.54,0.774,0.537,1.301c-0.011,3.253-0.006,6.506-0.004,9.759c0,0.177,0.018,0.355,0.029,0.529
			c0.514,0,0.967,0,1.472,0c0-0.212,0-0.395,0-0.578c0-3.284,0.01-6.568-0.011-9.852c-0.002-0.518,0.139-0.898,0.584-1.159
			c0.187,0,0.371,0,0.56,0c0.512,0.234,0.626,0.665,0.626,1.185c-0.01,3.287-0.005,6.573-0.002,9.862
			c0,0.179,0.017,0.357,0.024,0.542c0.523,0,0.992,0,1.507,0c0-0.214,0-0.396,0-0.582c0-3.271,0.005-6.543-0.007-9.815
			c0-0.499,0.119-0.908,0.547-1.193c0.22,0,0.438,0,0.652,0c0.419,0.299,0.523,0.719,0.521,1.211
			c-0.013,3.271-0.006,6.542-0.006,9.812c0,0.182,0,0.363,0,0.562c0.546,0,1.032,0,1.544,0c0-0.221,0-0.407,0-0.592
			c0-3.254,0.007-6.51-0.011-9.764c-0.005-0.525,0.124-0.933,0.562-1.229c0.215,0,0.433,0,0.65,0
			c0.447,0.286,0.575,0.695,0.573,1.221c-0.015,4.685-0.047,9.37,0.012,14.053c0.022,1.844-1.551,3.429-3.04,3.458
			c-0.056,0-0.115,0.028-0.229,0.057c0,0.194,0,0.392,0,0.588c0,8.454-0.005,16.908,0.005,25.361
			c0.002,1.076-0.291,1.991-1.266,2.573c-0.251,0.146-0.534,0.231-0.803,0.346C56.274,81.427,55.963,81.427,55.651,81.427z"/>
	</g>
	<g display="inline">
		<path fill="#74C9D7" d="M83.081,95.803H20.936c-6.054,0-10.981-4.905-10.981-10.937V20.972c0-6.031,4.927-10.937,10.981-10.937
			h62.146c6.053,0,10.979,4.906,10.979,10.937v63.895C94.06,90.897,89.134,95.803,83.081,95.803z M20.936,14.634
			c-3.508,0-6.363,2.843-6.363,6.337v63.895c0,3.494,2.855,6.337,6.363,6.337h62.146c3.508,0,6.36-2.843,6.36-6.337V20.972
			c0-3.495-2.853-6.337-6.36-6.337H20.936z"/>
	</g>
	<g display="inline">
		<g>
			<path fill="#74C9D7" d="M22.69,25.401c0-0.686,0.187-1.243,0.561-1.671c0.372-0.428,0.911-0.643,1.617-0.643h5.128
				c0.131,0,0.195,0.05,0.195,0.151v1.663c0,0.102-0.051,0.152-0.15,0.152h-5.006c-0.102,0-0.151,0.056-0.151,0.166v2.056
				c0,0.101,0.05,0.152,0.151,0.152h4.643c0.099,0,0.151,0.05,0.151,0.151v1.739c0,0.101-0.052,0.15-0.151,0.15h-4.643
				c-0.102,0-0.151,0.05-0.151,0.151v2.193c0,0.101,0.05,0.151,0.151,0.151h5.006c0.099,0,0.15,0.051,0.15,0.151v1.664
				c0,0.101-0.051,0.151-0.15,0.151h-5.854c-0.181,0-0.363-0.048-0.543-0.144c-0.181-0.096-0.343-0.219-0.485-0.371
				c-0.14-0.151-0.255-0.32-0.34-0.507c-0.086-0.186-0.128-0.375-0.128-0.567V25.401z"/>
			<path fill="#74C9D7" d="M34.199,23.979c0.122-0.393,0.342-0.64,0.665-0.741c0.322-0.101,0.76-0.151,1.314-0.151
				c0.575,0,1.026,0.05,1.355,0.151c0.326,0.101,0.55,0.348,0.672,0.741l3.04,9.859c0,0.061-0.036,0.091-0.106,0.091H39.16
				c-0.102,0-0.167-0.044-0.199-0.136l-0.8-2.616c-0.029-0.101-0.097-0.15-0.196-0.15h-3.554c-0.102,0-0.167,0.055-0.196,0.166
				l-0.803,2.586c-0.029,0.101-0.095,0.151-0.196,0.151H31.25c-0.081,0-0.12-0.03-0.12-0.091L34.199,23.979z M36.361,25.325
				c-0.031-0.111-0.056-0.184-0.077-0.219c-0.02-0.035-0.054-0.053-0.106-0.053c-0.05,0-0.106,0.091-0.165,0.272l-1.06,3.448
				c0,0.02-0.002,0.036-0.006,0.045c-0.005,0.01-0.007,0.021-0.007,0.031c0,0.07,0.039,0.106,0.12,0.106h2.252
				c0.082,0,0.122-0.036,0.122-0.106c0-0.01-0.002-0.021-0.007-0.031c-0.007-0.009-0.009-0.025-0.009-0.045L36.361,25.325z"/>
			<path fill="#74C9D7" d="M45.146,33.778c0,0.101-0.049,0.151-0.15,0.151h-1.89c-0.102,0-0.151-0.05-0.151-0.151v-8.574
				c0-0.1-0.052-0.151-0.151-0.151h-2.465c-0.101,0-0.151-0.05-0.151-0.152v-1.663c0-0.101,0.05-0.151,0.151-0.151h7.423
				c0.102,0,0.151,0.05,0.151,0.151v1.663c0,0.102-0.049,0.152-0.151,0.152h-2.465c-0.099,0-0.151,0.051-0.151,0.151V33.778z"/>
		</g>
	</g>
</g>
<g id="Layer_3" display="none">
	<g display="inline">
		<g>
			<path fill="#A1CFD7" d="M17.643,92.86H21.7V37.731c0-3.607,3.54-7.149,7.147-7.149c2.018,0,3.572,0.615,4.896,1.938l2.056,2.058
				l2.868-2.869l-2.054-2.056c-2.078-2.075-4.688-3.126-7.765-3.126c-5.864,0-11.205,5.34-11.205,11.205V92.86z"/>
		</g>
		<g>
			<path fill="#A1CFD7" stroke="#000000" stroke-width="8" d="M8.16,114.137"/>
		</g>
		<g>
			
				<rect x="24.051" y="31.491" transform="matrix(-0.7071 0.7071 -0.7071 -0.7071 87.2448 30.9013)" fill="#A1CFD7" width="26.344" height="4.056"/>
		</g>
		<g>
			<path fill="#A1CFD7" d="M47.033,55.523l3.27-2.4l2.403,3.267l-3.268,2.403L47.033,55.523z M42.23,48.988l3.268-2.402l2.403,3.27
				l-3.268,2.401L42.23,48.988z M37.423,42.454l3.269-2.402l2.403,3.267l-3.268,2.403L37.423,42.454z"/>
		</g>
		<g>
			<path fill="#A1CFD7" d="M35.42,61.207l3.915-1.062l1.061,3.916l-3.914,1.062L35.42,61.207z M33.298,53.376l3.915-1.063
				l1.061,3.918l-3.915,1.061L33.298,53.376z M31.176,45.546l3.914-1.061l1.06,3.915l-3.914,1.061L31.176,45.546z"/>
		</g>
		<g>
			<path fill="#A1CFD7" d="M56.651,46.894l2.403-3.268l3.27,2.403l-2.402,3.268L56.651,46.894z M50.119,42.088l2.402-3.268
				l3.268,2.403l-2.402,3.268L50.119,42.088z M43.582,37.283l2.402-3.269l3.269,2.403l-2.403,3.269L43.582,37.283z"/>
		</g>
		<g>
			<path fill="#A1CFD7" d="M63.678,35.927l1.06-3.915l3.917,1.06l-1.063,3.917L63.678,35.927z M55.847,33.805l1.061-3.914
				l3.915,1.06l-1.059,3.914L55.847,33.805z M48.017,31.682l1.062-3.915l3.915,1.061l-1.062,3.915L48.017,31.682z"/>
		</g>
	</g>
	<g display="inline">
		<g>
			<path fill="#A1CFD7" d="M36.125,81.285c-0.243-0.242-0.414-0.494-0.514-0.75c-0.099-0.254-0.139-0.511-0.116-0.767
				c0.02-0.258,0.095-0.511,0.223-0.763c0.13-0.247,0.304-0.482,0.525-0.703l3.74-3.738c0.07-0.072,0.142-0.072,0.214,0l1.175,1.175
				c0.072,0.071,0.072,0.142,0,0.212l-3.228,3.228c-0.191,0.192-0.273,0.378-0.244,0.557c0.027,0.178,0.137,0.362,0.33,0.555
				l1.014,1.016c0.079,0.078,0.154,0.081,0.226,0.011l3.279-3.281c0.071-0.068,0.143-0.068,0.214,0l1.175,1.176
				c0.071,0.071,0.071,0.145,0,0.214l-3.28,3.281c-0.071,0.07-0.068,0.145,0.01,0.225l2.927,2.927c0.071,0.07,0.071,0.145,0,0.215
				l-1.336,1.336c-0.071,0.069-0.141,0.069-0.213-0.002L36.125,81.285z"/>
			<path fill="#A1CFD7" d="M40.73,73.815l3.975-3.975c0.2-0.199,0.435-0.354,0.706-0.47c0.27-0.114,0.593-0.168,0.972-0.16
				c0.655,0.016,1.332,0.348,2.03,1.004l0.246,0.245c0.627,0.629,1.007,1.159,1.142,1.593c0.042,0.242,0.07,0.476,0.08,0.7
				c0.014,0.226-0.025,0.48-0.111,0.763c0,0.016,0.001,0.034,0.005,0.06c0.003,0.025,0.017,0.05,0.038,0.069
				c0.015,0.015,0.031,0.025,0.053,0.033c0.377,0.05,0.681,0.121,0.908,0.213c0.227,0.094,0.456,0.195,0.684,0.311l2.394,1.219
				c0.071,0.042,0.149,0.067,0.234,0.075c0.087,0.007,0.137,0.016,0.151,0.03c0.034,0.037,0.03,0.076-0.012,0.117l-1.475,1.475
				c-0.042,0.045-0.126,0.053-0.251,0.025c-0.125-0.023-0.218-0.053-0.283-0.09l-2.532-1.207c-0.498-0.298-0.923-0.317-1.271-0.053
				l-1.303,1.305c-0.072,0.07-0.072,0.14-0.001,0.213l2.619,2.618c0.071,0.07,0.071,0.143,0,0.215l-1.336,1.333
				c-0.072,0.073-0.142,0.072-0.213,0l-7.447-7.447C40.659,73.958,40.659,73.887,40.73,73.815z M43.669,73.655
				c-0.072,0.072-0.071,0.144-0.001,0.214l1.741,1.742c0.073,0.07,0.146,0.067,0.225-0.01l1.935-1.936
				c0.1-0.1,0.161-0.258,0.183-0.479c0.013-0.186-0.035-0.387-0.146-0.606c-0.109-0.215-0.266-0.425-0.465-0.623
				c-0.1-0.1-0.196-0.186-0.289-0.258c-0.091-0.069-0.192-0.124-0.297-0.158c-0.349-0.12-0.613-0.115-0.791,0.02L43.669,73.655z"/>
			<path fill="#A1CFD7" d="M49.045,68.772c-0.484-0.483-0.748-1.009-0.787-1.576c-0.038-0.565,0.19-1.098,0.689-1.598l3.624-3.621
				c0.092-0.093,0.173-0.104,0.247-0.032l1.174,1.175c0.071,0.072,0.072,0.144,0,0.215l-3.536,3.536
				c-0.072,0.071-0.068,0.146,0.011,0.225l1.454,1.453c0.069,0.071,0.141,0.071,0.213,0l3.28-3.28c0.071-0.071,0.143-0.071,0.214,0
				l1.228,1.229c0.071,0.072,0.071,0.143,0,0.215l-3.28,3.279c-0.07,0.07-0.07,0.142,0.001,0.214l1.549,1.549
				c0.071,0.073,0.14,0.071,0.212,0l3.538-3.537c0.071-0.071,0.144-0.071,0.213,0.001l1.176,1.175c0.07,0.072,0.07,0.143,0,0.213
				l-4.134,4.136c-0.129,0.128-0.291,0.224-0.486,0.283c-0.195,0.062-0.396,0.088-0.604,0.08c-0.207-0.007-0.406-0.045-0.598-0.117
				c-0.194-0.07-0.358-0.173-0.493-0.309L49.045,68.772z"/>
			<path fill="#A1CFD7" d="M60.06,63.442c-0.222,0.22-0.484,0.429-0.796,0.625c-0.31,0.196-0.649,0.314-1.02,0.356
				c-0.222,0.022-0.44,0.005-0.663-0.053c-0.222-0.057-0.438-0.14-0.651-0.246c-0.214-0.107-0.417-0.231-0.609-0.372
				c-0.191-0.145-0.37-0.297-0.535-0.461c-0.069-0.071-0.138-0.139-0.202-0.203s-0.12-0.135-0.17-0.215
				c-0.57-0.667-0.819-1.382-0.749-2.136c0.021-0.221,0.075-0.467,0.16-0.738c0.085-0.27,0.215-0.492,0.387-0.661l3.536-3.538
				c0.069-0.071,0.141-0.071,0.214,0l1.175,1.176c0.071,0.071,0.071,0.143,0,0.215l-3.088,3.087c-0.101,0.1-0.146,0.236-0.139,0.406
				c0.007,0.172,0.031,0.314,0.074,0.427c0.035,0.108,0.085,0.199,0.15,0.279c0.063,0.078,0.131,0.152,0.203,0.223
				c0.112,0.115,0.236,0.226,0.373,0.333c0.135,0.106,0.292,0.163,0.47,0.17c0.157,0,0.312-0.062,0.466-0.187
				c0.153-0.126,0.312-0.268,0.476-0.433l1.195-1.195c0.223-0.221,0.482-0.424,0.786-0.604c0.303-0.181,0.643-0.289,1.02-0.328
				c0.223-0.019,0.443,0,0.669,0.06c0.223,0.062,0.446,0.147,0.661,0.257c0.219,0.11,0.428,0.244,0.626,0.401
				c0.2,0.156,0.384,0.317,0.545,0.481c0.08,0.076,0.153,0.151,0.226,0.224c0.063,0.064,0.118,0.132,0.159,0.203
				c0.592,0.705,0.861,1.432,0.812,2.181c-0.021,0.221-0.072,0.465-0.149,0.736c-0.078,0.27-0.195,0.485-0.353,0.641l-3.89,3.891
				c-0.07,0.071-0.143,0.071-0.214-0.001l-1.175-1.174c-0.07-0.073-0.07-0.145,0-0.215l3.441-3.441
				c0.105-0.105,0.147-0.25,0.122-0.434c-0.025-0.179-0.062-0.332-0.11-0.452c-0.046-0.113-0.1-0.211-0.163-0.289
				c-0.062-0.078-0.135-0.157-0.213-0.234c-0.115-0.114-0.239-0.227-0.378-0.338c-0.14-0.108-0.301-0.172-0.487-0.188
				c-0.148-0.007-0.307,0.041-0.471,0.141s-0.334,0.236-0.513,0.416L60.06,63.442z"/>
			<path fill="#A1CFD7" d="M60.199,54.562c-0.071-0.071-0.071-0.143,0-0.214l1.337-1.336c0.069-0.07,0.142-0.07,0.214,0l2.906,2.908
				c0.071,0.07,0.142,0.07,0.213-0.001l2.533-2.533c0.07-0.07,0.07-0.141,0-0.211l-2.906-2.908
				c-0.072-0.071-0.072-0.143-0.001-0.213l1.336-1.335c0.072-0.072,0.142-0.072,0.214,0l7.447,7.447
				c0.073,0.071,0.073,0.142,0,0.213l-1.336,1.337c-0.07,0.07-0.141,0.07-0.212,0l-2.939-2.938c-0.072-0.07-0.143-0.07-0.214,0
				l-2.532,2.53c-0.072,0.071-0.072,0.143,0.002,0.215l2.937,2.938c0.07,0.071,0.07,0.144,0,0.215l-1.336,1.336
				c-0.071,0.07-0.143,0.069-0.214-0.001L60.199,54.562z"/>
			<path fill="#A1CFD7" d="M68.45,49.371c-0.485-0.485-0.745-1.01-0.788-1.577c-0.038-0.566,0.192-1.1,0.69-1.598l3.624-3.621
				c0.092-0.093,0.173-0.104,0.246-0.033l1.176,1.176c0.069,0.07,0.069,0.142,0,0.212l-3.539,3.538
				c-0.072,0.07-0.068,0.145,0.01,0.223l1.456,1.454c0.069,0.071,0.141,0.071,0.212,0l3.28-3.28c0.071-0.071,0.146-0.071,0.214,0
				l1.229,1.228c0.072,0.072,0.072,0.143,0,0.213l-3.281,3.281c-0.069,0.071-0.069,0.142,0.002,0.214l1.548,1.549
				c0.073,0.072,0.143,0.072,0.216,0l3.534-3.537c0.073-0.071,0.145-0.071,0.217,0l1.174,1.175c0.072,0.071,0.07,0.142,0,0.214
				l-4.135,4.134c-0.129,0.129-0.291,0.224-0.487,0.284s-0.396,0.087-0.604,0.081c-0.207-0.008-0.405-0.047-0.597-0.119
				c-0.193-0.07-0.354-0.174-0.493-0.309L68.45,49.371z"/>
			<path fill="#A1CFD7" d="M74.553,43.141c-0.281-0.278-0.492-0.541-0.644-0.792c-0.148-0.249-0.225-0.497-0.229-0.743
				c-0.002-0.245,0.068-0.5,0.209-0.763c0.143-0.263,0.365-0.548,0.672-0.854c0.45-0.449,0.847-0.704,1.192-0.764
				c0.347-0.061,0.678-0.002,0.998,0.175l6.71,3.847c0.093,0.05,0.164,0.05,0.215,0c0.049-0.049,0.038-0.111-0.032-0.182
				l-5.97-5.973c-0.073-0.072-0.073-0.143-0.003-0.214l1.335-1.335c0.072-0.071,0.143-0.071,0.214,0l6.325,6.326
				c0.145,0.144,0.257,0.314,0.343,0.513c0.086,0.2,0.141,0.407,0.165,0.624c0.023,0.217,0.008,0.429-0.048,0.637
				c-0.057,0.206-0.159,0.385-0.31,0.534l-0.983,0.983c-0.086,0.085-0.198,0.152-0.343,0.203c-0.141,0.051-0.293,0.081-0.452,0.091
				c-0.16,0.01-0.317,0.001-0.477-0.026c-0.157-0.029-0.3-0.079-0.429-0.151l-6.75-3.867c-0.087-0.043-0.15-0.043-0.192,0
				c-0.051,0.049-0.045,0.107,0.021,0.171l5.995,5.994c0.07,0.072,0.07,0.143,0,0.214l-1.337,1.336
				c-0.071,0.071-0.143,0.071-0.213,0L74.553,43.141z"/>
			<path fill="#A1CFD7" d="M65.837,69.923l1.335-1.338c0.071-0.069,0.142-0.069,0.214,0.001l5.074,5.078
				c0.258,0.256,0.468,0.495,0.638,0.719c0.167,0.227,0.288,0.425,0.356,0.595c0.072,0.156,0.129,0.339,0.171,0.543
				c0.043,0.209,0.068,0.415,0.075,0.621c0,0.214-0.034,0.43-0.102,0.647c-0.068,0.217-0.141,0.413-0.219,0.592
				c-0.086,0.171-0.191,0.352-0.315,0.541c-0.123,0.188-0.279,0.375-0.464,0.561l-1.252,1.25c-0.234,0.235-0.478,0.429-0.73,0.582
				s-0.498,0.255-0.733,0.304c-0.24,0.058-0.471,0.086-0.683,0.086c-0.271,0-0.525-0.024-0.759-0.076
				c-0.25-0.062-0.487-0.156-0.718-0.276c-0.226-0.121-0.44-0.282-0.64-0.48l-5.492-5.492c-0.072-0.071-0.071-0.144,0-0.215
				l1.336-1.335c0.071-0.072,0.142-0.072,0.216,0l5.211,5.214c0.087,0.086,0.2,0.168,0.343,0.247
				c0.144,0.077,0.294,0.134,0.454,0.165c0.161,0.032,0.322,0.034,0.487,0.005c0.162-0.028,0.309-0.106,0.437-0.234l1.122-1.122
				c0.121-0.122,0.198-0.266,0.232-0.433c0.031-0.167,0.033-0.333,0.004-0.496c-0.03-0.164-0.08-0.322-0.149-0.471
				c-0.071-0.149-0.152-0.271-0.247-0.365l-5.202-5.202C65.766,70.065,65.766,69.993,65.837,69.923z"/>
			<path fill="#A1CFD7" d="M68.241,67.731c-0.073-0.07-0.073-0.143-0.001-0.215l3.409-3.407c0.398-0.399,0.8-0.674,1.203-0.828
				c0.4-0.151,0.8-0.203,1.191-0.154c0.391,0.05,0.778,0.189,1.163,0.417c0.385,0.229,0.76,0.524,1.122,0.886
				c0.379,0.38,0.681,0.76,0.909,1.145c0.227,0.386,0.366,0.774,0.415,1.164c0.051,0.393-0.003,0.787-0.162,1.181
				c-0.163,0.396-0.442,0.794-0.842,1.192l-1.858,1.857c-0.074,0.074-0.074,0.144,0,0.215l2.447,2.447c0.07,0.07,0.07,0.143,0,0.216
				l-1.336,1.335c-0.073,0.068-0.143,0.068-0.215-0.002l-7.331-7.331L68.241,67.731z M71.178,67.357
				c-0.069,0.073-0.069,0.145,0,0.214l2.011,2.011c0.069,0.069,0.143,0.071,0.215,0l2.038-2.042c0.129-0.13,0.188-0.273,0.173-0.438
				c-0.017-0.164-0.063-0.324-0.15-0.481c-0.085-0.155-0.185-0.301-0.3-0.436c-0.114-0.137-0.207-0.24-0.276-0.312
				c-0.072-0.07-0.174-0.163-0.311-0.278c-0.136-0.113-0.282-0.213-0.438-0.299c-0.158-0.086-0.318-0.136-0.48-0.147
				c-0.164-0.016-0.312,0.041-0.44,0.17L71.178,67.357z"/>
		</g>
	</g>
	<g display="inline">
		<path fill="#A1CFD7" d="M83.176,96.148h-62.73c-6.111,0-11.085-4.945-11.085-11.026V20.708c0-6.081,4.974-11.027,11.085-11.027
			h62.73c6.11,0,11.082,4.946,11.082,11.027v64.414C94.258,91.203,89.286,96.148,83.176,96.148z M20.445,14.319
			c-3.542,0-6.423,2.866-6.423,6.39v64.414c0,3.521,2.881,6.39,6.423,6.39h62.73c3.54,0,6.42-2.868,6.42-6.39V20.708
			c0-3.523-2.88-6.39-6.42-6.39H20.445z"/>
	</g>
</g>
<g id="Layer_4" display="none">
	<g display="inline">
		<g>
			<path fill="#88C7D7" d="M41.538,21.491h1.868c0.092,0,0.146,0.042,0.154,0.124l-1.374,9.897c-0.06,0.412-0.284,0.71-0.664,0.895
				c-0.216,0.062-0.431,0.106-0.64,0.132c-0.212,0.025-0.43,0.037-0.657,0.037c-0.411,0-0.824-0.045-1.235-0.138
				c-0.4-0.154-0.688-0.417-0.864-0.787c-0.248-2.275-0.438-3.997-0.57-5.166c-0.135-1.167-0.217-1.762-0.249-1.783l-0.833,6.84
				c-0.125,0.504-0.382,0.787-0.773,0.849c-0.401,0.104-0.813,0.155-1.236,0.155c-0.422,0-0.833-0.051-1.235-0.155
				c-0.482-0.246-0.756-0.592-0.818-1.034l-1.389-9.696c0-0.082,0.035-0.139,0.108-0.17h2.008c0.091,0,0.137,0.047,0.137,0.138
				l1.036,7.86c0.081,0.566,0.149,0.849,0.2,0.849c0.042,0,0.094-0.231,0.153-0.694l0.758-7.272
				c0.205-0.392,0.545-0.664,1.019-0.818c0.133-0.042,0.365-0.062,0.694-0.062h0.757c0.279,0.052,0.524,0.15,0.742,0.293
				c0.299,0.269,0.462,0.494,0.494,0.68l0.91,7.041c0.062,0.515,0.125,0.772,0.186,0.772c0.063,0,0.129-0.305,0.201-0.912
				l0.88-7.736C41.306,21.539,41.384,21.491,41.538,21.491z"/>
			<path fill="#88C7D7" d="M44.193,27.019c0-0.607,0.005-1.132,0.016-1.574c0.009-0.442,0.042-0.802,0.093-1.081
				c0.082-0.401,0.169-0.761,0.261-1.081c0.093-0.319,0.217-0.582,0.371-0.788c0.205-0.267,0.463-0.501,0.771-0.703
				c0.309-0.199,0.64-0.342,0.99-0.425c0.248-0.05,0.571-0.081,0.972-0.092c0.4-0.011,0.879-0.016,1.438-0.016
				c0.554,0,1.034,0.005,1.433,0.016c0.403,0.011,0.728,0.042,0.975,0.092c0.35,0.083,0.68,0.226,0.988,0.425
				c0.309,0.202,0.566,0.436,0.77,0.703c0.153,0.206,0.278,0.468,0.372,0.788c0.093,0.32,0.179,0.679,0.263,1.081
				c0.052,0.279,0.081,0.639,0.093,1.081c0.01,0.442,0.014,0.967,0.014,1.574v0.094c0,0.606-0.004,1.132-0.014,1.575
				c-0.012,0.441-0.041,0.802-0.093,1.079c-0.084,0.402-0.17,0.763-0.263,1.082c-0.094,0.319-0.219,0.582-0.372,0.787
				c-0.204,0.269-0.461,0.502-0.77,0.704c-0.309,0.201-0.639,0.341-0.988,0.424c-0.247,0.052-0.571,0.083-0.975,0.093
				c-0.399,0.01-0.879,0.015-1.433,0.015c-0.558,0-1.038-0.005-1.438-0.015c-0.4-0.01-0.724-0.042-0.972-0.093
				c-0.351-0.083-0.682-0.223-0.99-0.424c-0.308-0.201-0.566-0.435-0.771-0.704c-0.154-0.205-0.278-0.467-0.371-0.787
				c-0.091-0.319-0.179-0.68-0.261-1.082c-0.052-0.277-0.084-0.638-0.093-1.079c-0.011-0.443-0.016-0.969-0.016-1.575V27.019z
				 M48.192,23.414c-0.288,0.015-0.534,0.049-0.742,0.1c-0.371,0.092-0.632,0.276-0.787,0.548c-0.153,0.273-0.23,0.682-0.23,1.228
				v3.55c0,0.546,0.077,0.955,0.23,1.228c0.155,0.272,0.416,0.456,0.787,0.548c0.208,0.052,0.454,0.085,0.742,0.101
				c0.288,0.016,0.591,0.022,0.913,0.022c0.317,0,0.621-0.007,0.909-0.022c0.288-0.016,0.537-0.049,0.741-0.101
				c0.37-0.092,0.633-0.275,0.787-0.548c0.154-0.273,0.233-0.681,0.233-1.228v-3.55c0-0.546-0.079-0.955-0.233-1.228
				c-0.154-0.272-0.417-0.456-0.787-0.548c-0.205-0.051-0.454-0.085-0.741-0.1c-0.288-0.016-0.592-0.024-0.909-0.024
				C48.783,23.39,48.48,23.398,48.192,23.414z"/>
			<path fill="#88C7D7" d="M55.357,21.491h5.741c0.29,0,0.573,0.058,0.851,0.17c0.278,0.113,0.552,0.309,0.818,0.587
				c0.464,0.484,0.709,1.215,0.741,2.192v0.356c0,0.906-0.107,1.563-0.324,1.975c-0.145,0.206-0.295,0.393-0.45,0.563
				c-0.153,0.171-0.363,0.328-0.633,0.471c-0.008,0.011-0.021,0.026-0.037,0.046c-0.015,0.021-0.021,0.047-0.021,0.077
				c0,0.02,0.005,0.042,0.014,0.062c0.238,0.308,0.405,0.579,0.503,0.81c0.099,0.231,0.189,0.472,0.271,0.719l0.847,2.608
				c0.021,0.083,0.06,0.159,0.118,0.225c0.055,0.067,0.083,0.111,0.083,0.131c0,0.051-0.031,0.078-0.094,0.078h-2.129
				c-0.062,0-0.13-0.055-0.201-0.163c-0.073-0.107-0.119-0.198-0.14-0.271l-0.955-2.702c-0.146-0.576-0.44-0.895-0.881-0.957h-1.886
				c-0.103,0-0.153,0.052-0.153,0.154v3.783c0,0.102-0.05,0.155-0.155,0.155h-1.928c-0.103,0-0.154-0.053-0.154-0.155V21.646
				C55.203,21.543,55.255,21.491,55.357,21.491z M57.594,23.499c-0.103,0-0.153,0.051-0.153,0.154v2.517
				c0,0.102,0.057,0.153,0.171,0.153h2.794c0.145,0,0.302-0.071,0.479-0.215c0.144-0.125,0.254-0.304,0.331-0.54
				c0.077-0.237,0.117-0.5,0.117-0.789c0-0.144-0.006-0.275-0.023-0.393c-0.017-0.117-0.049-0.229-0.102-0.332
				c-0.163-0.339-0.358-0.525-0.587-0.556H57.594z"/>
			<path fill="#88C7D7" d="M65.179,21.491h1.925c0.105,0,0.156,0.052,0.156,0.155v10.761c0,0.102-0.051,0.155-0.156,0.155h-1.925
				c-0.105,0-0.156-0.053-0.156-0.155V21.646C65.022,21.543,65.073,21.491,65.179,21.491z M72.756,21.539
				c0.021,0.031,0.01,0.082-0.03,0.154l-2.87,4.924c-0.022,0.021-0.055,0.073-0.101,0.154c-0.048,0.083-0.072,0.135-0.072,0.156
				c0,0.03,0.021,0.082,0.054,0.154c0.037,0.071,0.066,0.123,0.085,0.155l2.996,5.125c0.042,0.071,0.052,0.123,0.032,0.154
				s-0.047,0.046-0.078,0.046h-2.346c-0.043,0-0.072-0.015-0.093-0.046c-0.019-0.031-0.036-0.056-0.048-0.077l-2.421-4.322
				c-0.309-0.536-0.468-0.922-0.468-1.159c0-0.041,0.008-0.084,0.017-0.131c0.013-0.046,0.033-0.113,0.062-0.2
				c0.031-0.088,0.081-0.193,0.14-0.317c0.062-0.122,0.146-0.282,0.25-0.478l2.328-4.215c0.012-0.021,0.026-0.045,0.047-0.077
				c0.022-0.031,0.052-0.047,0.094-0.047h2.347C72.709,21.491,72.735,21.507,72.756,21.539z"/>
		</g>
	</g>
	<g display="inline">
		<path fill="#88C7D7" d="M83.543,96.959H20.091c-6.183,0-11.213-5.03-11.213-11.211V20.253c0-6.182,5.03-11.211,11.213-11.211
			h63.452c6.182,0,11.211,5.03,11.211,11.211v65.495C94.754,91.929,89.725,96.959,83.543,96.959z M20.091,13.757
			c-3.583,0-6.499,2.914-6.499,6.496v65.495c0,3.58,2.915,6.494,6.499,6.494h63.452c3.582,0,6.496-2.914,6.496-6.494V20.253
			c0-3.583-2.914-6.496-6.496-6.496H20.091z"/>
	</g>
	<g display="inline">
		<path fill-rule="evenodd" clip-rule="evenodd" fill="#88C7D7" d="M52.234,76.331c-6.516,0-13.03,0.001-19.547,0
			c-3.656,0-6.149-2.491-6.153-6.159c-0.006-8.371-0.006-16.74,0-25.109c0.003-3.642,2.468-6.14,6.102-6.143
			c13.076-0.012,26.153-0.012,39.23,0c3.64,0.003,6.112,2.496,6.117,6.126c0.005,8.394,0.005,16.788,0,25.18
			c-0.005,3.614-2.515,6.105-6.136,6.105C65.312,76.332,58.771,76.331,52.234,76.331z M52.254,71.646c6.467,0,12.936,0,19.405-0.002
			c1.312,0,1.63-0.322,1.63-1.649c0-8.253,0-16.505,0-24.76c0-1.283-0.331-1.625-1.583-1.625c-12.959-0.001-25.919-0.001-38.88,0
			c-1.257,0-1.596,0.343-1.596,1.613c-0.001,8.252-0.001,16.506,0,24.764c0,1.35,0.312,1.66,1.686,1.66
			C39.362,71.646,45.81,71.646,52.254,71.646z"/>
		<path fill-rule="evenodd" clip-rule="evenodd" fill="#88C7D7" d="M17.193,78.715c23.383,0,46.701,0,70.056,0
			c0,1.344,0.106,2.714-0.055,4.048c-0.064,0.55-0.615,1.128-1.093,1.527c-1.074,0.91-2.406,1.246-3.796,1.355
			c-0.346,0.028-0.698,0.024-1.044,0.024c-19.336,0-38.676-0.002-58.012,0.004c-1.681,0-3.271-0.273-4.688-1.247
			c-0.925-0.636-1.428-1.469-1.378-2.632C17.227,80.781,17.193,79.766,17.193,78.715z M52.276,82.176c0.922,0,1.847-0.006,2.768,0
			c0.393,0.005,0.685-0.097,0.704-0.559c0.019-0.475-0.27-0.595-0.662-0.597c-1.872-0.001-3.739-0.003-5.612,0
			c-0.372,0-0.704,0.065-0.704,0.554c0,0.505,0.308,0.607,0.732,0.602C50.425,82.167,51.351,82.176,52.276,82.176z"/>
		<path fill-rule="evenodd" clip-rule="evenodd" fill="#FFFFFF" d="M52.254,71.646c-6.444,0-12.892,0-19.338,0
			c-1.374,0-1.686-0.311-1.686-1.66c-0.001-8.258-0.001-16.511,0-24.764c0-1.27,0.338-1.613,1.596-1.613
			c12.96-0.001,25.921-0.001,38.88,0c1.252,0,1.583,0.343,1.583,1.625c0,8.254,0,16.507,0,24.76c0,1.327-0.317,1.649-1.63,1.649
			C65.189,71.646,58.721,71.646,52.254,71.646z"/>
		<path fill-rule="evenodd" clip-rule="evenodd" fill="#FFFFFF" d="M52.276,82.176c-0.925,0-1.852-0.009-2.774,0
			c-0.424,0.006-0.732-0.097-0.732-0.602c0-0.488,0.333-0.554,0.704-0.554c1.873-0.003,3.74-0.001,5.612,0
			c0.393,0.002,0.681,0.122,0.662,0.597c-0.02,0.462-0.312,0.563-0.704,0.559C54.123,82.17,53.198,82.176,52.276,82.176z"/>
	</g>
	<g display="inline">
		<path fill="#88C7D7" d="M51.104,51.013c3.733-0.269,7.554,1.128,10.218,3.758c0.35,0.359,0.305,0.989-0.063,1.317
			c-0.341,0.4-1.016,0.407-1.365,0.017c-2.281-2.194-5.499-3.38-8.658-3.145c-2.627,0.17-5.168,1.301-7.075,3.111
			c-0.167,0.175-0.387,0.316-0.635,0.329c-0.625,0.071-1.199-0.58-1.066-1.189c0.04-0.218,0.18-0.402,0.341-0.548
			C45.029,52.526,48.024,51.217,51.104,51.013z"/>
		<path fill="#88C7D7" d="M51.013,54.676c2.858-0.313,5.83,0.742,7.855,2.784c0.315,0.363,0.276,0.953-0.074,1.278
			c-0.321,0.392-0.968,0.437-1.33,0.08c-1.295-1.278-3.048-2.088-4.868-2.221c-2.202-0.185-4.459,0.654-6.028,2.207
			c-0.365,0.385-1.039,0.342-1.363-0.066c-0.353-0.331-0.382-0.939-0.044-1.293C46.716,55.893,48.823,54.897,51.013,54.676z"/>
		<path fill="#88C7D7" d="M51.433,58.287c1.807-0.18,3.672,0.511,4.928,1.817c0.345,0.36,0.306,0.975-0.056,1.306
			c-0.33,0.396-0.99,0.425-1.349,0.053c-0.708-0.728-1.687-1.188-2.703-1.241c-1.154-0.082-2.32,0.374-3.137,1.181
			c-0.2,0.23-0.499,0.366-0.806,0.331c-0.711-0.051-1.204-1-0.715-1.565C48.585,59.093,49.988,58.429,51.433,58.287z"/>
		<path fill="#88C7D7" d="M51.712,61.661c1.166-0.195,2.343,0.766,2.38,1.943c0.111,1.156-0.91,2.256-2.072,2.229
			c-1.043,0.035-2.012-0.828-2.102-1.867C49.769,62.876,50.621,61.785,51.712,61.661z"/>
	</g>
</g>
<g id="Layer_5" display="none">
	<g display="inline">
		<path fill-rule="evenodd" clip-rule="evenodd" fill="#A1CFD7" d="M59.678,36.803c-4.98,3.569-9.969,7.061-14.853,10.692
			c-1.707,1.269-2.926,3.038-2.819,5.323c0.077,1.708,0.948,3.143,2.015,4.43c1.822,2.19,3.685,4.35,5.527,6.522
			c0.258,0.308,0.392,0.597-0.081,0.867c-5.127,2.921-10.215,5.914-15.394,8.74c-1.552,0.849-3.357,1.021-5.015-0.039
			c-0.296-0.191-0.563-0.452-0.801-0.717c-0.952-1.08-2.233-1.273-3.217-0.465c-1.008,0.829-1.132,2.243-0.192,3.328
			c2.164,2.49,4.927,3.28,8.146,2.825c2.264-0.321,4.133-1.479,6.046-2.585c4.303-2.494,8.612-4.986,12.93-7.459
			c5.178-2.96,10.366-5.899,15.543-8.854c4.029-2.304,8.045-4.635,12.08-6.925c1.041-0.59,1.604-1.365,1.441-2.604
			c-0.176-1.31-1.74-2.245-2.906-1.612c-2.568,1.396-5.107,2.851-7.646,4.302c-3.293,1.877-6.574,3.773-9.863,5.663
			c-1.402,0.802-2.82,1.579-4.205,2.413c-0.535,0.328-0.93,0.286-1.307-0.197c-1.332-1.713-2.649-3.439-4.005-5.13
			c-0.85-1.062-0.745-2.7,0.463-3.512c2.028-1.363,4.079-2.69,6.077-4.092c3.32-2.325,4.867-6.549,2.508-10.405
			C60.053,37.152,59.891,37.031,59.678,36.803z"/>
		<path fill-rule="evenodd" clip-rule="evenodd" fill="#A1CFD7" d="M67.438,25.061c-0.537,0.201-1.092,0.368-1.609,0.612
			c-0.391,0.182-0.604,0.059-0.824-0.249c-0.289-0.39-0.639-0.739-0.896-1.147c-0.328-0.52-0.615-0.342-0.916-0.011
			c-0.523,0.575-0.629,1.292-0.496,2.001c0.139,0.733-0.053,1.182-0.682,1.615c-1.824,1.264-3.598,2.601-5.385,3.917
			c-0.334,0.249-0.588,0.295-0.957-0.021c-1.967-1.685-4.274-2.682-6.766-3.341c-2.188-0.582-4.4-0.773-6.625-0.572
			c-1.838,0.166-3.379,0.986-4.291,2.722c-0.549,1.05-0.574,2.172-0.405,3.284c0.197,1.266,0.495,2.517,0.803,3.76
			c0.37,1.49,0.797,2.965,1.216,4.506c-1.922,1.31-3.888,2.585-5.77,3.968c-0.94,0.691-1.759,1.561-2.568,2.411
			c-0.342,0.364-0.57,0.978-0.166,1.376c0.296,0.291,0.903,0.5,1.3,0.417c1.146-0.241,2.306-0.545,3.38-1.012
			c2.213-0.966,4.366-2.074,6.561-3.085c1.809-0.832,2.485-2.291,2.426-4.182c-0.03-0.95-0.097-1.896-0.159-3.028
			c0.788,0.312,1.45,0.565,2.105,0.834c0.334,0.139,0.649,0.384,0.995,0.432c0.341,0.049,0.794,0.023,1.054-0.165
			c4.657-3.376,9.294-6.782,13.929-10.183c0.178-0.128,0.332-0.28,0.502-0.417c0.451-0.365,0.846-0.485,1.428-0.115
			c0.752,0.476,1.59,0.842,2.545,0.387c0.482-0.229,0.574-0.471,0.252-0.887c-0.211-0.265-0.408-0.539-0.613-0.811
			c-0.719-0.957-0.717-0.954,0.023-1.884c0.26-0.325,0.506-0.66,0.762-0.992C67.539,25.157,67.488,25.109,67.438,25.061z"/>
		<path fill-rule="evenodd" clip-rule="evenodd" fill="#A1CFD7" d="M31.84,31.421c2.897,0.179,5.07-2.526,5.066-5
			c-0.004-3.107-2.451-5.194-5.155-5.167c-2.834,0.03-5.082,2.236-5.071,5.183C26.693,29.103,28.934,31.591,31.84,31.421z"/>
	</g>
	<g display="inline">
		<g>
			<path fill="#A1CFD7" d="M42.97,81.375c-0.344-0.596-0.463-1.173-0.354-1.731c0.107-0.561,0.466-1.018,1.079-1.374l4.446-2.581
				c0.112-0.063,0.194-0.054,0.245,0.035l0.837,1.441c0.05,0.087,0.033,0.157-0.056,0.207l-4.339,2.521
				c-0.086,0.051-0.105,0.124-0.049,0.219l1.036,1.783c0.05,0.089,0.121,0.106,0.208,0.057l4.025-2.336
				c0.089-0.051,0.158-0.033,0.208,0.053l0.876,1.509c0.051,0.087,0.031,0.155-0.056,0.207l-4.027,2.337
				c-0.086,0.051-0.104,0.119-0.053,0.208l1.104,1.9c0.05,0.088,0.119,0.106,0.206,0.056l4.341-2.519
				c0.088-0.052,0.159-0.034,0.208,0.056l0.838,1.441c0.051,0.087,0.033,0.155-0.055,0.207l-5.076,2.944
				c-0.157,0.092-0.339,0.141-0.544,0.15c-0.206,0.008-0.409-0.02-0.608-0.078c-0.196-0.06-0.381-0.151-0.547-0.267
				c-0.17-0.121-0.302-0.264-0.399-0.43L42.97,81.375z"/>
			<path fill="#A1CFD7" d="M50.492,76.903c-0.199-0.343-0.336-0.651-0.419-0.934c-0.081-0.279-0.091-0.538-0.029-0.777
				c0.058-0.238,0.192-0.469,0.397-0.687c0.207-0.221,0.497-0.44,0.874-0.656c0.548-0.318,1-0.466,1.353-0.435
				c0.348,0.03,0.658,0.172,0.924,0.428l5.516,5.46c0.078,0.07,0.146,0.088,0.207,0.054c0.062-0.035,0.066-0.098,0.016-0.186
				l-4.254-7.328c-0.049-0.089-0.031-0.158,0.053-0.208l1.643-0.952c0.088-0.051,0.154-0.032,0.205,0.057l4.508,7.762
				c0.102,0.176,0.168,0.371,0.199,0.585c0.029,0.216,0.031,0.432,0,0.647c-0.033,0.219-0.104,0.42-0.211,0.606
				c-0.109,0.185-0.254,0.331-0.439,0.439l-1.207,0.699c-0.104,0.059-0.232,0.097-0.383,0.108s-0.305,0.003-0.463-0.029
				c-0.158-0.03-0.311-0.079-0.455-0.149c-0.145-0.066-0.27-0.151-0.377-0.254l-5.552-5.489c-0.074-0.064-0.135-0.08-0.185-0.049
				c-0.062,0.035-0.072,0.091-0.025,0.172l4.27,7.354c0.051,0.088,0.033,0.157-0.055,0.208l-1.639,0.951
				c-0.088,0.051-0.158,0.03-0.209-0.058L50.492,76.903z"/>
			<path fill="#A1CFD7" d="M62.086,78.062c-0.051-0.089-0.033-0.156,0.055-0.207l2.57-1.492c0.104-0.06,0.191-0.156,0.262-0.291
				c0.066-0.134,0.117-0.277,0.152-0.431c0.033-0.154,0.047-0.307,0.041-0.454c-0.002-0.148-0.033-0.272-0.09-0.368l-3.812-6.569
				c-0.051-0.088-0.033-0.157,0.057-0.207l1.639-0.951c0.084-0.052,0.156-0.034,0.209,0.054l3.658,6.309
				c0.598,1.03,0.736,1.956,0.416,2.771c-0.32,0.818-1.09,1.581-2.316,2.292l-1.793,1.043c-0.09,0.05-0.158,0.032-0.211-0.057
				L62.086,78.062z"/>
			<path fill="#A1CFD7" d="M66.783,71.145c-0.297-0.513-0.553-0.962-0.762-1.342c-0.209-0.383-0.361-0.702-0.455-0.965
				c-0.127-0.382-0.23-0.729-0.311-1.048c-0.078-0.316-0.102-0.6-0.072-0.853c0.043-0.328,0.145-0.653,0.307-0.976
				c0.166-0.324,0.375-0.604,0.633-0.847c0.184-0.167,0.445-0.353,0.779-0.561c0.336-0.205,0.738-0.445,1.213-0.721
				c0.473-0.272,0.881-0.505,1.227-0.694c0.346-0.19,0.637-0.322,0.873-0.4c0.336-0.102,0.688-0.145,1.047-0.127
				c0.361,0.019,0.695,0.092,1.002,0.217c0.232,0.101,0.467,0.26,0.703,0.486c0.236,0.226,0.488,0.487,0.756,0.789
				c0.182,0.21,0.387,0.501,0.613,0.871c0.227,0.372,0.488,0.815,0.789,1.328l0.043,0.08c0.301,0.516,0.557,0.966,0.764,1.348
				c0.209,0.379,0.361,0.7,0.455,0.963c0.127,0.381,0.232,0.73,0.309,1.046c0.08,0.317,0.104,0.601,0.072,0.851
				c-0.041,0.33-0.145,0.655-0.305,0.978c-0.166,0.324-0.377,0.607-0.633,0.848c-0.184,0.165-0.443,0.353-0.779,0.56
				c-0.336,0.206-0.74,0.445-1.213,0.719c-0.473,0.275-0.881,0.508-1.227,0.696c-0.348,0.188-0.639,0.321-0.873,0.4
				c-0.336,0.104-0.686,0.144-1.047,0.125c-0.363-0.017-0.695-0.087-1.004-0.214c-0.23-0.098-0.465-0.261-0.701-0.487
				c-0.238-0.226-0.49-0.486-0.756-0.787c-0.18-0.211-0.387-0.503-0.613-0.871c-0.227-0.374-0.488-0.816-0.789-1.332L66.783,71.145z
				 M68.402,66.112c-0.236,0.157-0.428,0.306-0.578,0.449c-0.27,0.263-0.402,0.548-0.4,0.855c0.006,0.309,0.141,0.693,0.41,1.158
				l1.75,3.015c0.268,0.465,0.537,0.772,0.803,0.928c0.264,0.155,0.576,0.183,0.936,0.077c0.203-0.058,0.428-0.149,0.682-0.279
				s0.51-0.271,0.783-0.429c0.271-0.157,0.525-0.315,0.762-0.47c0.238-0.154,0.432-0.305,0.582-0.451
				c0.268-0.26,0.402-0.545,0.396-0.853c-0.002-0.307-0.139-0.693-0.406-1.156l-1.752-3.016c-0.268-0.464-0.535-0.772-0.801-0.928
				c-0.266-0.157-0.578-0.183-0.938-0.08c-0.201,0.06-0.426,0.154-0.68,0.279c-0.252,0.131-0.516,0.274-0.785,0.432
				C68.895,65.802,68.639,65.957,68.402,66.112z"/>
			<path fill="#A1CFD7" d="M81.385,68.966c-0.131,0.077-0.262,0.005-0.389-0.211l-1.695-2.927c-0.104,0.025-0.246,0.037-0.428,0.037
				c-0.182-0.001-0.369-0.057-0.561-0.166l-5.666-3.967c-0.146-0.091-0.164-0.169-0.051-0.234l1.809-1.051
				c0.107-0.061,0.211-0.052,0.316,0.028l4.205,2.958c0.094,0.063,0.191,0.064,0.287,0.01c0.062-0.036,0.096-0.071,0.104-0.106
				c0.012-0.033,0.021-0.084,0.029-0.147l-0.533-5.056c-0.018-0.151,0.021-0.254,0.115-0.312l1.771-1.028
				c0.062-0.035,0.111-0.036,0.146-0.005c0.035,0.032,0.059,0.075,0.066,0.13l0.719,6.856c-0.027,0.236-0.072,0.428-0.141,0.572
				c-0.07,0.144-0.145,0.259-0.225,0.339l1.697,2.925c0.127,0.22,0.129,0.365,0.01,0.434L81.385,68.966z"/>
		</g>
	</g>
	<g display="inline">
		<path fill="#A1CFD7" d="M83.162,95.939H20.139C13.997,95.939,9,90.965,9,84.852V20.087C9,13.974,13.997,9,20.139,9h63.023
			c6.143,0,11.139,4.974,11.139,11.087v64.765C94.301,90.965,89.305,95.939,83.162,95.939z M20.139,13.664
			c-3.558,0-6.455,2.88-6.455,6.423v64.765c0,3.544,2.897,6.425,6.455,6.425h63.023c3.559,0,6.453-2.881,6.453-6.425V20.087
			c0-3.543-2.895-6.423-6.453-6.423H20.139z"/>
	</g>
</g>
<g id="Layer_6" display="none">
	<g display="inline">
		<path fill-rule="evenodd" clip-rule="evenodd" fill="#A1CFD7" d="M17.462,25.717c2.613,0.915,5.208,1.883,7.847,2.721
			c1.968,0.626,3.817,0.208,5.659-0.777c3.305-1.76,6.619-3.543,10.083-4.936c2.947-1.181,5.787-0.381,8.344,1.855
			c-0.552,0.316-1.001,0.571-1.449,0.835c-2.468,1.447-4.984,2.815-7.385,4.362c-2.759,1.785-3.887,4.58-3.228,7.494
			c0.632,2.787,2.952,4.983,5.944,5.198c1.266,0.094,2.64-0.333,3.854-0.811c2.246-0.879,4.394-1.995,6.596-2.977
			c2.05-0.915,3.66-0.635,5.265,0.961c4.227,4.188,8.442,8.396,12.646,12.605c1.374,1.378,1.462,3.217,0.276,4.441
			c-1.176,1.214-3.032,1.167-4.435-0.157c-1.271-1.197-2.478-2.457-3.737-3.667c-0.365-0.355-0.81-0.631-1.22-0.943
			c-0.111,0.08-0.219,0.162-0.322,0.245c0.22,0.416,0.369,0.901,0.681,1.235c1.203,1.322,2.476,2.586,3.695,3.894
			c1.1,1.186,1.311,2.604,0.62,3.809c-0.646,1.127-1.884,1.736-3.202,1.349c-0.686-0.207-1.354-0.662-1.89-1.159
			c-1.31-1.212-2.53-2.53-3.81-3.781c-0.535-0.519-1.13-0.977-1.691-1.464c-0.119,0.082-0.225,0.163-0.334,0.246
			c0.262,0.451,0.465,0.956,0.805,1.339c1.145,1.259,2.336,2.47,3.508,3.707c1.437,1.524,1.535,3.283,0.265,4.534
			c-1.272,1.246-3.015,1.104-4.513-0.388c-1.328-1.332-2.633-2.685-3.969-4.003c-0.391-0.387-0.864-0.688-1.296-1.022
			c-0.126,0.097-0.239,0.189-0.357,0.282c0.269,0.429,0.479,0.916,0.821,1.282c1.027,1.127,2.145,2.165,3.139,3.314
			c1.08,1.241,1.182,2.512,0.435,3.691c-0.708,1.127-1.941,1.6-3.246,1.256c-1.499-0.399-2.817-2.146-2.864-3.673
			c-0.075-2.786-1.349-4.819-3.86-6.115c-0.528-0.274-1.038-0.821-1.283-1.37c-0.719-1.573-1.793-2.727-3.312-3.551
			c-0.497-0.273-0.994-0.752-1.234-1.255c-0.718-1.526-1.798-2.629-3.285-3.398c-0.438-0.226-0.907-0.611-1.093-1.042
			c-1.2-2.779-3.375-4.164-6.291-4.229c-2.983-0.066-5.35,1.238-6.892,3.869c-0.203,0.343-0.368,0.706-0.581,1.125
			c-1.251-0.353-2.479-0.694-3.704-1.033C17.462,41.652,17.462,33.684,17.462,25.717z"/>
		<path fill-rule="evenodd" clip-rule="evenodd" fill="#A1CFD7" d="M86.194,48.81c-2.201,0.393-4.394,0.788-6.596,1.185
			c-1.991,0.366-3.674-0.174-5.122-1.627c-4.436-4.422-8.912-8.811-13.369-13.208c-1.92-1.899-3.476-2.202-5.93-0.979
			c-2.999,1.494-5.956,3.067-8.922,4.628c-1.441,0.756-2.888,0.956-4.336,0.086c-2.482-1.495-2.567-5.105-0.018-6.586
			c5.681-3.304,11.434-6.468,17.167-9.673c1.89-1.056,3.698-0.871,5.365,0.491c2.488,2.045,4.975,4.088,7.433,6.172
			c1.183,0.998,2.48,1.368,3.975,1.045c3.456-0.736,6.902-1.472,10.353-2.207C86.194,35.022,86.194,41.914,86.194,48.81z"/>
		<path fill-rule="evenodd" clip-rule="evenodd" fill="#A1CFD7" d="M37.818,66.104c-4.913,1.187-6.094-0.671-4.811-4.617
			c-1.462,0.138-2.965,1.069-4.271-0.335c-1.252-1.352-0.671-2.736-0.019-4.312c-0.724,0.137-1.224,0.219-1.725,0.32
			c-1.968,0.42-3.479-0.728-3.562-2.709c-0.087-1.943,1.7-4.628,3.533-5.295c2.721-1.001,5.114,0.719,5.057,3.629
			c-0.006,0.22-0.022,0.439-0.019,0.424c1.258,0.504,2.679,0.692,3.49,1.495c0.777,0.767,0.924,2.167,1.403,3.442
			c3.456,0.463,4.378,1.539,3.968,5.074c0.258-0.012,0.502-0.012,0.747-0.037c2.971-0.292,4.928,2.343,3.798,5.109
			c-0.881,2.157-3.789,3.639-6.102,3.105c-1.812-0.419-2.638-1.872-2.071-3.653C37.407,67.211,37.609,66.685,37.818,66.104z"/>
	</g>
	<g display="inline">
		<path fill="#A1CFD7" d="M18.163,76.587c0-0.398,0.034-0.738,0.107-1.024c0.071-0.285,0.193-0.516,0.367-0.695
			c0.173-0.178,0.404-0.31,0.695-0.396c0.29-0.087,0.653-0.13,1.091-0.13c0.642,0,1.108,0.104,1.397,0.306
			c0.291,0.204,0.487,0.482,0.587,0.84l2.047,7.545c0.031,0.1,0.083,0.151,0.153,0.151c0.072,0,0.106-0.052,0.106-0.151v-8.54
			c0-0.1,0.051-0.15,0.154-0.15h1.909c0.101,0,0.151,0.051,0.151,0.15v9.044c0,0.203-0.04,0.406-0.121,0.611
			c-0.083,0.203-0.191,0.389-0.329,0.562c-0.139,0.174-0.3,0.317-0.49,0.423c-0.188,0.106-0.389,0.159-0.602,0.159h-1.406
			c-0.122,0-0.252-0.03-0.389-0.099c-0.138-0.064-0.267-0.152-0.389-0.259c-0.123-0.107-0.229-0.229-0.321-0.357
			c-0.092-0.134-0.158-0.271-0.198-0.413l-2.062-7.591c-0.03-0.094-0.076-0.136-0.137-0.136c-0.071,0-0.106,0.042-0.106,0.136v8.567
			c0,0.103-0.051,0.151-0.153,0.151h-1.909c-0.103,0-0.153-0.049-0.153-0.151V76.587z"/>
		<path fill="#A1CFD7" d="M28.166,76.68c0-0.693,0.188-1.257,0.565-1.69c0.377-0.432,0.921-0.648,1.634-0.648h5.178
			c0.131,0,0.198,0.051,0.198,0.15v1.684c0,0.1-0.051,0.151-0.152,0.151h-5.055c-0.101,0-0.152,0.056-0.152,0.171v2.076
			c0,0.1,0.052,0.153,0.152,0.153h4.688c0.103,0,0.153,0.047,0.153,0.151v1.755c0,0.104-0.05,0.151-0.153,0.151h-4.688
			c-0.101,0-0.152,0.055-0.152,0.155v2.214c0,0.101,0.052,0.15,0.152,0.15h5.055c0.102,0,0.152,0.053,0.152,0.157v1.678
			c0,0.103-0.051,0.151-0.152,0.151h-5.911c-0.182,0-0.366-0.047-0.549-0.144c-0.183-0.098-0.347-0.223-0.489-0.374
			c-0.143-0.154-0.257-0.325-0.344-0.511c-0.087-0.19-0.13-0.38-0.13-0.574V76.68z"/>
		<path fill="#A1CFD7" d="M41.667,85.139c0,0.103-0.051,0.151-0.153,0.151h-1.909c-0.102,0-0.153-0.049-0.153-0.151v-8.661
			c0-0.1-0.05-0.151-0.153-0.151H36.81c-0.102,0-0.151-0.052-0.151-0.151v-1.684c0-0.1,0.05-0.15,0.151-0.15h7.5
			c0.102,0,0.153,0.051,0.153,0.15v1.684c0,0.1-0.051,0.151-0.153,0.151h-2.49c-0.102,0-0.152,0.052-0.152,0.151V85.139z"/>
		<path fill="#A1CFD7" d="M55.642,74.341h1.847c0.093,0,0.144,0.041,0.154,0.123l-1.359,9.79c-0.062,0.405-0.28,0.701-0.658,0.885
			c-0.214,0.063-0.424,0.104-0.634,0.129c-0.208,0.024-0.424,0.039-0.648,0.039c-0.407,0-0.814-0.045-1.223-0.136
			c-0.397-0.151-0.681-0.413-0.854-0.779c-0.245-2.251-0.434-3.953-0.565-5.111c-0.132-1.153-0.215-1.741-0.244-1.763l-0.825,6.767
			c-0.123,0.498-0.377,0.78-0.765,0.837c-0.396,0.104-0.803,0.155-1.22,0.155c-0.419,0-0.825-0.051-1.223-0.155
			c-0.479-0.243-0.748-0.586-0.808-1.02l-1.376-9.59c0-0.085,0.037-0.142,0.107-0.171h1.986c0.091,0,0.138,0.047,0.138,0.136
			l1.024,7.777c0.08,0.558,0.146,0.839,0.198,0.839c0.041,0,0.092-0.229,0.152-0.688l0.749-7.194
			c0.204-0.387,0.539-0.655,1.007-0.809c0.132-0.042,0.362-0.062,0.688-0.062h0.747c0.276,0.051,0.522,0.146,0.734,0.29
			c0.295,0.267,0.461,0.489,0.489,0.671l0.903,6.967c0.06,0.508,0.12,0.763,0.182,0.763s0.127-0.3,0.197-0.9l0.871-7.654
			C55.411,74.388,55.489,74.341,55.642,74.341z"/>
		<path fill="#A1CFD7" d="M58.269,79.808c0-0.6,0.005-1.118,0.015-1.557c0.011-0.437,0.041-0.794,0.091-1.069
			c0.082-0.398,0.167-0.751,0.26-1.068c0.091-0.316,0.215-0.575,0.367-0.779c0.203-0.265,0.457-0.497,0.764-0.693
			c0.305-0.198,0.632-0.339,0.977-0.423c0.244-0.052,0.565-0.076,0.963-0.091c0.397-0.008,0.871-0.016,1.42-0.016
			c0.551,0,1.023,0.008,1.421,0.016c0.396,0.015,0.719,0.039,0.96,0.091c0.347,0.084,0.675,0.225,0.979,0.423
			c0.307,0.196,0.559,0.429,0.765,0.693c0.15,0.204,0.274,0.463,0.366,0.779c0.092,0.317,0.178,0.67,0.259,1.068
			c0.051,0.275,0.081,0.633,0.092,1.069c0.01,0.438,0.016,0.957,0.016,1.557v0.094c0,0.602-0.006,1.118-0.016,1.558
			c-0.011,0.437-0.041,0.795-0.092,1.066c-0.081,0.397-0.167,0.755-0.259,1.07c-0.092,0.317-0.216,0.578-0.366,0.779
			c-0.206,0.265-0.458,0.496-0.765,0.693c-0.305,0.199-0.633,0.341-0.979,0.419c-0.241,0.056-0.564,0.085-0.96,0.094
			c-0.397,0.01-0.87,0.014-1.421,0.014c-0.549,0-1.022-0.004-1.42-0.014c-0.397-0.009-0.719-0.038-0.963-0.094
			c-0.345-0.078-0.672-0.22-0.977-0.419c-0.307-0.197-0.561-0.429-0.764-0.693c-0.152-0.201-0.276-0.462-0.367-0.779
			c-0.093-0.315-0.178-0.673-0.26-1.07c-0.05-0.271-0.08-0.63-0.091-1.066c-0.01-0.439-0.015-0.956-0.015-1.558V79.808z
			 M62.222,76.242c-0.284,0.018-0.53,0.048-0.73,0.099c-0.366,0.095-0.626,0.272-0.779,0.545c-0.155,0.27-0.23,0.674-0.23,1.214
			v3.51c0,0.541,0.075,0.945,0.23,1.217c0.153,0.269,0.413,0.45,0.779,0.54c0.2,0.054,0.446,0.085,0.73,0.101
			c0.287,0.016,0.588,0.021,0.902,0.021c0.318,0,0.617-0.005,0.902-0.021c0.284-0.016,0.529-0.047,0.733-0.101
			c0.366-0.09,0.625-0.271,0.776-0.54c0.153-0.271,0.23-0.676,0.23-1.217V78.1c0-0.54-0.077-0.944-0.23-1.214
			c-0.151-0.272-0.41-0.45-0.776-0.545c-0.204-0.051-0.449-0.081-0.733-0.099c-0.285-0.017-0.584-0.023-0.902-0.023
			C62.81,76.219,62.509,76.226,62.222,76.242z"/>
		<path fill="#A1CFD7" d="M69.31,74.341h5.682c0.284,0,0.565,0.06,0.84,0.171c0.275,0.109,0.545,0.303,0.81,0.58
			c0.457,0.478,0.704,1.198,0.732,2.167v0.349c0,0.9-0.106,1.55-0.321,1.956c-0.144,0.203-0.287,0.389-0.44,0.558
			c-0.152,0.169-0.363,0.323-0.626,0.468c-0.014,0.008-0.024,0.023-0.038,0.044c-0.019,0.02-0.023,0.046-0.023,0.076
			c0,0.021,0.003,0.041,0.015,0.061c0.233,0.306,0.399,0.573,0.497,0.804c0.097,0.229,0.185,0.465,0.267,0.709l0.84,2.583
			c0.021,0.08,0.058,0.154,0.114,0.222c0.057,0.065,0.085,0.108,0.085,0.129c0,0.05-0.032,0.074-0.092,0.074H75.54
			c-0.062,0-0.127-0.053-0.196-0.159c-0.072-0.105-0.118-0.196-0.139-0.266l-0.946-2.675c-0.145-0.569-0.432-0.885-0.87-0.947
			h-1.864c-0.102,0-0.153,0.053-0.153,0.153v3.742c0,0.103-0.051,0.151-0.154,0.151H69.31c-0.101,0-0.154-0.049-0.154-0.151V74.491
			C69.155,74.392,69.209,74.341,69.31,74.341z M71.524,76.326c-0.102,0-0.153,0.052-0.153,0.151v2.489
			c0,0.104,0.056,0.156,0.167,0.156h2.767c0.144,0,0.3-0.071,0.474-0.215c0.139-0.126,0.253-0.301,0.326-0.534
			c0.08-0.233,0.115-0.492,0.115-0.779c0-0.142-0.007-0.273-0.023-0.391c-0.012-0.117-0.047-0.225-0.098-0.329
			c-0.166-0.334-0.358-0.519-0.58-0.549H71.524z"/>
		<path fill="#A1CFD7" d="M79.021,74.341h1.909c0.102,0,0.152,0.051,0.152,0.15v10.647c0,0.103-0.051,0.151-0.152,0.151h-1.909
			c-0.101,0-0.151-0.049-0.151-0.151V74.491C78.87,74.392,78.921,74.341,79.021,74.341z M86.52,74.388
			c0.022,0.029,0.011,0.081-0.026,0.152l-2.843,4.87c-0.022,0.021-0.053,0.071-0.101,0.153c-0.047,0.081-0.069,0.135-0.069,0.155
			c0,0.028,0.019,0.079,0.057,0.151c0.034,0.071,0.063,0.119,0.082,0.152l2.964,5.07c0.039,0.07,0.05,0.123,0.031,0.152
			c-0.023,0.031-0.047,0.045-0.077,0.045h-2.323c-0.042,0-0.07-0.014-0.091-0.045c-0.019-0.029-0.036-0.056-0.045-0.074
			l-2.398-4.278c-0.305-0.531-0.457-0.911-0.457-1.146c0-0.039,0.005-0.085,0.015-0.13c0.009-0.044,0.03-0.111,0.062-0.197
			c0.031-0.087,0.076-0.191,0.137-0.313c0.062-0.121,0.142-0.282,0.244-0.474l2.306-4.169c0.01-0.02,0.026-0.047,0.049-0.076
			c0.018-0.032,0.048-0.047,0.089-0.047h2.32C86.478,74.341,86.502,74.355,86.52,74.388z"/>
	</g>
	<g display="inline">
		<path fill="#A1CFD7" d="M83.566,96.439H20.094c-6.186,0-11.216-5.009-11.216-11.165v-65.23c0-6.16,5.031-11.168,11.216-11.168
			h63.472c6.184,0,11.213,5.009,11.213,11.168v65.23C94.779,91.431,89.75,96.439,83.566,96.439z M20.094,13.573
			c-3.584,0-6.5,2.903-6.5,6.471v65.23c0,3.568,2.916,6.471,6.5,6.471h63.472c3.585,0,6.498-2.902,6.498-6.471v-65.23
			c0-3.568-2.913-6.471-6.498-6.471H20.094z"/>
	</g>
</g>
<g id="Layer_7" display="none">
	<path display="inline" fill="#A1CFD7" d="M51.122,28.624c-9.106,0-16.485,7.381-16.485,16.487c0,8.242,8.242,16.615,8.242,24.728
		h16.487c0-8.372,8.242-16.486,8.242-24.728C67.607,36.005,60.226,28.624,51.122,28.624z M59.826,55.531
		c-1.641,3.265-3.321,6.614-4.113,10.188h-9.205c-0.793-3.468-2.434-6.765-4.039-9.983c-1.91-3.833-3.713-7.457-3.713-10.625
		c0-6.819,5.548-12.363,12.366-12.363c6.817,0,12.363,5.545,12.363,12.363C63.484,48.243,61.707,51.787,59.826,55.531z
		 M59.365,80.146c0,1.136-0.923,2.057-2.063,2.057h-0.375c-0.852,2.403-3.117,4.125-5.805,4.125c-2.688,0-4.956-1.722-5.806-4.125
		H44.94c-1.139,0-2.062-0.921-2.062-2.057c0-1.145,0.923-2.062,2.062-2.062h12.361C58.442,78.083,59.365,79.001,59.365,80.146z
		 M59.365,73.961c0,1.141-0.923,2.063-2.063,2.063H44.94c-1.139,0-2.062-0.923-2.062-2.063c0-1.138,0.923-2.06,2.062-2.06h12.361
		C58.442,71.901,59.365,72.823,59.365,73.961z M30.736,30.958l3.709,2.146c-0.804,1.117-1.501,2.3-2.073,3.565l-3.699-2.135
		L30.736,30.958z M51.122,24.503c-0.71,0-1.375,0.137-2.062,0.209v-4.331h4.122v4.331C52.495,24.64,51.829,24.503,51.122,24.503z
		 M39.114,28.435l-2.146-3.71l3.578-2.062l2.13,3.7C41.412,26.936,40.228,27.632,39.114,28.435z M69.874,36.668
		c-0.574-1.266-1.273-2.449-2.077-3.563l3.713-2.148l2.06,3.576L69.874,36.668z M63.127,28.431c-1.11-0.799-2.298-1.495-3.557-2.068
		l2.135-3.7l3.566,2.062L63.127,28.431z M30.732,47.172h-4.34V43.05h4.332c-0.072,0.688-0.21,1.353-0.21,2.061
		C30.513,45.811,30.652,46.489,30.732,47.172z M75.851,43.05v4.122h-4.339c0.08-0.684,0.218-1.362,0.218-2.062
		c0-0.708-0.138-1.373-0.21-2.061H75.851z M69.822,53.531l3.747,2.154l-2.06,3.571l-3.373-1.945
		C68.742,56.064,69.306,54.812,69.822,53.531z M32.401,53.538c0.515,1.283,1.074,2.546,1.679,3.793l-3.343,1.926l-2.063-3.571
		L32.401,53.538z"/>
	<g display="inline">
		<path fill="#A1CFD7" d="M82.952,95.604H20.171c-6.116,0-11.092-4.954-11.092-11.042V20.047C9.08,13.956,14.055,9,20.171,9h62.781
			c6.117,0,11.09,4.956,11.09,11.047v64.515C94.042,90.649,89.069,95.604,82.952,95.604z M20.171,13.645
			c-3.544,0-6.427,2.872-6.427,6.402v64.515c0,3.528,2.883,6.396,6.427,6.396h62.781c3.543,0,6.425-2.868,6.425-6.396V20.047
			c0-3.53-2.882-6.402-6.425-6.402H20.171z"/>
	</g>
	<g display="inline">
		<polygon fill="#A1CFD7" points="48.516,44.904 47.874,46.24 55.833,46.274 56.475,44.91 		"/>
		<polygon fill="#A1CFD7" points="47.884,47.821 47.224,49.225 55.195,49.241 55.833,47.853 		"/>
		<polygon fill="#A1CFD7" points="49.438,50.818 53.089,43.044 54.497,43.064 50.888,50.82 		"/>
	</g>
</g>
<g id="Layer_8" display="none">
	<g display="inline">
		<g>
			<path fill="#A1CFD7" d="M39.507,39.269c0-0.11,0.054-0.165,0.166-0.165h5.964c0.397,0,0.765,0.064,1.102,0.198
				c0.337,0.132,0.63,0.322,0.879,0.57c0.248,0.25,0.445,0.55,0.588,0.902c0.143,0.356,0.214,0.753,0.214,1.194
				c0,0.597-0.049,1.068-0.148,1.417c-0.101,0.347-0.213,0.612-0.339,0.795c-0.128,0.181-0.242,0.305-0.34,0.365
				c-0.101,0.06-0.15,0.106-0.15,0.14c0,0.054,0.085,0.17,0.257,0.346c0.17,0.177,0.363,0.383,0.572,0.615
				c0.077,0.098,0.146,0.214,0.207,0.347c0.06,0.134,0.113,0.268,0.158,0.406c0.043,0.139,0.074,0.275,0.089,0.414
				c0.019,0.139,0.027,0.257,0.027,0.355c0,0.532-0.051,1.028-0.15,1.494c-0.1,0.462-0.272,0.867-0.523,1.209
				c-0.248,0.342-0.577,0.612-0.985,0.812c-0.409,0.199-0.928,0.297-1.556,0.297h-5.865c-0.112,0-0.166-0.053-0.166-0.166V39.269z
				 M41.908,43.692c0,0.11,0.056,0.165,0.168,0.165h2.866c0.441,0,0.755-0.095,0.943-0.291c0.188-0.192,0.282-0.542,0.282-1.05
				c0-0.476-0.121-0.805-0.364-0.986c-0.244-0.183-0.531-0.274-0.861-0.274h-2.866c-0.112,0-0.168,0.056-0.168,0.167V43.692z
				 M41.908,48.664c0,0.109,0.056,0.165,0.168,0.165h3.493c0.189,0,0.345-0.051,0.465-0.149c0.121-0.099,0.222-0.224,0.298-0.373
				c0.078-0.147,0.13-0.307,0.158-0.472c0.027-0.166,0.041-0.309,0.041-0.432c0-0.252-0.028-0.464-0.089-0.637
				c-0.063-0.171-0.139-0.306-0.232-0.407c-0.095-0.098-0.2-0.167-0.315-0.206c-0.117-0.04-0.223-0.058-0.325-0.058h-3.493
				c-0.112,0-0.168,0.054-0.168,0.166V48.664z"/>
			<path fill="#A1CFD7" d="M49.978,41.638c0-0.751,0.206-1.361,0.612-1.831c0.409-0.47,1.001-0.704,1.775-0.704h5.615
				c0.143,0,0.216,0.055,0.216,0.165v1.822c0,0.111-0.057,0.166-0.167,0.166h-5.483c-0.109,0-0.166,0.062-0.166,0.183v2.253
				c0,0.11,0.057,0.165,0.166,0.165h5.086c0.111,0,0.166,0.057,0.166,0.166v1.907c0,0.11-0.055,0.166-0.166,0.166h-5.086
				c-0.109,0-0.166,0.054-0.166,0.166v2.403c0,0.109,0.057,0.165,0.166,0.165h5.483c0.11,0,0.167,0.054,0.167,0.166v1.821
				c0,0.113-0.057,0.166-0.167,0.166h-6.411c-0.199,0-0.398-0.051-0.597-0.156c-0.198-0.104-0.375-0.241-0.53-0.406
				c-0.154-0.166-0.28-0.352-0.374-0.555c-0.094-0.204-0.14-0.411-0.14-0.621V41.638z"/>
			<path fill="#A1CFD7" d="M17.505,54.883h2.069c0.113,0,0.167,0.057,0.167,0.164v11.549c0,0.111-0.053,0.166-0.167,0.166h-2.069
				c-0.111,0-0.165-0.055-0.165-0.166V55.047C17.34,54.939,17.394,54.883,17.505,54.883z"/>
			<path fill="#A1CFD7" d="M21.118,57.316c0-0.43,0.037-0.801,0.116-1.109c0.076-0.309,0.208-0.561,0.397-0.754
				c0.186-0.193,0.438-0.336,0.753-0.43c0.315-0.094,0.709-0.141,1.185-0.141c0.695,0,1.2,0.107,1.516,0.328
				c0.314,0.223,0.527,0.527,0.637,0.914l2.219,8.184c0.034,0.111,0.089,0.164,0.167,0.164c0.077,0,0.115-0.053,0.115-0.164v-9.262
				c0-0.107,0.055-0.164,0.167-0.164h2.069c0.11,0,0.166,0.057,0.166,0.164v9.809c0,0.223-0.044,0.443-0.132,0.662
				c-0.089,0.223-0.208,0.428-0.355,0.613c-0.15,0.189-0.326,0.34-0.532,0.455c-0.204,0.117-0.422,0.176-0.653,0.176H27.43
				c-0.134,0-0.275-0.037-0.423-0.109c-0.149-0.07-0.29-0.166-0.422-0.281c-0.134-0.115-0.248-0.246-0.349-0.391
				c-0.098-0.141-0.171-0.291-0.214-0.445l-2.238-8.234c-0.033-0.098-0.082-0.15-0.149-0.15c-0.076,0-0.116,0.053-0.116,0.15v9.295
				c0,0.111-0.054,0.166-0.166,0.166h-2.07c-0.111,0-0.165-0.055-0.165-0.166V57.316z"/>
			<path fill="#A1CFD7" d="M35.083,61.822c-0.342,0-0.708-0.041-1.102-0.131c-0.391-0.088-0.749-0.26-1.069-0.514
				c-0.188-0.154-0.344-0.34-0.471-0.555c-0.127-0.217-0.233-0.447-0.315-0.695c-0.083-0.248-0.144-0.504-0.181-0.764
				c-0.041-0.26-0.059-0.516-0.059-0.77c0-0.109,0-0.215,0-0.316c0-0.098,0.012-0.197,0.032-0.297
				c0.078-0.961,0.438-1.705,1.077-2.238c0.188-0.154,0.42-0.303,0.697-0.447c0.276-0.141,0.546-0.213,0.812-0.213h5.483
				c0.109,0,0.165,0.057,0.165,0.164v1.824c0,0.109-0.056,0.164-0.165,0.164H35.2c-0.154,0-0.295,0.068-0.422,0.207
				c-0.127,0.139-0.219,0.268-0.272,0.389c-0.056,0.113-0.089,0.221-0.101,0.332c-0.011,0.109-0.015,0.221-0.015,0.332
				c0,0.178,0.011,0.357,0.033,0.545c0.022,0.189,0.099,0.355,0.23,0.5c0.123,0.119,0.29,0.191,0.507,0.213
				c0.215,0.023,0.45,0.035,0.705,0.035h1.855c0.342,0,0.7,0.045,1.075,0.141c0.375,0.092,0.725,0.271,1.044,0.539
				c0.188,0.154,0.347,0.342,0.475,0.562c0.125,0.221,0.229,0.459,0.314,0.711c0.082,0.256,0.141,0.52,0.172,0.795
				c0.034,0.279,0.051,0.541,0.051,0.797c0,0.119,0,0.236,0,0.348c0,0.1-0.011,0.193-0.033,0.281
				c-0.089,1.004-0.442,1.777-1.062,2.318c-0.188,0.156-0.416,0.307-0.686,0.457c-0.271,0.148-0.528,0.225-0.771,0.225h-6.03
				c-0.11,0-0.166-0.055-0.166-0.166v-1.822c0-0.111,0.055-0.166,0.166-0.166h5.336c0.165,0,0.308-0.08,0.431-0.242
				c0.12-0.158,0.208-0.305,0.264-0.438c0.057-0.123,0.089-0.236,0.101-0.348c0.009-0.109,0.016-0.227,0.016-0.35
				c0-0.174-0.012-0.359-0.033-0.555c-0.023-0.191-0.099-0.365-0.233-0.52c-0.11-0.123-0.266-0.207-0.472-0.258
				c-0.203-0.049-0.445-0.076-0.72-0.076H35.083z"/>
			<path fill="#A1CFD7" d="M42.076,55.047c0-0.107,0.056-0.164,0.166-0.164h5.286c0.617,0,1.142,0.094,1.573,0.289
				c0.431,0.193,0.778,0.461,1.044,0.803c0.264,0.342,0.458,0.752,0.579,1.229c0.123,0.473,0.183,0.99,0.183,1.555
				c0,0.586-0.06,1.115-0.183,1.592c-0.121,0.473-0.315,0.883-0.579,1.225c-0.267,0.344-0.613,0.605-1.044,0.789
				c-0.431,0.182-0.957,0.273-1.573,0.273h-2.883c-0.11,0-0.166,0.053-0.166,0.164v3.795c0,0.111-0.057,0.166-0.166,0.166h-2.072
				c-0.11,0-0.166-0.055-0.166-0.166V55.227V55.047z M44.645,57.035c-0.11,0-0.166,0.055-0.166,0.168v3.111
				c0,0.113,0.056,0.166,0.166,0.166h3.165c0.199,0,0.355-0.068,0.471-0.207c0.116-0.137,0.202-0.301,0.257-0.486
				c0.053-0.188,0.091-0.379,0.107-0.574c0.016-0.191,0.025-0.342,0.025-0.455c0-0.109-0.009-0.262-0.025-0.455
				c-0.016-0.193-0.054-0.383-0.107-0.57c-0.056-0.188-0.141-0.352-0.257-0.49s-0.272-0.207-0.471-0.207H44.645z"/>
			<path fill="#A1CFD7" d="M51.951,54.883h2.071c0.111,0,0.166,0.057,0.166,0.164v11.549c0,0.111-0.055,0.166-0.166,0.166h-2.071
				c-0.111,0-0.165-0.055-0.165-0.166V55.047C51.786,54.939,51.84,54.883,51.951,54.883z"/>
			<path fill="#A1CFD7" d="M55.745,54.883h6.164c0.309,0,0.613,0.061,0.909,0.18c0.301,0.125,0.592,0.332,0.879,0.631
				c0.497,0.518,0.763,1.305,0.797,2.354v0.381c0,0.973-0.117,1.678-0.349,2.121c-0.155,0.221-0.315,0.422-0.481,0.602
				c-0.165,0.186-0.391,0.352-0.68,0.506c-0.011,0.012-0.024,0.029-0.04,0.051c-0.019,0.023-0.025,0.049-0.025,0.084
				c0,0.021,0.005,0.041,0.017,0.066c0.255,0.332,0.434,0.621,0.539,0.869c0.105,0.25,0.201,0.504,0.29,0.77l0.91,2.801
				c0.023,0.088,0.064,0.168,0.123,0.24c0.062,0.072,0.093,0.117,0.093,0.141c0,0.057-0.033,0.084-0.101,0.084h-2.286
				c-0.065,0-0.136-0.059-0.213-0.176c-0.08-0.115-0.129-0.213-0.151-0.289l-1.026-2.898c-0.155-0.619-0.47-0.961-0.944-1.027
				h-2.021c-0.109,0-0.165,0.055-0.165,0.166v4.059c0,0.111-0.056,0.166-0.166,0.166h-2.071c-0.11,0-0.167-0.055-0.167-0.166V55.047
				C55.578,54.939,55.635,54.883,55.745,54.883z M58.147,57.035c-0.109,0-0.165,0.055-0.165,0.168V59.9
				c0,0.111,0.059,0.166,0.181,0.166h3.001c0.151,0,0.324-0.076,0.512-0.23c0.155-0.133,0.274-0.326,0.357-0.58
				c0.082-0.254,0.124-0.537,0.124-0.844c0-0.158-0.008-0.297-0.025-0.422c-0.017-0.129-0.053-0.246-0.107-0.359
				c-0.178-0.363-0.388-0.562-0.63-0.596H58.147z"/>
			<path fill="#A1CFD7" d="M66.101,57.416c0-0.75,0.203-1.359,0.612-1.83c0.41-0.469,0.999-0.703,1.772-0.703h5.618
				c0.142,0,0.213,0.057,0.213,0.164v1.824c0,0.109-0.056,0.164-0.164,0.164h-5.483c-0.111,0-0.167,0.062-0.167,0.182v2.254
				c0,0.109,0.056,0.164,0.167,0.164h5.085c0.111,0,0.167,0.059,0.167,0.166v1.906c0,0.109-0.056,0.166-0.167,0.166h-5.085
				c-0.111,0-0.167,0.055-0.167,0.166v2.404c0,0.107,0.056,0.164,0.167,0.164h5.483c0.108,0,0.164,0.055,0.164,0.166v1.822
				c0,0.111-0.056,0.166-0.164,0.166h-6.411c-0.198,0-0.398-0.053-0.597-0.156c-0.198-0.105-0.374-0.244-0.529-0.408
				c-0.157-0.166-0.28-0.352-0.374-0.555s-0.141-0.412-0.141-0.621V57.416z"/>
			<path fill="#A1CFD7" d="M75.677,66.596V55.047c0-0.107,0.054-0.164,0.166-0.164h5.648c0.63,0,1.173,0.121,1.631,0.363
				c0.459,0.244,0.838,0.557,1.136,0.943c0.297,0.387,0.517,0.83,0.655,1.324c0.139,0.5,0.206,1.002,0.206,1.51V63
				c0,0.43-0.067,0.869-0.206,1.316s-0.358,0.855-0.655,1.219c-0.298,0.365-0.673,0.66-1.127,0.887
				c-0.453,0.227-0.995,0.34-1.622,0.34h-5.666C75.73,66.762,75.677,66.707,75.677,66.596z M78.077,64.443
				c0,0.107,0.056,0.164,0.168,0.164h2.963c0.179,0,0.359-0.047,0.54-0.139c0.184-0.096,0.347-0.219,0.488-0.367
				c0.145-0.148,0.261-0.314,0.348-0.498c0.09-0.18,0.133-0.367,0.133-0.555v-4.408c0-0.197-0.048-0.393-0.148-0.586
				c-0.1-0.193-0.227-0.365-0.38-0.514c-0.156-0.15-0.332-0.271-0.523-0.365c-0.192-0.094-0.39-0.141-0.588-0.141h-2.832
				c-0.112,0-0.168,0.055-0.168,0.168V64.443z"/>
		</g>
	</g>
	<g display="inline">
		<path fill="#A1CFD7" d="M82.397,95.311H19.605c-6.12,0-11.099-4.953-11.099-11.043V19.736c0-6.089,4.979-11.046,11.099-11.046
			h62.792c6.12,0,11.097,4.957,11.097,11.046v64.531C93.494,90.357,88.518,95.311,82.397,95.311z M19.605,13.336
			c-3.545,0-6.432,2.871-6.432,6.4v64.531c0,3.529,2.887,6.398,6.432,6.398h62.792c3.545,0,6.43-2.869,6.43-6.398V19.736
			c0-3.529-2.885-6.4-6.43-6.4H19.605z"/>
	</g>
	<path display="inline" fill="#A1CFD7" d="M32.864,33.678l2.955,1.845c-0.684,0.882-1.281,1.828-1.779,2.837l-2.946-1.834
		L32.864,33.678z M49.602,28.986c-0.577-0.02-1.12,0.074-1.678,0.114l0.117-3.517l3.349,0.11l-0.119,3.521
		C50.712,29.133,50.179,29.004,49.602,28.986z M39.737,31.856l-1.64-3.076l2.964-1.573l1.628,3.063
		C41.647,30.7,40.667,31.232,39.737,31.856z M64.51,39.378c-0.432-1.042-0.97-2.023-1.591-2.949l3.074-1.645l1.576,2.961
		L64.51,39.378z M59.253,32.502c-0.882-0.68-1.827-1.276-2.836-1.777l1.835-2.946l2.842,1.77L59.253,32.502z M32.419,46.851
		l-3.525-0.117l0.111-3.348l3.521,0.116c-0.079,0.559-0.208,1.093-0.228,1.67C32.281,45.739,32.372,46.293,32.419,46.851z
		 M69.192,44.727l-0.11,3.351l-3.527-0.119c0.082-0.554,0.215-1.1,0.233-1.667c0.02-0.577-0.074-1.12-0.114-1.681L69.192,44.727z"/>
</g>
</svg>
