<?xml version="1.0" encoding="UTF-8"?>
<svg width="90px" height="90px" viewBox="0 0 90 90" version="1.1" xmlns="http://www.w3.org/2000/svg" xmlns:xlink="http://www.w3.org/1999/xlink">
    <!-- Generator: Sketch 46.2 (44496) - http://www.bohemiancoding.com/sketch -->
    <title>Slice 23</title>
    <desc>Created with Sketch.</desc>
    <defs></defs>
    <g id="dashboard" stroke="none" stroke-width="1" fill-rule="evenodd">
        <g id="24-hours-support" transform="translate(5.000000, 7.000000)" fill-rule="nonzero">
            <path d="M46.5951681,0.152636732 C38.3819652,0.152636732 30.8805993,3.25307034 25.1957228,8.34311252 C26.4566594,10.3481531 27.1729858,12.6809138 27.2403255,15.0888704 C27.2695061,16.187911 27.3343206,17.2732031 27.4271933,18.3568116 C31.7391809,12.4317567 38.7228726,8.57010354 46.5951681,8.57010354 C59.662163,8.57010354 70.2928624,19.200803 70.2928624,32.2677979 C70.2928624,45.1970269 59.883823,55.7340118 47.0062211,55.9551106 C48.1821412,56.9377096 49.3962205,57.8742931 50.6470561,58.7536378 C52.3616941,59.9632278 53.7488926,61.5384164 54.7222323,63.3400349 C68.5080789,59.7314668 78.7100487,47.1692394 78.7100487,32.2677979 C78.7103293,14.5594118 64.3038348,0.152636732 46.5951681,0.152636732 Z" id="Shape"></path>
            <path d="M45.8067321,65.6399674 C42.1378389,62.7112501 39.8488491,60.760923 36.5730516,57.7264262 C35.6092516,56.8336136 34.4313674,56.2774996 33.2217774,56.2774996 C32.2961367,56.2774996 31.3819998,56.5723915 30.6294782,57.189953 C29.8528266,57.8437096 29.076175,58.4974662 28.2992428,59.1509422 C21.9864233,51.6487346 17.298736,42.9066342 14.543138,33.4970286 C15.5173195,33.2119571 16.4917816,32.9266049 17.4659631,32.6415334 C19.6129783,31.9841292 20.6230743,29.692053 20.3079804,27.3943652 C19.6225181,22.3932675 19.2501854,19.9087119 18.8259451,15.3242789 C18.6084939,12.9744028 17.0445285,10.9331671 14.8029571,10.8111138 C14.4533517,10.7771633 14.1040268,10.7603284 13.7575078,10.7603284 C5.42140979,10.7603284 -1.83669126,20.422458 0.848200072,32.242826 C4.18909265,46.881362 11.4216607,60.3692302 21.7658857,71.2524537 C26.0032385,75.7013655 31.1942903,77.7159458 35.8825387,77.7159458 C40.8283616,77.7159458 45.2149841,75.4757773 47.3395528,71.4884233 C48.478436,69.5538089 47.6512796,67.1124629 45.8067321,65.6399674 Z" id="Shape"></path>
            <path d="M36.9372473,32.862071 C34.7172807,34.9218251 33.2647065,36.5413458 32.4975947,37.8123833 C31.956071,38.7088435 31.5610112,39.6566502 31.3227969,40.6294288 C31.2108446,41.087339 31.3138183,41.5626453 31.6053432,41.9338556 C31.8965876,42.3045047 32.3337347,42.517186 32.8051128,42.517186 L43.3993366,42.517186 C44.6973099,42.517186 45.7534214,41.4610745 45.7534214,40.1631011 C45.7534214,38.8651278 44.6973099,37.8090163 43.3993366,37.8090163 L38.615129,37.8090163 C38.6541299,37.7630008 38.6942532,37.7169853 38.7352182,37.6706892 C39.0477868,37.3188391 39.8132151,36.5837137 41.0098983,35.4863566 C42.2649426,34.3345665 43.1123009,33.4720568 43.6002334,32.8494448 C44.3356394,31.9134225 44.8827748,30.9995662 45.2259269,30.1336894 C45.5758129,29.2512583 45.7534214,28.3104661 45.7534214,27.3371264 C45.7534214,25.5907826 45.1209891,24.1084667 43.8738011,22.9305825 C42.63475,21.7622381 40.9290906,21.1702096 38.8033997,21.1702096 C36.8718716,21.1702096 35.2313073,21.6758188 33.9277223,22.673008 C33.1412503,23.2751375 32.5357539,24.1093084 32.1277873,25.1530743 C31.8522556,25.8581775 31.9235235,26.6648514 32.3185832,27.3104711 C32.713643,27.9563714 33.399386,28.3870651 34.1527493,28.4622611 C34.2366433,28.4706786 34.3202569,28.4748873 34.402748,28.4748873 C35.4630683,28.4748873 36.4086304,27.8006482 36.7559912,26.7972862 C36.8648571,26.4827535 37.0087958,26.2327547 37.1844402,26.0537433 C37.5542476,25.6769213 38.0522811,25.4934206 38.7074406,25.4934206 C39.3732622,25.4934206 39.8707345,25.6668204 40.2276351,26.0234404 C40.5836939,26.3794992 40.7568131,26.8988569 40.7568131,27.6115358 C40.7568131,28.2734293 40.5202823,28.9636616 40.0539547,29.6637142 C39.8039559,30.0301546 39.0567654,30.8873333 36.9372473,32.862071 Z" id="Shape"></path>
            <path d="M58.1464578,21.1702096 L56.3768257,21.1702096 C55.8726195,21.1702096 55.4018025,21.4188055 55.1172921,21.8351895 L46.9332697,33.8154894 C46.6944942,34.1650949 46.5682322,34.5739032 46.5682322,34.9973018 L46.5682322,36.9386502 C46.5682322,37.7795551 47.2525723,38.4638952 48.0934772,38.4638952 L54.8120186,38.4638952 L54.8120186,40.0876245 C54.8120186,41.4274047 55.9020806,42.5174666 57.2418607,42.5174666 C58.5816409,42.5174666 59.6717028,41.4274047 59.6717028,40.0876245 L59.6717028,38.4638952 L59.9144064,38.4638952 C61.1593498,38.4638952 62.1722516,37.4509933 62.1722516,36.20605 C62.1722516,34.9611067 61.1593498,33.9482048 59.9144064,33.9482048 L59.6717028,33.9482048 L59.6717028,22.6954546 C59.6717028,21.8545497 58.9873628,21.1702096 58.1464578,21.1702096 Z M54.8122992,33.9482048 L51.7966014,33.9482048 L54.8122992,29.465062 L54.8122992,33.9482048 Z" id="Shape"></path>
        </g>
    </g>
</svg>