<?xml version="1.0" encoding="iso-8859-1"?>
<!-- Generator: Adobe Illustrator 18.0.0, SVG Export Plug-In . SVG Version: 6.00 Build 0)  -->
<!DOCTYPE svg PUBLIC "-//W3C//DTD SVG 1.1//EN" "http://www.w3.org/Graphics/SVG/1.1/DTD/svg11.dtd">
<svg version="1.1" id="Capa_1" xmlns="http://www.w3.org/2000/svg" xmlns:xlink="http://www.w3.org/1999/xlink" x="0px" y="0px"
	 viewBox="0 0 278.898 278.898" style="enable-background:new 0 0 278.898 278.898;" xml:space="preserve">
<g>
	<path d="M269.898,175.773h-20.373V64.751c0-4.971-4.029-9-9-9h-62.702V35.377c0-4.971-4.029-9-9-9h-58.748c-4.971,0-9,4.029-9,9
		v20.374H38.373c-4.971,0-9,4.029-9,9v111.022H9c-4.971,0-9,4.029-9,9v58.748c0,4.971,4.029,9,9,9h58.747c4.971,0,9-4.029,9-9
		v-58.748c0-4.971-4.029-9-9-9H47.373V73.751h53.702v20.374c0,4.971,4.029,9,9,9h20.374v72.648h-20.374c-4.971,0-9,4.029-9,9v58.748
		c0,4.971,4.029,9,9,9h58.748c4.971,0,9-4.029,9-9v-58.748c0-4.971-4.029-9-9-9h-20.374v-72.648h20.374c4.971,0,9-4.029,9-9V73.751
		h53.702v102.022h-20.374c-4.971,0-9,4.029-9,9v58.748c0,4.971,4.029,9,9,9h58.747c4.971,0,9-4.029,9-9v-58.748
		C278.898,179.803,274.869,175.773,269.898,175.773z M58.747,234.521H18v-40.748h40.747V234.521z M159.823,234.521h-40.748v-40.748
		h40.748V234.521z M159.823,85.125h-40.748V44.377h40.748V85.125z M260.898,234.521h-40.747v-40.748h40.747V234.521z"/>
</g>
<g>
</g>
<g>
</g>
<g>
</g>
<g>
</g>
<g>
</g>
<g>
</g>
<g>
</g>
<g>
</g>
<g>
</g>
<g>
</g>
<g>
</g>
<g>
</g>
<g>
</g>
<g>
</g>
<g>
</g>
</svg>
