<?xml version="1.0" encoding="utf-8"?>
<!-- Svg Vector Icons : http://www.onlinewebfonts.com/icon -->
<!DOCTYPE svg PUBLIC "-//W3C//DTD SVG 1.1//EN" "http://www.w3.org/Graphics/SVG/1.1/DTD/svg11.dtd">
<svg version="1.1" xmlns="http://www.w3.org/2000/svg" xmlns:xlink="http://www.w3.org/1999/xlink" x="0px" y="0px" viewBox="0 0 1000 1000" enable-background="new 0 0 1000 1000" xml:space="preserve">
<metadata> Svg Vector Icons : http://www.onlinewebfonts.com/icon </metadata>
<g><path d="M691,160.8V10H269.5C206.3,72.6,143.1,135.2,80,197.8v641.4h227.9V990H920V160.8H691z M269.5,64.4v134.4H133.1C178.5,154,224,109.2,269.5,64.4z M307.9,801.2H117.5V236.8h190.5V47.9h344.5v112.9h-154c-63.5,62.9-127,125.9-190.5,188.8V801.2z M499.5,215.2v134.5H363.1v-1c45.1-44.5,90.2-89,135.3-133.5L499.5,215.2z M881.5,952h-535V386.6H538V198.8h343.5V952z"/></g>
</svg>