<?xml version="1.0" encoding="UTF-8"?>
<svg width="90px" height="90px" viewBox="0 0 90 90" version="1.1" xmlns="http://www.w3.org/2000/svg" xmlns:xlink="http://www.w3.org/1999/xlink">
    <!-- Generator: Sketch 46.2 (44496) - http://www.bohemiancoding.com/sketch -->
    <title>Slice 23</title>
    <desc>Created with Sketch.</desc>
    <defs></defs>
    <g id="dashboard" stroke="none" stroke-width="1" fill-rule="evenodd">
        <g id="62780" transform="translate(1.000000, 16.000000)" fill-rule="nonzero">
            <path d="M77.3788837,0.0166335071 L10.5054936,0.0166335071 C4.71263581,0.0166335071 0,4.72907813 0,10.5221271 L0,48.3010279 C0,54.0936945 4.71263581,58.8065215 10.5054936,58.8065215 L77.3786925,58.8065215 C83.1713591,58.8065215 87.883995,54.0936945 87.883995,48.3010279 L87.883995,10.5221271 C87.8841861,4.72907813 83.1715503,0.0166335071 77.3788837,0.0166335071 Z M82.0714446,48.3008367 C82.0714446,50.8883986 79.9662544,52.9933976 77.3788837,52.9933976 L10.5054936,52.9933976 C7.91793174,52.9933976 5.81274156,50.8883986 5.81274156,48.3008367 L5.81274156,22.983683 L82.0712534,22.983683 L82.0714446,48.3008367 L82.0714446,48.3008367 Z M82.0714446,14.6908282 L5.81293275,14.6963727 L5.81293275,10.521936 C5.81293275,7.93437406 7.91812293,5.82918387 10.5056848,5.82918387 L77.3788837,5.82918387 C79.9662544,5.82918387 82.0714446,7.93437406 82.0714446,10.521936 L82.0714446,14.6908282 Z" id="Shape"></path>
            <path d="M13.0269039,47.6024206 L28.9396256,47.6024206 C29.5093711,47.6024206 29.9716678,47.1405062 29.9716678,46.5707608 L29.9716678,43.4312341 C29.9716678,42.8612975 29.5093711,42.3993831 28.9396256,42.3993831 L13.0269039,42.3993831 C12.4569673,42.3993831 11.9948617,42.8612975 11.9948617,43.4312341 L11.9948617,46.5707608 C11.9946705,47.1405062 12.4567761,47.6024206 13.0269039,47.6024206 Z" id="Shape"></path>
            <path d="M64.6150569,47.6024206 L69.34815,47.6024206 C72.079869,47.6024206 74.2942285,45.388061 74.2942285,42.6565333 L74.2942285,37.9234402 C74.2942285,35.1919124 72.079869,32.9775529 69.34815,32.9775529 L64.6150569,32.9775529 C61.8835291,32.9775529 59.6691696,35.1919124 59.6691696,37.9234402 L59.6691696,42.6565333 C59.6691696,45.388061 61.8835291,47.6024206 64.6150569,47.6024206 Z" id="Shape"></path>
        </g>
    </g>
</svg>