<?xml version="1.0" encoding="utf-8"?>
<!-- Svg Vector Icons : http://www.onlinewebfonts.com/icon -->
<!DOCTYPE svg PUBLIC "-//W3C//DTD SVG 1.1//EN" "http://www.w3.org/Graphics/SVG/1.1/DTD/svg11.dtd">
<svg version="1.1" xmlns="http://www.w3.org/2000/svg" xmlns:xlink="http://www.w3.org/1999/xlink" x="0px" y="0px" viewBox="0 0 1000 1000" enable-background="new 0 0 1000 1000" xml:space="preserve">
<metadata> Svg Vector Icons : http://www.onlinewebfonts.com/icon </metadata>
<g><path d="M185,150h630c19.3,0,35-15.7,35-35s-15.7-35-35-35H605c0-38.7-31.3-70-70-70h-70c-38.7,0-70,31.3-70,70H185c-19.3,0-35,15.7-35,35S165.7,150,185,150z"/><path d="M885,220h-69.9c-0.1,0-0.3,0-0.4,0H395.1c0,0-0.1,0-0.1,0H185.3c-0.1,0-0.2,0-0.3,0h-70c-19.3,0-35,15.7-35,35c0,19.3,15.7,35,35,35h39.9l100.5,670.2C258,977.3,272.7,990,290,990h139.9c0,0,0,0,0,0c0,0,0,0,0,0h140c0,0,0,0,0,0c0,0,0,0,0,0H710c17.3,0,32-12.7,34.6-29.8L845.1,290H885c19.3,0,35-15.7,35-35C920,235.7,904.3,220,885,220z M463.3,920l-31.5-630h136.4l-31.5,630H463.3z M225.6,290h136.1l31.5,630h-73.1L225.6,290z M679.9,920h-73.1l31.5-630h136.1L679.9,920z"/></g>
</svg>