<?xml version="1.0" encoding="UTF-8"?>
<svg width="612px" height="612px" viewBox="0 0 612 612" version="1.1" xmlns="http://www.w3.org/2000/svg" xmlns:xlink="http://www.w3.org/1999/xlink">
    <!-- Generator: Sketch 46.2 (44496) - http://www.bohemiancoding.com/sketch -->
    <title>54471</title>
    <desc>Created with Sketch.</desc>
    <defs></defs>
    <g id="Page-1" stroke="none" stroke-width="1" fill="none" fill-rule="evenodd">
        <g id="54471" fill-rule="nonzero" fill="#000000">
            <path d="M0,225.633 L0,386.367 C0,417.272 30.6,417.272 30.6,417.272 L83.454,417.272 L83.454,389.454 L27.818,389.454 L27.818,222.545 L584.181,222.545 L584.181,389.454 L528.545,389.454 L528.545,417.272 L581.4,417.272 C581.4,417.272 612,417.272 612,386.367 L612,225.633 C612,225.633 612,194.727 581.4,194.727 L30.6,194.727 C0,194.728 0,225.633 0,225.633 Z" id="Shape"></path>
            <polygon id="Shape" points="500.728 166.909 500.728 0 111.273 0 111.273 166.909 139.091 166.909 139.091 27.818 472.909 27.818 472.909 166.909"></polygon>
            <path d="M528.546,292.091 C528.546,278.182 514.358,278.182 514.358,278.182 L97.642,278.182 C97.642,278.182 83.455,278.182 83.455,292.091 C83.455,306 97.642,306 97.642,306 L514.359,306 C514.358,306 528.546,306 528.546,292.091 Z" id="Shape"></path>
            <rect id="Rectangle-path" x="166.909" y="500.728" width="278.182" height="27.818"></rect>
            <path d="M500.728,612 L500.728,389.454 L111.273,389.454 L111.273,612 L500.728,612 Z M139.091,417.272 L472.909,417.272 L472.909,584.181 L139.091,584.181 L139.091,417.272 Z" id="Shape"></path>
            <rect id="Rectangle-path" x="166.909" y="445.091" width="278.182" height="27.818"></rect>
        </g>
    </g>
</svg>