<?xml version="1.0" encoding="UTF-8"?>
<svg width="492px" height="649px" viewBox="0 0 492 649" version="1.1" xmlns="http://www.w3.org/2000/svg" xmlns:xlink="http://www.w3.org/1999/xlink">
    <!-- Generator: Sketch 46.2 (44496) - http://www.bohemiancoding.com/sketch -->
    <title>icon-pdf</title>
    <desc>Created with Sketch.</desc>
    <defs></defs>
    <g id="Page-1" stroke="none" stroke-width="1" fill-rule="evenodd">
        <g id="icon-pdf" fill-rule="nonzero">
            <g id="Group" transform="translate(93.000000, 269.000000)">
                <path d="M98,47.8 C98,54.8 97,61.7 95.1,66.6 C93.1,72.5 90.1,76.5 86.2,80.5 C82.2,84.5 76.3,87.4 70.4,89.4 C64.5,91.4 55.6,92.3 46.6,92.3 L34.7,92.3 L34.7,134 L0,134 L0,0.3 L45.5,0.3 C54.4,0.3 62.4,1.3 69.3,3.2 C76.2,5.2 81.2,8.2 85.1,12.1 C89.1,16.1 92.1,21 94,27 C96.9,32 98,38.9 98,47.8 Z M61.3,46.8 C61.3,42.8 61.3,39.9 60.3,37.9 C60.3,35.9 59.3,33.9 57.4,32 C56.4,31 54.5,30 52.4,29.1 C50.4,29.1 47.4,28.1 44.5,28.1 L34.6,28.1 L34.6,63.7 L45.5,63.7 C48.4,63.7 50.4,63.7 52.5,62.7 C54.5,61.7 56.5,61.7 57.5,59.8 C58.5,57.8 59.5,56.9 60.4,54.8 C61.3,53.8 61.3,50.8 61.3,46.8 Z" id="Shape"></path>
                <path d="M214.8,66.6 C214.8,78.5 213.8,89.3 210.8,97.3 C208.8,106.2 204.9,113.1 199.9,118.1 C195,123.1 189,127 182.1,130 C175.2,132 167.3,134 157.3,134 L108.8,134 L108.8,0.3 L156.3,0.3 C166.2,0.3 175.1,1.3 182,4.3 C188.9,7.2 194.9,10.2 199.8,16.2 C204.8,21.2 207.7,28.1 209.7,37 C213.8,44.8 214.8,54.7 214.8,66.6 Z M178.1,65.6 C178.1,58.7 178.1,52.7 177.1,47.8 C176.1,42.8 175.1,39.9 174.2,36.9 C172.2,34 170.2,32.9 168.3,31.9 C165.4,30.9 162.4,30.9 158.4,30.9 L145.6,30.9 L145.6,103.2 L158.4,103.2 C162.4,103.2 165.4,103.2 168.3,102.2 C171.2,101.2 173.3,99.3 174.2,97.2 C176.2,94.3 177.1,91.3 178.2,86.3 C178.1,80.5 178.1,74.5 178.1,65.6 Z" id="Shape"></path>
                <polygon id="Shape" points="264.3 32 264.3 55.8 304.9 55.8 304.9 85.5 264.3 85.5 264.3 135 229.7 135 229.7 0.3 312.9 0.3 313.9 31 264.4 31 264.4 32"></polygon>
            </g>
            <path d="M491.3,649 L0.7,649 L0.7,0 L346.1,0 L491.3,145.2 L491.3,649 L491.3,649 Z M44.7,605 L448.4,605 L448.4,162.8 L327.4,42.9 L44.7,42.9 L44.7,605 Z" id="Shape"></path>
            <polygon id="Shape" points="469.3 176 315.3 176 315.3 20.9 359.3 20.9 359.3 132 469.3 132"></polygon>
        </g>
    </g>
</svg>