<?xml version="1.0" encoding="utf-8"?>
<!-- Svg Vector Icons : http://www.onlinewebfonts.com/icon -->
<!DOCTYPE svg PUBLIC "-//W3C//DTD SVG 1.1//EN" "http://www.w3.org/Graphics/SVG/1.1/DTD/svg11.dtd">
<svg version="1.1" xmlns="http://www.w3.org/2000/svg" xmlns:xlink="http://www.w3.org/1999/xlink" x="0px" y="0px" viewBox="0 0 1000 1000" enable-background="new 0 0 1000 1000" xml:space="preserve">
<metadata> Svg Vector Icons : http://www.onlinewebfonts.com/icon </metadata>
<g><g><g><path d="M941.6,534.8c-64.6-64.6-169.2-64.6-233.8,0c-8.3,8.3-15.4,17.3-21.5,26.7L165.8,41c-18.4-18.4-48.4-18.4-66.8,0L58.2,81.8c-18.5,18.4-18.4,48.4,0,66.8l48.1,48.1l-82.8,82.8c-18,18-18,47.1,0,65.1c18,18,47.1,18,65.1,0l82.8-82.8l18.3,18.3L106.9,363c-18,18-18,47.1,0,65.1s47.1,18,65.1,0l82.8-82.8l323.8,323.9c-9.4,6.1-18.4,13.2-26.7,21.5c-64.6,64.6-64.6,169.2,0,233.8c52.8,52.8,132.3,62.3,194.8,28.9c62.5,33.5,142.1,23.9,194.8-28.9c52.8-52.8,62.3-132.3,28.9-194.8C1004,667.1,994.4,587.5,941.6,534.8z M870.7,853.5c-29.7,29.7-77.9,29.7-107.6,0c-6.5-6.5-11.3-13.9-14.9-21.8c-31.9,29.6-81.7,29.1-112.7-1.9c-31.8-31.8-31.8-83.3,0-115c20.3-20.3,48.5-27.5,74.6-21.9c-5.6-26.1,1.6-54.3,21.9-74.6c31.8-31.8,83.3-31.8,115,0c31,31,31.5,80.8,1.9,112.7c7.9,3.7,15.3,8.5,21.8,14.9C900.4,775.6,900.4,823.8,870.7,853.5z"/></g></g><g></g><g></g><g></g><g></g><g></g><g></g><g></g><g></g><g></g><g></g><g></g><g></g><g></g><g></g><g></g></g>
</svg>