<?xml version="1.0" encoding="UTF-8"?>
<svg width="90px" height="90px" viewBox="0 0 90 90" version="1.1" xmlns="http://www.w3.org/2000/svg" xmlns:xlink="http://www.w3.org/1999/xlink">
    <!-- Generator: Sketch 46.2 (44496) - http://www.bohemiancoding.com/sketch -->
    <title>Slice 23</title>
    <desc>Created with Sketch.</desc>
    <defs></defs>
    <g id="dashboard" stroke="none" stroke-width="1" fill-rule="evenodd">
        <g id="img_16097" transform="translate(12.000000, 14.000000)" fill-rule="nonzero">
            <path d="M63.5394739,34.6343332 C59.133452,30.2283113 51.9992431,30.2283113 47.5932212,34.6343332 C47.0271224,35.200432 46.5428692,35.8142741 46.1268207,36.455398 L10.6262881,0.954865429 C9.37132214,-0.300100564 7.32518194,-0.300100564 6.07021594,0.954865429 L3.28746526,3.73761611 C2.0256788,4.9925821 2.03249927,7.03872231 3.28746526,8.2936883 L6.56811006,11.5743331 L0.920763093,17.2216801 C-0.306921031,18.4493642 -0.306921031,20.4341202 0.920763093,21.6618043 C2.14844722,22.8894884 4.13320322,22.8894884 5.36088734,21.6618043 L11.0082343,16.0144573 L12.2563798,17.2626029 L6.60903287,22.9167703 C5.38134874,24.1444544 5.38134874,26.1292104 6.60903287,27.3568946 C7.83671699,28.5845787 9.82147299,28.5845787 11.0491571,27.3568946 L16.6965041,21.7095476 L38.7811774,43.8010413 C38.1400534,44.2170899 37.5262114,44.701343 36.9601126,45.2674418 C32.5540907,49.6734637 32.5540907,56.8076726 36.9601126,61.2136945 C40.5613194,64.8149013 45.9835909,65.4628457 50.246383,63.1848096 C54.5091751,65.4696661 59.9382671,64.8149013 63.5326534,61.2136945 C67.1338602,57.6124877 67.7818046,52.1902162 65.5037685,47.9274241 C67.7954455,43.6578115 67.1406806,38.2287195 63.5394739,34.6343332 Z M58.7037625,56.3711627 C56.6780837,58.3968415 53.3906184,58.3968415 51.3649396,56.3711627 C50.9216093,55.9278323 50.5942268,55.4231177 50.34869,54.8843008 C48.1729609,56.9031591 44.7763682,56.8690568 42.6620233,54.7547119 C40.4931147,52.5858033 40.4931147,49.0732626 42.6620233,46.9111745 C44.0465782,45.5266196 45.96995,45.0355459 47.7500919,45.4174921 C47.3681458,43.6373501 47.8592194,41.7139783 49.2437743,40.3294235 C51.4126829,38.1605148 54.9252236,38.1605148 57.0873117,40.3294235 C59.2016566,42.4437683 59.235759,45.8403611 57.2169006,48.0160902 C57.7557175,48.2684475 58.2604321,48.5958299 58.7037625,49.0323398 C60.7294413,51.0580186 60.7294413,54.3454839 58.7037625,56.3711627 Z" id="Shape"></path>
        </g>
    </g>
</svg>