<?xml version="1.0" encoding="utf-8"?>
<!-- Generator: Adobe Illustrator 16.0.0, SVG Export Plug-In . SVG Version: 6.00 Build 0)  -->
<!DOCTYPE svg PUBLIC "-//W3C//DTD SVG 1.1//EN" "http://www.w3.org/Graphics/SVG/1.1/DTD/svg11.dtd">
<svg version="1.1" id="Layer_1" xmlns="http://www.w3.org/2000/svg" xmlns:xlink="http://www.w3.org/1999/xlink" x="0px" y="0px"
	 width="130px" height="40px" viewBox="0 0 130 40" enable-background="new 0 0 130 40" xml:space="preserve">
<g>
	<path fill="#FFFFFF" d="M36.355,33.695c0-0.517,0.181-1.017,0.545-1.504c0.362-0.489,0.882-0.929,1.557-1.317v-0.109
		c-0.354-0.192-0.664-0.466-0.932-0.811c-0.265-0.347-0.399-0.796-0.399-1.344c0-0.426,0.138-0.856,0.415-1.293
		c0.273-0.434,0.662-0.82,1.159-1.157v-0.106c-0.464-0.337-0.854-0.788-1.173-1.349c-0.317-0.557-0.477-1.227-0.477-2.006
		c0-0.729,0.141-1.383,0.423-1.959c0.285-0.578,0.667-1.067,1.148-1.478c0.478-0.409,1.032-0.718,1.664-0.933
		c0.628-0.213,1.299-0.319,2.008-0.319c0.728,0,1.385,0.106,1.971,0.319h5.35v1.997h-3.248c0.268,0.284,0.506,0.636,0.718,1.052
		c0.214,0.418,0.321,0.884,0.321,1.398c0,0.712-0.133,1.342-0.399,1.891c-0.267,0.551-0.631,1.017-1.092,1.398
		c-0.462,0.383-1.003,0.673-1.624,0.862c-0.62,0.195-1.287,0.296-1.998,0.296c-0.317,0-0.66-0.034-1.026-0.107
		c-0.363-0.068-0.721-0.178-1.077-0.319c-0.605,0.393-0.905,0.843-0.905,1.357c0,0.478,0.222,0.826,0.664,1.038
		c0.443,0.216,1.083,0.319,1.916,0.319h2.768c1.707,0,2.968,0.246,3.796,0.731c0.825,0.488,1.237,1.295,1.237,2.41
		c0,0.622-0.174,1.206-0.52,1.757c-0.347,0.551-0.839,1.033-1.479,1.451c-0.637,0.416-1.411,0.748-2.317,0.984
		c-0.904,0.242-1.916,0.362-3.036,0.362c-1.846,0-3.301-0.3-4.365-0.896C36.888,35.723,36.355,34.848,36.355,33.695z M38.589,33.376
		c0,0.621,0.342,1.122,1.026,1.504c0.684,0.382,1.673,0.573,2.967,0.573c0.692,0,1.318-0.066,1.878-0.2
		c0.559-0.132,1.039-0.309,1.439-0.532c0.4-0.223,0.703-0.475,0.918-0.756c0.213-0.284,0.317-0.584,0.317-0.908
		c0-0.567-0.236-0.943-0.704-1.131c-0.471-0.187-1.177-0.278-2.117-0.278h-2.29c-0.408,0-0.77-0.015-1.09-0.042
		c-0.321-0.023-0.623-0.081-0.905-0.173c-0.534,0.304-0.905,0.613-1.121,0.932C38.699,32.682,38.589,33.019,38.589,33.376z
		 M42.291,25.52c0.747,0,1.384-0.247,1.919-0.744c0.531-0.498,0.799-1.188,0.799-2.076c0-0.854-0.269-1.536-0.799-2.05
		c-0.536-0.515-1.172-0.773-1.919-0.773c-0.747,0-1.384,0.257-1.916,0.773c-0.531,0.514-0.798,1.197-0.798,2.05
		c0,0.888,0.268,1.578,0.798,2.076C40.907,25.272,41.545,25.52,42.291,25.52z"/>
</g>
<path fill="#FFFFFF" d="M16.389,31.705h-2.231l-0.221-2.231h-0.109c-0.662,0.771-1.384,1.391-2.162,1.86
	c-0.781,0.465-1.686,0.699-2.714,0.699c-1.598,0-2.764-0.462-3.497-1.389c-0.736-0.929-1.102-2.281-1.102-4.064v-6.761l-3.566-0.07
	l6.319-2.432l-0.027,1.839v7.068c0,1.193,0.211,2.07,0.633,2.632c0.423,0.56,1.147,0.842,2.176,0.842
	c0.697,0,1.335-0.173,1.914-0.512c0.578-0.341,1.199-0.915,1.859-1.722v-9.228h2.727L16.389,31.705L16.389,31.705z"/>
<path fill="#FFFFFF" d="M20.907,18.237h2.229l0.221,2.175h0.109c0.681-0.698,1.414-1.291,2.205-1.776
	c0.788-0.487,1.708-0.729,2.754-0.729c1.58,0,2.737,0.469,3.47,1.403c0.734,0.935,1.104,2.288,1.104,4.051v8.343h-2.729v-7.988
	c0-1.173-0.209-2.041-0.633-2.602c-0.42-0.562-1.147-0.843-2.176-0.843c-0.718,0-1.358,0.183-1.93,0.538
	c-0.567,0.358-1.204,0.895-1.9,1.612v9.281h-2.725L20.907,18.237L20.907,18.237z"/>
<path fill="#FFFFFF" d="M63.43,24.986c0-1.104,0.194-2.091,0.58-2.963c0.386-0.87,0.898-1.617,1.543-2.23
	c0.641-0.614,1.375-1.084,2.204-1.406c0.826-0.321,1.682-0.48,2.561-0.48c0.992,0,1.867,0.154,2.633,0.468
	c0.758,0.312,1.408,0.747,1.938,1.305c0.535,0.562,0.941,1.232,1.213,2.013c0.275,0.78,0.416,1.638,0.416,2.574
	c0,0.278-0.016,0.539-0.043,0.787c-0.027,0.25-0.059,0.455-0.096,0.619H66.24c0.092,1.321,0.582,2.355,1.475,3.099
	c0.891,0.743,2.014,1.116,3.373,1.116c0.736,0,1.418-0.104,2.053-0.305c0.635-0.2,1.254-0.485,1.855-0.852l0.967,1.733
	c-0.693,0.441-1.482,0.812-2.355,1.117c-0.871,0.301-1.832,0.452-2.879,0.452c-1.01,0-1.959-0.157-2.85-0.479
	c-0.891-0.321-1.666-0.784-2.327-1.391c-0.662-0.606-1.182-1.346-1.558-2.22C63.619,27.072,63.43,26.086,63.43,24.986z
	 M73.98,23.803c0-1.216-0.316-2.141-0.939-2.784c-0.623-0.643-1.512-0.963-2.67-0.963c-1.012,0-1.91,0.32-2.699,0.963
	c-0.791,0.644-1.279,1.568-1.461,2.784H73.98z"/>
<path fill="#FFFFFF" d="M85.475,17.81l0.01,14.171h-2.729V21.634h-5.113L85.475,17.81z M83.887,15.033
	c-0.588,0-1.072-0.176-1.463-0.522c-0.381-0.35-0.574-0.819-0.574-1.406c0-0.587,0.193-1.059,0.574-1.417
	c0.391-0.358,0.873-0.537,1.463-0.537c0.586,0,1.076,0.178,1.459,0.537c0.389,0.359,0.582,0.831,0.582,1.417
	c0,0.587-0.193,1.057-0.582,1.406C84.963,14.857,84.473,15.033,83.887,15.033z"/>
<path fill="#FFFFFF" d="M89.264,25.258c0-1.117,0.203-2.121,0.607-2.999c0.404-0.883,0.957-1.626,1.654-2.234
	c0.695-0.605,1.498-1.062,2.408-1.376c0.91-0.311,1.877-0.467,2.906-0.467c1.102,0,2.064,0.187,2.891,0.563
	c0.83,0.375,1.518,0.833,2.068,1.363l-1.32,1.735c-0.535-0.44-1.088-0.786-1.658-1.033c-0.564-0.248-1.182-0.37-1.844-0.37
	c-0.713,0-1.375,0.114-1.984,0.344c-0.604,0.229-1.123,0.554-1.553,0.978c-0.432,0.423-0.768,0.932-1.004,1.528
	c-0.24,0.596-0.359,1.255-0.359,1.968c0,0.717,0.115,1.374,0.344,1.969c0.23,0.598,0.561,1.106,0.99,1.53
	c0.432,0.418,0.941,0.748,1.527,0.977c0.59,0.229,1.24,0.343,1.959,0.343c0.824,0,1.57-0.155,2.229-0.467
	c0.66-0.312,1.258-0.689,1.791-1.133l1.158,1.765c-0.771,0.66-1.617,1.172-2.533,1.527c-0.918,0.358-1.875,0.535-2.865,0.535
	c-1.047,0-2.023-0.153-2.934-0.466c-0.908-0.31-1.691-0.771-2.354-1.378s-1.182-1.347-1.557-2.219
	C89.453,27.376,89.264,26.381,89.264,25.258z"/>
<path fill="#FFFFFF" d="M102.209,12.529l5.711-2.831v7.933l-0.166,3.029c0.682-0.697,1.412-1.285,2.205-1.763
	c0.789-0.476,1.705-0.715,2.754-0.715c1.578,0,2.734,0.467,3.469,1.403c0.732,0.937,1.1,2.289,1.1,4.05v8.344h-2.725V23.99
	c0-1.176-0.211-2.041-0.635-2.601c-0.422-0.561-1.145-0.842-2.176-0.842c-0.715,0-1.359,0.179-1.924,0.537
	c-0.574,0.359-1.205,0.896-1.904,1.613v9.281h-2.727l-0.059-19.565L102.209,12.529z"/>
<g>
	<polygon fill="#FFFFFF" points="117.797,6.442 116.877,8.361 128.295,8.409 129.213,6.453 	"/>
	<polygon fill="#FFFFFF" points="116.893,10.627 115.945,12.641 127.379,12.665 128.295,10.673 	"/>
	<polygon fill="#FFFFFF" points="119.123,14.927 124.359,3.775 126.377,3.805 121.201,14.929 	"/>
</g>
<g>
	<path fill="#FFFFFF" d="M56.6,27.325c0,0.902,0.226,1.557,0.679,1.956c0.452,0.4,1.041,0.601,1.77,0.601
		c0.354,0,0.72-0.047,1.092-0.135c0.372-0.09,0.791-0.232,1.25-0.426l0.639,1.972c-0.302,0.104-0.591,0.199-0.865,0.293
		c-0.278,0.086-0.556,0.16-0.838,0.223c-0.284,0.065-0.581,0.116-0.89,0.16c-0.313,0.044-0.653,0.068-1.025,0.068
		c-1.457,0-2.562-0.416-3.317-1.254c-0.754-0.832-1.131-2.038-1.131-3.62V9.436h-4.261l6.895-4.858"/>
</g>
</svg>
