<?xml version="1.0" encoding="UTF-8"?>
<svg width="90px" height="90px" viewBox="0 0 90 90" version="1.1" xmlns="http://www.w3.org/2000/svg" xmlns:xlink="http://www.w3.org/1999/xlink">
    <!-- Generator: Sketch 46.2 (44496) - http://www.bohemiancoding.com/sketch -->
    <title>Slice 23</title>
    <desc>Created with Sketch.</desc>
    <defs></defs>
    <g id="dashboard" stroke="none" stroke-width="1" fill-rule="evenodd">
        <g id="img_194174" transform="translate(36.000000, 36.000000)" fill-rule="nonzero">
            <path d="M37.8716732,11.3625619 C37.8716732,12.857078 39.0853051,14.0654101 40.5745214,14.0654101 C42.0637378,14.0654101 43.2773696,12.8517783 43.2773696,11.3625619 C43.2773696,9.86804583 42.0637378,8.65971369 40.5745214,8.65971369 C39.0853051,8.65971369 37.8716732,9.86804583 37.8716732,11.3625619 Z M37.8716732,28.6713899 C37.8716732,30.165906 39.0853051,31.3742381 40.5745214,31.3742381 C42.0637378,31.3742381 43.2773696,30.1606063 43.2773696,28.6713899 C43.2773696,27.1768738 42.0637378,25.9685417 40.5745214,25.9685417 C39.0853051,25.9685417 37.8716732,27.1821735 37.8716732,28.6713899 L37.8716732,28.6713899 Z M0,35.7040949 C0,38.0942607 1.93439137,40.0339518 4.32985685,40.0339518 L22.7251238,40.0339518 L22.7251238,43.0229839 C22.1951536,43.378064 21.7393792,43.8338384 21.3842991,44.3638086 L8.11914405,44.3638086 C6.62462798,44.3638086 5.41629583,45.5774405 5.41629583,47.0666568 C5.41629583,48.5558732 6.62992768,49.7695051 8.11914405,49.7695051 L21.3842991,49.7695051 C22.25875,51.0785315 23.7426667,51.9317836 25.4332717,51.9317836 C27.1185771,51.9317836 28.6024938,51.0785315 29.4822443,49.7695051 L43.8285387,49.7695051 C45.3230548,49.7695051 46.5313869,48.5558732 46.5313869,47.0666568 C46.5313869,45.5774405 45.3177551,44.3638086 43.8285387,44.3638086 L29.4769446,44.3638086 C29.1218646,43.8338384 28.6660902,43.378064 28.1361199,43.0229839 L28.1361199,40.0392515 L47.6125262,40.0392515 C50.002692,40.0392515 51.942383,38.1048601 51.942383,35.7093946 L51.942383,4.32985685 C51.942383,1.93969107 50.0079917,0 47.6125262,0 L4.32985685,0 C1.93439137,0 0,1.93439137 0,4.32985685 L0,35.7040949 L0,35.7040949 Z M7.7905625,5.41099613 L44.1465208,5.41099613 C45.4661467,5.41099613 46.5260872,6.47093661 46.5260872,7.7905625 L46.5260872,14.9292616 C46.5260872,16.2488875 45.4661467,17.308828 44.1465208,17.308828 L7.7905625,17.308828 C6.47093661,17.308828 5.41099613,16.2488875 5.41099613,14.9292616 L5.41099613,7.7905625 C5.41099613,6.47093661 6.47093661,5.41099613 7.7905625,5.41099613 L7.7905625,5.41099613 L7.7905625,5.41099613 Z M7.7905625,22.7198241 L44.1465208,22.7198241 C45.4661467,22.7198241 46.5260872,23.7797646 46.5260872,25.0993905 L46.5260872,32.2380896 C46.5260872,33.5577155 45.4661467,34.617656 44.1465208,34.617656 L7.7905625,34.617656 C6.47093661,34.617656 5.41099613,33.5577155 5.41099613,32.2380896 L5.41099613,25.1046902 C5.41099613,23.7850643 6.47093661,22.7198241 7.7905625,22.7198241 L7.7905625,22.7198241 L7.7905625,22.7198241 Z" id="Shape"></path>
        </g>
        <rect id="Rectangle-3" x="23" y="3" width="10" height="50"></rect>
        <rect id="Rectangle-4" x="3" y="23" width="50" height="10"></rect>
    </g>
</svg>