<?xml version="1.0" encoding="utf-8"?>
<!-- Generator: Adobe Illustrator 16.0.0, SVG Export Plug-In . SVG Version: 6.00 Build 0)  -->
<!DOCTYPE svg PUBLIC "-//W3C//DTD SVG 1.1//EN" "http://www.w3.org/Graphics/SVG/1.1/DTD/svg11.dtd">
<svg version="1.1" id="Layer_1" xmlns="http://www.w3.org/2000/svg" xmlns:xlink="http://www.w3.org/1999/xlink" x="0px" y="0px"
	 width="512px" height="512px" viewBox="0 0 512 512" enable-background="new 0 0 512 512" xml:space="preserve">
<g>
	<g>
		<polygon points="447.992,336 181.555,336 69.539,80 0.008,80 0.008,48 90.477,48 202.492,304 447.992,304 		"/>
	</g>
	<path d="M287.992,416c0,26.5-21.5,48-48,48s-48-21.5-48-48s21.5-48,48-48S287.992,389.5,287.992,416z"/>
	<path d="M447.992,416c0,26.5-21.5,48-48,48s-48-21.5-48-48s21.5-48,48-48S447.992,389.5,447.992,416z"/>
	<g>
		<polygon points="499.18,144 511.992,112 160.008,112 172.805,144 		"/>
		<polygon points="211.195,240 223.992,272 447.992,272 460.805,240 		"/>
		<polygon points="486.398,176 185.602,176 198.398,208 473.586,208 		"/>
	</g>
</g>
</svg>
