<?xml version="1.0" encoding="UTF-8"?>
<svg width="90px" height="90px" viewBox="0 0 90 90" version="1.1" xmlns="http://www.w3.org/2000/svg" xmlns:xlink="http://www.w3.org/1999/xlink">
    <!-- Generator: Sketch 46.2 (44496) - http://www.bohemiancoding.com/sketch -->
    <title>Slice 23</title>
    <desc>Created with Sketch.</desc>
    <defs></defs>
    <g id="dashboard" stroke="none" stroke-width="1" fill-rule="evenodd">
        <g id="img_194174" transform="translate(12.000000, 12.000000)" fill-rule="nonzero">
            <path d="M49.0289809,14.7100665 C49.0289809,16.6448793 50.6001587,18.2091961 52.5281105,18.2091961 C54.4560623,18.2091961 56.0272401,16.6380183 56.0272401,14.7100665 C56.0272401,12.7752536 54.4560623,11.2109369 52.5281105,11.2109369 C50.6001587,11.2109369 49.0289809,12.7752536 49.0289809,14.7100665 Z M49.0289809,37.1182181 C49.0289809,39.053031 50.6001587,40.6173477 52.5281105,40.6173477 C54.4560623,40.6173477 56.0272401,39.0461699 56.0272401,37.1182181 C56.0272401,35.1834053 54.4560623,33.6190885 52.5281105,33.6190885 C50.6001587,33.6190885 49.0289809,35.1902663 49.0289809,37.1182181 L49.0289809,37.1182181 Z M0,46.2228162 C0,49.3171445 2.50427904,51.8282846 5.60546843,51.8282846 L29.420133,51.8282846 L29.420133,55.6979103 C28.7340291,56.1575999 28.1439798,56.7476492 27.6842902,57.433753 L10.5111109,57.433753 C8.57629809,57.433753 7.01198132,59.0049308 7.01198132,60.9328827 C7.01198132,62.8608345 8.58315913,64.4320123 10.5111109,64.4320123 L27.6842902,64.4320123 C28.8163616,66.1266888 30.7374523,67.231316 32.9261236,67.231316 C35.1079339,67.231316 37.0290246,66.1266888 38.167957,64.4320123 L56.7407882,64.4320123 C58.675601,64.4320123 60.2399178,62.8608345 60.2399178,60.9328827 C60.2399178,59.0049308 58.66874,57.433753 56.7407882,57.433753 L38.161096,57.433753 C37.7014064,56.7476492 37.1113571,56.1575999 36.4252532,55.6979103 L36.4252532,51.8351456 L61.6395696,51.8351456 C64.733898,51.8351456 67.245038,49.3308666 67.245038,46.2296772 L67.245038,5.60546843 C67.245038,2.51114008 64.740759,0 61.6395696,0 L5.60546843,0 C2.50427904,0 0,2.50427904 0,5.60546843 L0,46.2228162 L0,46.2228162 Z M10.0857266,7.00512028 L57.1524505,7.00512028 C58.860849,7.00512028 60.2330567,8.37732797 60.2330567,10.0857266 L60.2330567,19.3275454 C60.2330567,21.035944 58.860849,22.4081516 57.1524505,22.4081516 L10.0857266,22.4081516 C8.37732797,22.4081516 7.00512028,21.035944 7.00512028,19.3275454 L7.00512028,10.0857266 C7.00512028,8.37732797 8.37732797,7.00512028 10.0857266,7.00512028 L10.0857266,7.00512028 L10.0857266,7.00512028 Z M10.0857266,29.4132719 L57.1524505,29.4132719 C58.860849,29.4132719 60.2330567,30.7854796 60.2330567,32.4938782 L60.2330567,41.735697 C60.2330567,43.4440956 58.860849,44.8163033 57.1524505,44.8163033 L10.0857266,44.8163033 C8.37732797,44.8163033 7.00512028,43.4440956 7.00512028,41.735697 L7.00512028,32.5007392 C7.00512028,30.7923407 8.37732797,29.4132719 10.0857266,29.4132719 L10.0857266,29.4132719 L10.0857266,29.4132719 Z" id="Shape"></path>
        </g>
    </g>
</svg>