<?xml version="1.0" encoding="utf-8"?>
<!-- Svg Vector Icons : http://www.onlinewebfonts.com/icon -->
<!DOCTYPE svg PUBLIC "-//W3C//DTD SVG 1.1//EN" "http://www.w3.org/Graphics/SVG/1.1/DTD/svg11.dtd">
<svg version="1.1" xmlns="http://www.w3.org/2000/svg" xmlns:xlink="http://www.w3.org/1999/xlink" x="0px" y="0px" viewBox="0 0 1000 1000" enable-background="new 0 0 1000 1000" xml:space="preserve">
<metadata> Svg Vector Icons : http://www.onlinewebfonts.com/icon </metadata>
<g><path d="M724.6,224.4c0,28.2,22.9,51,51,51s51-22.9,51-51c0-28.2-22.9-51-51-51S724.6,196.2,724.6,224.4z M724.6,551c0,28.2,22.9,51,51,51s51-22.9,51-51c0-28.2-22.9-51-51-51S724.6,522.9,724.6,551L724.6,551z M10,683.7c0,45.1,36.5,81.7,81.7,81.7h347.1v56.4c-10,6.7-18.6,15.3-25.3,25.3l-250.3,0c-28.2,0-51,22.9-51,51s22.9,51,51,51h250.3c16.5,24.7,44.5,40.8,76.4,40.8c31.8,0,59.8-16.1,76.4-40.8h270.7c28.2,0,51-22.9,51-51s-22.9-51-51-51H566.2c-6.7-10-15.3-18.6-25.3-25.3v-56.3h367.5c45.1,0,81.7-36.5,81.7-81.7V91.7c0-45.1-36.5-81.7-81.7-81.7H91.7C46.5,10,10,46.5,10,91.7L10,683.7L10,683.7z M157,112.1h686c24.9,0,44.9,20,44.9,44.9v134.7c0,24.9-20,44.9-44.9,44.9H157c-24.9,0-44.9-20-44.9-44.9V157C112.1,132.1,132.1,112.1,157,112.1L157,112.1L157,112.1z M157,438.7h686c24.9,0,44.9,20,44.9,44.9v134.7c0,24.9-20,44.9-44.9,44.9H157c-24.9,0-44.9-20-44.9-44.9V483.7C112.1,458.8,132.1,438.7,157,438.7L157,438.7L157,438.7z"/></g>
</svg>