<?xml version="1.0" encoding="utf-8"?>
<!-- Generator: Adobe Illustrator 16.0.0, SVG Export Plug-In . SVG Version: 6.00 Build 0)  -->
<!DOCTYPE svg PUBLIC "-//W3C//DTD SVG 1.1//EN" "http://www.w3.org/Graphics/SVG/1.1/DTD/svg11.dtd">
<svg version="1.1" id="Layer_1" xmlns="http://www.w3.org/2000/svg" xmlns:xlink="http://www.w3.org/1999/xlink" x="0px" y="0px"
	 width="106px" height="26px" viewBox="69.167 9.5 106 26" enable-background="new 69.167 9.5 106 26" xml:space="preserve">
<g>
	<path fill="#777777" d="M91.087,33.288v-9.865c0-3.349-2.036-5.062-6.082-5.062c-2.423,0-3.87,0.495-5.28,2.123l1.953,1.833
		c0.832-1.048,1.591-1.446,3.218-1.446c2.314,0,3.255,0.903,3.255,2.748v1.048h-3.909c-3.399,0.041-5.11,1.812-5.11,4.271
		c0,1.251,0.397,2.386,1.157,3.175c0.904,0.904,2.098,1.338,3.942,1.338c1.83,0,2.857-0.434,3.927-1.519v1.338h2.9L91.087,33.288z
		 M88.122,27.961c0,1.048-0.206,1.75-0.644,2.184c-0.785,0.759-1.628,0.846-2.764,0.846c-1.843,0-2.676-0.759-2.676-2.097
		s0.904-2.127,2.676-2.127h3.433v1.194H88.122z M106.854,33.288V12.566h-2.965v7.449c-1.078-1.28-2.3-1.656-3.87-1.656
		c-1.49,0-2.77,0.495-3.58,1.309c-1.483,1.482-1.664,3.985-1.664,6.227s0.181,4.773,1.664,6.256c0.81,0.795,2.119,1.302,3.605,1.302
		c1.602,0,2.795-0.397,3.906-1.736v1.555h2.904V33.288z M103.889,25.899c0,2.615-0.38,4.918-3.06,4.918
		c-2.675,0-3.084-2.304-3.084-4.918c0-2.625,0.405-4.893,3.084-4.893c2.676,0,3.06,2.268,3.06,4.889V25.899z M123.001,33.288v-9.431
		c0-1.656-0.351-3.056-1.482-4.159c-0.868-0.843-2.123-1.338-3.638-1.338c-1.482,0-2.911,0.553-3.931,1.656v-1.482h-2.904v14.754
		h2.965v-8.994c0-2.271,1.396-3.291,3.056-3.291c1.663,0,2.973,0.991,2.973,3.291v8.994h2.929H123.001z M139.238,26.767v-1.301
		c0-4.195-2.3-7.106-6.256-7.106c-3.786,0-6.257,2.762-6.257,7.536c0,5.605,2.937,7.558,6.632,7.558c2.59,0,4.015-0.796,5.533-2.314
		l-1.895-1.772c-1.049,1.049-1.924,1.519-3.58,1.519c-2.416,0-3.754-1.627-3.754-4.159h9.576V26.767z M136.295,24.707h-6.633
		c0.029-0.905,0.087-1.338,0.38-2.011c0.463-1.107,1.54-1.866,2.937-1.866c1.398,0,2.445,0.759,2.911,1.866
		c0.29,0.669,0.376,1.106,0.405,2.007V24.707z M168.707,25.899c0-2.477-0.351-4.339-1.749-5.797
		c-0.956-0.987-2.413-1.743-4.423-1.743c-2.008,0-3.436,0.759-4.395,1.743c-1.396,1.454-1.746,3.32-1.746,5.793
		c0,2.495,0.351,4.339,1.746,5.822c0.959,0.977,2.387,1.736,4.395,1.736c2.01,0,3.471-0.759,4.423-1.736
		c1.398-1.483,1.749-3.327,1.749-5.822V25.899z M165.742,25.899c0,1.599-0.119,3.139-1.023,4.043
		c-0.55,0.553-1.309,0.875-2.184,0.875c-0.869,0-1.603-0.326-2.156-0.875c-0.903-0.904-1.013-2.444-1.013-4.05
		c0-1.599,0.109-3.146,1.013-4.043c0.554-0.554,1.284-0.843,2.156-0.843c0.875,0,1.634,0.289,2.184,0.843
		c0.904,0.904,1.02,2.444,1.02,4.05H165.742z"/>
	<path fill="#777777" d="M155.355,18.512l-7.376,7.377l-7.385-7.377"/>
	<path fill="#777777" d="M140.594,33.277l7.377-7.377l7.385,7.377"/>
</g>
</svg>
