<?xml version="1.0" encoding="utf-8"?>
<!-- Generator: Adobe Illustrator 16.0.0, SVG Export Plug-In . SVG Version: 6.00 Build 0)  -->
<!DOCTYPE svg PUBLIC "-//W3C//DTD SVG 1.1//EN" "http://www.w3.org/Graphics/SVG/1.1/DTD/svg11.dtd">
<svg version="1.1" id="Layer_1" xmlns="http://www.w3.org/2000/svg" xmlns:xlink="http://www.w3.org/1999/xlink" x="0px" y="0px"
	 width="187.455px" height="163.492px" viewBox="0 0 187.455 163.492" enable-background="new 0 0 187.455 163.492"
	 xml:space="preserve">
<g>
	<path fill="#C01722" d="M80.506,81.676c0,9.429-0.001,18.856,0.001,28.284c0,0.806-0.085,1.595-0.451,2.326
		c-0.458,0.918-1.249,1.309-2.218,0.974c-0.608-0.21-1.215-0.524-1.719-0.922c-5.048-3.991-10.076-8.007-15.096-12.033
		c-0.166-0.134-0.258-0.45-0.259-0.682c-0.014-5.073-0.011-10.148-0.011-15.222c0-6.875,0.003-13.751-0.008-20.626
		c0-0.379,0.104-0.622,0.409-0.864c4.893-3.884,9.768-7.792,14.668-11.666c0.591-0.468,1.271-0.869,1.973-1.136
		c1-0.38,1.885,0.008,2.258,1.007c0.268,0.714,0.43,1.514,0.433,2.276C80.517,62.821,80.506,72.249,80.506,81.676z"/>
	<path fill="#C01722" d="M118.31,43.405c1.637-1.75,3.269-3.498,4.974-5.322c9.423,10.375,14.799,22.53,16.295,36.377
		c2.368,21.914-6.152,40.09-16.337,50.764c-1.644-1.757-3.285-3.514-4.932-5.273c9.866-10.865,14.775-23.675,14.775-38.271
		C133.086,67.096,128.188,54.299,118.31,43.405z"/>
	<path fill="#C01722" d="M108.346,109.222c-1.643-1.76-3.265-3.495-4.907-5.256c5.878-6.269,8.889-13.705,8.891-22.27
		c0.002-8.568-3.004-16.008-8.889-22.309c1.631-1.749,3.261-3.495,4.891-5.242C122.399,68.218,123.322,93.831,108.346,109.222z"/>
	<path fill="#C01722" d="M52.781,65.836c0,0.247,0,0.417,0,0.587c0,10.165,0,20.329,0,30.494c0,0.601-0.001,0.601-0.621,0.601
		c-1.519,0.001-3.039,0.001-4.558,0.001c-1.622-0.001-2.402-0.671-2.604-2.27c-0.062-0.494-0.095-0.997-0.096-1.497
		c-0.006-8.02-0.004-16.038-0.004-24.057c0-2.297,1.564-3.858,3.864-3.859c1.143-0.001,2.287,0,3.431,0
		C52.363,65.836,52.532,65.836,52.781,65.836z"/>
	<path fill="#C01722" d="M93.523,93.294c-1.712-1.846-3.358-3.62-5.024-5.417c1.98-1.61,3.105-3.634,3.105-6.2
		c0-2.553-1.109-4.569-3.105-6.196c1.648-1.78,3.292-3.555,5.004-5.404c2.722,2.529,4.337,5.627,4.81,9.269
		C99.013,84.738,97.481,89.409,93.523,93.294z"/>
</g>
</svg>
