<?xml version="1.0" encoding="utf-8"?>
<!-- Generator: Adobe Illustrator 16.0.0, SVG Export Plug-In . SVG Version: 6.00 Build 0)  -->
<!DOCTYPE svg PUBLIC "-//W3C//DTD SVG 1.1//EN" "http://www.w3.org/Graphics/SVG/1.1/DTD/svg11.dtd">
<svg version="1.1" id="Layer_1" xmlns="http://www.w3.org/2000/svg" xmlns:xlink="http://www.w3.org/1999/xlink" x="0px" y="0px"
	 width="310px" height="152px" viewBox="0 0 310 152" enable-background="new 0 0 310 152" xml:space="preserve">
<title>alplora_logo_nopadding</title>
<desc>Created with Sketch.</desc>
<g id="Page-1">
	<g id="alplora_logo_nopadding" transform="translate(-39.000000, -41.000000)">
		<g id="Layer_1_1_" transform="translate(38.934322, 40.533088)">
			<path id="Shape" fill="#FFFFFF" d="M196.86,130.129c-3.017,0-5.817-0.566-8.405-1.694c-2.591-1.13-4.826-2.668-6.713-4.611
				c-1.884-1.944-3.355-4.229-4.41-6.858c-1.055-2.627-1.584-5.41-1.584-8.355v-0.157c0-2.995,0.54-5.806,1.623-8.435
				c1.079-2.626,2.562-4.926,4.447-6.896s4.121-3.532,6.711-4.689c2.588-1.156,5.416-1.735,8.482-1.735
				c3.064,0,5.893,0.566,8.482,1.694c2.588,1.131,4.826,2.681,6.712,4.652c1.884,1.971,3.354,4.256,4.41,6.855
				c1.056,2.602,1.583,5.4,1.583,8.395v0.158c0,2.943-0.54,5.729-1.621,8.355c-1.082,2.629-2.562,4.927-4.447,6.896
				c-1.886,1.972-4.137,3.535-6.748,4.69C202.766,129.549,199.925,130.129,196.86,130.129L196.86,130.129z M197.009,121.853
				c1.847,0,3.51-0.356,4.984-1.065c1.473-0.707,2.736-1.667,3.781-2.877c1.051-1.209,1.849-2.613,2.398-4.217
				c0.551-1.604,0.826-3.297,0.826-5.084v-0.157c0-1.839-0.3-3.572-0.899-5.202c-0.602-1.629-1.436-3.047-2.511-4.257
				c-1.074-1.208-2.348-2.167-3.82-2.877s-3.11-1.064-4.908-1.064c-1.799,0-3.434,0.354-4.909,1.064
				c-1.474,0.709-2.736,1.656-3.784,2.839c-1.048,1.182-1.848,2.588-2.397,4.217s-0.824,3.338-0.824,5.123v0.156
				c0,1.842,0.299,3.562,0.899,5.164c0.6,1.604,1.434,3.021,2.51,4.256c1.074,1.236,2.348,2.207,3.82,2.916
				C193.65,121.496,195.263,121.853,197.009,121.853L197.009,121.853z"/>
			<path id="Shape_1_" fill="#FFFFFF" d="M118.377,128.921c1.78,0,3.46-0.345,5.04-1.032c1.579-0.688,2.958-1.648,4.135-2.881
				c1.176-1.232,2.111-2.754,2.8-4.561c0.689-1.808,1.034-3.83,1.034-6.065v-0.173c0-2.178-0.345-4.172-1.034-5.979
				c-0.689-1.809-1.624-3.341-2.8-4.603c-1.178-1.261-2.556-2.237-4.135-2.925c-1.58-0.688-3.26-1.032-5.04-1.032
				s-3.536,0.218-5.083,1.032c-1.164,0.613-2.489,1.87-3.393,2.969c-1.122,1.363-2.168,2.825-2.886,4.602
				c-0.719,1.777-1.077,3.758-1.077,5.936v0.173c0,2.181,0.358,4.171,1.077,5.979c0.717,1.809,1.68,3.342,2.886,4.602
				c1.206,1.262,1.784,2.237,3.393,2.926C114.902,128.576,116.597,128.921,118.377,128.921L118.377,128.921z M103.294,99.836
				l0.417-0.682c1.662-2.409,3.725-4.432,6.189-6.065c2.463-1.636,5.529-2.453,9.197-2.453c2.692,0,5.299,0.517,7.821,1.55
				c2.521,1.032,4.771,2.553,6.747,4.56c1.977,2.009,3.567,4.474,4.771,7.397c1.204,2.926,1.806,6.28,1.806,10.065v0.173
				c0,3.785-0.589,7.14-1.763,10.065c-1.175,2.925-2.751,5.392-4.728,7.397c-1.976,2.009-4.24,3.527-6.79,4.561
				c-2.549,1.031-5.172,1.549-7.864,1.549c-3.724,0-6.819-0.806-9.283-2.409c-2.464-1.604-4.498-3.47-6.102-5.592v22.474h-9.682
				v-38.533V103.45c0-2.128-3.196-3.585-5.181-3.365h-1.851l4.173-9.633h1.201c3.69,0,5.101,0.773,7.439,2.552
				c1.65,1.256,3.013,3.839,3.545,6.838L103.294,99.836L103.294,99.836z"/>
			<path id="Shape_2_" fill="#FFFFFF" d="M239.929,96.074c2.402-3.566,6.284-5.415,7.266-5.877c2.465-1.166,8.51-2.148,10.822-1.488
				v10.184h-0.604c-2.297,0-4.395,0.375-6.29,1.121c-1.895,0.744-3.532,1.864-4.911,3.354c-1.379,1.494-2.441,3.37-3.188,5.636
				c-0.747,2.266-1.121,4.89-1.121,7.872v13.155h-10.51v-19.153l0.016-0.651l0.042-4.587c-0.275-4.479-0.343-6.204-3.365-6.94
				l-3.677,0.049l3.326-10.507h1.36c3.69,0,5.132,0.772,7.472,2.552c1.248,0.949,2.57,2.96,3.453,5.284
				C240.034,96.113,239.904,96.113,239.929,96.074L239.929,96.074z"/>
			<path id="Shape_3_" fill="#FFFFFF" d="M40.716,109.897L35.124,99.49l-1.726,2.516l-5.003-11.047l-8.456,18.874L40.716,109.897
				L40.716,109.897z M22.258,79.296c0,0,5.359-4.459,12.591,0.065l0.28,0.541l21.611,50.125H45.094l-5.001-10.754H16.768
				l-5.073,10.754H0.331l21.6-50.098L22.258,79.296L22.258,79.296z"/>
			<path id="Shape_4_" fill="#FFFFFF" d="M293.579,110.463c-1.322-0.516-2.885-0.947-4.695-1.291
				c-1.809-0.344-3.717-0.517-5.729-0.517c-3.272,0-5.83,0.633-7.668,1.894c-1.839,1.262-2.757,2.982-2.757,5.16v0.172
				c0,2.18,0.847,3.844,2.542,4.989c1.693,1.149,3.776,1.721,6.246,1.721c1.723,0,3.316-0.228,4.78-0.688
				c1.466-0.459,2.743-1.104,3.835-1.936c1.089-0.83,1.939-1.836,2.541-3.012c0.604-1.176,0.904-2.48,0.904-3.912V110.463
				L293.579,110.463L293.579,110.463z M293.904,123.094l-0.58,0.791c-1.551,1.836-3.533,3.385-5.945,4.645s-5.342,1.893-8.787,1.893
				c-2.184,0-4.252-0.302-6.202-0.904c-1.952-0.603-3.661-1.491-5.126-2.668c-1.466-1.174-2.643-2.637-3.533-4.388
				c-0.891-1.748-1.335-3.771-1.335-6.065v-0.171c0-2.524,0.46-4.718,1.378-6.582c0.918-1.862,2.195-3.411,3.834-4.645
				c1.637-1.233,3.589-2.151,5.859-2.753c2.267-0.604,4.723-0.903,7.365-0.903c2.758,0,5.097,0.173,7.022,0.517
				c1.924,0.344,3.776,0.803,5.556,1.375v-0.859c0-3.153-0.961-3.082-2.884-4.745c-1.925-1.663-6.353-2.495-9.971-2.495
				c-2.585,0-4.882,0.258-6.892,0.774c-2.012,0.517-4.05,1.206-6.117,2.065l-0.357-9.172c2.625-1.238,2.625-1.238,5.268-1.926
				c2.641-0.689,5.827-1.033,9.562-1.033c6.778,0,13.46,1.679,16.734,5.033c3.272,3.356,4.911,5.593,4.911,11.67v15.876
				c0,2.128,1.068,3.192,3.602,3.192l2.305-0.034l-3.59,8.433l-2.081-0.044c-3.274-0.227-4.949-0.524-6.77-2.103
				c-1.526-1.322-2.536-2.836-3.24-4.842L293.904,123.094z"/>
			<path id="Shape_5_" fill="#FFFFFF" d="M158.448,99.215v18.814c0,2.128,1.266,3.192,3.799,3.192h9.307v8.806h-10.312
				c-3.691,0-6.733-0.85-9.129-2.552c-2.525-1.73-3.787-4.64-3.787-8.729V86.575v-7.19c0-2.127-0.45-3.365-2.982-3.365h-1.022
				l4.004-9.632h0.708c1.511,0.312,3.643,0.848,5.616,2.551c2.029,1.753,3.785,5.468,3.785,9.557L158.448,99.215L158.448,99.215z"/>
			<path id="Shape_6_" fill="#FFFFFF" d="M73.097,99.215v18.814c0,2.128,1.267,3.192,3.801,3.192h9.306v8.806H75.889
				c-3.69,0-6.733-0.85-9.128-2.552c-2.525-1.73-3.787-4.64-3.787-8.729V86.575v-7.19c0-2.127-0.45-3.365-2.982-3.365H58.97
				l4.004-9.632h0.708c1.511,0.312,3.643,0.848,5.616,2.551c2.029,1.753,3.786,5.468,3.786,9.557L73.097,99.215L73.097,99.215z"/>
			<path id="Shape_7_" fill="#FFFFFF" d="M194.114,60.085c-0.538,0-1.06,0.063-1.563,0.174l-11.768-23.204
				c1.715-1.249,2.83-3.228,2.83-5.463c0-3.776-3.164-6.839-7.068-6.839s-7.068,3.062-7.068,6.839c0,2.004,0.897,3.801,2.317,5.051
				l-3.669,7.497c-0.58-0.15-1.188-0.237-1.816-0.237c-0.478,0-0.945,0.047-1.398,0.135l-15.28-31.655
				c1.376-1.248,2.24-3.016,2.24-4.984c0-3.775-3.164-6.838-7.068-6.838c-3.903,0-7.069,3.062-7.069,6.838
				c0,2.174,1.052,4.107,2.687,5.359L120.511,60.33c-0.35-0.051-0.707-0.086-1.072-0.086c-3.904,0-7.068,3.06-7.068,6.837
				s3.164,6.84,7.068,6.84c3.903,0,7.068-3.062,7.068-6.84c0-2.274-1.152-4.283-2.917-5.526l19.855-47.444
				c0.439,0.083,0.892,0.129,1.356,0.129c0.666,0,1.308-0.095,1.919-0.261l15.172,31.429c-1.616,1.254-2.655,3.177-2.655,5.336
				c0,3.774,3.166,6.838,7.069,6.838c3.904,0,7.068-3.062,7.068-6.838c0-2.007-0.897-3.805-2.32-5.056l3.667-7.495
				c0.583,0.15,1.191,0.237,1.822,0.237c0.398,0,0.789-0.04,1.17-0.102l11.849,23.365c-1.538,1.254-2.519,3.129-2.519,5.229
				c0,3.776,3.166,6.838,7.068,6.838c3.904,0,7.068-3.061,7.068-6.838C201.182,63.145,198.019,60.085,194.114,60.085L194.114,60.085
				z"/>
		</g>
	</g>
</g>
</svg>
