<?xml version="1.0" encoding="utf-8"?>
<!-- Generator: Adobe Illustrator 16.0.0, SVG Export Plug-In . SVG Version: 6.00 Build 0)  -->
<!DOCTYPE svg PUBLIC "-//W3C//DTD SVG 1.0//EN" "http://www.w3.org/TR/2001/REC-SVG-20010904/DTD/svg10.dtd">
<svg version="1.0" id="Layer_1" xmlns="http://www.w3.org/2000/svg" xmlns:xlink="http://www.w3.org/1999/xlink" x="0px" y="0px"
	 width="51.333px" height="75.333px" viewBox="12.783 -3.413 51.333 75.333" enable-background="new 12.783 -3.413 51.333 75.333"
	 xml:space="preserve">
<path fill="#C01823" d="M57.239,44.545c-0.255,0-0.503,0.031-0.743,0.083l-5.585-11.03c0.815-0.593,1.346-1.534,1.346-2.596
	c0-1.794-1.503-3.25-3.355-3.25c-1.854,0-3.354,1.456-3.354,3.25c0,0.953,0.425,1.806,1.099,2.401l-1.741,3.563
	c-0.276-0.071-0.564-0.112-0.862-0.112c-0.228,0-0.448,0.021-0.663,0.063l-7.253-15.045c0.653-0.592,1.064-1.434,1.064-2.368
	c0-1.795-1.502-3.25-3.356-3.25c-1.853,0-3.354,1.456-3.354,3.25c0,1.034,0.499,1.952,1.274,2.547l-9.447,22.61
	c-0.166-0.024-0.335-0.041-0.509-0.041c-1.853,0-3.355,1.455-3.355,3.25s1.502,3.251,3.355,3.251c1.853,0,3.354-1.456,3.354-3.251
	c0-1.081-0.546-2.035-1.384-2.627l9.424-22.55c0.208,0.039,0.422,0.061,0.644,0.061c0.316,0,0.621-0.045,0.911-0.125l7.202,14.938
	c-0.768,0.597-1.26,1.51-1.26,2.536c0,1.793,1.503,3.25,3.355,3.25c1.853,0,3.354-1.455,3.354-3.25c0-0.954-0.427-1.809-1.102-2.403
	l1.741-3.562c0.277,0.071,0.565,0.112,0.865,0.112c0.189,0,0.373-0.019,0.556-0.048l5.624,11.105
	c-0.731,0.595-1.196,1.488-1.196,2.485c0,1.795,1.502,3.25,3.355,3.25c1.853,0,3.354-1.455,3.354-3.25
	C60.593,45.999,59.092,44.545,57.239,44.545z"/>
</svg>
