<?xml version="1.0" encoding="utf-8"?>
<!-- Generator: Adobe Illustrator 16.0.0, SVG Export Plug-In . SVG Version: 6.00 Build 0)  -->
<!DOCTYPE svg PUBLIC "-//W3C//DTD SVG 1.1//EN" "http://www.w3.org/Graphics/SVG/1.1/DTD/svg11.dtd">
<svg version="1.1" id="Layer_1" xmlns="http://www.w3.org/2000/svg" xmlns:xlink="http://www.w3.org/1999/xlink" x="0px" y="0px"
	 width="1280px" height="800px" viewBox="0 0 1280 800" enable-background="new 0 0 1280 800" xml:space="preserve">
<g id="Layer_1_2_">
	<g id="Layer_2">
	</g>
	<ellipse fill="#549316" cx="202.659" cy="237.5" rx="163.831" ry="160.048"/>
	<polygon fill="#549316" points="1089.016,483.032 1089.448,310.991 1105.453,310.995 1105.021,483.037 	"/>
	<ellipse fill="#549316" cx="604.878" cy="225.963" rx="160.83" ry="157.116"/>
	
		<rect x="73.737" y="404.672" transform="matrix(0.5068 -0.862 0.862 0.5068 -287.5933 323.8112)" fill="#549316" width="130.944" height="17.172"/>
	<ellipse fill="#549316" cx="683.56" cy="610.986" rx="162.021" ry="158.279"/>
	<ellipse fill="#549316" cx="1092.469" cy="610.986" rx="161.75" ry="158.016"/>
	<g id="Layer_1_1_" display="none">
		<rect display="inline" fill="#F2D02A" width="1280" height="800"/>
	</g>
	
		<rect x="561.168" y="427.218" transform="matrix(-0.3769 -0.9263 0.9263 -0.3769 488.0356 1198.6448)" fill="#549316" width="172.055" height="15.897"/>
	
		<rect x="321.85" y="212.505" transform="matrix(1 0.0061 -0.0061 1 1.3522 -2.4836)" fill="#549316" width="172.045" height="15.896"/>
	<rect x="811.678" y="611.685" fill="#549316" width="172.041" height="15.896"/>
	<path fill="#FFFFFF" d="M247.912,173.417c13.929-5.469,21.36,0.771,21.233,17.742c14.126,4.319,25.388,13.113,34.296,24.785
		c3.341,4.379,5.879,9.565,7.868,14.734c2.512,6.524,0.938,12.763-4.115,17.702c-5.009,4.897-11.253,4.861-17.413,3.069
		c-10.307-2.999-17.811-7.298-23.468-10.649c1.772,12.109,1.545,13.27,0.931,27.474c-2.549,19.194-8.511,35-18.835,47.015
		c-22.185,25.812-58.666,27.75-83.449,4.417c-16.217-15.271-23.247-32.157-25.593-54.11c-0.823-7.69,0-14.484,1.773-25.706
		c-4.57,3.083-11.824,7.675-19.262,10.156c-7.628,2.544-14.762,4.275-21.345-1.718c-5.667-5.16-6.917-13.022-2.71-21.701
		c8.458-17.454,22.355-28.939,40.595-35.498c-1.386-18.567,9.911-22.522,21.547-18.018c3.62-20.805,10.92-25.95,28.559-20.126
		c10.407-12.294,20.294-12.279,30.102,0.043C238.21,147.75,244.363,151.982,247.912,173.417z M160.96,242.457
		c-4.571,0-8.277,3.706-8.277,8.277c0,4.57,3.706,8.276,8.277,8.276c4.571,0,8.276-3.706,8.276-8.276
		C169.235,246.163,165.53,242.457,160.96,242.457z M244.595,243.345c-4.571,0-8.276,3.706-8.276,8.275
		c0,4.571,3.706,8.277,8.276,8.277c4.57,0,8.277-3.706,8.277-8.277C252.871,247.049,249.166,243.345,244.595,243.345z"/>
	<path fill="#FFFFFF" d="M747.744,507.548c4.144,2.41,3.534,5.04,0.422,7.877c-13.684,12.479-21.017,28.738-26.358,45.914
		c-1.146,3.68,0.592,8.442,1.716,12.51c0.272,0.992,3.463,1.842,5.15,1.608c2.015-0.276,3.941-1.656,5.762-2.79
		c11.662-7.271,24.262-10.163,37.854-7.928c8.374,1.377,14.764,5.772,18.958,13.343c1.648,2.977,1.543,5.51-0.073,8.427
		c-6.72,12.107-18.114,16.901-30.746,19.259c-7.993,1.492-8.902,1.075-16.195,1.861c2.175,41.313-21.302,75.733-24.576,83.917
		c-1.42,3.55-10.525,17.365-15.241,22.695c-5.05,5.705-31.677,6.594-42.255-0.374c-4.599-4.245-11.581-13.46-13.513-18.772
		c-2.608-7.162-31.385-51.922-27.471-87.526c0.072-0.652-6.5-0.378-14.657-1.806c-10.715-1.875-20.597-5.861-27.693-14.728
		c-5.758-7.194-5.53-11.536,0.781-18.328c5.86-6.307,13.448-8.632,21.7-8.723c11.422-0.127,22.164,2.529,31.805,8.999
		c1.757,1.181,3.811,2.319,5.838,2.566c1.523,0.186,4.445-0.835,4.64-1.761c0.936-4.447,2.657-9.533,1.366-13.505
		c-5.498-16.93-12.89-32.979-26.439-45.357c-1.146-1.047-1.332-3.146-1.963-4.756c1.73-0.653,3.754-2.229,5.136-1.789
		c4.551,1.454,9.25,3.058,13.207,5.649c13.651,8.945,22.551,22.003,30.391,36.014c3.021,5.401,7.104,10.25,11.032,15.08
		c2.327,2.86,13.354,1.744,15.445-1.329c5.1-7.485,10.216-14.966,15.119-22.579c7.229-11.219,15.525-21.417,27.092-28.4
		c3.649-2.204,7.827-3.537,11.764-5.271C746.404,507.548,747.075,507.548,747.744,507.548z M641.702,620.097
		c-4.575,0-8.285,3.709-8.285,8.284s3.71,8.283,8.285,8.283c4.576,0,8.284-3.708,8.284-8.283S646.279,620.097,641.702,620.097z
		 M725.42,620.688c-4.576,0-8.285,3.709-8.285,8.284s3.709,8.285,8.285,8.285c4.574,0,8.282-3.71,8.282-8.285
		S729.994,620.688,725.42,620.688z"/>
	<path fill="#FFFFFF" d="M1143.739,572.238c7.203-15.204-7.723-18.623-7.723-18.623c17.354-24.602-1.838-49.874-6.4-50.39
		c-6.835-0.771-16.274,27.657-19.225,27.702c-3.486,0.055,0,0.001,0,0c-3.64-14.103-18.556-3.298-18.556-3.298
		c-12.004-9.604-19.577,1.111-19.577,1.111c-2.354,0.316,2.63,4.561,0,0c-9.421-16.349-17.285-29.655-20.545-26.125
		c-24.812,26.873-4.037,50.796-4.037,50.796c-18.955,2.228-9.354,19.436-9.354,19.436c-9.406,6.426-4.861,18.067,2.002,18.008
		c0.799-0.006,0,0,0,0c-2.144,4.238,1.028,6.059,3.46,6.463c1.113,0.188,2.892-0.784,2.667-0.534l-0.466,0.928
		c-18.282,50.292,4.394,71.368,4.394,71.368c-11.255,8.609-0.598,16.268-0.598,16.268c-10.49,9.127,0.759,15.842,0.759,15.842
		c-7.611,2.003-1.955,16.539,6.226,12.627l2.134-0.979c-0.712,5.958,11.028,9.869,14.586,0.979c0.188-0.47,0.188-0.47,0.188-0.47
		c0.841,2.094,2.873,6.562,8.35,6.582c4.897,0.02,6.11-2.379,7.084-5.188c1.033-2.979,0.209-1.282,0.209-1.282
		c0.939,2.818,3.732,6.272,7.474,6.451c4.974,0.239,7.11-1.826,8.532-5.562c0.511-1.341-0.45-1.284,0.391-0.029
		c1.146,1.711,0.82,3.748,5.211,5.099c2.046,0.63,3.447,0.295,4.523,0.07c7.127-1.492,4.344-8.274,5.35-7.628
		c2.49,1.6,7.292,4.091,10.998-1.198c4.02-5.732-1.128-10.186-1.128-10.186c10.761-7.472,1.294-15.983,1.294-15.983
		c9.998-7.316,0.801-15.607,0.801-15.607c23.609-23.208,5.346-70.732,5.346-70.732c0.194-0.38-0.719-0.64-0.147-1.367
		c0.295-0.375,2.132,1.222,4.002-1.067c2.399-2.935,0.006-4.462,0.006-4.462C1154.411,582.11,1143.739,572.238,1143.739,572.238z
		 M1056.197,622.335c-4.124,0-7.469-3.344-7.469-7.47c0-4.127,3.345-7.47,7.469-7.47c4.127,0,7.472,3.343,7.472,7.47
		C1063.668,618.991,1060.323,622.335,1056.197,622.335z M1127.827,622.518c-4.126,0-7.471-3.344-7.471-7.471
		c0-4.124,3.345-7.47,7.471-7.47s7.47,3.346,7.47,7.47C1135.297,619.174,1131.953,622.518,1127.827,622.518z"/>
	<path fill="#FFFFFF" d="M491.573,192.034c-1.312-2.134-2.744-4.201-3.37-6.616c-0.625-2.413,0.549-4.272,2.338-5.81
		c1.912-1.646,4.223-2.51,6.559-3.268c5.509-1.785,11.179-2.514,16.961-2.243c3.7,0.173,7.345,0.765,10.971,1.549
		c3.06,0.66,5.764,1.859,7.962,4.095c1.698,1.727,3.317,3.525,5.032,5.232c3.066,3.051,6.31,3.374,9.976,5.705
		c0.389,0.247,0.785,0.479,1.19,0.702c0.955,0.521,2.035,0.424,2.693-0.42c1.207-1.554,2.469-3.231,2.04-6.517
		c-2.505-2.165-3.22-3.357-6.163-7.652c-2.243-3.645-7.851-13.835-5.388-26.545c0.219-1.015,0.584-2.009,0.983-2.97
		c0.142-0.339,0.575-0.769,0.881-0.774c0.309-0.005,0.769,0.407,0.909,0.743c0.587,1.383,3.736,4.866,8.036,12.159
		c1.816,3.078,4.115,5.253,7.667,8.226c2.835,2.203,6.031,4.109,6.031,4.109c3.056-0.335,5.29-0.156,8.289-0.831
		c3.745-0.842,7.435-1.931,11.14-2.947c2.314-0.635,4.592-1.397,6.917-1.993c4.384-1.12,8.771-2.419,13.37-1.837
		c2.16,0.273,4.314,0.717,6.419,1.276c5.172,1.373,10.303,2.894,15.471,4.284c2.819,0.757,5.667,1.437,8.527,2.016
		c1.839,0.371,3.72,0.041,5.593,0.131c1.507,0.073,2.69-0.101,4.132-0.548c2.806-1.386,6.089-6.597,8.353-9.831
		c2.107-2.276,3.821-4.749,5.413-8.135c1.694-3.6,2.271-3.588,3.838-7.249c0.243-0.573,0.722-1.339,1.218-1.445
		c0.798-0.172,1.051,0.754,1.196,1.378c0.49,2.059,1.226,5.563,1.414,7.661c0.349,3.827,0.135,7.749-0.18,11.155
		c-0.366,3.97-0.845,7.447-2.992,10.846c-2.55,4.035-6.773,7.626-8.168,8.263c-0.703,0.267-1.272,0.164-1.948,1.224
		c-0.831,1.303-0.174,2.93,0.395,4.161c0.509,1.106,2.813,3.355,4.275,2.474c4.717-2.843,8.706-4.584,12.543-8.474
		c1.354-1.373,2.6-2.854,3.999-4.176c1.868-1.765,4.146-2.797,6.647-3.368c5.378-1.221,10.805-1.973,16.33-1.667
		c5.669,0.315,11.193,1.382,16.327,3.896c1.367,0.669,2.655,1.695,3.682,2.828c1.716,1.899,1.624,4.106,0.526,6.364
		c-3.209,6.591-7.797,12.088-13.251,16.915c-4.19,3.709-8.72,6.953-13.527,9.796c-2.839,1.676-5.978,2.538-9.196,3.175
		c-4.933,0.977-9.896,1.425-14.902,0.814c-1.478-0.181-2.918-0.497-4.37,0.049c-0.46,0.172-1.985,5.58-2.275,7.543
		c-0.46,3.108-0.934,6.217-1.427,9.321c-0.46,2.891-6.359,61.126-6.459,65.696c-0.114,5.268-12.228,18.099-14.029,17.061
		c-6.3-3.625-14.154,0.862-15.718,6.591c-4.324,3.035-37.303,5.796-39.931,0.513c-4.5-9.046-8.986-9.327-15.317-7.047
		c-3.228-0.062-14.039-14.317-13.724-20.062c0.222-4.018-5.783-58.278-6.274-61.283c-0.631-3.893-1.285-7.78-1.926-11.671
		c-0.292-1.771-0.208-5.378-2.073-6.237c-1.583-0.731-3.187-0.822-4.947-0.583c-2.371,0.324-4.799,0.367-7.199,0.322
		c-4.085-0.081-8.096-0.846-12.026-1.902c-2.828-0.76-5.386-2.189-7.85-3.782c-6.074-3.934-11.753-8.343-16.573-13.777
		L491.573,192.034z M568.81,232.245c-4.337,0-7.854,3.518-7.854,7.853c0,4.337,3.517,7.853,7.854,7.853s7.854-3.516,7.854-7.853
		C576.662,235.762,573.146,232.245,568.81,232.245z M640.875,233.087c-4.338,0-7.854,3.515-7.854,7.852s3.517,7.854,7.854,7.854
		c4.338,0,7.852-3.518,7.852-7.854S645.213,233.087,640.875,233.087z"/>
	<ellipse fill="#549316" cx="85.951" cy="501.676" rx="45.915" ry="44.854"/>
	
		<ellipse transform="matrix(-0.9978 0.0666 -0.0666 -0.9978 2210.2903 487.2932)" fill="#549316" cx="1097.023" cy="280.488" rx="63.449" ry="61.983"/>
</g>
<g id="Layer_2_1_">
</g>
</svg>
