<?xml version="1.0" encoding="utf-8"?>
<!-- Generator: Adobe Illustrator 16.0.0, SVG Export Plug-In . SVG Version: 6.00 Build 0)  -->
<!DOCTYPE svg PUBLIC "-//W3C//DTD SVG 1.1//EN" "http://www.w3.org/Graphics/SVG/1.1/DTD/svg11.dtd">
<svg version="1.1" id="Layer_1" xmlns="http://www.w3.org/2000/svg" xmlns:xlink="http://www.w3.org/1999/xlink" x="0px" y="0px"
	 width="1280px" height="800px" viewBox="0 0 1280 800" enable-background="new 0 0 1280 800" xml:space="preserve">
<g id="Layer_1_2_">
	<g id="Layer_2">
	</g>
	<ellipse fill="#549316" cx="202.659" cy="237.5" rx="163.831" ry="160.048"/>
	<polygon fill="#549316" points="1089.016,483.032 1089.448,310.991 1105.453,310.995 1105.021,483.037 	"/>
	<ellipse fill="#549316" cx="604.878" cy="225.963" rx="160.83" ry="157.116"/>
	
		<rect x="73.718" y="404.667" transform="matrix(-0.5068 0.862 -0.862 -0.5068 565.9731 502.7143)" fill="#549316" width="130.937" height="17.171"/>
	<ellipse fill="#549316" cx="683.56" cy="610.986" rx="162.021" ry="158.279"/>
	<ellipse fill="#549316" cx="1092.469" cy="610.986" rx="161.75" ry="158.016"/>
	<g id="Layer_1_1_" display="none">
		<rect display="inline" fill="#F2D02A" width="1280" height="800"/>
	</g>
	
		<rect x="561.171" y="427.184" transform="matrix(0.3769 0.9263 -0.9263 0.3769 806.3294 -328.3397)" fill="#549316" width="172.063" height="15.898"/>
	
		<rect x="321.855" y="212.509" transform="matrix(-1 -0.0061 0.0061 -1 814.4071 443.3985)" fill="#549316" width="172.049" height="15.896"/>
	<rect x="811.678" y="611.685" fill="#549316" width="172.041" height="15.896"/>
	<path fill="#FFFFFF" d="M242.67,178.314c12.902-5.065,19.786,0.714,19.668,16.435c13.085,4,23.518,12.146,31.769,22.958
		c3.095,4.057,5.446,8.86,7.289,13.649c2.327,6.043,0.869,11.822-3.812,16.397c-4.64,4.536-10.424,4.503-16.13,2.843
		c-9.548-2.778-16.499-6.761-21.739-9.865c1.642,11.217,1.431,12.292,0.863,25.45c-2.362,17.78-7.884,32.422-17.447,43.551
		c-20.551,23.91-54.344,25.705-77.301,4.091c-15.022-14.146-21.534-29.788-23.707-50.123c-0.763-7.124,0-13.417,1.642-23.812
		c-4.233,2.856-10.953,7.109-17.843,9.407c-7.066,2.357-13.674,3.96-19.772-1.591c-5.249-4.78-6.407-12.062-2.51-20.102
		c7.835-16.168,20.708-26.807,37.604-32.882c-1.284-17.199,9.181-20.863,19.959-16.69c3.353-19.272,10.115-24.038,26.455-18.644
		c9.641-11.388,18.799-11.374,27.884,0.04C233.683,154.539,239.382,158.459,242.67,178.314z M162.124,242.268
		c-4.234,0-7.667,3.433-7.667,7.667s3.433,7.667,7.667,7.667c4.235,0,7.667-3.433,7.667-7.667
		C169.79,245.701,166.357,242.268,162.124,242.268z M239.597,243.091c-4.234,0-7.667,3.432-7.667,7.665
		c0,4.234,3.433,7.667,7.667,7.667s7.667-3.433,7.667-7.667C247.264,246.521,243.832,243.091,239.597,243.091z"/>
	<path fill="#FFFFFF" d="M742.438,516.279c3.801,2.211,3.242,4.624,0.387,7.226c-12.552,11.448-19.279,26.363-24.179,42.119
		c-1.051,3.375,0.543,7.744,1.574,11.476c0.249,0.91,3.177,1.69,4.724,1.476c1.85-0.254,3.616-1.52,5.287-2.56
		c10.696-6.67,22.256-9.323,34.724-7.272c7.682,1.264,13.544,5.295,17.392,12.24c1.512,2.73,1.415,5.054-0.067,7.729
		c-6.164,11.107-16.616,15.505-28.205,17.667c-7.331,1.369-8.165,0.986-14.855,1.708c1.995,37.898-19.542,69.473-22.545,76.979
		c-1.302,3.257-9.655,15.93-13.98,20.819c-4.633,5.233-29.059,6.049-38.763-0.343c-4.218-3.895-10.623-12.348-12.396-17.221
		c-2.393-6.57-28.791-47.63-25.201-80.29c0.066-0.599-5.962-0.347-13.445-1.657c-9.83-1.721-18.895-5.376-25.404-13.511
		c-5.282-6.6-5.073-10.582,0.716-16.812c5.375-5.786,12.336-7.919,19.907-8.002c10.478-0.116,20.331,2.319,29.175,8.255
		c1.612,1.083,3.496,2.127,5.355,2.354c1.397,0.171,4.078-0.766,4.256-1.615c0.859-4.079,2.438-8.745,1.254-12.389
		c-5.044-15.531-11.825-30.253-24.253-41.607c-1.052-0.961-1.222-2.886-1.801-4.363c1.587-0.599,3.444-2.044,4.711-1.641
		c4.175,1.334,8.485,2.806,12.115,5.182c12.522,8.205,20.687,20.185,27.879,33.037c2.771,4.955,6.517,9.402,10.12,13.833
		c2.135,2.624,12.249,1.601,14.168-1.219c4.679-6.866,9.372-13.729,13.869-20.713c6.632-10.291,14.241-19.646,24.853-26.052
		c3.348-2.021,7.18-3.244,10.792-4.836C741.209,516.279,741.825,516.279,742.438,516.279z M645.162,619.524
		c-4.197,0-7.6,3.402-7.6,7.6s3.403,7.599,7.6,7.599c4.198,0,7.6-3.401,7.6-7.599S649.361,619.524,645.162,619.524z M721.96,620.066
		c-4.198,0-7.601,3.402-7.601,7.6s3.402,7.601,7.601,7.601c4.196,0,7.598-3.403,7.598-7.601
		C729.558,623.47,726.156,620.066,721.96,620.066z"/>
	<path fill="#FFFFFF" d="M1143.739,572.238c7.203-15.204-7.724-18.623-7.724-18.623c17.354-24.603-1.838-49.874-6.399-50.391
		c-6.835-0.771-16.274,27.657-19.226,27.702c-3.485,0.056,0,0.001,0,0c-3.64-14.103-18.556-3.298-18.556-3.298
		c-12.004-9.604-19.577,1.111-19.577,1.111c-2.354,0.315,2.63,4.561,0,0c-9.421-16.35-17.285-29.655-20.545-26.125
		c-24.812,26.873-4.037,50.796-4.037,50.796c-18.955,2.228-9.354,19.436-9.354,19.436c-9.406,6.427-4.861,18.067,2.002,18.009
		c0.799-0.007,0,0,0,0c-2.145,4.237,1.027,6.059,3.46,6.463c1.112,0.188,2.892-0.784,2.667-0.534l-0.467,0.928
		c-18.281,50.292,4.395,71.368,4.395,71.368c-11.255,8.609-0.598,16.268-0.598,16.268c-10.49,9.127,0.759,15.843,0.759,15.843
		c-7.611,2.003-1.955,16.538,6.226,12.627l2.135-0.979c-0.713,5.958,11.027,9.869,14.586,0.979c0.188-0.471,0.188-0.471,0.188-0.471
		c0.841,2.095,2.873,6.562,8.35,6.582c4.897,0.021,6.11-2.379,7.084-5.188c1.033-2.979,0.209-1.282,0.209-1.282
		c0.939,2.818,3.732,6.272,7.475,6.451c4.974,0.239,7.109-1.826,8.532-5.562c0.511-1.341-0.45-1.283,0.391-0.028
		c1.146,1.711,0.82,3.748,5.211,5.099c2.046,0.63,3.447,0.295,4.523,0.07c7.127-1.492,4.344-8.274,5.35-7.628
		c2.49,1.6,7.292,4.091,10.998-1.198c4.021-5.732-1.128-10.186-1.128-10.186c10.761-7.473,1.294-15.983,1.294-15.983
		c9.998-7.316,0.801-15.607,0.801-15.607c23.609-23.208,5.346-70.731,5.346-70.731c0.194-0.38-0.719-0.641-0.146-1.367
		c0.295-0.375,2.132,1.222,4.002-1.067c2.399-2.935,0.006-4.462,0.006-4.462C1154.411,582.11,1143.739,572.238,1143.739,572.238z
		 M1056.197,622.335c-4.124,0-7.469-3.344-7.469-7.47c0-4.127,3.345-7.47,7.469-7.47c4.127,0,7.472,3.343,7.472,7.47
		C1063.668,618.991,1060.323,622.335,1056.197,622.335z M1127.827,622.518c-4.126,0-7.471-3.344-7.471-7.471
		c0-4.124,3.345-7.47,7.471-7.47s7.47,3.346,7.47,7.47C1135.297,619.174,1131.953,622.518,1127.827,622.518z"/>
	<path fill="#FFFFFF" d="M491.573,192.034c-1.312-2.134-2.744-4.201-3.37-6.616c-0.625-2.413,0.549-4.272,2.338-5.81
		c1.912-1.646,4.223-2.51,6.559-3.268c5.51-1.785,11.18-2.514,16.961-2.243c3.7,0.173,7.346,0.765,10.972,1.549
		c3.06,0.66,5.764,1.859,7.962,4.095c1.698,1.727,3.316,3.525,5.032,5.232c3.065,3.051,6.31,3.374,9.976,5.705
		c0.389,0.247,0.785,0.479,1.19,0.702c0.955,0.521,2.034,0.424,2.692-0.42c1.207-1.554,2.469-3.231,2.04-6.517
		c-2.505-2.165-3.22-3.357-6.163-7.652c-2.243-3.645-7.851-13.835-5.388-26.545c0.219-1.015,0.584-2.009,0.983-2.97
		c0.142-0.339,0.574-0.769,0.881-0.774c0.309-0.005,0.769,0.407,0.908,0.743c0.588,1.383,3.736,4.866,8.036,12.159
		c1.816,3.078,4.115,5.253,7.667,8.226c2.835,2.203,6.031,4.109,6.031,4.109c3.056-0.335,5.29-0.156,8.289-0.831
		c3.745-0.842,7.435-1.931,11.14-2.947c2.314-0.635,4.593-1.397,6.917-1.993c4.385-1.12,8.771-2.419,13.37-1.837
		c2.16,0.273,4.314,0.717,6.419,1.276c5.172,1.373,10.304,2.894,15.472,4.284c2.818,0.757,5.667,1.437,8.526,2.016
		c1.839,0.371,3.721,0.041,5.594,0.131c1.507,0.073,2.689-0.101,4.132-0.548c2.806-1.386,6.089-6.597,8.353-9.831
		c2.107-2.276,3.821-4.749,5.413-8.135c1.694-3.6,2.271-3.588,3.838-7.249c0.243-0.573,0.723-1.339,1.218-1.445
		c0.799-0.172,1.052,0.754,1.196,1.378c0.49,2.059,1.227,5.563,1.414,7.661c0.349,3.827,0.135,7.749-0.18,11.155
		c-0.366,3.97-0.845,7.447-2.992,10.846c-2.55,4.035-6.773,7.626-8.168,8.263c-0.703,0.267-1.272,0.164-1.948,1.224
		c-0.831,1.303-0.174,2.93,0.396,4.161c0.509,1.106,2.812,3.355,4.274,2.474c4.717-2.843,8.706-4.584,12.543-8.474
		c1.354-1.373,2.601-2.854,3.999-4.176c1.868-1.765,4.146-2.797,6.647-3.368c5.378-1.221,10.805-1.973,16.33-1.667
		c5.669,0.315,11.192,1.382,16.327,3.896c1.366,0.669,2.654,1.695,3.682,2.828c1.716,1.899,1.624,4.106,0.526,6.364
		c-3.209,6.591-7.797,12.088-13.251,16.915c-4.19,3.709-8.721,6.953-13.527,9.796c-2.839,1.676-5.978,2.538-9.196,3.175
		c-4.933,0.977-9.896,1.425-14.901,0.814c-1.479-0.181-2.918-0.497-4.37,0.049c-0.46,0.172-1.985,5.58-2.275,7.543
		c-0.46,3.108-0.934,6.217-1.427,9.321c-0.46,2.891-6.359,61.126-6.459,65.696c-0.114,5.268-12.228,18.099-14.029,17.062
		c-6.3-3.625-14.153,0.861-15.718,6.591c-4.324,3.035-37.303,5.796-39.931,0.513c-4.5-9.046-8.986-9.327-15.317-7.047
		c-3.228-0.062-14.039-14.317-13.724-20.062c0.222-4.018-5.783-58.277-6.274-61.283c-0.631-3.893-1.285-7.78-1.926-11.671
		c-0.292-1.771-0.208-5.378-2.073-6.237c-1.583-0.731-3.187-0.822-4.947-0.583c-2.37,0.324-4.799,0.367-7.198,0.322
		c-4.085-0.081-8.097-0.846-12.026-1.902c-2.828-0.76-5.386-2.189-7.85-3.782c-6.074-3.934-11.753-8.343-16.573-13.777
		L491.573,192.034z M568.81,232.245c-4.337,0-7.854,3.518-7.854,7.853c0,4.337,3.517,7.853,7.854,7.853s7.854-3.516,7.854-7.853
		C576.662,235.762,573.146,232.245,568.81,232.245z M640.875,233.087c-4.338,0-7.854,3.515-7.854,7.852s3.517,7.854,7.854,7.854
		c4.338,0,7.852-3.518,7.852-7.854S645.213,233.087,640.875,233.087z"/>
	<ellipse fill="#549316" cx="85.951" cy="501.676" rx="45.915" ry="44.854"/>
	
		<ellipse transform="matrix(0.0666 0.9978 -0.9978 0.0666 1303.8054 -832.7598)" fill="#549316" cx="1097" cy="280.484" rx="61.985" ry="63.449"/>
</g>
<g id="Layer_2_1_">
</g>
</svg>
