<?xml version="1.0" encoding="utf-8"?>
<!-- Generator: Adobe Illustrator 16.0.0, SVG Export Plug-In . SVG Version: 6.00 Build 0)  -->
<!DOCTYPE svg PUBLIC "-//W3C//DTD SVG 1.1//EN" "http://www.w3.org/Graphics/SVG/1.1/DTD/svg11.dtd">
<svg version="1.1" id="Layer_1" xmlns="http://www.w3.org/2000/svg" xmlns:xlink="http://www.w3.org/1999/xlink" x="0px" y="0px"
	 width="169.333px" height="150.667px" viewBox="0 0 169.333 150.667" enable-background="new 0 0 169.333 150.667"
	 xml:space="preserve">
<g>
	<path fill="#C01722" d="M20.797,42.417c0.583-1.128,1.031-2.356,1.778-3.362c1.545-2.081,3.793-2.84,6.315-2.841
		c13.531-0.007,27.062-0.025,40.593,0.008c5.006,0.013,8.146,3.247,8.146,8.24c0.002,26.183,0.002,52.365,0,78.548
		c0,5.072-3.215,8.306-8.302,8.311c-13.362,0.013-26.725-0.026-40.086,0.024c-3.771,0.016-7.211-1.957-8.255-5.966
		c-0.032-0.123-0.124-0.23-0.188-0.346C20.797,97.494,20.797,69.956,20.797,42.417z M25.896,52.183c0,0.476,0,0.84,0,1.204
		c0,17.316,0.007,34.631-0.02,51.947c-0.001,0.947,0.214,1.265,1.219,1.262c14.746-0.032,29.491-0.032,44.236,0
		c1.015,0.003,1.212-0.331,1.211-1.27c-0.026-17.315-0.019-34.631-0.022-51.947c0-0.39-0.045-0.781-0.07-1.196
		C56.915,52.183,41.499,52.183,25.896,52.183z M25.956,111.691c-0.024,0.399-0.057,0.698-0.057,0.996
		c-0.004,3.482-0.011,6.964,0,10.446c0.006,2.047,0.981,3.065,3.058,3.067c13.489,0.017,26.979,0.015,40.468,0.001
		c2.129-0.003,3.092-1.015,3.096-3.13c0.006-3.447,0.004-6.896,0-10.345c0-0.329-0.037-0.655-0.061-1.035
		C56.942,111.691,41.506,111.691,25.956,111.691z M49.21,47.013c7.065,0,14.132,0,21.198,0c2.115,0,2.115,0,2.117-2.155
		c0.001-2.717-0.85-3.567-3.587-3.567c-13.152-0.002-26.304-0.002-39.456,0.002c-0.472,0-0.948,0.021-1.413,0.096
		c-1.029,0.164-1.77,0.755-1.986,1.769c-0.174,0.813-0.164,1.671-0.18,2.512c-0.025,1.344-0.006,1.345,1.296,1.345
		C34.537,47.014,41.874,47.014,49.21,47.013z"/>
	<path fill="#C01722" d="M147.869,79.158c-0.554,1.669-1.136,3.319-2.443,4.595c-1.804,1.761-4,2.407-6.468,2.406
		c-10.926-0.012-21.851-0.007-32.775-0.003c-1.816,0.001-1.604-0.166-1.62,1.643c-0.003,0.399,0,0.799,0,1.339
		c0.45,0,0.81,0,1.169,0c2.876,0.002,5.751-0.029,8.625,0.021c1.571,0.026,2.7,0.852,3.254,2.321
		c0.522,1.383,0.171,2.682-0.95,3.569c-0.64,0.505-1.574,0.89-2.379,0.895c-8.828,0.062-17.656,0.053-26.484,0.027
		c-2.082-0.007-3.496-1.465-3.483-3.429c0.012-1.882,1.541-3.372,3.563-3.394c2.875-0.03,5.749-0.009,8.625-0.011
		c0.367,0,0.734,0,1.168,0c0-0.998,0-1.926,0-2.989c-5.816,0-11.614,0-17.521,0c0-2.186-0.012-4.241,0.022-6.297
		c0.002-0.17,0.288-0.421,0.488-0.481c0.279-0.085,0.602-0.027,0.906-0.027c18.942,0,37.883,0,56.825-0.002
		c0.44,0,0.887,0.026,1.317-0.041c0.788-0.122,1.286-0.567,1.322-1.416c0.013-0.304,0.02-0.608,0.02-0.912
		c0.001-15.864,0.001-31.728,0-47.592c0-2.176-0.292-2.469-2.458-2.469c-24.962,0-49.926,0-74.888,0
		c-2.116,0-2.447,0.338-2.448,2.492c0,1.652,0,3.303,0,5.019c-2.275,0-4.456,0-6.819,0c0-0.944-0.05-1.878,0.01-2.803
		c0.127-1.947,0.025-3.969,0.537-5.816c0.915-3.309,3.396-5.078,6.754-5.617c0.466-0.075,0.944-0.092,1.417-0.092
		c25.335-0.004,50.669-0.005,76.005-0.001c2.914,0,5.402,1.015,7.073,3.451c0.742,1.082,1.104,2.425,1.637,3.651
		C147.869,44.513,147.869,61.836,147.869,79.158z"/>
	<path fill="#FFFFFF" d="M25.896,52.183c15.602,0,31.018,0,46.555,0c0.025,0.416,0.069,0.807,0.07,1.196
		c0.003,17.316-0.004,34.631,0.022,51.947c0.001,0.938-0.196,1.272-1.211,1.27c-14.745-0.032-29.49-0.032-44.236,0
		c-1.004,0.003-1.221-0.314-1.219-1.262c0.027-17.315,0.02-34.631,0.02-51.947C25.896,53.023,25.896,52.659,25.896,52.183z"/>
	<path fill="#FFFFFF" d="M25.956,111.691c15.55,0,30.986,0,46.505,0c0.023,0.379,0.06,0.707,0.061,1.036
		c0.003,3.447,0.005,6.896,0,10.345c-0.004,2.115-0.967,3.127-3.096,3.129c-13.489,0.014-26.979,0.017-40.468,0
		c-2.077-0.004-3.051-1.021-3.058-3.067c-0.011-3.483-0.004-6.965,0-10.446C25.899,112.388,25.932,112.089,25.956,111.691z
		 M54.395,118.122c-0.093-2.933-2.435-5.146-5.348-5.054c-2.868,0.091-5.095,2.423-5.037,5.277c0.06,2.899,2.454,5.215,5.31,5.133
		C52.223,123.396,54.488,121.006,54.395,118.122z"/>
	<path fill="#FFFFFF" d="M49.21,47.013c-7.337,0-14.673,0-22.01,0c-1.302,0-1.322,0-1.296-1.345c0.016-0.84,0.006-1.699,0.18-2.512
		c0.216-1.013,0.958-1.605,1.986-1.769c0.464-0.074,0.942-0.095,1.413-0.095c13.152-0.005,26.304-0.004,39.456-0.003
		c2.737,0,3.587,0.852,3.587,3.568c-0.002,2.155-0.002,2.154-2.117,2.154C63.342,47.013,56.276,47.013,49.21,47.013z"/>
	<path fill="#C01722" d="M54.395,118.122c0.093,2.885-2.172,5.274-5.074,5.356c-2.856,0.082-5.25-2.233-5.31-5.133
		c-0.058-2.854,2.169-5.187,5.037-5.277C51.96,112.976,54.302,115.189,54.395,118.122z"/>
</g>
</svg>
