<?xml version="1.0" encoding="utf-8"?>
<!-- Generator: Adobe Illustrator 16.0.0, SVG Export Plug-In . SVG Version: 6.00 Build 0)  -->
<!DOCTYPE svg PUBLIC "-//W3C//DTD SVG 1.1//EN" "http://www.w3.org/Graphics/SVG/1.1/DTD/svg11.dtd">
<svg version="1.1" id="Layer_2" xmlns="http://www.w3.org/2000/svg" xmlns:xlink="http://www.w3.org/1999/xlink" x="0px" y="0px"
	 width="172.667px" height="176.667px" viewBox="0 0 172.667 176.667" enable-background="new 0 0 172.667 176.667"
	 xml:space="preserve">
<path fill="#C01722" d="M97.522,97.333c-8.108-0.416-13.535-4.281-14.794-6.043c-1.259-1.764,0.307-2.957,0.307-2.957
	s-0.563-0.247,2.631-0.572c1.83-0.186,3.273-1.018,3.273-1.018s2.978-2.409,0.644-5.122l-1.26-1.637c0,0-1.246-0.979-5.287-5.273
	c-2.623-2.788-4.124-4.362-4.124-4.362l-2.996-2.682l0.054-2l0.256-3.952l0.594-2.355c0,0-16.271-0.2-15.602-3.412
	c0.338-1.622,17.308-6.307,17.877-7.462c0.215-0.438,1.027-3.913,2.777-6.248c0.933-1.243,4.352-0.097,8.329-0.347
	c4.922-0.31,6.079-1.146,7.485,1.07c2.185,3.441,1.366,3.696,3.083,6.85c0.132,0.244,17.604,4.066,17.307,6.935
	c-0.137,1.331-5.688,2.088-5.689,2.195c-0.008,0.297-8.432,0.176-8.372,0.456c1.889,9.055-1.201,11.775-1.864,13.615
	c0,0-1.349,5.351,0.351,6.154c4.836,2.286,11.511,3.967,15.122,6.634c4.378,2.533,12.67,12.013,9.744,29.658
	c-1.588,9.565-8.703,14.944-13.092,16.619c-6.488,2.473-10.557,2.688-15.99,1.51c-7.224-1.563-13.062-6.105-13.062-6.105
	l1.111-1.976l-1.269-0.479c-15.602-5.904-11.37-12.895-8.6-13.902c2.801-1.019,3.925,1.365,7.908,2.854
	c3.789,1.416,3.873,1.528,4.88,1.472c0,0,0.688-3.386,2.024-3.359c2.505,0.047,1.972,2.359,1.847,3.619
	c-0.1,0.985-0.146,1.646,1.049,2.738c0,0,5.477,2.609,8.992,2.635c6.863,0.049,11.166-5.166,12.047-12.291
	c-1.012-3.899-2.336-6.039-4.381-7.709C107.718,98.54,103.525,97.642,97.522,97.333z"/>
<path fill="#C01722" d="M109.166,105c-6.344-7.184-16.631-2.534-21.834-6.167c-5.038-2.267-6.927-4.025-7.682-6.291
	c-0.756-2.267,0.013-4.208,0.013-4.208S75.007,87,74,85.489c-1.008-1.511-1.148-6.294-1.148-6.294l1.763,3.274
	c0,0,1.226,1.423,3.651,2.267c3.588,1.248,4.854,1.156,6.358,0.629c2.092-0.733,3.067-1.703,3.067-1.703s-5.608-6.656-10.505-11.06
	c-1.822-1.639-3.777-3.048-4.837-3.479c-3.716-1.511-7.303,0-7.303,0s-2.141,0.441-4.029,3.777c-2.169,3.833-7.323,5.712-8.31,6.799
	c-1.139,1.254-2.925,1.839-2.015,5.54c0.614,2.496,7.79,3.747,11.332,3.777c6.186-1.808,5.061,1.317,1.077,2.553l-0.141,1.14
	l-1.872,10.221l-1.47,1.591c0,0-3.95-0.134-5.204,0.47c-1.907,0.916-5.233,2.848-5.169,8.326c0.008,0.755,0.367,8.188,0.19,14.982
	c-0.086,3.302-0.261,4.035,0.168,4.521c1.29,1.459,2.574,0.827,2.606-0.11c0.084-2.412,0.128-2.234,0.125-3.5
	c-0.005-2.711-0.625-12-0.625-12s1.693-1.025,2.193,0.199c0.399,0.979,1.07,15.582,1.07,16.828c0,0.698,0.568,1.246,1.377,1.246
	c1.831,0.001,4.737-0.258,4.515-2.977c-0.473-5.771-1.359-5.969-2.115-8.991c-0.755-3.021,1.447-4.901,2.449-4.806
	c2.298,0.221,4.547,3.449,7.511,1.125c1.5-1.5,2.947,2.967,2.947,2.967s-0.727,1.764-4.974,0.842
	c-2.896-0.63-0.433-0.072-2.896-0.63c-1.833-0.416-2.198,0.292-1.328,3.196c0.566,1.889,3.233,1.84,3.233,1.84
	s6.271,1.119,9.553,0.99c3.557-0.142,4.375-0.283,5.838-1.955c0,0-7.625-4.375-9.625-9.375c-1.441-2.695,0.415-7.34,3.165-9.274
	c0.592-0.417,1.87-0.851,3.21-0.851c2.078,0,4.98,2.428,6.422,2.959c3.66,1.354,3.676,1.534,3.676,1.534s0.62-4.061,4.461-3.368
	c0,0,3.691,0.609,3.566,3.25c-0.185,3.902-1.04,2.769,0.25,3.625c0,0,2.679,1.313,4.624,1.834c5.404,0.542,9.333-3.25,10.333-7.75
	C111.164,107.275,110.526,106.54,109.166,105z M64.957,78.209c-0.712,0-1.29-0.628-1.29-1.405c0-0.777,0.578-1.407,1.29-1.407
	c0.71,0,1.288,0.628,1.288,1.405C66.245,77.58,65.667,78.209,64.957,78.209z"/>
</svg>
