<?xml version="1.0" encoding="utf-8"?>
<!-- Generator: Adobe Illustrator 16.0.0, SVG Export Plug-In . SVG Version: 6.00 Build 0)  -->
<!DOCTYPE svg PUBLIC "-//W3C//DTD SVG 1.1//EN" "http://www.w3.org/Graphics/SVG/1.1/DTD/svg11.dtd">
<svg version="1.1" id="Layer_1" xmlns="http://www.w3.org/2000/svg" xmlns:xlink="http://www.w3.org/1999/xlink" x="0px" y="0px"
	 width="88px" height="48.333px" viewBox="254.14 397.445 88 48.333" enable-background="new 254.14 397.445 88 48.333"
	 xml:space="preserve">
<path fill="#777777" d="M277.895,424.967c0.169,0,0.253,0.085,0.253,0.252v2.785c0,0.169-0.084,0.253-0.253,0.253h-7.746
	c-0.152,0-0.329,0.063-0.531,0.189c-0.203,0.127-0.393,0.288-0.57,0.48c-0.177,0.195-0.329,0.396-0.456,0.608
	c-0.127,0.211-0.19,0.391-0.19,0.544v6.606c0,0.928,0.21,1.68,0.633,2.253c0.421,0.574,0.962,0.861,1.62,0.861h3.088
	c0.32,0,0.603-0.06,0.848-0.178c0.245-0.117,0.447-0.261,0.607-0.431c0.16-0.168,0.278-0.349,0.355-0.543
	c0.076-0.194,0.113-0.368,0.113-0.52v-2.354c0-0.169-0.084-0.254-0.252-0.254h-4.126c-0.169,0-0.253-0.084-0.253-0.252v-2.785
	c0-0.168,0.084-0.254,0.253-0.254h7.871c0.169,0,0.254,0.086,0.254,0.254v5.695c0,0.39-0.089,0.865-0.266,1.432
	c-0.177,0.566-0.468,1.104-0.873,1.619c-0.405,0.516-0.941,0.958-1.607,1.329c-0.667,0.371-1.498,0.557-2.493,0.557h-4.405
	c-0.81,0-1.527-0.186-2.151-0.557c-0.625-0.37-1.152-0.838-1.583-1.404c-0.43-0.566-0.756-1.189-0.975-1.873
	c-0.219-0.685-0.328-1.347-0.328-1.986v-7.19c0-0.557,0.122-1.139,0.367-1.745c0.244-0.607,0.578-1.164,1-1.671
	c0.421-0.506,0.911-0.92,1.468-1.24c0.557-0.32,1.155-0.481,1.797-0.481h5.24H277.895L277.895,424.967z"/>
<path fill="#777777" d="M281.293,424.967h2.583c0.169,0,0.253,0.085,0.253,0.252v15.011v0.051v2.581
	c0,0.169-0.084,0.254-0.253,0.254h-2.583c-0.168,0-0.252-0.085-0.252-0.254v-2.581v-0.051v-15.011
	C281.041,425.051,281.125,424.967,281.293,424.967z"/>
<path fill="#777777" d="M286.445,429.927h7.138c0.641,0,1.186,0.14,1.633,0.418s0.811,0.638,1.089,1.076
	c0.278,0.439,0.481,0.928,0.607,1.469c0.127,0.539,0.19,1.08,0.19,1.619v8.354c0,0.17-0.085,0.253-0.253,0.253h-8.834
	c-0.506,0-0.919-0.155-1.24-0.468s-0.569-0.68-0.747-1.102c-0.176-0.422-0.299-0.844-0.367-1.266
	c-0.067-0.421-0.101-0.742-0.101-0.962c0-0.405,0.05-0.853,0.151-1.342c0.102-0.489,0.261-0.94,0.481-1.354
	c0.219-0.414,0.507-0.764,0.861-1.052c0.354-0.286,0.784-0.429,1.291-0.429h4.228c0.438,0,0.788-0.105,1.05-0.317
	c0.262-0.209,0.392-0.459,0.392-0.747c0-0.235-0.083-0.471-0.253-0.708c-0.168-0.235-0.388-0.354-0.658-0.354h-6.658
	c-0.168,0-0.252-0.085-0.252-0.253v-2.583C286.192,430.012,286.277,429.927,286.445,429.927z M293.761,440.154
	c0.168,0,0.253-0.084,0.253-0.253v-1.519c0-0.169-0.085-0.253-0.253-0.253h-4.506c-0.237,0-0.431,0.097-0.582,0.291
	c-0.152,0.193-0.229,0.408-0.229,0.645c0,0.288,0.083,0.541,0.252,0.761c0.169,0.219,0.406,0.328,0.709,0.328H293.761
	L293.761,440.154z"/>
<path fill="#777777" d="M305.833,429.927c0.171,0,0.255,0.086,0.255,0.254v2.581c0,0.169-0.084,0.253-0.255,0.253h-2.428
	c-0.152,0-0.289,0.043-0.405,0.127c-0.119,0.085-0.225,0.183-0.317,0.291c-0.092,0.109-0.163,0.229-0.215,0.354
	c-0.051,0.127-0.076,0.24-0.076,0.343v8.732c0,0.17-0.085,0.253-0.253,0.253h-2.835c-0.169,0-0.252-0.085-0.252-0.253v-9.619
	c0-0.438,0.089-0.86,0.267-1.266c0.176-0.403,0.417-0.759,0.721-1.062c0.302-0.304,0.658-0.544,1.063-0.723
	c0.405-0.176,0.834-0.267,1.29-0.267L305.833,429.927L305.833,429.927L305.833,429.927z"/>
<path fill="#777777" d="M315.758,429.927h2.581c0.169,0,0.252,0.086,0.252,0.254v9.973c0,0.54-0.164,1.005-0.492,1.392
	c-0.328,0.39-0.76,0.71-1.291,0.963c-0.531,0.254-1.131,0.438-1.797,0.557c-0.667,0.118-1.339,0.178-2.013,0.178
	c-0.691,0-1.371-0.061-2.038-0.178c-0.667-0.118-1.263-0.303-1.784-0.557c-0.524-0.253-0.949-0.573-1.279-0.963
	c-0.328-0.389-0.492-0.852-0.492-1.392v-9.973c0-0.169,0.084-0.254,0.253-0.254h2.582c0.168,0,0.253,0.086,0.253,0.254v8.884
	c0,0.152,0.072,0.296,0.215,0.431c0.144,0.136,0.33,0.253,0.558,0.354c0.227,0.101,0.492,0.177,0.797,0.229s0.616,0.076,0.937,0.076
	c0.321,0,0.629-0.025,0.924-0.076c0.296-0.051,0.562-0.128,0.797-0.229c0.238-0.101,0.427-0.218,0.57-0.354
	c0.143-0.135,0.216-0.278,0.216-0.431v-8.884C315.504,430.012,315.588,429.927,315.758,429.927z"/>
<path fill="#777777" d="M319.955,440.027h6.96c0.236,0,0.421-0.037,0.557-0.113c0.136-0.075,0.241-0.173,0.317-0.29
	c0.075-0.118,0.122-0.25,0.139-0.394c0.018-0.143,0.025-0.272,0.025-0.391c0-0.219-0.054-0.439-0.164-0.658s-0.333-0.329-0.67-0.329
	h-3.975c-0.607,0-1.123-0.098-1.545-0.291s-0.759-0.464-1.012-0.81c-0.253-0.347-0.439-0.76-0.557-1.241
	c-0.118-0.48-0.179-1.007-0.179-1.581c0-0.844,0.099-1.527,0.292-2.051c0.194-0.523,0.489-0.928,0.886-1.215s0.903-0.482,1.52-0.583
	c0.616-0.102,1.354-0.151,2.216-0.151h5.466c0.169,0,0.253,0.085,0.253,0.252v2.584c0,0.167-0.084,0.253-0.253,0.253h-6.632
	c-0.27,0-0.464,0.097-0.583,0.29c-0.118,0.194-0.177,0.41-0.177,0.646c0,0.218,0.063,0.438,0.189,0.656
	c0.128,0.222,0.316,0.33,0.569,0.33h3.695c0.659,0,1.225,0.071,1.696,0.215c0.473,0.144,0.857,0.384,1.152,0.722
	s0.516,0.798,0.659,1.38c0.143,0.582,0.214,1.312,0.214,2.189c0,0.253-0.038,0.586-0.113,0.999
	c-0.077,0.414-0.216,0.821-0.418,1.216c-0.202,0.396-0.486,0.739-0.847,1.025c-0.364,0.287-0.832,0.43-1.405,0.43h-8.277
	c-0.169,0-0.254-0.084-0.254-0.253v-2.583C319.701,440.113,319.786,440.027,319.955,440.027z"/>
<g opacity="0.9">
	<path fill="#777777" d="M264.778,418.706v-17.643c0-0.169,0.085-0.253,0.253-0.253h8.632c0.961,0,1.792,0.187,2.494,0.557
		c0.7,0.372,1.278,0.853,1.733,1.443c0.456,0.591,0.789,1.266,1,2.025c0.211,0.759,0.316,1.527,0.316,2.304v6.075
		c0,0.658-0.105,1.329-0.316,2.012c-0.21,0.683-0.544,1.304-1,1.86s-1.03,1.008-1.721,1.354c-0.692,0.345-1.519,0.519-2.48,0.519
		h-8.658C264.862,418.959,264.778,418.875,264.778,418.706z M268.449,415.415c0,0.169,0.083,0.253,0.252,0.253h4.531
		c0.271,0,0.545-0.071,0.823-0.215c0.278-0.144,0.527-0.33,0.747-0.558c0.219-0.227,0.396-0.481,0.531-0.759
		c0.135-0.278,0.202-0.561,0.202-0.848v-6.733c0-0.304-0.076-0.603-0.228-0.898c-0.152-0.295-0.346-0.557-0.582-0.784
		c-0.236-0.229-0.502-0.414-0.798-0.558c-0.295-0.143-0.595-0.215-0.898-0.215H268.7c-0.168,0-0.253,0.085-0.253,0.254v11.062
		H268.449L268.449,415.415z"/>
	<path fill="#777777" d="M281.408,400.809h2.583c0.168,0,0.253,0.084,0.253,0.253v2.582c0,0.169-0.085,0.253-0.253,0.253h-2.583
		c-0.169,0-0.253-0.084-0.253-0.253v-2.582C281.155,400.894,281.24,400.809,281.408,400.809z M281.155,406.023
		c0-0.168,0.085-0.253,0.253-0.253h2.583c0.168,0,0.253,0.085,0.253,0.253v12.682c0,0.169-0.085,0.253-0.253,0.253h-2.583
		c-0.169,0-0.253-0.084-0.253-0.253V406.023z"/>
	<path fill="#777777" d="M287.66,421.238h6.834c0.219,0,0.388-0.06,0.506-0.178c0.118-0.118,0.207-0.258,0.267-0.417
		c0.058-0.162,0.092-0.338,0.101-0.532c0.009-0.194,0.013-0.367,0.013-0.519v-0.633h-3.771c-0.658,0-1.312-0.135-1.962-0.405
		c-0.649-0.269-1.236-0.67-1.759-1.203c-0.523-0.532-0.949-1.182-1.279-1.949c-0.329-0.767-0.493-1.649-0.493-2.646v-1.62
		c0-0.691,0.102-1.358,0.305-2c0.202-0.641,0.515-1.21,0.937-1.708c0.421-0.497,0.966-0.899,1.632-1.203
		c0.667-0.303,1.457-0.455,2.367-0.455h5.847c0.421,0,0.759,0.097,1.013,0.291c0.253,0.195,0.38,0.511,0.38,0.95v13.568
		c0,0.354-0.089,0.737-0.267,1.151c-0.178,0.413-0.418,0.794-0.722,1.139c-0.304,0.347-0.658,0.633-1.063,0.86
		c-0.404,0.229-0.835,0.342-1.291,0.342h-7.594c-0.168,0-0.252-0.084-0.252-0.254v-2.327
		C287.408,421.321,287.492,421.238,287.66,421.238z M289.699,413.972c0.126,0.422,0.34,0.777,0.645,1.063
		c0.304,0.288,0.712,0.498,1.227,0.633c0.515,0.135,1.161,0.203,1.937,0.203h1.621c0.168,0,0.252-0.084,0.252-0.253v-6.505
		c0-0.168-0.084-0.253-0.252-0.253h-3.316c-0.81,0-1.397,0.262-1.759,0.785c-0.363,0.523-0.544,1.24-0.544,2.152v0.658
		C289.508,413.043,289.572,413.551,289.699,413.972z"/>
	<path fill="#777777" d="M300.494,400.809h2.583c0.168,0,0.253,0.084,0.253,0.253v2.582c0,0.169-0.085,0.253-0.253,0.253h-2.583
		c-0.168,0-0.253-0.084-0.253-0.253v-2.582C300.241,400.894,300.326,400.809,300.494,400.809z M300.241,406.023
		c0-0.168,0.085-0.253,0.253-0.253h2.582c0.169,0,0.254,0.085,0.254,0.253v12.682c0,0.169-0.086,0.253-0.254,0.253h-2.582
		c-0.168,0-0.253-0.084-0.253-0.253V406.023z"/>
	<path fill="#777777" d="M309.759,415.618c0,0.168,0.083,0.253,0.251,0.253h2.127c0.135,0.017,0.203,0.101,0.203,0.253v2.582
		c0,0.169-0.086,0.253-0.253,0.253h-3.189c-0.642,0-1.174-0.194-1.596-0.582c-0.421-0.389-0.633-0.844-0.633-1.367v-7.897
		c0-0.169-0.085-0.253-0.253-0.253h-1.341c-0.17,0-0.254-0.084-0.254-0.253v-2.583c0-0.168,0.084-0.253,0.254-0.253h1.341
		c0.168,0,0.253-0.083,0.253-0.252v-3.164c0-0.169,0.085-0.253,0.253-0.253h2.582c0.169,0,0.254,0.084,0.254,0.253v3.164
		c0,0.169,0.084,0.252,0.252,0.252h2.077c0.168,0,0.253,0.085,0.253,0.253v2.583c0,0.169-0.086,0.253-0.253,0.253h-2.077
		c-0.168,0-0.252,0.084-0.252,0.253L309.759,415.618L309.759,415.618L309.759,415.618z"/>
	<path fill="#777777" d="M314.77,405.77h7.138c0.643,0,1.186,0.14,1.634,0.418c0.446,0.278,0.81,0.638,1.088,1.076
		c0.278,0.439,0.481,0.928,0.607,1.468c0.127,0.541,0.189,1.081,0.189,1.621v8.353c0,0.169-0.084,0.253-0.254,0.253h-8.833
		c-0.506,0-0.92-0.156-1.241-0.469c-0.321-0.312-0.569-0.679-0.746-1.101s-0.3-0.844-0.367-1.266
		c-0.068-0.421-0.101-0.742-0.101-0.961c0-0.405,0.049-0.852,0.15-1.341c0.102-0.489,0.262-0.94,0.481-1.354
		c0.22-0.413,0.507-0.764,0.861-1.05c0.354-0.288,0.784-0.431,1.29-0.431h4.229c0.438,0,0.788-0.106,1.049-0.316
		c0.262-0.21,0.393-0.459,0.393-0.746c0-0.236-0.085-0.473-0.253-0.708c-0.17-0.236-0.388-0.354-0.658-0.354h-6.656
		c-0.17,0-0.254-0.085-0.254-0.253v-2.582C314.516,405.855,314.6,405.77,314.77,405.77z M322.085,415.997
		c0.168,0,0.254-0.084,0.254-0.253v-1.519c0-0.168-0.085-0.254-0.254-0.254h-4.506c-0.236,0-0.429,0.098-0.582,0.292
		c-0.151,0.194-0.229,0.409-0.229,0.645c0,0.287,0.086,0.541,0.253,0.76c0.17,0.219,0.405,0.329,0.709,0.329L322.085,415.997
		L322.085,415.997L322.085,415.997z"/>
	<path fill="#777777" d="M327.705,400.809h2.582c0.169,0,0.253,0.084,0.253,0.253v15.011v0.05v2.582
		c0,0.169-0.085,0.254-0.253,0.254h-2.582c-0.169,0-0.253-0.085-0.253-0.254v-2.582v-0.05v-15.011
		C327.452,400.894,327.536,400.809,327.705,400.809z"/>
</g>
</svg>
