<?xml version="1.0" encoding="utf-8"?>
<!-- Generator: Adobe Illustrator 16.0.0, SVG Export Plug-In . SVG Version: 6.00 Build 0)  -->
<!DOCTYPE svg PUBLIC "-//W3C//DTD SVG 1.1//EN" "http://www.w3.org/Graphics/SVG/1.1/DTD/svg11.dtd">
<svg version="1.1" id="Layer_1" xmlns="http://www.w3.org/2000/svg" xmlns:xlink="http://www.w3.org/1999/xlink" x="0px" y="0px"
	 width="1280px" height="800px" viewBox="0 0 1280 800" enable-background="new 0 0 1280 800" xml:space="preserve">
<g id="Layer_2">
</g>
<ellipse fill="#236AB7" cx="1046.596" cy="198.5" rx="128.107" ry="125.15"/>
<rect x="96.992" y="389.129" transform="matrix(-0.014 -0.9999 0.9999 -0.014 -211.4644 585.6301)" fill="#236AB7" width="172.038" height="15.896"/>
<ellipse fill="#236AB7" cx="608.377" cy="197.963" rx="160.83" ry="157.116"/>
<rect x="1062.163" y="345.078" transform="matrix(-0.5068 -0.862 0.862 -0.5068 1394.2769 1504.9849)" fill="#236AB7" width="130.944" height="17.172"/>
<ellipse fill="#236AB7" cx="602.694" cy="611.986" rx="159.345" ry="155.666"/>
<ellipse fill="#236AB7" cx="185.786" cy="610.986" rx="161.75" ry="158.016"/>
<g id="Layer_1_1_" display="none">
	<rect display="inline" fill="#F2D02A" width="1280" height="800"/>
</g>
<rect x="519.305" y="420.527" transform="matrix(-0.0171 -0.9999 0.9999 -0.0171 187.2682 1041.0447)" fill="#236AB7" width="172.055" height="15.898"/>
<rect x="732.5" y="191.491" fill="#236AB7" width="223.887" height="15.896"/>
<rect x="294.536" y="611.685" fill="#236AB7" width="172.041" height="15.896"/>
<ellipse fill="#236AB7" cx="1173.304" cy="431.982" rx="45.915" ry="44.854"/>
<ellipse transform="matrix(0.9978 0.0666 -0.0666 0.9978 19.0869 -11.5656)" fill="#236AB7" cx="183.012" cy="280.497" rx="73.919" ry="72.211"/>
<path fill="#FFFFFF" d="M579.174,560.201c0,6.866,0,13.718,0,20.582c0,5.272-1.87,7.179-7.092,7.179c-13.785,0-27.576,0-41.367,0
	c-5.125,0.007-7.006,1.896-7.006,7.031c0,11.326,0,22.656,0,33.979c0,5.356,1.845,7.173,7.274,7.173c13.724,0,27.445,0,41.171,0
	c5.111,0,7.02,1.905,7.02,7.051c0.013,13.783,0,27.574,0,41.359c0,5.149,1.875,7.043,6.996,7.057c11.331,0.006,22.662,0,33.988,0
	c5.373,0,7.208-1.834,7.208-7.232c0-13.719,0-27.447,0-41.165c0-5.148,1.907-7.065,6.995-7.075c13.861,0,27.716,0,41.561,0
	c4.984,0,6.909-1.936,6.909-6.944c0.011-11.397,0.011-22.784,0-34.184c0-5.24-1.858-7.055-7.17-7.055
	c-13.793,0-27.576,0-41.36-0.007c-5.003,0-6.934-1.947-6.934-6.948c0-13.854,0-27.702,0-41.558c0-5.022-1.915-6.962-6.889-6.971
	c-11.459,0-22.916,0-34.369,0c-5.003,0.009-6.925,1.93-6.936,6.936C579.174,546.354,579.174,553.277,579.174,560.201z"/>
<g>
	<path fill="#FFFFFF" d="M1029.835,130.281v-8.235h33.521v8.235l-8.734,104.461h-15.813L1029.835,130.281z"/>
</g>
<g>
	<path fill="#FFFFFF" d="M573.527,122.095c2.433-6.078,4.453-11.768,6.956-17.235c3.976-8.686,10.811-11.43,19.311-7.202
		c6.092,3.031,11.611,3.528,18.007,0.979c9.924-3.955,17.128-0.743,19.241,10.002c3.434,17.46,8.878,17.01,23.501,16.92
		c5.454-0.034,12.877-1.183,14.349,5.605c1.551,7.146-6.201,8.226-11.014,10.501c-38.318,18.121-77.175,15.531-116.18,2.561
		c-5.082-1.69-11.38-4.13-10.631-10.446c0.71-5.987,7.207-6.506,12.355-7.25c9.476-1.367,18.53-2.261,28.067,1.967
		c11.283,5.001,23.521,4.489,35.39,0.298C599.471,128.908,586.108,128.937,573.527,122.095z"/>
	<path fill="#FFFFFF" d="M577.347,258.825c-3.027-2.944-5.15-5.011-8.526-8.295c0-8.624-0.152-19.173,0.071-29.716
		c0.097-4.59,9.648-8.223,14.453-5.593c6.904,3.779,13.568,8.047,20.652,11.436c2.293,1.095,6.064,1.012,8.341-0.143
		c6.403-3.247,12.634-6.981,18.44-11.204c4.279-3.112,7.966-1.569,11.074,0.713c1.742,1.279,2.553,4.714,2.629,7.213
		c0.284,9.225,0.089,18.464,0.056,27.699c-0.002,0.433-0.194,0.864,0.028-0.068c-3.231,2.9-5.611,5.032-8.871,7.957
		C616.715,258.825,596.268,258.825,577.347,258.825z"/>
	<path fill="#FFFFFF" d="M573.146,154.66c23.737,6.259,46.579,6.347,69.943-1.862c1.75,19.562-1.711,36.541-16.787,49.247
		c-11.96,10.076-27.746,8.969-39.012-2.381C575.207,187.485,571.751,172.347,573.146,154.66z"/>
	<path fill="#FFFFFF" d="M652.001,218.994c9.33,4.771,17.791,8.074,24.952,13.196c3.471,2.48,5.884,8.219,6.377,12.743
		c1.498,13.779,1.832,27.685,2.654,42.161c-9.831,0-18.259,0-27.367,0c0-10.537,0-21.44,0-32.983
		c-6.733-0.017-6.856-4.143-6.691-8.934C652.201,237.11,652.001,229.027,652.001,218.994z"/>
	<path fill="#FFFFFF" d="M555.118,287.297c-8.314,0-15.672,0-23.685,0c-0.556-16.017-2.052-31.794,2.764-47.05
		c1.264-4.008,5.057-7.856,8.678-10.335c5.258-3.6,11.413-5.89,18.215-9.249c0,10.626,0.249,20.023-0.224,29.384
		c-0.088,1.732-3.096,3.317-5.749,5.959C555.118,265.313,555.118,276.061,555.118,287.297z"/>
</g>
<g>
	<path fill="#FFFFFF" d="M99.39,611.644c6.063-14.493,12.754-28.761,17.977-43.549c3.677-10.409,9.724-16.708,20.163-20.333
		c13.009-4.518,25.567-10.351,38.253-15.772c4.346-1.857,8.396-1.917,12.776-0.062c15.499,6.564,31.067,12.964,46.631,19.37
		c3.92,1.614,6.673,4.267,8.286,8.193c6.924,16.844,13.935,33.649,20.734,50.543c0.598,1.484,0.599,4.306-0.327,5.094
		c-2.464,2.094-4.229,0.293-5.274-2.206c-3.888-9.289-7.771-18.582-11.652-27.875c-3.192-7.639-6.211-15.354-9.674-22.867
		c-0.937-2.028-2.9-4.161-4.917-5.029c-15.325-6.615-30.728-13.06-46.251-19.193c-2.383-0.942-5.815-0.79-8.237,0.174
		c-15.249,6.075-30.405,12.396-45.44,18.985c-2.351,1.03-4.708,3.501-5.728,5.877c-6.963,16.225-13.56,32.61-20.296,48.934
		c-1.908,4.621-2.634,4.904-7.027,3.033C99.39,613.854,99.39,612.75,99.39,611.644z"/>
	<path fill="#FFFFFF" d="M218.722,679.615c0-8.138,0-15.716,0-23.296c0-11.467-0.088-22.936,0.051-34.4
		c0.045-3.699-1.248-5.225-5.053-5.205c-21,0.099-42.001,0.086-63,0.009c-3.567-0.016-4.891,1.4-4.87,4.948
		c0.099,17.686,0.044,35.369,0.043,53.054c0,1.482,0,2.967,0,4.872c-10.716,0-21.036,0.055-31.356-0.03
		c-3.324-0.026-3.917-2.43-3.911-5.188c0.021-8.843,0.676-17.745-0.128-26.515c-1.987-21.646,2.292-41.8,12.142-61.058
		c3.379-6.606,5.613-13.793,8.689-20.569c0.807-1.777,2.542-3.624,4.306-4.391c14.419-6.267,28.919-12.351,43.478-18.286
		c1.663-0.677,4.076-0.696,5.736-0.021c14.695,5.965,29.323,12.1,43.894,18.366c1.557,0.67,3.159,2.266,3.821,3.821
		c6.862,16.117,13.573,32.296,20.21,48.504c0.759,1.853,1.136,3.993,1.146,6.002c0.086,17.685,0.062,35.369,0.043,53.055
		c-0.006,5.7-0.673,6.322-6.535,6.327C238.055,679.621,228.682,679.615,218.722,679.615z M182.477,566.868
		c-6.069,0-12.142,0.132-18.205-0.05c-3.559-0.107-5.014,1.259-4.96,4.819c0.117,7.724,0.118,15.45-0.004,23.172
		c-0.053,3.456,1.195,5.057,4.814,5.026c12.138-0.1,24.276-0.084,36.414-0.008c3.3,0.018,4.784-1.28,4.74-4.662
		c-0.101-7.86-0.113-15.725,0.003-23.584c0.052-3.602-1.493-4.872-5.01-4.764C194.343,567.001,188.408,566.868,182.477,566.868z"/>
	<path fill="#FFFFFF" d="M182.295,654.018c9.341,8.471,18.304,16.599,27.874,25.277c-18.766,0-36.722,0-55.687,0
		C163.952,670.689,172.923,662.536,182.295,654.018z"/>
	<path fill="#FFFFFF" d="M187.016,649.773c8.583-7.783,16.82-15.251,25.58-23.193c0,15.642,0,30.614,0,46.324
		C203.937,665.074,195.707,657.634,187.016,649.773z"/>
	<path fill="#FFFFFF" d="M177.602,649.758c-8.674,7.851-16.903,15.296-25.664,23.227c0-15.699,0-30.616,0-46.438
		C160.663,634.437,168.947,641.929,177.602,649.758z"/>
	<path fill="#FFFFFF" d="M207.267,622.847c-8.646,7.842-16.667,15.118-24.956,22.636c-8.288-7.514-16.312-14.789-24.969-22.636
		C174.208,622.847,190.219,622.847,207.267,622.847z"/>
	<path fill="#FFFFFF" d="M199.215,593.858c-11.386,0-22.368,0-33.726,0c0-7.004,0-13.905,0-21.003c11.234,0,22.339,0,33.726,0
		C199.215,579.771,199.215,586.577,199.215,593.858z"/>
</g>
<ellipse fill="#FFFFFF" cx="1046.596" cy="270.413" rx="16.762" ry="16.666"/>
<g id="Layer_2_1_">
</g>
</svg>
