<?xml version="1.0" encoding="utf-8"?>
<!-- Generator: Adobe Illustrator 16.0.0, SVG Export Plug-In . SVG Version: 6.00 Build 0)  -->
<!DOCTYPE svg PUBLIC "-//W3C//DTD SVG 1.1//EN" "http://www.w3.org/Graphics/SVG/1.1/DTD/svg11.dtd">
<svg version="1.1" id="Layer_1" xmlns="http://www.w3.org/2000/svg" xmlns:xlink="http://www.w3.org/1999/xlink" x="0px" y="0px"
	 width="1280px" height="800px" viewBox="0 0 1280 800" enable-background="new 0 0 1280 800" xml:space="preserve">
<g id="Layer_2">
</g>
<ellipse fill="#236AB7" cx="1046.596" cy="198.5" rx="128.107" ry="125.15"/>
<rect x="87.84" y="389.131" transform="matrix(0.014 0.9999 -0.9999 0.014 568.4656 217.6761)" fill="#236AB7" width="172.039" height="15.896"/>
<ellipse fill="#236AB7" cx="608.377" cy="197.963" rx="160.83" ry="157.116"/>
<rect x="1062.172" y="345.14" transform="matrix(0.5068 0.862 -0.862 0.5068 861.0559 -797.6375)" fill="#236AB7" width="130.951" height="17.173"/>
<ellipse fill="#236AB7" cx="602.694" cy="611.986" rx="159.345" ry="155.666"/>
<ellipse fill="#236AB7" cx="185.786" cy="610.986" rx="161.75" ry="158.016"/>
<g id="Layer_1_1_" display="none">
	<rect display="inline" fill="#F2D02A" width="1280" height="800"/>
</g>
<rect x="519.33" y="420.5" transform="matrix(0.0171 0.9999 -0.9999 0.0171 1023.3867 -184.1446)" fill="#236AB7" width="172.048" height="15.897"/>
<rect x="732.5" y="191.491" fill="#236AB7" width="223.887" height="15.896"/>
<rect x="294.536" y="611.685" fill="#236AB7" width="172.041" height="15.896"/>
<ellipse fill="#236AB7" cx="1173.304" cy="431.982" rx="45.915" ry="44.854"/>
<ellipse transform="matrix(-0.0666 0.9978 -0.9978 -0.0666 463.5965 127.3035)" fill="#236AB7" cx="172.253" cy="280.494" rx="72.209" ry="73.917"/>
<path fill="#FFFFFF" d="M579.174,560.201c0,6.866,0,13.718,0,20.582c0,5.273-1.87,7.179-7.092,7.179c-13.785,0-27.576,0-41.367,0
	c-5.125,0.007-7.006,1.896-7.006,7.031c0,11.326,0,22.656,0,33.98c0,5.356,1.845,7.173,7.274,7.173c13.724,0,27.446,0,41.171,0
	c5.112,0,7.02,1.905,7.02,7.05c0.012,13.784,0,27.575,0,41.36c0,5.149,1.875,7.043,6.996,7.056c11.331,0.006,22.662,0,33.988,0
	c5.373,0,7.208-1.834,7.208-7.232c0-13.719,0-27.447,0-41.165c0-5.149,1.907-7.066,6.995-7.075c13.862,0,27.716,0,41.561,0
	c4.984,0,6.909-1.936,6.909-6.945c0.011-11.397,0.011-22.784,0-34.183c0-5.24-1.858-7.055-7.17-7.055
	c-13.793,0-27.576,0-41.36-0.007c-5.003,0-6.934-1.947-6.934-6.948c0-13.854,0-27.702,0-41.558c0-5.022-1.915-6.962-6.889-6.97
	c-11.459,0-22.916,0-34.369,0c-5.003,0.008-6.924,1.929-6.935,6.935C579.174,546.354,579.174,553.277,579.174,560.201z"/>
<g>
	<path fill="#FFFFFF" d="M1029.835,130.281v-8.235h33.521v8.235l-8.735,104.461h-15.813L1029.835,130.281z"/>
</g>
<g>
	<path fill="#FFFFFF" d="M567.231,109.557c2.872-7.176,5.257-13.893,8.213-20.348c4.695-10.255,12.763-13.495,22.799-8.503
		c7.192,3.578,13.709,4.165,21.261,1.156c11.717-4.669,20.222-0.877,22.716,11.809c4.053,20.614,10.481,20.082,27.747,19.976
		c6.439-0.041,15.202-1.397,16.939,6.617c1.831,8.436-7.32,9.712-13.003,12.398c-45.24,21.394-91.116,18.337-137.166,3.024
		c-6-1.995-13.436-4.876-12.552-12.333c0.839-7.069,8.509-7.681,14.587-8.559c11.188-1.614,21.877-2.669,33.137,2.322
		c13.321,5.905,27.771,5.3,41.782,0.353C597.861,117.601,582.085,117.635,567.231,109.557z"/>
	<path fill="#FFFFFF" d="M571.741,270.987c-3.574-3.476-6.08-5.917-10.066-9.794c0-10.181-0.18-22.637,0.084-35.083
		c0.114-5.42,11.391-9.709,17.063-6.604c8.152,4.462,16.019,9.501,24.383,13.502c2.708,1.293,7.16,1.194,9.849-0.168
		c7.559-3.834,14.916-8.243,21.77-13.228c5.052-3.675,9.405-1.853,13.073,0.842c2.058,1.51,3.015,5.565,3.105,8.516
		c0.335,10.891,0.105,21.799,0.066,32.702c-0.003,0.511-0.229,1.021,0.034-0.08c-3.817,3.424-6.624,5.941-10.474,9.395
		C618.221,270.987,594.08,270.987,571.741,270.987z"/>
	<path fill="#FFFFFF" d="M566.782,148.005c28.026,7.39,54.993,7.493,82.577-2.199c2.068,23.096-2.019,43.142-19.818,58.143
		c-14.121,11.896-32.758,10.589-46.059-2.812C569.215,186.76,565.135,168.887,566.782,148.005z"/>
	<path fill="#FFFFFF" d="M659.881,223.96c11.016,5.632,21.005,9.532,29.46,15.579c4.097,2.929,6.946,9.704,7.528,15.046
		c1.769,16.267,2.163,32.685,3.134,49.776c-11.606,0-21.557,0-32.312,0c0-12.44,0-25.312,0-38.941
		c-7.949-0.02-8.094-4.891-7.899-10.548C660.118,245.349,659.881,235.805,659.881,223.96z"/>
	<path fill="#FFFFFF" d="M545.497,304.602c-9.815,0-18.503,0-27.963,0c-0.656-18.91-2.422-37.538,3.264-55.55
		c1.493-4.732,5.971-9.275,10.246-12.202c6.208-4.25,13.475-6.954,21.506-10.919c0,12.546,0.294,23.64-0.265,34.692
		c-0.104,2.045-3.655,3.917-6.788,7.036C545.497,278.647,545.497,291.335,545.497,304.602z"/>
</g>
<g>
	<path fill="#FFFFFF" d="M83.389,600.992c7.311-17.475,15.379-34.68,21.676-52.51c4.433-12.552,11.725-20.146,24.312-24.518
		c15.686-5.446,30.828-12.48,46.125-19.017c5.24-2.24,10.124-2.312,15.405-0.074c18.688,7.914,37.46,15.631,56.227,23.356
		c4.727,1.946,8.046,5.144,9.991,9.878c8.349,20.311,16.802,40.575,25.001,60.944c0.721,1.79,0.722,5.192-0.394,6.142
		c-2.971,2.525-5.099,0.353-6.359-2.66c-4.688-11.201-9.37-22.406-14.05-33.611c-3.848-9.21-7.489-18.514-11.664-27.572
		c-1.13-2.447-3.497-5.017-5.928-6.065c-18.479-7.976-37.052-15.746-55.769-23.142c-2.874-1.137-7.012-0.954-9.932,0.209
		c-18.387,7.326-36.662,14.947-54.791,22.892c-2.834,1.242-5.677,4.221-6.906,7.086c-8.396,19.564-16.35,39.32-24.473,59.003
		c-2.301,5.572-3.176,5.914-8.473,3.658C83.389,603.658,83.389,602.325,83.389,600.992z"/>
	<path fill="#FFFFFF" d="M227.277,682.95c0-9.812,0-18.949,0-28.089c0-13.827-0.107-27.656,0.061-41.48
		c0.054-4.459-1.504-6.3-6.093-6.277c-25.321,0.12-50.644,0.105-75.964,0.012c-4.301-0.018-5.896,1.689-5.871,5.967
		c0.119,21.323,0.054,42.646,0.053,63.97c0,1.789,0,3.578,0,5.876c-12.922,0-25.365,0.065-37.809-0.038
		c-4.008-0.032-4.723-2.929-4.715-6.256c0.025-10.662,0.815-21.396-0.155-31.971c-2.396-26.099,2.765-50.401,14.641-73.621
		c4.075-7.966,6.769-16.632,10.478-24.803c0.973-2.142,3.065-4.369,5.192-5.293c17.386-7.556,34.87-14.892,52.425-22.05
		c2.005-0.815,4.914-0.838,6.916-0.024c17.719,7.192,35.357,14.59,52.926,22.145c1.877,0.808,3.809,2.732,4.607,4.609
		c8.274,19.432,16.366,38.94,24.369,58.484c0.915,2.234,1.37,4.815,1.382,7.237c0.104,21.324,0.074,42.647,0.052,63.972
		c-0.007,6.873-0.812,7.623-7.88,7.629C250.589,682.957,239.286,682.95,227.277,682.95z M183.573,547.003
		c-7.317,0-14.64,0.158-21.951-0.061c-4.291-0.13-6.046,1.519-5.981,5.812c0.141,9.312,0.143,18.629-0.004,27.939
		c-0.064,4.168,1.441,6.098,5.805,6.062c14.635-0.121,29.271-0.102,43.906-0.01c3.98,0.022,5.768-1.544,5.716-5.621
		c-0.122-9.479-0.136-18.96,0.004-28.438c0.063-4.342-1.8-5.875-6.041-5.744C197.881,547.163,190.725,547.003,183.573,547.003z"/>
	<path fill="#FFFFFF" d="M183.355,652.085c11.263,10.214,22.07,20.015,33.609,30.479c-22.628,0-44.278,0-67.145,0
		C161.237,672.188,172.054,662.356,183.355,652.085z"/>
	<path fill="#FFFFFF" d="M189.047,646.968c10.35-9.385,20.281-18.39,30.843-27.966c0,18.86,0,36.914,0,55.856
		C209.449,665.418,199.526,656.445,189.047,646.968z"/>
	<path fill="#FFFFFF" d="M177.695,646.949c-10.459,9.466-20.381,18.444-30.945,28.006c0-18.93,0-36.916,0-55.994
		C157.271,628.476,167.26,637.51,177.695,646.949z"/>
	<path fill="#FFFFFF" d="M213.465,614.5c-10.425,9.456-20.096,18.229-30.091,27.294c-9.993-9.06-19.669-17.832-30.107-27.294
		C173.603,614.5,192.908,614.5,213.465,614.5z"/>
	<path fill="#FFFFFF" d="M203.756,579.547c-13.729,0-26.971,0-40.666,0c0-8.445,0-16.767,0-25.324c13.546,0,26.936,0,40.666,0
		C203.756,562.561,203.756,570.768,203.756,579.547z"/>
</g>
<ellipse fill="#FFFFFF" cx="1046.596" cy="270.413" rx="16.762" ry="16.666"/>
<g id="Layer_2_1_">
</g>
</svg>
