<?xml version="1.0" encoding="utf-8"?>
<!-- Generator: Adobe Illustrator 16.0.0, SVG Export Plug-In . SVG Version: 6.00 Build 0)  -->
<!DOCTYPE svg PUBLIC "-//W3C//DTD SVG 1.1//EN" "http://www.w3.org/Graphics/SVG/1.1/DTD/svg11.dtd">
<svg version="1.1" id="Layer_1" xmlns="http://www.w3.org/2000/svg" xmlns:xlink="http://www.w3.org/1999/xlink" x="0px" y="0px"
	 width="162px" height="163px" viewBox="0 0 162 163" enable-background="new 0 0 162 163" xml:space="preserve">
<path fill="#568E35" d="M37.015,112.482c1.749-3.57,3.524-7.126,5.229-10.716c0.489-1.034,1.039-2.146,1.108-3.251
	c0.306-4.848,2.932-8.335,6.37-11.385c2.085-1.852,9.059-2.467,11.751-0.488c0.453,0.33,3.465,1.686,3.942,1.573
	c7.078-0.2,15.768-1.246,23.038-5.604c5.51-3.302,10.096-6.996,13.055-12.664c-3.226-5.112-3.91-8.909-1.897-10.479
	c2.374-1.85,4.087-1.692,6.19,0.174c2.607-0.987,4.973-2.675,7.186-2.49c2.08,0.174,4.16,2.133,5.945,3.653
	c2.631,2.24,4.638,5.472,7.572,7.035c3.926,2.091,3.113,5.414,2.924,8.232c-0.123,1.791-2.018,4.466-3.664,4.979
	c-8.457,2.633-10.109,9.563-11.437,16.796c-0.739,4.04-1.226,8.124-1.938,12.95c0.693,0.149,2.814,0.806,4.242,1.065
	c0.389,0.071-0.49,5.695-0.09,5.743c0.357,0.046,1.153-5.766,1.51-5.729c0.631,0.061,1.266,0.109,1.897,0.156
	c0.511,0.035,0.442,7.719,0.952,7.754c0.394,0.027,1.361-7.59,1.752-7.561c0.6,0.049,1.195,0.104,1.793,0.17
	c0.412,0.049-0.303,7.684,0.107,7.745c0.205,0.03,1.541-7.519,1.746-7.483c0.197,0.035,0.397,0.076,0.6,0.125
	c1.475,0.355,2.979,1.082,4.093,2.041c1.08,0.93,3.354,2.148,3.312,4.387c-0.012,0.658-0.457,0.365-1.179,1.18
	c-0.235,0.264-7.305-5.341-0.471,0.823c0.135,0.122-0.585,1.413-0.767,1.473c-1.074,0.353-2.521,0.097-4.386-1.44
	c-1.362-1.125-2.149,0.271-3.909-0.06c-0.271-0.052,0.057-6.999-0.217-7.053c-0.271-0.056-1.143,6.782-1.41,6.725
	c-0.916-0.196-1.828-0.409-2.734-0.627c-0.312-0.073,0.098-5.671-0.215-5.745c-0.365-0.086-1.441,5.348-1.787,5.273
	c-1.727-0.37-3.195-0.403-4.289,1.761c-1.168,2.312-3.17,2.978-5.827,3.032c-5.783,0.122-11.616-1.383-17.394,0.633
	c-0.996,0.346-2.604-1.062-4.426-1.885c-4.053,2.8-8.497,1.084-13.803,0.883c-3.01,1.438-4.167,1.5-6.638,1.893
	c-1.444-0.602-3.485-0.986-5.196-0.393c-3.669-0.654-3.5-0.834-7.604-2.954c-9.229-0.046-13.72-4.907-15.039-7.42
	C37.015,114.367,37.015,113.423,37.015,112.482z"/>
<path fill="#568E35" d="M80.994,32.21c0,10.744,0,21.488,0,32.233c-0.163,0.369-0.273,0.773-0.495,1.1
	c-0.549,0.806-1.366,1.088-2.322,1.087c-8.097-0.006-16.193-0.003-24.291-0.003c-3.081,0-6.162-0.001-9.242,0.001
	c-0.758,0-1.429-0.207-1.989-0.743c-0.417-0.401-0.588-0.92-0.767-1.442c0-10.744,0-21.489,0-32.233
	c0.042-0.117,0.087-0.233,0.124-0.353c0.211-0.706,0.657-1.215,1.3-1.559c0.436-0.233,0.911-0.273,1.392-0.273
	c6.537,0,13.073,0,19.61,0c4.632,0,9.264,0.002,13.894-0.001c0.758-0.001,1.431,0.191,1.996,0.725
	C80.635,31.154,80.813,31.679,80.994,32.21z M57.567,39.988c0,1.104,0,2.206,0,3.31c0,0.848-0.302,1.154-1.141,1.154
	c-2.217,0-4.435,0-6.652,0c-0.825,0.001-1.127,0.305-1.128,1.131c0,1.821,0,3.643,0,5.465c0,0.861,0.297,1.153,1.171,1.153
	c2.206,0,4.414,0,6.621,0c0.822,0,1.128,0.307,1.129,1.134c0.001,2.217,0,4.434,0,6.651c0,0.829,0.301,1.133,1.125,1.135
	c1.822,0.001,3.644,0,5.465,0c0.865,0,1.16-0.295,1.16-1.163c0-2.206,0-4.414,0-6.62c0-0.828,0.306-1.137,1.125-1.138
	c2.229,0,4.456,0,6.683,0c0.802,0,1.112-0.312,1.112-1.117c0.001-1.833,0.001-3.664,0-5.497c0-0.843-0.3-1.135-1.154-1.135
	c-2.218,0-4.435,0-6.652-0.001c-0.804,0-1.114-0.313-1.114-1.117c0-2.228,0-4.455,0-6.683c0-0.808-0.308-1.12-1.108-1.121
	c-1.843,0-3.686,0-5.527,0c-0.805,0.001-1.113,0.31-1.115,1.115C57.566,37.761,57.567,38.874,57.567,39.988z"/>
<path fill="#568E35" d="M157.494,80.546c0,42.274-34.249,76.546-76.495,76.546S4.506,122.82,4.506,80.546
	C4.506,38.271,38.754,4,81,4S157.494,38.271,157.494,80.546z M81.188,15.068c-36.06,0-65.292,29.313-65.292,65.474
	s29.232,65.473,65.292,65.473c36.059,0,65.292-29.312,65.292-65.474C146.48,44.381,117.247,15.068,81.188,15.068z"/>
</svg>
