<?xml version="1.0" encoding="utf-8"?>
<!-- Generator: Adobe Illustrator 16.0.0, SVG Export Plug-In . SVG Version: 6.00 Build 0)  -->
<!DOCTYPE svg PUBLIC "-//W3C//DTD SVG 1.1//EN" "http://www.w3.org/Graphics/SVG/1.1/DTD/svg11.dtd">
<svg version="1.1" id="Layer_1" xmlns="http://www.w3.org/2000/svg" xmlns:xlink="http://www.w3.org/1999/xlink" x="0px" y="0px"
	 width="119px" height="27px" viewBox="0 0 119 27" enable-background="new 0 0 119 27" xml:space="preserve">
<title>alplora_logo_web</title>
<desc>Created with Sketch.</desc>
<g id="Page-1">
	<g id="alplora_logo_web">
		<g id="Layer_1_1_">
			<path id="Shape" fill="#C01722" d="M59.905,19.977c-0.919,0-1.772-0.176-2.56-0.526c-0.789-0.351-1.47-0.829-2.044-1.434
				s-1.022-1.314-1.343-2.132c-0.321-0.816-0.482-1.682-0.482-2.598v-0.048c0-0.931,0.164-1.805,0.494-2.622
				c0.329-0.816,0.78-1.531,1.354-2.144c0.574-0.612,1.255-1.098,2.044-1.458c0.788-0.359,1.649-0.54,2.583-0.54
				s1.795,0.176,2.584,0.527c0.788,0.352,1.469,0.833,2.043,1.446s1.022,1.323,1.344,2.132c0.321,0.808,0.482,1.678,0.482,2.609
				v0.049c0,0.915-0.164,1.781-0.494,2.598c-0.329,0.816-0.78,1.531-1.354,2.144s-1.26,1.099-2.056,1.458
				S60.838,19.977,59.905,19.977L59.905,19.977z M59.951,17.404c0.562,0,1.068-0.111,1.518-0.331s0.834-0.519,1.152-0.895
				c0.32-0.376,0.562-0.812,0.73-1.312c0.168-0.498,0.252-1.024,0.252-1.58v-0.048c0-0.572-0.092-1.111-0.274-1.617
				s-0.437-0.948-0.765-1.323C62.237,9.923,61.85,9.625,61.4,9.404c-0.448-0.22-0.946-0.331-1.494-0.331s-1.046,0.11-1.495,0.331
				c-0.449,0.221-0.833,0.515-1.152,0.882c-0.319,0.368-0.563,0.805-0.73,1.312c-0.167,0.506-0.251,1.037-0.251,1.592v0.049
				c0,0.572,0.091,1.107,0.274,1.605s0.437,0.939,0.764,1.323c0.328,0.384,0.715,0.687,1.164,0.906
				C58.928,17.293,59.419,17.404,59.951,17.404L59.951,17.404z"/>
			<path id="Shape_1_" fill="#C01722" d="M36.004,19.602c0.542,0,1.054-0.107,1.535-0.32c0.481-0.215,0.901-0.513,1.26-0.896
				c0.358-0.383,0.643-0.855,0.853-1.418c0.21-0.562,0.315-1.189,0.315-1.885v-0.054c0-0.677-0.105-1.297-0.315-1.859
				s-0.495-1.039-0.853-1.43c-0.359-0.393-0.779-0.696-1.26-0.91s-0.993-0.321-1.535-0.321s-1.077,0.068-1.548,0.321
				c-0.354,0.19-0.758,0.582-1.034,0.923c-0.341,0.424-0.66,0.878-0.879,1.431s-0.328,1.168-0.328,1.845v0.054
				c0,0.678,0.109,1.297,0.328,1.858c0.219,0.562,0.512,1.039,0.879,1.431c0.367,0.393,0.543,0.695,1.034,0.91
				C34.945,19.494,35.462,19.602,36.004,19.602L36.004,19.602z M31.41,10.561l0.127-0.212c0.506-0.749,1.134-1.377,1.885-1.885
				c0.75-0.508,1.684-0.763,2.801-0.763c0.82,0,1.614,0.161,2.382,0.482S40.058,8.976,40.66,9.6s1.086,1.391,1.453,2.299
				c0.367,0.91,0.55,1.952,0.55,3.128v0.055c0,1.176-0.179,2.219-0.537,3.129c-0.358,0.908-0.838,1.676-1.44,2.299
				c-0.602,0.625-1.291,1.097-2.068,1.418c-0.776,0.32-1.575,0.481-2.395,0.481c-1.134,0-2.077-0.251-2.827-0.749
				c-0.75-0.498-1.37-1.078-1.858-1.738v6.986h-2.949V14.93v-3.246c0-0.662-0.974-1.115-1.578-1.046h-0.563l1.271-2.994h0.366
				c1.124,0,1.554,0.24,2.266,0.793c0.502,0.391,0.917,1.193,1.08,2.125L31.41,10.561L31.41,10.561z"/>
			<path id="Shape_2_" fill="#C01722" d="M73.022,9.391c0.731-1.109,1.913-1.684,2.212-1.828c0.751-0.362,2.592-0.667,3.297-0.462
				v3.166h-0.185c-0.7,0-1.338,0.116-1.915,0.348c-0.578,0.232-1.076,0.58-1.496,1.043c-0.42,0.464-0.743,1.047-0.971,1.751
				c-0.228,0.705-0.342,1.52-0.342,2.447v4.09h-3.201v-5.955l0.005-0.203l0.013-1.425c-0.084-1.393-0.104-1.929-1.024-2.158
				l-1.12,0.015l1.014-3.266h0.414c1.123,0,1.562,0.241,2.275,0.793c0.38,0.295,0.783,0.92,1.051,1.643
				C73.055,9.403,73.014,9.403,73.022,9.391L73.022,9.391z"/>
			<path id="Shape_3_" fill="#C01722" d="M12.353,13.688l-1.703-3.234l-0.526,0.782L8.6,7.801l-2.575,5.867L12.353,13.688
				L12.353,13.688z M6.731,4.175c0,0,1.632-1.386,3.834,0.021l0.085,0.168l6.582,15.581h-3.547l-1.523-3.343H5.059l-1.545,3.343
				H0.053L6.631,4.373L6.731,4.175L6.731,4.175z"/>
			<path id="Shape_4_" fill="#C01722" d="M89.361,13.864c-0.402-0.161-0.878-0.294-1.43-0.401c-0.551-0.107-1.133-0.161-1.744-0.161
				c-0.997,0-1.775,0.197-2.336,0.588c-0.56,0.392-0.839,0.927-0.839,1.604v0.055c0,0.678,0.258,1.193,0.773,1.551
				c0.517,0.356,1.15,0.534,1.902,0.534c0.524,0,1.011-0.071,1.456-0.214c0.446-0.143,0.836-0.344,1.168-0.602
				s0.591-0.57,0.773-0.936c0.184-0.366,0.275-0.771,0.275-1.217V13.864L89.361,13.864L89.361,13.864z M89.461,17.789l-0.178,0.246
				c-0.472,0.571-1.075,1.053-1.811,1.444c-0.734,0.392-1.626,0.589-2.676,0.589c-0.665,0-1.295-0.094-1.889-0.281
				c-0.595-0.188-1.115-0.464-1.562-0.829s-0.805-0.819-1.075-1.364c-0.271-0.543-0.407-1.172-0.407-1.886v-0.054
				c0-0.784,0.14-1.466,0.42-2.045c0.279-0.579,0.669-1.06,1.167-1.444c0.499-0.383,1.094-0.669,1.785-0.855
				c0.689-0.188,1.438-0.281,2.242-0.281c0.84,0,1.553,0.053,2.139,0.16s1.15,0.25,1.693,0.427V11.35
				c0-0.98-0.293-0.958-0.879-1.475s-1.936-0.776-3.037-0.776c-0.787,0-1.486,0.08-2.099,0.241c-0.612,0.16-1.233,0.374-1.862,0.642
				L81.324,7.13c0.799-0.385,0.799-0.385,1.604-0.599s1.775-0.321,2.913-0.321c2.063,0,4.099,0.521,5.096,1.564
				s1.495,1.738,1.495,3.627v4.935c0,0.662,0.326,0.992,1.098,0.992l0.701-0.011l-1.093,2.622l-0.634-0.014
				c-0.996-0.07-1.508-0.164-2.061-0.654c-0.466-0.41-0.773-0.881-0.988-1.505L89.461,17.789z"/>
			<path id="Shape_5_" fill="#C01722" d="M48.208,10.368v5.848c0,0.661,0.386,0.992,1.157,0.992h2.834v2.737h-3.141
				c-1.124,0-2.05-0.264-2.78-0.793c-0.769-0.537-1.153-1.442-1.153-2.713V6.438V4.203c0-0.662-0.137-1.046-0.908-1.046h-0.312
				l1.22-2.994h0.216c0.46,0.097,1.109,0.264,1.71,0.793c0.618,0.545,1.153,1.7,1.153,2.971L48.208,10.368L48.208,10.368z"/>
			<path id="Shape_6_" fill="#C01722" d="M22.214,10.368v5.848c0,0.661,0.386,0.992,1.158,0.992h2.834v2.737h-3.141
				c-1.124,0-2.051-0.264-2.78-0.793c-0.769-0.537-1.153-1.442-1.153-2.713V6.438V4.203c0-0.662-0.137-1.046-0.908-1.046h-0.312
				l1.22-2.994h0.216c0.46,0.097,1.109,0.264,1.71,0.793c0.618,0.545,1.153,1.7,1.153,2.971L22.214,10.368L22.214,10.368z"/>
		</g>
		<g id="Layer_4" transform="translate(97.886687, 2.828571)">
			<path id="Shape_7_" fill="#C01722" d="M18.736,13.995c-0.122,0-0.241,0.015-0.355,0.04l-2.68-5.394
				c0.391-0.29,0.645-0.75,0.645-1.27c0-0.877-0.721-1.589-1.609-1.589s-1.61,0.712-1.61,1.589c0,0.466,0.204,0.884,0.528,1.174
				l-0.836,1.743c-0.131-0.035-0.27-0.055-0.414-0.055c-0.108,0-0.215,0.011-0.317,0.031l-3.48-7.357
				C8.92,2.616,9.117,2.205,9.117,1.748c0-0.878-0.721-1.59-1.611-1.59c-0.888,0-1.609,0.711-1.609,1.59
				c0,0.505,0.24,0.955,0.613,1.246L1.976,14.052c-0.08-0.013-0.161-0.021-0.244-0.021c-0.89,0-1.61,0.713-1.61,1.59
				c0,0.878,0.721,1.59,1.61,1.59c0.889,0,1.609-0.712,1.609-1.59c0-0.528-0.263-0.995-0.665-1.284L7.197,3.308
				c0.101,0.02,0.203,0.03,0.309,0.03c0.152,0,0.299-0.022,0.438-0.061l3.455,7.306c-0.367,0.292-0.604,0.739-0.604,1.241
				c0,0.877,0.721,1.589,1.609,1.589s1.609-0.712,1.609-1.589c0-0.467-0.205-0.885-0.527-1.176l0.834-1.742
				c0.133,0.035,0.271,0.055,0.416,0.055c0.09,0,0.18-0.009,0.266-0.024l2.699,5.431c-0.352,0.292-0.574,0.728-0.574,1.216
				c0,0.878,0.721,1.589,1.61,1.589s1.609-0.711,1.609-1.589S19.626,13.995,18.736,13.995L18.736,13.995z"/>
		</g>
	</g>
</g>
</svg>
