<?xml version="1.0" encoding="utf-8"?>
<!-- Generator: Adobe Illustrator 16.0.0, SVG Export Plug-In . SVG Version: 6.00 Build 0)  -->
<!DOCTYPE svg PUBLIC "-//W3C//DTD SVG 1.1//EN" "http://www.w3.org/Graphics/SVG/1.1/DTD/svg11.dtd">
<svg version="1.1" id="Layer_1" xmlns="http://www.w3.org/2000/svg" xmlns:xlink="http://www.w3.org/1999/xlink" x="0px" y="0px"
	 width="162px" height="162px" viewBox="0 0 162 162" enable-background="new 0 0 162 162" xml:space="preserve">
<path fill="#568E35" d="M97.213,144.072c-1.9-4.879-4.314-9.489-2.846-15.219c0.742-2.899-0.325-6.27-0.604-9.426
	c-0.175-1.988-0.238-4.005-0.645-5.947c-0.484-2.316-1.279-4.567-2.566-6.67c-4.605,9.607-1.855,18.474,2.461,26.963
	c-8.06,3.541-10.625-0.256-10.257-7.306c0.164-3.136-0.478-6.346-1.03-9.471c-0.234-1.313-0.406-3.413-3.021-2.36
	c-0.255,0.104-1.878-2.283-2.285-3.685c-0.586-2.019-0.638-4.191-0.919-6.298c-0.479-0.148-0.958-0.297-1.436-0.445
	c-2.01,4.666-5.089,9.191-5.728,14.038c-0.631,4.786,1.206,9.899,1.946,14.782c-0.304,0.297-0.489,0.638-0.679,0.64
	c-2.446,0.028-6.746,0.646-7.006-0.114c-0.911-2.65-0.588-5.791-0.425-8.729c0.133-2.378,1.482-4.923,0.949-7.06
	c-1.611-6.451,0.364-12.293,1.753-18.385c0.993-4.348,0.991-8.934,1.28-13.423c0.146-2.271-0.311-4.599-0.035-6.843
	c1.013-8.243,8.668-12.745,16.502-9.958c2.231,0.792,4.594,1.219,7.39,1.941c-0.42-0.928-0.603-1.242-0.707-1.58
	c-0.67-2.132-1.32-4.27-1.979-6.406c2.499-0.354,5.153-1.416,7.461-0.905c3.844,0.851,6.987,1.982,9.868-2.231
	c2.257-3.305,10.846-1.95,12.65,1.986c1.834,3.997,4.264,4.622,8.075,3.347c4.668-1.561,7.806-0.697,8.361,1.951
	c0.595,2.815-3.109,6.83-6.995,7.078c-2.643,0.168-5.328-0.361-9.008-0.66c0,5.709,0.05,11.371-0.018,17.031
	c-0.049,4.001-0.139,8.009-0.41,11.999c-0.445,6.539-1.625,13.089-1.396,19.595c0.149,4.268,2.253,8.461,3.452,12.695
	c0.48,0.875,0.316,1.458,0.316,1.458c-0.58,0.507-0.342,0.356-0.445,0.372c-6.971,2.262-8.524,6.246-9.229-3.61
	c-0.305-4.335-1.565-8.597-2.057-12.931c-0.329-2.908-0.062-5.885-0.062-9.036c-2.222-0.354-4.234-0.678-7.136-1.144
	c3.101,4.769,1.046,8.89,0.597,13.218c-0.449,4.301,1.315,8.844,2.176,13.267c0.38,1.958,0.924,3.885,1.428,5.965
	c-1.417,0.58-2.557,1.047-3.695,1.516C99.913,144.072,98.562,144.072,97.213,144.072z"/>
<g>
	<path fill="#568E35" d="M42.539,33.684c2.634-1.697,5.872-2.545,9.711-2.545c5.046,0,9.237,1.206,12.576,3.617
		c3.337,2.411,5.006,5.983,5.006,10.715c0,2.903-0.724,5.348-2.17,7.333c-0.846,1.207-2.472,2.747-4.876,4.622l-2.371,1.841
		c-1.292,1.004-2.149,2.177-2.571,3.516c-0.268,0.849-0.413,2.166-0.435,3.952h-9.075c0.133-3.773,0.489-6.379,1.068-7.819
		c0.58-1.44,2.07-3.098,4.474-4.974l2.438-1.909c0.801-0.602,1.447-1.261,1.936-1.976c0.89-1.228,1.335-2.579,1.335-4.052
		c0-1.697-0.496-3.243-1.487-4.637c-0.99-1.395-2.8-2.092-5.427-2.092c-2.584,0-4.417,0.859-5.496,2.578
		c-1.081,1.719-1.62,3.505-1.62,5.358h-9.68C36.142,40.85,38.363,36.341,42.539,33.684z M48.097,71.323H58.11V81H48.097V71.323z"/>
</g>
<path fill="#568E35" d="M157.5,81.53c0,42.274-34.249,76.546-76.495,76.546S4.512,123.805,4.512,81.53
	c0-42.275,34.248-76.546,76.494-76.546S157.5,39.255,157.5,81.53z M81.194,16.053c-36.06,0-65.292,29.313-65.292,65.475
	c0,36.16,29.232,65.473,65.292,65.473c36.059,0,65.292-29.312,65.292-65.475C146.486,45.365,117.253,16.053,81.194,16.053z"/>
</svg>
