<?xml version="1.0" encoding="utf-8"?>
<!-- Generator: Adobe Illustrator 16.0.0, SVG Export Plug-In . SVG Version: 6.00 Build 0)  -->
<!DOCTYPE svg PUBLIC "-//W3C//DTD SVG 1.1//EN" "http://www.w3.org/Graphics/SVG/1.1/DTD/svg11.dtd">
<svg version="1.1" id="Layer_1" xmlns="http://www.w3.org/2000/svg" xmlns:xlink="http://www.w3.org/1999/xlink" x="0px" y="0px"
	 width="110.667px" height="36px" viewBox="70.833 15.5 110.667 36" enable-background="new 70.833 15.5 110.667 36"
	 xml:space="preserve">
<g>
	<path fill="#777777" d="M102.787,45.649c0-0.408,0.144-0.808,0.434-1.196c0.29-0.389,0.702-0.739,1.238-1.049v-0.087
		c-0.28-0.153-0.528-0.368-0.742-0.645c-0.209-0.275-0.315-0.632-0.315-1.068c0-0.34,0.109-0.683,0.329-1.028
		c0.217-0.347,0.526-0.653,0.922-0.921v-0.086c-0.369-0.268-0.68-0.625-0.934-1.069c-0.252-0.444-0.38-0.978-0.38-1.598
		c0-0.58,0.112-1.1,0.338-1.559c0.226-0.458,0.531-0.849,0.912-1.175c0.381-0.325,0.822-0.572,1.324-0.742
		c0.5-0.169,1.034-0.253,1.599-0.253c0.578,0,1.101,0.084,1.568,0.253h4.257v1.589h-2.584c0.213,0.226,0.402,0.506,0.572,0.836
		c0.17,0.334,0.254,0.704,0.254,1.113c0,0.566-0.105,1.069-0.317,1.504c-0.212,0.439-0.502,0.809-0.87,1.112
		c-0.368,0.305-0.797,0.533-1.291,0.688c-0.494,0.155-1.024,0.235-1.589,0.235c-0.253,0-0.526-0.028-0.817-0.086
		c-0.288-0.056-0.574-0.142-0.856-0.255c-0.481,0.312-0.721,0.67-0.721,1.081c0,0.381,0.177,0.657,0.529,0.826
		c0.353,0.171,0.861,0.255,1.525,0.255h2.202c1.358,0,2.362,0.195,3.021,0.582c0.656,0.388,0.984,1.029,0.984,1.918
		c0,0.495-0.138,0.961-0.413,1.398c-0.277,0.438-0.668,0.821-1.177,1.155c-0.508,0.331-1.122,0.593-1.844,0.782
		c-0.719,0.193-1.524,0.287-2.415,0.287c-1.469,0-2.625-0.237-3.473-0.712C103.211,47.265,102.787,46.567,102.787,45.649z
		 M104.564,45.396c0,0.494,0.272,0.891,0.816,1.196c0.544,0.304,1.332,0.456,2.362,0.456c0.551,0,1.048-0.054,1.494-0.159
		c0.445-0.104,0.827-0.245,1.145-0.424c0.318-0.176,0.56-0.378,0.731-0.603c0.168-0.225,0.252-0.465,0.252-0.721
		c0-0.45-0.187-0.75-0.56-0.899c-0.375-0.149-0.937-0.223-1.685-0.223h-1.822c-0.324,0-0.613-0.011-0.867-0.032
		c-0.255-0.021-0.495-0.066-0.721-0.138c-0.425,0.24-0.72,0.488-0.891,0.742C104.651,44.846,104.564,45.112,104.564,45.396z
		 M107.51,39.146c0.594,0,1.101-0.197,1.527-0.592c0.422-0.396,0.635-0.946,0.635-1.652c0-0.679-0.213-1.223-0.635-1.631
		c-0.426-0.41-0.933-0.615-1.527-0.615c-0.594,0-1.102,0.206-1.525,0.615c-0.423,0.409-0.636,0.953-0.636,1.631
		c0,0.706,0.213,1.256,0.636,1.652C106.409,38.949,106.916,39.146,107.51,39.146z"/>
</g>
<path fill="#777777" d="M86.9,44.067h-1.775l-0.174-1.774h-0.088c-0.527,0.613-1.1,1.105-1.72,1.479
	c-0.622,0.371-1.341,0.557-2.159,0.557c-1.271,0-2.199-0.367-2.783-1.104c-0.585-0.738-0.876-1.816-0.876-3.233V34.61l-2.836-0.055
	l5.027-1.936l-0.022,1.462v5.625c0,0.95,0.168,1.646,0.505,2.092c0.335,0.446,0.912,0.67,1.73,0.67c0.555,0,1.062-0.136,1.522-0.407
	c0.46-0.27,0.954-0.727,1.48-1.368v-7.342h2.169L86.9,44.067L86.9,44.067z"/>
<path fill="#777777" d="M90.495,33.352h1.775l0.174,1.731h0.086c0.542-0.556,1.126-1.027,1.754-1.414
	c0.627-0.388,1.359-0.581,2.191-0.581c1.256,0,2.178,0.373,2.762,1.116c0.584,0.745,0.876,1.82,0.876,3.223v6.639h-2.17v-6.354
	c0-0.935-0.167-1.627-0.503-2.07c-0.335-0.447-0.913-0.67-1.732-0.67c-0.57,0-1.081,0.145-1.535,0.428
	c-0.452,0.285-0.958,0.711-1.512,1.283v7.384h-2.168L90.495,33.352L90.495,33.352z"/>
<path fill="#777777" d="M124.329,38.721c0-0.877,0.153-1.662,0.46-2.356c0.307-0.693,0.715-1.286,1.228-1.774
	c0.511-0.489,1.095-0.863,1.754-1.118c0.657-0.255,1.338-0.383,2.036-0.383c0.79,0,1.486,0.124,2.096,0.373
	c0.604,0.248,1.12,0.594,1.544,1.038c0.424,0.448,0.745,0.98,0.963,1.603c0.22,0.62,0.33,1.303,0.33,2.048
	c0,0.221-0.011,0.427-0.033,0.624c-0.022,0.199-0.047,0.361-0.077,0.492h-8.065c0.073,1.053,0.465,1.876,1.174,2.467
	c0.709,0.592,1.602,0.887,2.684,0.887c0.585,0,1.128-0.081,1.633-0.241c0.506-0.159,0.999-0.386,1.479-0.678l0.766,1.38
	c-0.553,0.352-1.18,0.646-1.873,0.888s-1.458,0.36-2.291,0.36c-0.804,0-1.558-0.126-2.266-0.383
	c-0.711-0.255-1.325-0.622-1.853-1.105c-0.527-0.482-0.94-1.07-1.238-1.765C124.479,40.382,124.329,39.597,124.329,38.721z
	 M132.723,37.778c0-0.965-0.251-1.702-0.746-2.215c-0.498-0.511-1.206-0.765-2.126-0.765c-0.804,0-1.521,0.254-2.148,0.765
	c-0.629,0.513-1.016,1.25-1.16,2.215H132.723z"/>
<path fill="#777777" d="M141.871,33.012l0.006,11.275h-2.17v-8.232h-4.069L141.871,33.012z M140.604,30.802
	c-0.469,0-0.854-0.139-1.161-0.416c-0.307-0.278-0.459-0.651-0.459-1.118c0-0.468,0.152-0.843,0.459-1.128
	c0.308-0.285,0.692-0.427,1.161-0.427c0.467,0,0.855,0.142,1.162,0.427c0.307,0.286,0.461,0.661,0.461,1.128
	c0,0.467-0.154,0.841-0.461,1.118C141.459,30.663,141.071,30.802,140.604,30.802z"/>
<path fill="#777777" d="M144.883,38.938c0-0.891,0.162-1.688,0.483-2.387c0.321-0.702,0.76-1.292,1.315-1.777
	c0.555-0.48,1.193-0.845,1.917-1.094c0.725-0.248,1.494-0.372,2.312-0.372c0.877,0,1.645,0.149,2.303,0.448
	c0.657,0.3,1.206,0.663,1.644,1.085l-1.052,1.381c-0.425-0.351-0.864-0.624-1.317-0.822c-0.451-0.198-0.941-0.296-1.467-0.296
	c-0.568,0-1.095,0.091-1.577,0.275c-0.481,0.183-0.895,0.441-1.237,0.777c-0.342,0.336-0.609,0.742-0.801,1.216
	c-0.188,0.475-0.284,1-0.284,1.566c0,0.569,0.092,1.093,0.274,1.568c0.183,0.475,0.444,0.879,0.788,1.215
	c0.344,0.335,0.749,0.597,1.217,0.779c0.467,0.181,0.984,0.271,1.556,0.271c0.657,0,1.25-0.123,1.774-0.371
	c0.526-0.248,1-0.547,1.424-0.898l0.922,1.403c-0.613,0.525-1.287,0.931-2.017,1.215s-1.491,0.427-2.279,0.427
	c-0.832,0-1.61-0.123-2.333-0.372c-0.724-0.247-1.347-0.613-1.875-1.096c-0.524-0.483-0.938-1.07-1.237-1.765
	C145.033,40.624,144.883,39.831,144.883,38.938z"/>
<path fill="#777777" d="M155.183,28.812l4.544-2.254v6.312l-0.133,2.41c0.541-0.554,1.125-1.022,1.755-1.403
	c0.628-0.378,1.358-0.568,2.191-0.568c1.255,0,2.176,0.372,2.761,1.117c0.584,0.745,0.876,1.82,0.876,3.223v6.639h-2.171V37.93
	c0-0.935-0.168-1.624-0.504-2.069c-0.335-0.445-0.911-0.669-1.729-0.669c-0.57,0-1.083,0.143-1.534,0.428
	c-0.454,0.285-0.959,0.712-1.514,1.283v7.384h-2.17l-0.045-15.567L155.183,28.812z"/>
<g>
	<polygon fill="#777777" points="167.584,23.967 166.853,25.494 175.938,25.532 176.668,23.976 	"/>
	<polygon fill="#777777" points="166.865,27.297 166.111,28.9 175.208,28.918 175.938,27.333 	"/>
	<polygon fill="#777777" points="168.639,30.717 172.807,21.846 174.411,21.869 170.292,30.719 	"/>
</g>
<g>
	<path fill="#777777" d="M118.894,40.583c0,0.718,0.18,1.238,0.541,1.557c0.36,0.316,0.829,0.477,1.408,0.477
		c0.282,0,0.572-0.035,0.869-0.106s0.629-0.185,0.996-0.34l0.508,1.569c-0.241,0.083-0.47,0.16-0.688,0.232
		c-0.221,0.071-0.441,0.13-0.667,0.179c-0.226,0.051-0.462,0.093-0.709,0.128c-0.248,0.034-0.52,0.054-0.816,0.054
		c-1.159,0-2.038-0.332-2.638-0.997c-0.601-0.664-0.899-1.623-0.899-2.88V26.349h-3.39l5.485-3.865"/>
</g>
</svg>
