<?xml version="1.0" encoding="utf-8"?>
<!-- Generator: Adobe Illustrator 16.0.0, SVG Export Plug-In . SVG Version: 6.00 Build 0)  -->
<!DOCTYPE svg PUBLIC "-//W3C//DTD SVG 1.1//EN" "http://www.w3.org/Graphics/SVG/1.1/DTD/svg11.dtd">
<svg version="1.1"
	 id="svg5565" xmlns:dc="http://purl.org/dc/elements/1.1/" xmlns:sodipodi="http://sodipodi.sourceforge.net/DTD/sodipodi-0.dtd" xmlns:inkscape="http://www.inkscape.org/namespaces/inkscape" xmlns:ns1="http://sozi.baierouge.fr" xmlns:cc="http://creativecommons.org/ns#" xmlns:svg="http://www.w3.org/2000/svg" xmlns:rdf="http://www.w3.org/1999/02/22-rdf-syntax-ns#"
	 xmlns="http://www.w3.org/2000/svg" xmlns:xlink="http://www.w3.org/1999/xlink" x="0px" y="0px" width="162px" height="162px"
	 viewBox="0 0 162 162" enable-background="new 0 0 162 162" xml:space="preserve">
<g id="layer1" transform="translate(-245.49 -532.84)" display="none">
	<path id="path4352" display="inline" fill="#9B9B9B" d="M878.187,854.391c-43.258,2.926-76.061,40.491-73.135,83.747
		c2.922,43.259,40.488,76.076,83.746,73.15c43.26-2.928,76.072-40.503,73.145-83.763
		C959.019,884.272,921.447,851.466,878.187,854.391L878.187,854.391z M878.967,865.899c37.039-2.504,68.967,25.368,71.475,62.409
		c2.246,33.206-19.936,62.308-51.238,69.779c0.135-0.519,0.24-1.062,0.336-1.624c0.824-2.853,1.326-7.104,1.021-7.463
		c-0.834-0.99,3.361-11.335,5.357-13.212c2.643-2.484,3.887-8.062,3.143-14.062c-0.553-4.453-0.266-6.769,1.646-13.262
		c1.479-5.026,2.994-8.609,4.203-9.939c1.043-1.146,3.012-4.332,4.361-7.074c2.594-5.258,7.662-10.95,10.812-12.135
		c3.154-1.188,6.041-6.02,5.742-9.625c-0.352-4.25-1.555-6.019-3.488-5.111c-1.121,0.525-1.883,0.33-2.941-0.775
		c-1.252-1.307-1.473-1.245-1.797,0.507c-0.203,1.101-0.936,2.058-1.627,2.109c-0.979,0.073-0.918-0.698,0.287-3.415
		c0.852-1.923,1.521-4.943,1.496-6.712c-0.047-3.132-2.789-10.349-4.084-10.729c-0.357-0.104-3.033,1.937-5.934,4.52
		c-7.811,6.953-20.084,15.758-22.211,15.928c-1.023,0.083-2.961-0.077-4.299-0.35c-2.463-0.498-6.174,1.182-14.945,6.744
		c-3.789,2.402-6.064,3.062-11.434,3.302c-4.127,0.185-7.928,1.018-9.895,2.175c-2.928,1.72-3.141,2.07-2.596,4.209
		c0.326,1.284,2.373,4.1,4.541,6.256l3.939,3.924l-2.404,3.812c-1.326,2.1-2.797,5.068-3.25,6.591
		c-0.455,1.522-2.223,4.272-3.934,6.118c-3.299,3.558-9.543,13.891-11.545,19.096c-0.496,1.29-5.566,4.645-9.072,6.334
		c-8.008-10.226-13.133-22.891-14.076-36.857C814.052,900.323,841.927,868.406,878.967,865.899L878.967,865.899z"/>
</g>
<g id="layer1_1_" transform="translate(-245.49 -532.84)">
	<path id="path4352_1_" fill="#568E35" d="M320.96,538.324c-42.163,2.852-74.133,39.465-71.282,81.625
		c2.848,42.162,39.461,74.146,81.623,71.297c42.164-2.854,74.146-39.479,71.295-81.641
		C399.744,567.448,363.123,535.473,320.96,538.324L320.96,538.324z M321.719,549.54c36.101-2.441,67.221,24.726,69.664,60.828
		c2.188,32.365-19.431,60.73-49.941,68.01c0.132-0.503,0.236-1.034,0.326-1.583c0.808-2.777,1.295-6.92,0.998-7.273
		c-0.812-0.965,3.276-11.048,5.222-12.876c2.577-2.422,3.789-7.858,3.063-13.704c-0.539-4.34-0.259-6.597,1.604-12.926
		c1.439-4.898,2.918-8.391,4.097-9.688c1.015-1.117,2.935-4.223,4.253-6.896c2.527-5.125,7.469-10.673,10.537-11.827
		c3.075-1.157,5.889-5.866,5.598-9.381c-0.342-4.142-1.516-5.865-3.398-4.981c-1.094,0.513-1.837,0.321-2.869-0.757
		c-1.219-1.273-1.436-1.213-1.749,0.494c-0.198,1.072-0.913,2.006-1.587,2.056c-0.954,0.07-0.895-0.681,0.279-3.329
		c0.83-1.875,1.484-4.818,1.459-6.542c-0.047-3.053-2.719-10.086-3.981-10.458c-0.347-0.102-2.954,1.887-5.782,4.405
		c-7.61,6.778-19.574,15.358-21.647,15.524c-0.997,0.08-2.884-0.075-4.188-0.339c-2.4-0.485-6.017,1.15-14.566,6.572
		c-3.694,2.342-5.91,2.984-11.143,3.218c-4.023,0.179-7.729,0.992-9.646,2.119c-2.85,1.677-3.058,2.02-2.527,4.103
		c0.318,1.251,2.312,3.995,4.426,6.097l3.838,3.825l-2.342,3.714c-1.293,2.045-2.726,4.938-3.169,6.424
		c-0.443,1.484-2.166,4.164-3.833,5.963c-3.216,3.468-9.301,13.539-11.252,18.611c-0.483,1.258-5.427,4.525-8.843,6.174
		c-7.804-9.967-12.799-22.312-13.72-35.926C258.45,583.092,285.617,551.984,321.719,549.54L321.719,549.54z"/>
</g>
</svg>
