<?xml version="1.0" encoding="utf-8"?>
<!-- Generator: Adobe Illustrator 16.0.0, SVG Export Plug-In . SVG Version: 6.00 Build 0)  -->
<!DOCTYPE svg PUBLIC "-//W3C//DTD SVG 1.1//EN" "http://www.w3.org/Graphics/SVG/1.1/DTD/svg11.dtd">
<svg version="1.1" xmlns="http://www.w3.org/2000/svg" xmlns:xlink="http://www.w3.org/1999/xlink" x="0px" y="0px" width="196px"
	 height="196px" viewBox="0 0 196 196" enable-background="new 0 0 196 196" xml:space="preserve">
<g id="Layer_1">
	<g>
		<ellipse fill="#0D2849" cx="96.871" cy="97.632" rx="68.442" ry="67.431"/>
		
			<ellipse opacity="0.57" fill="none" stroke="#47B9E8" stroke-width="2" stroke-miterlimit="10" cx="96.719" cy="97.321" rx="62.32" ry="61.179"/>
	</g>
	<g>
		<path fill-rule="evenodd" clip-rule="evenodd" fill="#47B9E8" d="M57.043,130.8c0-20.398,0-40.777,0-61.19
			c9.176,0,18.341,0,27.533,0c0-0.142-0.001-0.25,0-0.36c0.021-1.162,0.002-2.325,0.069-3.485c0.066-1.101,0.483-2.09,1.144-2.978
			c0.923-1.239,2.173-1.945,3.664-2.244c0.416-0.082,0.85-0.11,1.275-0.112c4.061-0.007,8.123-0.007,12.179-0.002
			c1.668,0.002,3.154,0.521,4.364,1.683c0.668,0.641,1.144,1.424,1.442,2.312c0.28,0.833,0.355,1.69,0.351,2.561
			c-0.007,0.865-0.003,1.73-0.003,2.616c9.187,0,18.341,0,27.523,0c0,20.406,0,40.794,0,61.201
			C110.086,130.8,83.578,130.8,57.043,130.8z M130.484,75.751c-22.465,0-44.889,0-67.331,0c0,0.123,0,0.224,0,0.325
			c0,5.925,0,11.853,0,17.78c0,0.212,0.001,0.428,0.019,0.641c0.138,1.929,0.936,3.506,2.536,4.634
			c1.15,0.811,2.456,1.086,3.846,1.086c18.178-0.003,36.358-0.002,54.534-0.003c0.225,0,0.449-0.002,0.672-0.018
			c1.933-0.139,3.509-0.933,4.638-2.529c0.8-1.132,1.091-2.417,1.091-3.785c-0.004-5.937-0.004-11.873-0.004-17.81
			C130.484,75.971,130.484,75.87,130.484,75.751z M130.469,104.805c-0.041,0.003-0.063,0-0.078,0.007
			c-1.979,1.076-4.105,1.528-6.347,1.528c-18.199-0.007-36.398-0.003-54.597-0.003c-1.986,0-3.885-0.378-5.675-1.264
			c-0.196-0.098-0.396-0.186-0.594-0.28c0,6.646,0,13.271,0,19.892c22.442,0,44.859,0,67.291,0
			C130.469,118.053,130.469,111.436,130.469,104.805z M90.708,69.586c4.091,0,8.154,0,12.215,0c0-1.017,0-2.012,0-3.011
			c-4.083,0-8.145,0-12.215,0C90.708,67.589,90.708,68.575,90.708,69.586z"/>
		<path fill-rule="evenodd" clip-rule="evenodd" fill="#0D2849" d="M130.484,75.751c0,0.119,0,0.22,0,0.321
			c0,5.937,0,11.873,0.004,17.81c0,1.369-0.291,2.653-1.091,3.785c-1.129,1.597-2.705,2.391-4.638,2.529
			c-0.223,0.016-0.447,0.018-0.672,0.018c-18.176,0.001-36.356,0-54.534,0.003c-1.39,0-2.695-0.275-3.846-1.086
			c-1.6-1.128-2.397-2.705-2.536-4.634c-0.017-0.213-0.019-0.428-0.019-0.641c0-5.928,0-11.855,0-17.78c0-0.101,0-0.202,0-0.325
			C85.595,75.751,108.02,75.751,130.484,75.751z M81.511,87.99c-2.049,0-4.07,0-6.093,0c0,3.061,0,6.104,0,9.138
			c2.043,0,4.064,0,6.093,0C81.511,94.078,81.511,91.05,81.511,87.99z M112.144,87.984c0,3.069,0,6.112,0,9.144
			c2.048,0,4.068,0,6.083,0c0-3.06,0-6.095,0-9.144C116.194,87.984,114.18,87.984,112.144,87.984z"/>
		<path fill-rule="evenodd" clip-rule="evenodd" fill="#0D2849" d="M130.469,104.805c0,6.631,0,13.248,0,19.88
			c-22.432,0-44.848,0-67.291,0c0-6.621,0-13.245,0-19.892c0.198,0.095,0.398,0.183,0.594,0.28c1.79,0.886,3.689,1.264,5.675,1.264
			c18.199,0,36.397-0.004,54.597,0.003c2.241,0,4.367-0.452,6.347-1.528C130.405,104.805,130.428,104.808,130.469,104.805z"/>
		<path fill-rule="evenodd" clip-rule="evenodd" fill="#0D2849" d="M90.708,69.586c0-1.011,0-1.997,0-3.011c4.07,0,8.132,0,12.215,0
			c0,1,0,1.995,0,3.011C98.862,69.586,94.799,69.586,90.708,69.586z"/>
		<path fill-rule="evenodd" clip-rule="evenodd" fill="#47B9E8" d="M81.511,87.99c0,3.06,0,6.088,0,9.138c-2.029,0-4.05,0-6.093,0
			c0-3.034,0-6.077,0-9.138C77.441,87.99,79.462,87.99,81.511,87.99z"/>
		<path fill-rule="evenodd" clip-rule="evenodd" fill="#47B9E8" d="M112.144,87.984c2.036,0,4.051,0,6.083,0
			c0,3.049,0,6.084,0,9.144c-2.015,0-4.035,0-6.083,0C112.144,94.097,112.144,91.054,112.144,87.984z"/>
	</g>
	
		<image display="none" overflow="visible" width="170" height="166" id="Layer_4_xA0_Image_1_" xlink:href="3DFCBC34760ACD66.png"  transform="matrix(1 0 0 1 12.8145 16.6162)">
	</image>
	
		<rect x="61.251" y="73.602" display="none" fill="none" stroke="#FFFFFF" stroke-width="5.5" stroke-miterlimit="10" width="28.351" height="52.284"/>
	
		<rect x="103.226" y="74.338" display="none" fill="none" stroke="#FFFFFF" stroke-width="5.5" stroke-miterlimit="10" width="28.351" height="52.284"/>
	<rect x="72.665" y="85.384" display="none" fill="#FFFFFF" width="5.155" height="6.996"/>
	<rect x="72.665" y="107.477" display="none" fill="#FFFFFF" width="5.155" height="6.995"/>
	<rect x="103.226" y="97.321" display="none" fill="#FFFFFF" width="28.351" height="5"/>
</g>
<g id="Layer_2" display="none">
	<g display="inline">
		
			<text transform="matrix(1 0 0 1 54.2861 73.6836)" fill="#FFFFFF" font-family="'HelveticaNeue-CondensedBold'" font-size="17.6318">IP-Adressen</text>
		<line fill="none" stroke="#FFFFFF" stroke-width="2" stroke-miterlimit="10" x1="46.373" y1="116.581" x2="147.75" y2="116.581"/>
		<text transform="matrix(1 0 0 1 67.772 108.3828)" fill="#FFFFFF" font-family="'HelveticaNeue-Bold'" font-size="26.4477">IPv6</text>
		<line fill="none" stroke="#FFFFFF" stroke-width="2" stroke-miterlimit="10" x1="46.373" y1="81.142" x2="147.75" y2="81.142"/>
	</g>
	
		<text transform="matrix(1 0 0 1 67.772 141.3809)" display="inline" fill="#FFFFFF" font-family="'HelveticaNeue-Bold'" font-size="26.4477">IPv4</text>
</g>
</svg>
