<?xml version="1.0" encoding="utf-8"?>
<!-- Generator: Adobe Illustrator 16.0.0, SVG Export Plug-In . SVG Version: 6.00 Build 0)  -->
<!DOCTYPE svg PUBLIC "-//W3C//DTD SVG 1.1//EN" "http://www.w3.org/Graphics/SVG/1.1/DTD/svg11.dtd">
<svg version="1.1" id="Layer_1" xmlns="http://www.w3.org/2000/svg" xmlns:xlink="http://www.w3.org/1999/xlink" x="0px" y="0px"
	 width="196px" height="196px" viewBox="0 0 196 196" enable-background="new 0 0 196 196" xml:space="preserve">
<g>
	<ellipse fill="#0D2849" cx="96.871" cy="97.632" rx="68.441" ry="67.431"/>
	
		<ellipse opacity="0.57" fill="none" stroke="#47B9E8" stroke-width="2" stroke-miterlimit="10" enable-background="new    " cx="96.719" cy="97.321" rx="62.32" ry="61.179"/>
</g>
<g display="none">
	<path display="inline" opacity="0.84" fill="#FFFFFF" enable-background="new    " d="M40.517,144.309c0-29.391,0-58.75,0-88.158
		c13.22,0,26.423,0,39.667,0c0-0.204-0.002-0.36,0-0.519c0.03-1.674,0.003-3.351,0.1-5.022c0.094-1.585,0.694-3.012,1.647-4.29
		c1.329-1.784,3.13-2.802,5.277-3.232c0.6-0.118,1.225-0.159,1.838-0.161c5.851-0.011,11.702-0.011,17.547-0.003
		c2.4,0.003,4.544,0.751,6.286,2.425c0.964,0.923,1.646,2.051,2.078,3.329c0.402,1.201,0.512,2.436,0.506,3.69
		c-0.011,1.246-0.005,2.492-0.005,3.768c13.235,0,26.423,0,39.653,0c0,29.4,0,58.772,0,88.173
		C116.934,144.309,78.744,144.309,40.517,144.309z M146.322,64.998c-32.365,0-64.672,0-97.002,0c0,0.177,0,0.323,0,0.468
		c0,8.537,0,17.076,0,25.616c0,0.307,0.003,0.616,0.027,0.923c0.199,2.78,1.349,5.052,3.652,6.677
		c1.658,1.168,3.539,1.563,5.542,1.563c26.189-0.005,52.38-0.003,78.566-0.005c0.324,0,0.646-0.004,0.97-0.024
		c2.782-0.198,5.055-1.343,6.68-3.644c1.152-1.631,1.572-3.48,1.572-5.453c-0.006-8.553-0.006-17.106-0.006-25.659
		C146.322,65.315,146.322,65.169,146.322,64.998z M146.301,106.855c-0.06,0.004-0.092,0-0.113,0.011
		c-2.853,1.55-5.914,2.2-9.145,2.2c-26.219-0.01-52.438-0.004-78.656-0.004c-2.861,0-5.598-0.545-8.176-1.819
		c-0.283-0.142-0.571-0.271-0.856-0.404c0,9.576,0,19.119,0,28.657c32.333,0,64.627,0,96.946,0
		C146.301,125.941,146.301,116.409,146.301,106.855z M89.017,56.116c5.894,0,11.747,0,17.599,0c0-1.464,0-2.898,0-4.338
		c-5.884,0-11.734,0-17.599,0C89.017,53.239,89.017,54.66,89.017,56.116z"/>
	<path display="inline" fill="#3077A3" d="M146.322,64.998c0,0.172,0,0.317,0,0.463c0,8.553,0,17.106,0.006,25.659
		c0,1.973-0.42,3.822-1.572,5.453c-1.625,2.301-3.896,3.444-6.68,3.644c-0.323,0.021-0.646,0.024-0.969,0.024
		c-26.188,0.002-52.378,0-78.567,0.005c-2.002,0-3.884-0.396-5.542-1.562c-2.304-1.625-3.453-3.897-3.652-6.678
		c-0.024-0.307-0.027-0.616-0.027-0.923c0-8.54,0-17.079,0-25.616c0-0.146,0-0.291,0-0.468
		C81.65,64.998,113.957,64.998,146.322,64.998z M75.768,82.631c-2.953,0-5.865,0-8.779,0c0,4.411,0,8.795,0,13.166
		c2.944,0,5.856,0,8.779,0C75.768,91.402,75.768,87.039,75.768,82.631z M119.898,82.623c0,4.422,0,8.806,0,13.174
		c2.949,0,5.861,0,8.764,0c0-4.408,0-8.781,0-13.174C125.734,82.623,122.833,82.623,119.898,82.623z"/>
	<path display="inline" fill="#3077A3" d="M146.301,106.855c0,9.554,0,19.086,0,28.641c-32.316,0-64.613,0-96.946,0
		c0-9.538,0-19.081,0-28.657c0.285,0.136,0.573,0.265,0.856,0.404c2.578,1.274,5.315,1.819,8.176,1.819
		c26.219,0,52.438-0.006,78.656,0.004c3.229,0,6.292-0.65,9.145-2.2C146.209,106.855,146.241,106.859,146.301,106.855z"/>
	<path display="inline" fill="#3077A3" d="M89.017,56.116c0-1.456,0-2.877,0-4.338c5.864,0,11.715,0,17.599,0
		c0,1.44,0,2.874,0,4.338C100.764,56.116,94.911,56.116,89.017,56.116z"/>
	<path display="inline" opacity="0.84" fill="#FFFFFF" enable-background="new    " d="M75.768,82.631c0,4.408,0,8.771,0,13.166
		c-2.923,0-5.835,0-8.779,0c0-4.371,0-8.754,0-13.166C69.903,82.631,72.815,82.631,75.768,82.631z"/>
	<path display="inline" opacity="0.84" fill="#FFFFFF" enable-background="new    " d="M119.898,82.623c2.935,0,5.836,0,8.764,0
		c0,4.393,0,8.766,0,13.174c-2.9,0-5.812,0-8.764,0C119.898,91.429,119.898,87.044,119.898,82.623z"/>
</g>
<image display="none" overflow="visible" enable-background="new    " width="171" height="167" id="Layer_4_xA0_Image_2_" xlink:href="C949B290C0D038A2.png"  transform="matrix(0.9941 0 0 0.9941 12.8198 16.6104)">
</image>
<rect x="61.251" y="73.602" fill="none" stroke="#47B9E8" stroke-width="5.5" stroke-miterlimit="10" width="28.351" height="52.284"/>
<rect x="103.227" y="74.338" fill="none" stroke="#47B9E8" stroke-width="5.5" stroke-miterlimit="10" width="28.351" height="52.284"/>
<rect x="72.665" y="85.384" fill="#47B9E8" width="5.155" height="6.996"/>
<rect x="72.665" y="107.477" fill="#47B9E8" width="5.155" height="6.996"/>
<rect x="103.227" y="97.321" fill="#47B9E8" width="28.351" height="5"/>
</svg>
