<?xml version="1.0" encoding="utf-8"?>
<!-- Generator: Adobe Illustrator 16.0.0, SVG Export Plug-In . SVG Version: 6.00 Build 0)  -->
<!DOCTYPE svg PUBLIC "-//W3C//DTD SVG 1.1//EN" "http://www.w3.org/Graphics/SVG/1.1/DTD/svg11.dtd">
<svg version="1.1" id="Layer_1" xmlns="http://www.w3.org/2000/svg" xmlns:xlink="http://www.w3.org/1999/xlink" x="0px" y="0px"
	 width="130px" height="40px" viewBox="0 0 130 40" enable-background="new 0 0 130 40" xml:space="preserve">
<g>
	<path fill="#FFFFFF" d="M41.207,31.459c0-0.431,0.15-0.846,0.453-1.25c0.301-0.406,0.733-0.771,1.293-1.094v-0.09
		c-0.294-0.16-0.552-0.388-0.774-0.675c-0.22-0.287-0.331-0.66-0.331-1.116c0-0.354,0.115-0.711,0.345-1.074
		c0.227-0.36,0.55-0.681,0.963-0.96v-0.088c-0.386-0.281-0.709-0.655-0.975-1.121c-0.263-0.462-0.396-1.019-0.396-1.666
		c0-0.605,0.117-1.148,0.352-1.627c0.237-0.48,0.554-0.887,0.954-1.228c0.397-0.34,0.857-0.597,1.382-0.775
		c0.521-0.177,1.079-0.265,1.667-0.265c0.605,0,1.151,0.088,1.637,0.265h4.444v1.659h-2.698c0.222,0.235,0.42,0.528,0.596,0.874
		c0.178,0.348,0.267,0.734,0.267,1.161c0,0.592-0.11,1.115-0.332,1.571c-0.221,0.457-0.524,0.844-0.907,1.16
		c-0.384,0.319-0.833,0.56-1.349,0.717c-0.515,0.162-1.069,0.245-1.659,0.245c-0.263,0-0.548-0.027-0.853-0.088
		c-0.301-0.057-0.599-0.148-0.895-0.266c-0.502,0.326-0.751,0.701-0.751,1.128c0,0.396,0.184,0.686,0.552,0.861
		c0.368,0.18,0.899,0.265,1.591,0.265h2.299c1.418,0,2.465,0.205,3.153,0.608c0.685,0.405,1.027,1.075,1.027,2.001
		c0,0.517-0.145,1.001-0.432,1.46c-0.288,0.457-0.697,0.857-1.229,1.204c-0.529,0.346-1.172,0.621-1.924,0.817
		c-0.751,0.201-1.591,0.302-2.522,0.302c-1.533,0-2.742-0.249-3.625-0.744C41.65,33.143,41.207,32.416,41.207,31.459z
		 M43.062,31.193c0,0.516,0.284,0.932,0.853,1.249c0.568,0.317,1.39,0.477,2.464,0.477c0.575,0,1.095-0.056,1.56-0.167
		c0.464-0.109,0.863-0.257,1.195-0.441c0.333-0.186,0.584-0.395,0.763-0.628c0.177-0.235,0.263-0.485,0.263-0.755
		c0-0.47-0.196-0.782-0.584-0.939c-0.392-0.154-0.978-0.229-1.758-0.229h-1.902c-0.339,0-0.64-0.014-0.905-0.036
		c-0.267-0.019-0.518-0.066-0.752-0.143c-0.443,0.251-0.751,0.509-0.931,0.773C43.154,30.616,43.062,30.897,43.062,31.193z
		 M46.138,24.668c0.621,0,1.149-0.205,1.594-0.618c0.441-0.414,0.664-0.986,0.664-1.724c0-0.71-0.223-1.276-0.664-1.703
		c-0.445-0.428-0.973-0.642-1.594-0.642s-1.149,0.213-1.591,0.642c-0.441,0.427-0.663,0.995-0.663,1.703
		c0,0.737,0.223,1.31,0.663,1.724C44.988,24.462,45.518,24.668,46.138,24.668z"/>
</g>
<path fill="#FFFFFF" d="M24.624,29.806H22.77l-0.184-1.853h-0.09c-0.55,0.64-1.15,1.154-1.796,1.544
	c-0.649,0.387-1.4,0.581-2.254,0.581c-1.327,0-2.296-0.385-2.904-1.153c-0.612-0.772-0.916-1.896-0.916-3.376v-5.616l-2.962-0.058
	l5.249-2.02l-0.022,1.528v5.871c0,0.991,0.175,1.719,0.526,2.186c0.351,0.466,0.953,0.7,1.808,0.7c0.579,0,1.109-0.144,1.589-0.426
	c0.48-0.282,0.996-0.76,1.544-1.431v-7.665h2.265L24.624,29.806L24.624,29.806z"/>
<path fill="#FFFFFF" d="M28.376,18.619h1.851l0.184,1.807h0.091c0.565-0.58,1.174-1.072,1.832-1.476
	c0.654-0.404,1.418-0.605,2.287-0.605c1.312,0,2.274,0.39,2.882,1.165c0.61,0.777,0.917,1.9,0.917,3.365v6.93h-2.267V23.17
	c0-0.975-0.173-1.695-0.525-2.161c-0.349-0.468-0.953-0.701-1.808-0.701c-0.596,0-1.128,0.152-1.603,0.447
	c-0.471,0.298-1,0.743-1.579,1.339v7.709h-2.263L28.376,18.619L28.376,18.619z"/>
<path fill="#FFFFFF" d="M63.696,24.225c0-0.917,0.161-1.737,0.481-2.461s0.746-1.343,1.281-1.853c0.532-0.51,1.143-0.9,1.831-1.167
	c0.687-0.267,1.397-0.399,2.128-0.399c0.823,0,1.551,0.128,2.187,0.389c0.629,0.259,1.17,0.621,1.609,1.084
	c0.444,0.467,0.781,1.023,1.007,1.672c0.229,0.647,0.346,1.36,0.346,2.139c0,0.23-0.013,0.447-0.035,0.653
	c-0.022,0.208-0.049,0.378-0.08,0.514H66.03c0.076,1.098,0.483,1.956,1.225,2.574c0.74,0.618,1.673,0.928,2.802,0.928
	c0.611,0,1.178-0.087,1.705-0.254c0.527-0.166,1.041-0.403,1.541-0.708l0.803,1.439c-0.575,0.366-1.23,0.674-1.956,0.928
	c-0.724,0.25-1.521,0.376-2.392,0.376c-0.838,0-1.627-0.131-2.366-0.397c-0.74-0.268-1.384-0.652-1.933-1.156
	c-0.55-0.504-0.981-1.118-1.294-1.844C63.853,25.957,63.696,25.138,63.696,24.225z M72.459,23.241c0-1.01-0.263-1.777-0.78-2.312
	s-1.256-0.8-2.218-0.8c-0.84,0-1.586,0.266-2.241,0.8c-0.657,0.535-1.063,1.302-1.214,2.312H72.459z"/>
<path fill="#FFFFFF" d="M82.007,18.264l0.008,11.77h-2.267V21.44h-4.247L82.007,18.264z M80.688,15.958
	c-0.488,0-0.891-0.146-1.215-0.434c-0.316-0.29-0.478-0.68-0.478-1.167s0.161-0.879,0.478-1.177
	c0.324-0.297,0.725-0.446,1.215-0.446c0.486,0,0.894,0.148,1.212,0.446c0.323,0.298,0.483,0.69,0.483,1.177
	c0,0.487-0.16,0.878-0.483,1.167C81.581,15.811,81.174,15.958,80.688,15.958z"/>
<path fill="#FFFFFF" d="M85.153,24.45c0-0.928,0.169-1.762,0.505-2.491c0.336-0.733,0.795-1.351,1.374-1.855
	c0.577-0.503,1.244-0.882,2-1.143c0.756-0.258,1.56-0.388,2.413-0.388c0.916,0,1.715,0.155,2.402,0.467
	c0.689,0.312,1.261,0.692,1.717,1.132l-1.096,1.44c-0.444-0.365-0.903-0.652-1.377-0.857c-0.469-0.205-0.981-0.307-1.531-0.307
	c-0.593,0-1.143,0.095-1.648,0.286c-0.502,0.19-0.933,0.46-1.29,0.812c-0.359,0.352-0.639,0.773-0.834,1.269
	c-0.199,0.495-0.298,1.043-0.298,1.635c0,0.596,0.096,1.142,0.285,1.636c0.191,0.497,0.466,0.919,0.822,1.271
	c0.358,0.348,0.782,0.621,1.269,0.812c0.49,0.189,1.029,0.284,1.627,0.284c0.685,0,1.304-0.129,1.852-0.389
	c0.548-0.259,1.045-0.571,1.487-0.94l0.962,1.467c-0.641,0.548-1.343,0.973-2.104,1.269c-0.763,0.297-1.558,0.444-2.38,0.444
	c-0.87,0-1.681-0.128-2.437-0.388c-0.755-0.258-1.405-0.641-1.955-1.145c-0.552-0.504-0.982-1.119-1.294-1.843
	C85.311,26.21,85.153,25.383,85.153,24.45z"/>
<path fill="#FFFFFF" d="M95.906,13.877l4.743-2.351v6.589l-0.138,2.517c0.566-0.58,1.173-1.068,1.832-1.465
	c0.655-0.396,1.416-0.594,2.287-0.594c1.311,0,2.271,0.388,2.881,1.165c0.608,0.778,0.914,1.901,0.914,3.364v6.93h-2.264v-6.635
	c0-0.977-0.175-1.695-0.527-2.161c-0.351-0.466-0.95-0.699-1.807-0.699c-0.594,0-1.13,0.149-1.599,0.446
	c-0.477,0.299-1.001,0.745-1.581,1.34v7.709h-2.265l-0.05-16.251L95.906,13.877z"/>
<g>
	<polygon fill="#FFFFFF" points="108.854,8.822 108.09,10.416 117.573,10.456 118.336,8.831 	"/>
	<polygon fill="#FFFFFF" points="108.103,12.298 107.315,13.971 116.812,13.991 117.573,12.336 	"/>
	<polygon fill="#FFFFFF" points="109.955,15.869 114.305,6.606 115.98,6.631 111.682,15.871 	"/>
</g>
<g>
	<path fill="#FFFFFF" d="M58.023,26.167c0,0.749,0.188,1.293,0.564,1.625c0.375,0.333,0.864,0.499,1.47,0.499
		c0.294,0,0.598-0.039,0.907-0.112c0.309-0.074,0.657-0.191,1.038-0.354l0.53,1.639c-0.25,0.086-0.491,0.166-0.718,0.243
		c-0.23,0.072-0.462,0.134-0.696,0.186c-0.236,0.054-0.482,0.097-0.739,0.133c-0.26,0.037-0.542,0.057-0.852,0.057
		c-1.21,0-2.128-0.346-2.755-1.041c-0.626-0.691-0.939-1.693-0.939-3.007V11.309h-3.539l5.727-4.035"/>
</g>
</svg>
