<?xml version="1.0" encoding="utf-8"?>
<!-- Generator: Adobe Illustrator 16.0.0, SVG Export Plug-In . SVG Version: 6.00 Build 0)  -->
<!DOCTYPE svg PUBLIC "-//W3C//DTD SVG 1.1//EN" "http://www.w3.org/Graphics/SVG/1.1/DTD/svg11.dtd">
<svg version="1.1" id="Layer_1" xmlns="http://www.w3.org/2000/svg" xmlns:xlink="http://www.w3.org/1999/xlink" x="0px" y="0px"
	 width="156.5px" height="30.5px" viewBox="0 0 156.5 30.5" enable-background="new 0 0 156.5 30.5" xml:space="preserve">
<g display="none">
	<g display="inline">
		<path fill="#231916" d="M32.599,25.896c0-0.43,0.15-0.846,0.453-1.25c0.303-0.408,0.734-0.773,1.296-1.098v-0.092
			c-0.294-0.16-0.554-0.389-0.777-0.674c-0.22-0.289-0.332-0.662-0.332-1.119c0-0.354,0.115-0.712,0.345-1.076
			c0.227-0.36,0.55-0.683,0.964-0.962v-0.09c-0.386-0.28-0.711-0.654-0.978-1.12c-0.263-0.464-0.397-1.021-0.397-1.67
			c0-0.606,0.118-1.149,0.354-1.63c0.236-0.48,0.555-0.889,0.954-1.229c0.398-0.34,0.86-0.598,1.385-0.775
			c0.523-0.178,1.081-0.266,1.672-0.266c0.605,0,1.152,0.088,1.64,0.266h4.452v1.662h-2.702c0.222,0.237,0.42,0.528,0.598,0.875
			c0.178,0.348,0.267,0.735,0.267,1.165c0,0.59-0.111,1.117-0.332,1.572c-0.222,0.459-0.525,0.846-0.91,1.163
			c-0.384,0.318-0.834,0.558-1.351,0.72c-0.517,0.162-1.071,0.247-1.663,0.247c-0.265,0-0.55-0.032-0.854-0.092
			c-0.302-0.058-0.601-0.147-0.896-0.267c-0.503,0.326-0.753,0.7-0.753,1.131c0,0.397,0.185,0.687,0.553,0.864
			c0.369,0.177,0.901,0.267,1.596,0.267h2.303c1.42,0,2.47,0.203,3.159,0.606c0.687,0.406,1.029,1.076,1.029,2.007
			c0,0.518-0.145,1.004-0.431,1.461c-0.29,0.459-0.699,0.86-1.23,1.209c-0.531,0.348-1.174,0.621-1.929,0.819
			c-0.751,0.199-1.594,0.299-2.525,0.299c-1.537,0-2.747-0.25-3.633-0.743C33.042,27.586,32.599,26.857,32.599,25.896z
			 M34.458,25.633c0,0.516,0.285,0.932,0.854,1.25s1.393,0.477,2.47,0.477c0.577,0,1.097-0.055,1.562-0.166
			c0.465-0.109,0.864-0.258,1.197-0.441s0.585-0.396,0.764-0.631c0.177-0.234,0.266-0.486,0.266-0.754
			c0-0.475-0.196-0.785-0.587-0.941c-0.392-0.152-0.979-0.23-1.762-0.23h-1.905c-0.34,0-0.641-0.012-0.907-0.033
			c-0.268-0.021-0.519-0.07-0.754-0.145c-0.444,0.25-0.753,0.51-0.932,0.775C34.549,25.057,34.458,25.334,34.458,25.633z
			 M37.539,19.095c0.621,0,1.152-0.206,1.597-0.62c0.442-0.414,0.665-0.989,0.665-1.727c0-0.71-0.223-1.279-0.665-1.707
			c-0.445-0.428-0.976-0.643-1.597-0.643s-1.152,0.215-1.595,0.643c-0.442,0.428-0.665,0.997-0.665,1.707
			c0,0.738,0.223,1.313,0.665,1.727C36.386,18.889,36.918,19.095,37.539,19.095z"/>
	</g>
	<path display="inline" fill="#231916" d="M15.983,24.24h-1.857l-0.183-1.854h-0.092c-0.551,0.642-1.151,1.154-1.8,1.548
		c-0.649,0.387-1.401,0.582-2.258,0.582c-1.329,0-2.3-0.384-2.91-1.156c-0.612-0.771-0.917-1.897-0.917-3.38V14.35L3,14.293
		l5.258-2.023l-0.023,1.529v5.882c0,0.994,0.176,1.724,0.528,2.189c0.351,0.467,0.954,0.7,1.811,0.7
		c0.581,0,1.111-0.144,1.593-0.426c0.48-0.283,0.998-0.763,1.547-1.434v-7.678h2.269V24.24z"/>
	<path display="inline" fill="#231916" d="M19.742,13.033h1.856l0.184,1.812h0.091c0.565-0.582,1.176-1.075,1.834-1.479
		c0.655-0.405,1.42-0.607,2.292-0.607c1.313,0,2.278,0.39,2.888,1.168c0.611,0.778,0.917,1.903,0.917,3.37v6.942h-2.271v-6.646
		c0-0.976-0.174-1.7-0.525-2.165c-0.352-0.467-0.955-0.701-1.811-0.701c-0.597,0-1.131,0.151-1.605,0.447
		c-0.473,0.299-1.002,0.744-1.582,1.343v7.721h-2.268V13.033z"/>
	<path display="inline" fill="#231916" d="M55.129,18.65c0-0.917,0.162-1.74,0.482-2.465c0.321-0.725,0.748-1.345,1.284-1.856
		c0.533-0.511,1.146-0.902,1.834-1.17c0.687-0.267,1.398-0.4,2.13-0.4c0.826,0,1.555,0.13,2.19,0.39
		c0.633,0.26,1.172,0.621,1.615,1.086c0.443,0.468,0.779,1.025,1.01,1.676c0.229,0.648,0.344,1.362,0.344,2.142
		c0,0.229-0.012,0.447-0.035,0.652c-0.022,0.208-0.049,0.38-0.08,0.516h-8.436c0.077,1.1,0.485,1.96,1.229,2.58
		c0.739,0.619,1.675,0.928,2.807,0.928c0.611,0,1.18-0.084,1.708-0.252c0.527-0.166,1.042-0.402,1.546-0.709l0.802,1.443
		c-0.578,0.367-1.23,0.676-1.959,0.928c-0.726,0.252-1.525,0.377-2.396,0.377c-0.842,0-1.631-0.131-2.371-0.398
		c-0.742-0.268-1.387-0.65-1.938-1.156c-0.551-0.504-0.982-1.119-1.296-1.846C55.286,20.386,55.129,19.566,55.129,18.65z
		 M63.909,17.665c0-1.01-0.263-1.781-0.779-2.317c-0.521-0.534-1.262-0.8-2.225-0.8c-0.84,0-1.587,0.266-2.245,0.8
		c-0.658,0.536-1.062,1.307-1.214,2.317H63.909z"/>
	<path display="inline" fill="#231916" d="M73.475,12.679l0.008,11.793h-2.27v-8.612h-4.256L73.475,12.679z M72.152,10.368
		c-0.488,0-0.894-0.146-1.215-0.435c-0.32-0.291-0.48-0.681-0.48-1.17c0-0.489,0.16-0.882,0.48-1.18
		c0.321-0.298,0.727-0.446,1.215-0.446c0.488,0,0.896,0.148,1.215,0.446c0.32,0.298,0.482,0.691,0.482,1.18
		c0,0.489-0.162,0.879-0.482,1.17C73.049,10.221,72.641,10.368,72.152,10.368z"/>
	<path display="inline" fill="#231916" d="M76.629,18.878c0-0.932,0.168-1.766,0.504-2.497c0.336-0.735,0.795-1.353,1.375-1.859
		c0.582-0.503,1.25-0.884,2.008-1.145c0.756-0.26,1.562-0.389,2.416-0.389c0.918,0,1.719,0.156,2.406,0.469
		c0.689,0.312,1.262,0.693,1.721,1.135l-1.1,1.443c-0.443-0.367-0.904-0.653-1.379-0.86c-0.471-0.206-0.984-0.309-1.535-0.309
		c-0.594,0-1.143,0.095-1.65,0.287c-0.502,0.19-0.936,0.462-1.293,0.813c-0.357,0.352-0.639,0.776-0.838,1.272
		c-0.197,0.495-0.297,1.042-0.297,1.638c0,0.595,0.096,1.144,0.287,1.64c0.189,0.496,0.465,0.92,0.824,1.273
		c0.359,0.35,0.785,0.623,1.273,0.812c0.486,0.188,1.027,0.283,1.627,0.283c0.686,0,1.307-0.129,1.855-0.387
		c0.549-0.264,1.043-0.574,1.488-0.939l0.965,1.467c-0.645,0.551-1.348,0.975-2.111,1.271c-0.764,0.298-1.559,0.445-2.383,0.445
		c-0.871,0-1.688-0.129-2.439-0.391c-0.756-0.26-1.41-0.643-1.961-1.146c-0.55-0.506-0.98-1.121-1.293-1.847
		C76.785,20.641,76.629,19.811,76.629,18.878z"/>
	<path display="inline" fill="#231916" d="M87.4,8.285l4.752-2.356v6.601l-0.139,2.521c0.564-0.58,1.178-1.07,1.836-1.467
		c0.654-0.396,1.42-0.595,2.293-0.595c1.312,0,2.273,0.389,2.885,1.168c0.611,0.78,0.918,1.903,0.918,3.371v6.945h-2.271v-6.647
		c0-0.978-0.176-1.7-0.525-2.165c-0.354-0.466-0.953-0.7-1.812-0.7c-0.596,0-1.131,0.149-1.604,0.448
		c-0.476,0.298-1.002,0.745-1.582,1.342v7.727H89.88L89.836,8.189L87.4,8.285z"/>
	<g display="inline">
		<polygon fill="#010000" points="100.371,3.218 99.607,4.815 109.109,4.855 109.873,3.228 		"/>
		<polygon fill="#010000" points="99.619,6.703 98.83,8.378 108.346,8.397 109.109,6.74 		"/>
		<polygon fill="#010000" points="101.475,10.278 105.832,1 107.512,1.024 103.203,10.281 		"/>
	</g>
	<g display="inline">
		<path fill="#231916" d="M49.446,20.596c0,0.754,0.188,1.297,0.566,1.631c0.376,0.33,0.866,0.498,1.472,0.498
			c0.295,0,0.599-0.037,0.909-0.11c0.31-0.074,0.658-0.193,1.042-0.355l0.532,1.644c-0.252,0.086-0.492,0.166-0.721,0.242
			c-0.231,0.073-0.461,0.135-0.698,0.187c-0.237,0.055-0.483,0.099-0.741,0.135c-0.26,0.035-0.543,0.058-0.853,0.058
			c-1.212,0-2.131-0.349-2.76-1.043c-0.627-0.692-0.941-1.696-0.941-3.014V5.711h-3.544l5.737-4.043"/>
	</g>
</g>
<path fill="#29427A" d="M12.927,23.014v-1.461h-0.045c-0.359,0.569-0.873,1.008-1.539,1.313s-1.374,0.461-2.122,0.461
	c-0.839,0-1.587-0.165-2.246-0.494c-0.659-0.329-1.216-0.769-1.673-1.313c-0.457-0.547-0.805-1.18-1.044-1.897
	c-0.24-0.718-0.359-1.467-0.359-2.245c0-0.778,0.124-1.523,0.371-2.234s0.599-1.337,1.055-1.875c0.457-0.539,1.011-0.966,1.662-1.28
	c0.651-0.314,1.381-0.472,2.189-0.472c0.823,0,1.52,0.157,2.089,0.472c0.568,0.314,1.011,0.659,1.325,1.033h0.045V6.035h3.683
	v16.979H12.927z M12.792,17.398c0-0.359-0.064-0.711-0.191-1.056c-0.128-0.345-0.307-0.651-0.54-0.921
	c-0.232-0.27-0.513-0.486-0.842-0.651c-0.329-0.164-0.704-0.247-1.123-0.247c-0.434,0-0.816,0.083-1.145,0.247
	c-0.33,0.165-0.606,0.379-0.831,0.64c-0.225,0.263-0.393,0.565-0.505,0.91c-0.112,0.345-0.168,0.696-0.168,1.056
	c0,0.358,0.056,0.715,0.168,1.066c0.112,0.351,0.281,0.663,0.505,0.932c0.225,0.27,0.501,0.487,0.831,0.651
	c0.329,0.165,0.711,0.247,1.145,0.247c0.419,0,0.793-0.082,1.123-0.247c0.33-0.164,0.61-0.382,0.842-0.651s0.412-0.575,0.54-0.921
	C12.728,18.109,12.792,17.758,12.792,17.398z"/>
<path fill="#29427A" d="M19.08,13.355c0.659-0.628,1.426-1.1,2.302-1.415s1.771-0.472,2.684-0.472c0.944,0,1.741,0.116,2.392,0.348
	s1.179,0.591,1.583,1.078c0.404,0.486,0.7,1.101,0.887,1.842c0.187,0.74,0.281,1.62,0.281,2.639v5.637H25.84v-1.189h-0.067
	c-0.285,0.464-0.715,0.822-1.291,1.078c-0.577,0.254-1.202,0.382-1.875,0.382c-0.449,0-0.913-0.062-1.393-0.181
	c-0.479-0.119-0.917-0.313-1.313-0.584c-0.397-0.27-0.723-0.629-0.977-1.078c-0.255-0.448-0.382-1.002-0.382-1.662
	c0-0.809,0.221-1.459,0.663-1.953c0.442-0.494,1.011-0.876,1.707-1.146c0.696-0.27,1.471-0.449,2.324-0.539
	c0.853-0.09,1.685-0.135,2.493-0.135v-0.18c0-0.554-0.195-0.962-0.584-1.225c-0.389-0.262-0.868-0.393-1.437-0.393
	c-0.524,0-1.03,0.112-1.516,0.337c-0.487,0.225-0.902,0.494-1.247,0.809L19.08,13.355z M25.84,18.139h-0.472
	c-0.404,0-0.812,0.02-1.224,0.057c-0.412,0.037-0.779,0.108-1.101,0.213c-0.322,0.105-0.588,0.259-0.797,0.461
	c-0.21,0.202-0.314,0.468-0.314,0.797c0,0.21,0.049,0.39,0.146,0.539c0.097,0.15,0.221,0.27,0.371,0.358
	c0.149,0.091,0.322,0.153,0.517,0.191c0.194,0.037,0.382,0.057,0.562,0.057c0.749,0,1.321-0.205,1.718-0.618
	c0.396-0.412,0.595-0.97,0.595-1.673L25.84,18.139L25.84,18.139z"/>
<path fill="#29427A" d="M36.067,14.568v4.283c0,0.526,0.101,0.921,0.303,1.184c0.202,0.264,0.565,0.395,1.089,0.395
	c0.18,0,0.371-0.015,0.573-0.045c0.202-0.029,0.371-0.074,0.505-0.135l0.045,2.695c-0.255,0.09-0.577,0.169-0.966,0.234
	c-0.389,0.067-0.779,0.103-1.168,0.103c-0.749,0-1.377-0.095-1.886-0.281c-0.509-0.188-0.917-0.458-1.224-0.812
	s-0.528-0.772-0.662-1.26c-0.135-0.489-0.202-1.033-0.202-1.634v-4.729h-1.797v-2.74h1.774v-2.94h3.616v2.942h2.627v2.74
	L36.067,14.568L36.067,14.568z"/>
<path fill="#29427A" d="M40.957,13.355c0.659-0.628,1.426-1.1,2.302-1.415s1.771-0.472,2.684-0.472c0.943,0,1.741,0.116,2.392,0.348
	s1.179,0.591,1.583,1.078c0.404,0.486,0.7,1.101,0.887,1.842c0.188,0.74,0.281,1.62,0.281,2.639v5.637h-3.369v-1.189H47.65
	c-0.285,0.464-0.715,0.822-1.291,1.078c-0.577,0.254-1.202,0.382-1.875,0.382c-0.449,0-0.913-0.062-1.392-0.181
	s-0.917-0.313-1.314-0.584c-0.397-0.27-0.723-0.629-0.977-1.078c-0.254-0.448-0.382-1.002-0.382-1.662
	c0-0.809,0.221-1.459,0.663-1.953c0.442-0.494,1.011-0.876,1.707-1.146c0.696-0.27,1.471-0.449,2.324-0.539
	c0.853-0.09,1.685-0.135,2.493-0.135v-0.18c0-0.554-0.195-0.962-0.584-1.225c-0.389-0.262-0.868-0.393-1.437-0.393
	c-0.524,0-1.03,0.112-1.516,0.337c-0.486,0.225-0.902,0.494-1.247,0.809L40.957,13.355z M47.717,18.139h-0.471
	c-0.404,0-0.812,0.02-1.224,0.057c-0.412,0.037-0.779,0.108-1.101,0.213c-0.322,0.105-0.587,0.259-0.797,0.461
	c-0.209,0.202-0.314,0.468-0.314,0.797c0,0.21,0.049,0.39,0.146,0.539c0.097,0.15,0.22,0.27,0.37,0.358
	c0.149,0.091,0.322,0.153,0.517,0.191c0.194,0.037,0.382,0.057,0.562,0.057c0.749,0,1.321-0.205,1.718-0.618
	c0.396-0.412,0.595-0.97,0.595-1.673L47.717,18.139L47.717,18.139z"/>
<path fill="#5A74AF" d="M61.874,15.197c-0.375-0.389-0.768-0.685-1.179-0.887c-0.412-0.202-0.902-0.304-1.471-0.304
	c-0.554,0-1.037,0.102-1.449,0.304s-0.756,0.479-1.033,0.831c-0.277,0.352-0.487,0.756-0.629,1.212
	C55.971,16.81,55.9,17.286,55.9,17.78c0,0.494,0.082,0.962,0.247,1.403s0.396,0.827,0.696,1.156c0.3,0.33,0.659,0.588,1.078,0.775
	s0.891,0.28,1.415,0.28c0.568,0,1.055-0.102,1.459-0.304c0.404-0.202,0.778-0.498,1.123-0.888l1.438,1.438
	c-0.524,0.584-1.134,1.004-1.831,1.258c-0.696,0.254-1.434,0.383-2.212,0.383c-0.823,0-1.576-0.135-2.257-0.404
	c-0.681-0.27-1.269-0.646-1.763-1.135c-0.494-0.485-0.876-1.07-1.146-1.751c-0.27-0.682-0.404-1.434-0.404-2.258
	c0-0.822,0.135-1.579,0.404-2.268s0.647-1.28,1.134-1.774c0.486-0.494,1.07-0.879,1.751-1.156c0.681-0.277,1.441-0.416,2.279-0.416
	c0.779,0,1.523,0.139,2.235,0.416c0.711,0.277,1.329,0.7,1.853,1.269L61.874,15.197z"/>
<path fill="#5A74AF" d="M66.612,18.432c0,0.464,0.101,0.887,0.304,1.269c0.201,0.382,0.467,0.707,0.797,0.977
	c0.329,0.271,0.711,0.479,1.145,0.629c0.435,0.15,0.884,0.226,1.348,0.226c0.629,0,1.176-0.146,1.64-0.438
	c0.464-0.292,0.891-0.678,1.28-1.157l1.527,1.168c-1.123,1.451-2.695,2.179-4.717,2.179c-0.838,0-1.598-0.144-2.279-0.427
	c-0.681-0.284-1.258-0.678-1.729-1.18c-0.473-0.502-0.836-1.093-1.09-1.774c-0.254-0.681-0.382-1.418-0.382-2.212
	s0.139-1.531,0.416-2.213c0.276-0.681,0.658-1.271,1.146-1.773c0.486-0.501,1.066-0.895,1.74-1.18
	c0.674-0.284,1.406-0.426,2.201-0.426c0.942,0,1.74,0.165,2.391,0.494c0.652,0.33,1.187,0.76,1.605,1.292
	c0.42,0.531,0.723,1.13,0.91,1.796c0.188,0.667,0.281,1.345,0.281,2.033v0.719h-8.534V18.432z M72.99,16.814
	c-0.016-0.449-0.086-0.861-0.213-1.235c-0.128-0.374-0.318-0.7-0.573-0.978c-0.255-0.276-0.573-0.493-0.954-0.65
	c-0.383-0.157-0.828-0.236-1.337-0.236c-0.493,0-0.946,0.094-1.358,0.281c-0.412,0.187-0.76,0.43-1.044,0.729
	c-0.284,0.299-0.505,0.633-0.663,0.999c-0.156,0.367-0.235,0.73-0.235,1.09H72.99z"/>
<path fill="#5A74AF" d="M77.572,12.368h2.021v1.639h0.046c0.254-0.568,0.695-1.029,1.324-1.381s1.355-0.528,2.178-0.528
	c0.51,0,1,0.079,1.473,0.236c0.472,0.157,0.883,0.4,1.234,0.73c0.353,0.329,0.633,0.752,0.842,1.269
	c0.209,0.516,0.314,1.126,0.314,1.83v6.851h-2.021v-6.289c0-0.494-0.065-0.917-0.2-1.269c-0.136-0.353-0.314-0.637-0.539-0.854
	c-0.226-0.216-0.483-0.373-0.775-0.471c-0.292-0.098-0.596-0.146-0.909-0.146c-0.418,0-0.809,0.067-1.168,0.202
	c-0.358,0.135-0.674,0.349-0.943,0.641c-0.27,0.291-0.479,0.662-0.629,1.111c-0.149,0.449-0.225,0.98-0.225,1.595v5.479h-2.021
	L77.572,12.368L77.572,12.368z"/>
<path fill="#5A74AF" d="M95.762,14.119h-2.896v4.829c0,0.299,0.008,0.595,0.022,0.887c0.014,0.292,0.07,0.554,0.168,0.786
	c0.098,0.232,0.246,0.419,0.449,0.561c0.201,0.145,0.497,0.215,0.887,0.215c0.239,0,0.486-0.022,0.741-0.067
	s0.486-0.127,0.696-0.247v1.842c-0.24,0.135-0.551,0.229-0.932,0.28c-0.383,0.053-0.678,0.079-0.889,0.079
	c-0.777,0-1.382-0.109-1.808-0.325c-0.427-0.218-0.741-0.498-0.943-0.843c-0.202-0.346-0.321-0.73-0.358-1.156
	c-0.037-0.427-0.058-0.857-0.058-1.292V14.12h-2.336v-1.751h2.336V9.381h2.021v2.987h2.896v1.751H95.762z"/>
<path fill="#5A74AF" d="M99.895,18.432c0,0.464,0.103,0.887,0.305,1.269c0.201,0.382,0.467,0.707,0.797,0.977
	c0.329,0.271,0.711,0.479,1.146,0.629c0.434,0.15,0.883,0.226,1.348,0.226c0.628,0,1.175-0.146,1.639-0.438s0.891-0.678,1.28-1.157
	l1.526,1.168c-1.123,1.451-2.694,2.179-4.715,2.179c-0.84,0-1.6-0.144-2.281-0.427c-0.681-0.284-1.256-0.678-1.729-1.18
	c-0.471-0.502-0.834-1.093-1.088-1.774c-0.256-0.682-0.383-1.418-0.383-2.212s0.139-1.531,0.416-2.213
	c0.275-0.681,0.658-1.271,1.145-1.773c0.487-0.501,1.067-0.895,1.741-1.18c0.674-0.284,1.407-0.426,2.201-0.426
	c0.942,0,1.739,0.165,2.392,0.494c0.65,0.33,1.186,0.76,1.605,1.292c0.419,0.531,0.723,1.13,0.908,1.796
	c0.188,0.667,0.281,1.345,0.281,2.033v0.719h-8.535V18.432z M106.271,16.814c-0.016-0.449-0.086-0.861-0.213-1.235
	s-0.317-0.7-0.572-0.978c-0.256-0.276-0.572-0.493-0.954-0.65c-0.382-0.157-0.828-0.236-1.337-0.236
	c-0.493,0-0.946,0.094-1.358,0.281c-0.411,0.188-0.76,0.43-1.044,0.729c-0.285,0.3-0.506,0.633-0.663,0.999
	c-0.157,0.367-0.235,0.73-0.235,1.09H106.271z"/>
<path fill="#5A74AF" d="M110.854,12.368h2.021v1.639h0.045c0.135-0.284,0.314-0.542,0.539-0.774s0.475-0.431,0.752-0.595
	c0.277-0.164,0.58-0.295,0.909-0.393c0.33-0.097,0.659-0.146,0.987-0.146c0.33,0,0.629,0.045,0.899,0.135l-0.091,2.178
	c-0.165-0.045-0.329-0.082-0.494-0.112c-0.165-0.029-0.329-0.045-0.492-0.045c-0.988,0-1.746,0.277-2.27,0.831
	c-0.523,0.554-0.786,1.415-0.786,2.583v5.345h-2.021V12.368L110.854,12.368z"/>
<path fill="#5E6060" d="M120.156,5.513h1.367v11.493h-1.367V5.513z"/>
<path fill="#5E6060" d="M123.484,7.215c0-0.274,0.1-0.509,0.298-0.707c0.196-0.198,0.433-0.296,0.706-0.296s0.51,0.099,0.707,0.296
	c0.197,0.198,0.297,0.433,0.297,0.707c0,0.273-0.1,0.509-0.297,0.707c-0.197,0.198-0.434,0.297-0.707,0.297s-0.51-0.099-0.706-0.297
	C123.584,7.725,123.484,7.489,123.484,7.215z M123.805,9.799h1.368v7.207h-1.368V9.799z"/>
<path fill="#5E6060" d="M134.566,16.944c0,0.548-0.094,1.047-0.28,1.498c-0.188,0.45-0.453,0.841-0.798,1.17
	c-0.346,0.329-0.76,0.586-1.246,0.768c-0.487,0.183-1.024,0.272-1.611,0.272c-0.689,0-1.32-0.096-1.895-0.287
	c-0.571-0.193-1.116-0.527-1.633-1.003l0.926-1.156c0.355,0.386,0.74,0.677,1.156,0.874c0.416,0.198,0.887,0.297,1.414,0.297
	c0.506,0,0.928-0.074,1.262-0.221s0.601-0.337,0.799-0.569c0.197-0.234,0.337-0.5,0.418-0.799s0.121-0.601,0.121-0.904V15.82h-0.045
	c-0.264,0.436-0.621,0.758-1.072,0.966s-0.926,0.312-1.421,0.312c-0.527,0-1.017-0.094-1.468-0.281s-0.838-0.446-1.164-0.775
	c-0.323-0.329-0.576-0.72-0.76-1.171c-0.183-0.45-0.272-0.939-0.272-1.467c0-0.527,0.086-1.021,0.259-1.482
	c0.172-0.461,0.418-0.864,0.737-1.208c0.319-0.345,0.704-0.613,1.155-0.806c0.449-0.192,0.955-0.289,1.513-0.289
	c0.485,0,0.96,0.106,1.421,0.319s0.822,0.512,1.087,0.896h0.03V9.799h1.367V16.944L134.566,16.944z M130.828,10.894
	c-0.365,0-0.694,0.063-0.988,0.19c-0.294,0.126-0.542,0.299-0.744,0.517c-0.203,0.218-0.359,0.481-0.472,0.791
	c-0.112,0.309-0.167,0.646-0.167,1.011c0,0.729,0.213,1.315,0.639,1.756c0.426,0.44,1.004,0.661,1.732,0.661
	s1.307-0.221,1.732-0.661c0.426-0.44,0.639-1.026,0.639-1.756c0-0.365-0.057-0.702-0.167-1.011
	c-0.111-0.309-0.269-0.572-0.472-0.791c-0.203-0.218-0.451-0.39-0.744-0.517C131.521,10.958,131.193,10.894,130.828,10.894z"/>
<path fill="#5E6060" d="M136.29,5.513h1.368v5.397h0.029c0.172-0.385,0.472-0.697,0.896-0.935c0.425-0.238,0.917-0.357,1.475-0.357
	c0.346,0,0.678,0.053,0.996,0.16c0.319,0.107,0.598,0.271,0.836,0.494s0.43,0.509,0.57,0.859c0.141,0.35,0.213,0.763,0.213,1.239
	v4.637h-1.367V12.75c0-0.334-0.047-0.62-0.138-0.858c-0.092-0.238-0.213-0.431-0.364-0.578c-0.152-0.147-0.328-0.253-0.525-0.32
	c-0.197-0.065-0.402-0.099-0.615-0.099c-0.283,0-0.547,0.046-0.79,0.137c-0.243,0.091-0.456,0.236-0.64,0.434
	c-0.183,0.198-0.323,0.448-0.426,0.752c-0.101,0.304-0.15,0.664-0.15,1.079v3.71h-1.368V5.513L136.29,5.513z"/>
<path fill="#5E6060" d="M148.604,10.985h-1.961v3.269c0,0.203,0.006,0.402,0.016,0.601c0.01,0.197,0.048,0.375,0.113,0.532
	c0.065,0.157,0.168,0.283,0.305,0.38s0.337,0.145,0.602,0.145c0.161,0,0.328-0.016,0.502-0.046c0.172-0.03,0.328-0.086,0.471-0.167
	v1.246c-0.162,0.092-0.373,0.154-0.631,0.19c-0.258,0.035-0.459,0.053-0.601,0.053c-0.526,0-0.937-0.073-1.224-0.221
	c-0.289-0.146-0.502-0.336-0.639-0.569c-0.138-0.233-0.22-0.494-0.244-0.783c-0.024-0.289-0.037-0.58-0.037-0.874v-3.755h-1.582
	V9.799h1.582V7.778h1.367v2.021h1.961V10.985L148.604,10.985z"/>
<path fill="#95BDE5" d="M142.227,20.314c-0.039,0.215-0.129,0.432-0.129,0.432c-0.023,0.059-0.106,0.25-0.125,0.288
	c-0.063,0.138-0.097,0.224-0.17,0.38c-0.084,0.178,0,0-0.136,0.268c-1.126,2.234-4.158,4.756-8.376,4.658
	c-3.922-0.09-6.719-1.806-8.072-4.173c-0.103-0.181-0.262-0.42-0.383-0.685c-0.033-0.073-0.242-0.51-0.266-0.574
	c-0.115-0.333-0.199-0.368-0.215-0.594c0,0,0.258,0.528,0.778,1.09c1.228,1.326,3.915,3.427,8.156,3.478
	c4.144,0.05,6.907-2.123,8.163-3.478C141.973,20.85,142.227,20.314,142.227,20.314z"/>
</svg>
