<svg id="Layer_1" data-name="Layer 1" xmlns="http://www.w3.org/2000/svg" viewBox="0 0 144.75 20.83"><defs><style>.cls-1{fill:#fff;}</style></defs><title>logo_white</title><path class="cls-1" d="M12.93,23V21.55h0a3.49,3.49,0,0,1-1.54,1.31,5,5,0,0,1-2.12.46A5,5,0,0,1,7,22.83,5.17,5.17,0,0,1,5.3,21.52a5.77,5.77,0,0,1-1-1.9,7,7,0,0,1-.36-2.24,6.76,6.76,0,0,1,.37-2.23,5.83,5.83,0,0,1,1.05-1.87,4.93,4.93,0,0,1,3.85-1.75,4.26,4.26,0,0,1,2.09.47,4.64,4.64,0,0,1,1.32,1h0V6h3.68V23Zm-.14-5.61a3,3,0,0,0-.19-1.06,3,3,0,0,0-.54-.92,2.68,2.68,0,0,0-.84-.65,2.49,2.49,0,0,0-1.12-.25A2.54,2.54,0,0,0,9,14.77a2.58,2.58,0,0,0-1.34,1.55,3.39,3.39,0,0,0-.17,1.06,3.5,3.5,0,0,0,.17,1.07,2.75,2.75,0,0,0,.51.93,2.48,2.48,0,0,0,2,.9A2.48,2.48,0,0,0,11.22,20a2.67,2.67,0,0,0,.84-.65,3,3,0,0,0,.54-.92A3,3,0,0,0,12.79,17.4Z" transform="translate(-3.9 -5.51)"/><path class="cls-1" d="M19.08,13.35a6.47,6.47,0,0,1,2.3-1.41,7.88,7.88,0,0,1,2.68-.47,7.17,7.17,0,0,1,2.39.35A3.56,3.56,0,0,1,28,12.89a4.6,4.6,0,0,1,.89,1.84,10.88,10.88,0,0,1,.28,2.64V23H25.84V21.82h-.07a2.78,2.78,0,0,1-1.29,1.08,4.6,4.6,0,0,1-1.87.38,5.78,5.78,0,0,1-1.39-.18,4.06,4.06,0,0,1-1.31-.58,3.16,3.16,0,0,1-1-1.08,3.32,3.32,0,0,1-.38-1.66,2.82,2.82,0,0,1,.66-2,4.36,4.36,0,0,1,1.71-1.15,9,9,0,0,1,2.32-.54A23.77,23.77,0,0,1,25.73,16v-.18a1.37,1.37,0,0,0-.58-1.23,2.51,2.51,0,0,0-1.44-.39,3.57,3.57,0,0,0-1.52.34,4.84,4.84,0,0,0-1.25.81Zm6.76,4.78h-.47c-.4,0-.81,0-1.22.06a5,5,0,0,0-1.1.21,2,2,0,0,0-.8.46,1.06,1.06,0,0,0-.31.8,1,1,0,0,0,.15.54,1.12,1.12,0,0,0,.37.36,1.57,1.57,0,0,0,.52.19,3,3,0,0,0,.56.06,2.27,2.27,0,0,0,1.72-.62,2.31,2.31,0,0,0,.59-1.67v-.38Z" transform="translate(-3.9 -5.51)"/><path class="cls-1" d="M36.07,14.57v4.28a1.93,1.93,0,0,0,.3,1.18,1.3,1.3,0,0,0,1.09.4,3.91,3.91,0,0,0,.57,0,1.88,1.88,0,0,0,.51-.14l0,2.69a6,6,0,0,1-1,.24,6.88,6.88,0,0,1-1.17.1A5.51,5.51,0,0,1,34.56,23a2.93,2.93,0,0,1-1.22-.81,3.18,3.18,0,0,1-.66-1.26,6.12,6.12,0,0,1-.2-1.63V14.57h-1.8V11.83h1.77V8.89h3.62v2.94h2.63v2.74H36.07Z" transform="translate(-3.9 -5.51)"/><path class="cls-1" d="M41,13.35a6.47,6.47,0,0,1,2.3-1.41,7.88,7.88,0,0,1,2.68-.47,7.18,7.18,0,0,1,2.39.35,3.56,3.56,0,0,1,1.58,1.08,4.6,4.6,0,0,1,.89,1.84,10.83,10.83,0,0,1,.28,2.64V23H47.72V21.82h-.07a2.78,2.78,0,0,1-1.29,1.08,4.6,4.6,0,0,1-1.87.38,5.77,5.77,0,0,1-1.39-.18,4.08,4.08,0,0,1-1.31-.58,3.16,3.16,0,0,1-1-1.08,3.33,3.33,0,0,1-.38-1.66,2.82,2.82,0,0,1,.66-2,4.36,4.36,0,0,1,1.71-1.15,9,9,0,0,1,2.32-.54A23.77,23.77,0,0,1,47.61,16v-.18A1.37,1.37,0,0,0,47,14.6a2.51,2.51,0,0,0-1.44-.39,3.57,3.57,0,0,0-1.52.34,4.86,4.86,0,0,0-1.25.81Zm6.76,4.78h-.47c-.4,0-.81,0-1.22.06a5,5,0,0,0-1.1.21,2,2,0,0,0-.8.46,1.06,1.06,0,0,0-.31.8,1,1,0,0,0,.15.54,1.11,1.11,0,0,0,.37.36,1.57,1.57,0,0,0,.52.19,3,3,0,0,0,.56.06,2.27,2.27,0,0,0,1.72-.62,2.31,2.31,0,0,0,.6-1.67v-.38Z" transform="translate(-3.9 -5.51)"/><path class="cls-1" d="M61.87,15.2a4.27,4.27,0,0,0-1.18-.89,3.31,3.31,0,0,0-1.47-.3,3.26,3.26,0,0,0-1.45.3,3,3,0,0,0-1,.83,3.74,3.74,0,0,0-.63,1.21,4.78,4.78,0,0,0-.21,1.43,4,4,0,0,0,.25,1.4,3.53,3.53,0,0,0,.7,1.16,3.2,3.2,0,0,0,1.08.77,3.42,3.42,0,0,0,1.42.28,3.23,3.23,0,0,0,1.46-.3,3.74,3.74,0,0,0,1.12-.89l1.44,1.44a4.52,4.52,0,0,1-1.83,1.26,6.4,6.4,0,0,1-2.21.38,6.1,6.1,0,0,1-2.26-.4,5.19,5.19,0,0,1-1.76-1.14A5,5,0,0,1,54.15,20a6.08,6.08,0,0,1-.4-2.26,6.19,6.19,0,0,1,.4-2.27A5.06,5.06,0,0,1,57,12.54a6,6,0,0,1,2.28-.42,6.11,6.11,0,0,1,2.24.42A4.92,4.92,0,0,1,63.4,13.8Z" transform="translate(-3.9 -5.51)"/><path class="cls-1" d="M66.61,18.43a2.66,2.66,0,0,0,.3,1.27,3.14,3.14,0,0,0,.8,1,3.68,3.68,0,0,0,1.14.63,4.11,4.11,0,0,0,1.35.23,3,3,0,0,0,1.64-.44,5.28,5.28,0,0,0,1.28-1.16l1.53,1.17a5.62,5.62,0,0,1-4.72,2.18,5.87,5.87,0,0,1-2.28-.43,5,5,0,0,1-1.73-1.18,5.21,5.21,0,0,1-1.09-1.77,6.28,6.28,0,0,1-.38-2.21,5.82,5.82,0,0,1,.42-2.21A5.45,5.45,0,0,1,66,13.71a5.24,5.24,0,0,1,1.74-1.18A5.6,5.6,0,0,1,70,12.1a5.26,5.26,0,0,1,2.39.49A4.71,4.71,0,0,1,74,13.89a5.08,5.08,0,0,1,.91,1.8,7.46,7.46,0,0,1,.28,2v.72H66.61ZM73,16.81a4.3,4.3,0,0,0-.21-1.23,2.74,2.74,0,0,0-.57-1,2.65,2.65,0,0,0-1-.65,3.5,3.5,0,0,0-1.34-.24,3.25,3.25,0,0,0-1.36.28,3.3,3.3,0,0,0-1,.73,3.4,3.4,0,0,0-.66,1,2.77,2.77,0,0,0-.24,1.09Z" transform="translate(-3.9 -5.51)"/><path class="cls-1" d="M77.57,12.37h2V14h0A3,3,0,0,1,81,12.63a4.38,4.38,0,0,1,2.18-.53,4.63,4.63,0,0,1,1.47.24,3.31,3.31,0,0,1,1.24.73,3.5,3.5,0,0,1,.84,1.27A4.86,4.86,0,0,1,87,16.16V23H85V16.73a3.55,3.55,0,0,0-.2-1.27,2.31,2.31,0,0,0-.54-.85,2,2,0,0,0-.78-.47,2.84,2.84,0,0,0-.91-.15,3.29,3.29,0,0,0-1.17.2,2.44,2.44,0,0,0-.94.64,3,3,0,0,0-.63,1.11,5,5,0,0,0-.22,1.6V23h-2V12.37Z" transform="translate(-3.9 -5.51)"/><path class="cls-1" d="M95.76,14.12h-2.9v4.83c0,.3,0,.59,0,.89a2.29,2.29,0,0,0,.17.79,1.26,1.26,0,0,0,.45.56,1.52,1.52,0,0,0,.89.21,4.26,4.26,0,0,0,.74-.07,2.14,2.14,0,0,0,.7-.25v1.84a2.61,2.61,0,0,1-.93.28,6.92,6.92,0,0,1-.89.08A4.08,4.08,0,0,1,92.2,23a2.22,2.22,0,0,1-.94-.84A2.72,2.72,0,0,1,90.9,21c0-.43-.06-.86-.06-1.29V14.12H88.51V12.37h2.34v-3h2v3h2.9v1.75Z" transform="translate(-3.9 -5.51)"/><path class="cls-1" d="M99.89,18.43a2.67,2.67,0,0,0,.3,1.27,3.15,3.15,0,0,0,.8,1,3.67,3.67,0,0,0,1.15.63,4.1,4.1,0,0,0,1.35.23,3,3,0,0,0,1.64-.44,5.28,5.28,0,0,0,1.28-1.16l1.53,1.17a5.62,5.62,0,0,1-4.72,2.18,5.87,5.87,0,0,1-2.28-.43,5,5,0,0,1-1.73-1.18,5.23,5.23,0,0,1-1.09-1.77,6.24,6.24,0,0,1-.38-2.21,5.82,5.82,0,0,1,.42-2.21,5.46,5.46,0,0,1,1.14-1.77A5.25,5.25,0,0,1,101,12.53a5.61,5.61,0,0,1,2.2-.43,5.27,5.27,0,0,1,2.39.49,4.74,4.74,0,0,1,1.61,1.29,5.07,5.07,0,0,1,.91,1.8,7.46,7.46,0,0,1,.28,2v.72H99.89Zm6.38-1.62a4.3,4.3,0,0,0-.21-1.23,2.74,2.74,0,0,0-.57-1,2.65,2.65,0,0,0-1-.65,3.5,3.5,0,0,0-1.34-.24,3.25,3.25,0,0,0-1.36.28,3.33,3.33,0,0,0-1,.73,3.37,3.37,0,0,0-.66,1,2.75,2.75,0,0,0-.24,1.09Z" transform="translate(-3.9 -5.51)"/><path class="cls-1" d="M110.85,12.37h2V14h0a2.88,2.88,0,0,1,.54-.77,3.6,3.6,0,0,1,.75-.6,4,4,0,0,1,.91-.39,3.49,3.49,0,0,1,1-.15,2.83,2.83,0,0,1,.9.14l-.09,2.18-.49-.11a2.84,2.84,0,0,0-.49,0,3,3,0,0,0-2.27.83,3.65,3.65,0,0,0-.79,2.58V23h-2V12.37Z" transform="translate(-3.9 -5.51)"/><path class="cls-1" d="M120.16,5.51h1.37V17h-1.37Z" transform="translate(-3.9 -5.51)"/><path class="cls-1" d="M123.49,7.22a1,1,0,1,1,.3.71A1,1,0,0,1,123.49,7.22Zm.32,2.58h1.37V17h-1.37Z" transform="translate(-3.9 -5.51)"/><path class="cls-1" d="M134.57,16.94a3.87,3.87,0,0,1-.28,1.5,3.42,3.42,0,0,1-.8,1.17,3.62,3.62,0,0,1-1.25.77,4.55,4.55,0,0,1-1.61.27,5.94,5.94,0,0,1-1.89-.29,4.58,4.58,0,0,1-1.63-1l.93-1.16a3.76,3.76,0,0,0,1.16.87,3.25,3.25,0,0,0,1.41.3,3.14,3.14,0,0,0,1.26-.22,2.17,2.17,0,0,0,.8-.57,2.06,2.06,0,0,0,.42-.8,3.45,3.45,0,0,0,.12-.9V15.82h0a2.41,2.41,0,0,1-1.07,1,3.36,3.36,0,0,1-1.42.31,3.8,3.8,0,0,1-1.47-.28A3.5,3.5,0,0,1,128,16a3.55,3.55,0,0,1-.76-1.17A3.86,3.86,0,0,1,127,13.4a4.18,4.18,0,0,1,.26-1.48,3.61,3.61,0,0,1,.74-1.21,3.34,3.34,0,0,1,1.15-.81,3.82,3.82,0,0,1,1.51-.29,3.35,3.35,0,0,1,1.42.32,2.62,2.62,0,0,1,1.09.9h0v-1h1.37v7.15Zm-3.74-6.05a2.47,2.47,0,0,0-1,.19,2.17,2.17,0,0,0-.74.52,2.29,2.29,0,0,0-.47.79,3,3,0,0,0-.17,1,2.43,2.43,0,0,0,.64,1.76,2.6,2.6,0,0,0,3.47,0,2.42,2.42,0,0,0,.64-1.76,3,3,0,0,0-.17-1,2.3,2.3,0,0,0-.47-.79,2.19,2.19,0,0,0-.74-.52A2.48,2.48,0,0,0,130.83,10.89Z" transform="translate(-3.9 -5.51)"/><path class="cls-1" d="M136.29,5.51h1.37v5.4h0a2,2,0,0,1,.9-.94,3,3,0,0,1,1.48-.36,3.11,3.11,0,0,1,1,.16,2.25,2.25,0,0,1,.84.49,2.37,2.37,0,0,1,.57.86,3.3,3.3,0,0,1,.21,1.24V17h-1.37V12.75a2.41,2.41,0,0,0-.14-.86,1.58,1.58,0,0,0-.37-.58,1.39,1.39,0,0,0-.52-.32,2,2,0,0,0-.62-.1,2.24,2.24,0,0,0-.79.14,1.65,1.65,0,0,0-.64.43,2,2,0,0,0-.43.75,3.44,3.44,0,0,0-.15,1.08V17h-1.37V5.51Z" transform="translate(-3.9 -5.51)"/><path class="cls-1" d="M148.6,11h-2v3.27c0,.2,0,.4,0,.6a1.57,1.57,0,0,0,.11.53.86.86,0,0,0,.3.38,1,1,0,0,0,.6.15,2.94,2.94,0,0,0,.5,0,1.44,1.44,0,0,0,.47-.17v1.25a1.78,1.78,0,0,1-.63.19,4.8,4.8,0,0,1-.6.05,2.73,2.73,0,0,1-1.22-.22,1.5,1.5,0,0,1-.64-.57,1.84,1.84,0,0,1-.24-.78c0-.29,0-.58,0-.87V11h-1.58V9.8h1.58v-2h1.37v2h2V11Z" transform="translate(-3.9 -5.51)"/><path class="cls-1" d="M142.23,20.31a2.45,2.45,0,0,1-.13.43L142,21l-.17.38c-.08.18,0,0-.14.27a9.2,9.2,0,0,1-8.38,4.66c-3.92-.09-6.72-1.81-8.07-4.17-.1-.18-.26-.42-.38-.68,0-.07-.24-.51-.26-.58-.12-.33-.2-.37-.22-.59a5.13,5.13,0,0,0,.78,1.09,11.19,11.19,0,0,0,8.16,3.48,11,11,0,0,0,8.16-3.48A4.85,4.85,0,0,0,142.23,20.31Z" transform="translate(-3.9 -5.51)"/></svg>