<?xml version="1.0" encoding="utf-8"?>
<!-- Generator: Adobe Illustrator 16.0.0, SVG Export Plug-In . SVG Version: 6.00 Build 0)  -->
<!DOCTYPE svg PUBLIC "-//W3C//DTD SVG 1.1//EN" "http://www.w3.org/Graphics/SVG/1.1/DTD/svg11.dtd">
<svg version="1.1" id="Layer_1" xmlns="http://www.w3.org/2000/svg" xmlns:xlink="http://www.w3.org/1999/xlink" x="0px" y="0px"
	 width="130px" height="40px" viewBox="0 0 130 40" enable-background="new 0 0 130 40" xml:space="preserve">
<g>
	<g>
		<path fill="#231916" d="M34.599,25.896c0-0.428,0.15-0.844,0.453-1.25c0.303-0.408,0.734-0.773,1.296-1.096v-0.092
			c-0.294-0.16-0.554-0.387-0.777-0.674c-0.22-0.289-0.332-0.662-0.332-1.119c0-0.355,0.115-0.712,0.345-1.076
			c0.227-0.36,0.55-0.683,0.964-0.962v-0.09c-0.386-0.28-0.711-0.654-0.978-1.12c-0.263-0.464-0.397-1.021-0.397-1.67
			c0-0.606,0.118-1.149,0.354-1.63c0.236-0.48,0.555-0.889,0.954-1.229c0.398-0.34,0.86-0.598,1.385-0.775
			c0.523-0.178,1.081-0.266,1.672-0.266c0.605,0,1.152,0.088,1.64,0.266h4.452v1.662h-2.702c0.222,0.237,0.42,0.528,0.598,0.875
			c0.178,0.348,0.267,0.735,0.267,1.165c0,0.59-0.111,1.117-0.332,1.572c-0.222,0.459-0.525,0.846-0.91,1.163
			c-0.384,0.318-0.834,0.558-1.351,0.72c-0.517,0.162-1.071,0.245-1.663,0.245c-0.265,0-0.55-0.03-0.854-0.09
			c-0.302-0.058-0.601-0.147-0.896-0.267c-0.503,0.326-0.753,0.701-0.753,1.131c0,0.398,0.185,0.686,0.553,0.865
			c0.369,0.176,0.901,0.266,1.596,0.266h2.303c1.42,0,2.47,0.203,3.159,0.607c0.687,0.406,1.029,1.076,1.029,2.006
			c0,0.518-0.145,1.004-0.431,1.461c-0.29,0.459-0.699,0.861-1.23,1.209s-1.174,0.621-1.929,0.82
			c-0.751,0.199-1.594,0.299-2.525,0.299c-1.537,0-2.747-0.25-3.633-0.744C35.042,27.586,34.599,26.857,34.599,25.896z
			 M36.458,25.633c0,0.516,0.285,0.932,0.854,1.25c0.569,0.318,1.393,0.477,2.47,0.477c0.577,0,1.097-0.055,1.562-0.166
			s0.864-0.258,1.197-0.443s0.585-0.396,0.764-0.631c0.177-0.234,0.266-0.486,0.266-0.754c0-0.473-0.196-0.785-0.587-0.941
			c-0.392-0.154-0.979-0.232-1.762-0.232h-1.905c-0.34,0-0.641-0.012-0.907-0.033c-0.268-0.021-0.519-0.07-0.754-0.145
			c-0.444,0.25-0.753,0.51-0.932,0.777C36.549,25.057,36.458,25.334,36.458,25.633z M39.539,19.095c0.621,0,1.152-0.206,1.597-0.62
			c0.442-0.414,0.665-0.989,0.665-1.727c0-0.71-0.223-1.279-0.665-1.707c-0.445-0.428-0.976-0.643-1.597-0.643
			c-0.621,0-1.152,0.215-1.595,0.643c-0.442,0.428-0.665,0.997-0.665,1.707c0,0.738,0.223,1.313,0.665,1.727
			C38.386,18.889,38.918,19.095,39.539,19.095z"/>
	</g>
	<path fill="#231916" d="M17.983,24.24h-1.857l-0.183-1.854h-0.092c-0.551,0.641-1.151,1.154-1.8,1.547
		c-0.649,0.387-1.401,0.582-2.258,0.582c-1.329,0-2.3-0.383-2.91-1.156c-0.612-0.771-0.917-1.898-0.917-3.381V14.35L5,14.293
		l5.258-2.023l-0.023,1.529v5.882c0,0.994,0.176,1.724,0.528,2.189c0.351,0.467,0.954,0.701,1.811,0.701
		c0.581,0,1.111-0.143,1.593-0.426c0.48-0.283,0.998-0.762,1.547-1.433v-7.678h2.269V24.24z"/>
	<path fill="#231916" d="M21.742,13.033h1.856l0.184,1.812h0.091c0.565-0.582,1.176-1.075,1.834-1.479
		c0.655-0.405,1.42-0.607,2.292-0.607c1.313,0,2.278,0.39,2.888,1.168c0.611,0.778,0.917,1.903,0.917,3.37v6.942h-2.271v-6.646
		c0-0.976-0.174-1.7-0.525-2.165c-0.352-0.467-0.955-0.701-1.811-0.701c-0.597,0-1.131,0.151-1.605,0.447
		c-0.473,0.299-1.002,0.744-1.582,1.343v7.721h-2.268V13.033z"/>
	<path fill="#231916" d="M57.129,18.65c0-0.917,0.162-1.74,0.482-2.465c0.321-0.725,0.748-1.345,1.284-1.856
		c0.533-0.511,1.146-0.902,1.834-1.17c0.687-0.267,1.398-0.4,2.13-0.4c0.826,0,1.555,0.13,2.19,0.39
		c0.632,0.26,1.171,0.621,1.615,1.086c0.443,0.468,0.779,1.025,1.01,1.676c0.229,0.648,0.344,1.362,0.344,2.142
		c0,0.229-0.012,0.447-0.035,0.652c-0.023,0.208-0.049,0.38-0.08,0.516h-8.436c0.077,1.1,0.485,1.96,1.229,2.58
		c0.739,0.619,1.675,0.928,2.807,0.928c0.611,0,1.18-0.084,1.708-0.252c0.527-0.166,1.042-0.404,1.546-0.709l0.801,1.443
		c-0.578,0.367-1.23,0.676-1.958,0.928c-0.726,0.252-1.526,0.377-2.396,0.377c-0.842,0-1.631-0.131-2.371-0.4
		c-0.742-0.266-1.387-0.65-1.938-1.156c-0.551-0.504-0.982-1.119-1.296-1.846C57.286,20.386,57.129,19.566,57.129,18.65z
		 M65.909,17.665c0-1.01-0.263-1.781-0.779-2.317c-0.521-0.534-1.262-0.8-2.225-0.8c-0.84,0-1.587,0.266-2.245,0.8
		c-0.658,0.536-1.062,1.307-1.214,2.317H65.909z"/>
	<path fill="#231916" d="M75.475,12.679l0.008,11.794h-2.27v-8.611h-4.256L75.475,12.679z M74.152,10.368
		c-0.488,0-0.893-0.146-1.215-0.435c-0.32-0.291-0.48-0.681-0.48-1.17s0.16-0.882,0.48-1.18c0.322-0.298,0.727-0.446,1.215-0.446
		s0.896,0.148,1.215,0.446c0.32,0.298,0.482,0.691,0.482,1.18s-0.162,0.879-0.482,1.17C75.049,10.221,74.641,10.368,74.152,10.368z"
		/>
	<path fill="#231916" d="M78.629,18.878c0-0.932,0.168-1.766,0.504-2.497c0.336-0.735,0.795-1.353,1.375-1.859
		c0.582-0.503,1.25-0.884,2.008-1.145c0.756-0.26,1.561-0.389,2.416-0.389c0.918,0,1.719,0.156,2.406,0.469
		c0.689,0.312,1.262,0.693,1.721,1.135l-1.1,1.443c-0.443-0.367-0.904-0.653-1.379-0.86c-0.471-0.206-0.984-0.309-1.535-0.309
		c-0.594,0-1.143,0.095-1.65,0.287c-0.502,0.19-0.936,0.462-1.293,0.813c-0.359,0.352-0.639,0.776-0.838,1.272
		c-0.197,0.495-0.297,1.042-0.297,1.638c0,0.595,0.096,1.144,0.287,1.64c0.189,0.496,0.465,0.919,0.824,1.273
		c0.359,0.35,0.785,0.623,1.273,0.812s1.029,0.285,1.627,0.285c0.686,0,1.307-0.129,1.857-0.387
		c0.549-0.262,1.043-0.574,1.488-0.941l0.965,1.467c-0.643,0.551-1.346,0.975-2.111,1.273c-0.764,0.297-1.559,0.445-2.383,0.445
		c-0.871,0-1.686-0.129-2.441-0.389s-1.41-0.643-1.961-1.146c-0.549-0.506-0.98-1.121-1.293-1.846
		C78.785,20.64,78.629,19.811,78.629,18.878z"/>
	<path fill="#231916" d="M89.4,8.285l4.752-2.356v6.601l-0.139,2.521c0.566-0.58,1.178-1.07,1.836-1.467
		c0.656-0.396,1.42-0.595,2.293-0.595c1.312,0,2.275,0.389,2.885,1.168c0.611,0.78,0.918,1.903,0.918,3.371v6.945h-2.27v-6.649
		c0-0.978-0.176-1.7-0.527-2.165c-0.352-0.466-0.953-0.7-1.811-0.7c-0.596,0-1.131,0.149-1.604,0.448
		c-0.475,0.298-1.002,0.745-1.582,1.342v7.725h-2.27L91.836,8.189L89.4,8.285z"/>
	<g>
		<polygon fill="#010000" points="102.371,3.218 101.607,4.815 111.109,4.855 111.873,3.228 		"/>
		<polygon fill="#010000" points="101.619,6.703 100.83,8.378 110.346,8.397 111.109,6.74 		"/>
		<polygon fill="#010000" points="103.475,10.278 107.832,1 109.512,1.024 105.203,10.281 		"/>
	</g>
	<g>
		<path fill="#231916" d="M51.446,20.596c0,0.753,0.188,1.296,0.566,1.63c0.376,0.33,0.866,0.498,1.472,0.498
			c0.295,0,0.599-0.037,0.909-0.111s0.658-0.193,1.042-0.355l0.532,1.643c-0.252,0.086-0.492,0.166-0.721,0.242
			c-0.231,0.074-0.461,0.135-0.698,0.186c-0.237,0.055-0.483,0.098-0.741,0.135c-0.26,0.035-0.543,0.057-0.853,0.057
			c-1.212,0-2.131-0.348-2.76-1.043c-0.627-0.693-0.941-1.697-0.941-3.013V5.711h-3.544l5.737-4.043"/>
	</g>
</g>
</svg>
