<?xml version="1.0" encoding="utf-8"?>
<!-- Generator: Adobe Illustrator 16.0.0, SVG Export Plug-In . SVG Version: 6.00 Build 0)  -->
<!DOCTYPE svg PUBLIC "-//W3C//DTD SVG 1.1//EN" "http://www.w3.org/Graphics/SVG/1.1/DTD/svg11.dtd">
<svg version="1.1" id="Layer_1" xmlns="http://www.w3.org/2000/svg" xmlns:xlink="http://www.w3.org/1999/xlink" x="0px" y="0px"
	 width="448px" height="125px" viewBox="-32.5 -87.5 448 125" enable-background="new -32.5 -87.5 448 125" xml:space="preserve">
<g>
	<path fill="#050505" d="M93.06,20.975c0-1.765,0.621-3.482,1.869-5.161c1.247-1.674,3.027-3.184,5.338-4.517v-0.375
		c-1.208-0.664-2.28-1.59-3.198-2.779c-0.906-1.189-1.364-2.725-1.364-4.609c0-1.462,0.473-2.938,1.419-4.432
		c0.935-1.49,2.265-2.816,3.974-3.967v-0.368c-1.589-1.154-2.929-2.695-4.025-4.613c-1.089-1.916-1.636-4.212-1.636-6.887
		c0-2.498,0.482-4.735,1.456-6.716c0.975-1.978,2.286-3.66,3.932-5.065c1.64-1.401,3.54-2.464,5.703-3.198
		c2.158-0.729,4.455-1.091,6.893-1.091c2.492,0,4.745,0.363,6.759,1.091h18.348v6.85h-11.139c0.918,0.975,1.737,2.18,2.466,3.604
		c0.733,1.438,1.096,3.037,1.096,4.799c0,2.44-0.455,4.607-1.366,6.481c-0.913,1.894-2.164,3.486-3.747,4.796
		c-1.588,1.307-3.438,2.294-5.564,2.961c-2.131,0.668-4.416,1.013-6.852,1.013c-1.092,0-2.265-0.123-3.52-0.371
		c-1.241-0.236-2.473-0.61-3.693-1.097c-2.071,1.345-3.104,2.891-3.104,4.66c0,1.641,0.762,2.834,2.279,3.562
		c1.519,0.735,3.715,1.096,6.576,1.096h9.494c5.854,0,10.179,0.843,13.018,2.509c2.828,1.674,4.242,4.438,4.242,8.267
		c0,2.136-0.597,4.139-1.779,6.025c-1.193,1.889-2.879,3.544-5.072,4.983c-2.188,1.423-4.838,2.552-7.947,3.374
		c-3.098,0.827-6.571,1.234-10.407,1.234c-6.333,0-11.318-1.02-14.969-3.066C94.887,27.934,93.06,24.928,93.06,20.975z
		 M100.719,19.882c0,2.127,1.174,3.84,3.522,5.155c2.345,1.31,5.737,1.964,10.179,1.964c2.373,0,4.518-0.229,6.438-0.683
		c1.919-0.453,3.562-1.059,4.932-1.824c1.373-0.762,2.412-1.633,3.15-2.601c0.727-0.971,1.091-2.005,1.091-3.106
		c0-1.943-0.809-3.235-2.415-3.875c-1.615-0.644-4.036-0.962-7.26-0.962h-7.853c-1.398,0-2.644-0.042-3.737-0.137
		c-1.1-0.091-2.136-0.285-3.106-0.592c-1.832,1.035-3.105,2.104-3.843,3.196C101.095,17.505,100.719,18.657,100.719,19.882z
		 M113.416-7.059c2.559,0,4.743-0.848,6.581-2.552c1.822-1.708,2.737-4.077,2.737-7.118c0-2.929-0.918-5.271-2.737-7.033
		c-1.837-1.767-4.021-2.651-6.581-2.651c-2.561,0-4.748,0.885-6.575,2.651c-1.821,1.762-2.739,4.104-2.739,7.033
		c0,3.041,0.92,5.413,2.739,7.118C108.668-7.906,110.855-7.059,113.416-7.059z"/>
</g>
<path fill="#050505" d="M24.585,14.149h-7.651l-0.751-7.646h-0.379c-2.271,2.645-4.743,4.768-7.414,6.378
	c-2.679,1.597-5.777,2.401-9.304,2.401c-5.476,0-9.478-1.585-11.995-4.767c-2.521-3.181-3.776-7.825-3.776-13.932v-23.191
	l-12.225-0.238l21.669-8.342l-0.094,6.301v24.242c0,4.096,0.725,7.102,2.175,9.021C-3.712,6.299-1.229,7.262,2.3,7.262
	c2.394,0,4.579-0.584,6.564-1.752c1.981-1.164,4.112-3.135,6.378-5.898v-31.645h9.352L24.585,14.149L24.585,14.149z"/>
<path fill="#050505" d="M40.078-32.037h7.649l0.755,7.465h0.372c2.333-2.398,4.851-4.427,7.562-6.093
	c2.7-1.67,5.857-2.503,9.445-2.503c5.412,0,9.386,1.608,11.902,4.814c2.517,3.208,3.778,7.845,3.778,13.888v28.613h-9.353v-27.386
	c0-4.027-0.722-7.008-2.167-8.922c-1.447-1.924-3.936-2.889-7.464-2.889c-2.46,0-4.659,0.624-6.616,1.845
	c-1.948,1.229-4.129,3.065-6.518,5.529v31.824h-9.346v-46.184H40.078z"/>
<path fill="#050505" d="M185.909-8.892c0-3.78,0.661-7.167,1.982-10.157c1.32-2.989,3.079-5.543,5.291-7.649
	c2.201-2.109,4.717-3.719,7.562-4.819c2.83-1.101,5.762-1.651,8.772-1.651c3.405,0,6.406,0.535,9.034,1.608
	c2.602,1.07,4.827,2.56,6.65,4.475c1.83,1.931,3.218,4.225,4.156,6.907c0.945,2.673,1.423,5.616,1.423,8.825
	c0,0.955-0.05,1.841-0.147,2.692c-0.094,0.856-0.199,1.56-0.33,2.123h-34.762c0.316,4.537,2,8.081,5.06,10.631
	c3.055,2.549,6.903,3.822,11.566,3.822c2.522,0,4.862-0.346,7.038-1.042c2.176-0.686,4.302-1.661,6.372-2.916L228.88,9.9
	c-2.383,1.514-5.083,2.786-8.069,3.829c-2.991,1.038-6.288,1.554-9.877,1.554c-3.465,0-6.715-0.545-9.768-1.65
	c-3.063-1.102-5.713-2.684-7.983-4.767c-2.271-2.077-4.051-4.615-5.338-7.606C186.555-1.734,185.909-5.119,185.909-8.892z
	 M222.084-12.952c0-4.161-1.078-7.341-3.215-9.548c-2.142-2.202-5.196-3.3-9.162-3.3c-3.462,0-6.551,1.098-9.259,3.3
	c-2.71,2.209-4.381,5.388-5.002,9.548H222.084z"/>
<path fill="#050505" d="M261.514-33.498l0.027,48.596h-9.352v-35.481h-17.538L261.514-33.498z M256.061-43.024
	c-2.021,0-3.685-0.602-5.008-1.792c-1.315-1.198-1.978-2.806-1.978-4.819c0-2.014,0.657-3.633,1.978-4.862
	c1.324-1.23,2.987-1.84,5.008-1.84c2.011,0,3.685,0.61,5.008,1.84c1.32,1.229,1.985,2.848,1.985,4.862
	c0,2.014-0.665,3.624-1.985,4.819C259.745-43.626,258.071-43.024,256.061-43.024z"/>
<path fill="#050505" d="M274.5-7.952c0-3.839,0.694-7.275,2.081-10.291c1.386-3.027,3.278-5.571,5.672-7.658
	c2.388-2.072,5.143-3.642,8.265-4.717c3.121-1.069,6.438-1.603,9.965-1.603c3.777,0,7.085,0.644,9.918,1.931
	c2.834,1.291,5.199,2.857,7.088,4.678l-4.535,5.95c-1.829-1.513-3.72-2.69-5.676-3.541c-1.943-0.853-4.059-1.276-6.326-1.276
	c-2.446,0-4.715,0.393-6.796,1.185c-2.07,0.786-3.857,1.9-5.331,3.35c-1.478,1.448-2.628,3.197-3.452,5.244
	c-0.814,2.044-1.225,4.305-1.225,6.75c0,2.456,0.394,4.711,1.185,6.758c0.785,2.047,1.913,3.791,3.396,5.238
	c1.48,1.44,3.226,2.572,5.242,3.356c2.015,0.781,4.245,1.174,6.708,1.174c2.832,0,5.386-0.531,7.646-1.597
	c2.267-1.074,4.306-2.361,6.142-3.875l3.969,6.047c-2.645,2.267-5.545,4.013-8.691,5.238c-3.145,1.224-6.426,1.838-9.821,1.838
	c-3.59,0-6.942-0.533-10.058-1.602c-3.118-1.065-5.807-2.644-8.081-4.726c-2.263-2.082-4.041-4.613-5.333-7.606
	C275.146-0.69,274.5-4.107,274.5-7.952z"/>
<path fill="#050505" d="M318.894-51.604l19.584-9.712v27.204l-0.569,10.388c2.332-2.388,4.849-4.407,7.562-6.045
	c2.706-1.632,5.855-2.45,9.443-2.45c5.411,0,9.38,1.603,11.899,4.814c2.517,3.212,3.774,7.841,3.774,13.89v28.615h-9.351v-27.398
	c0-4.029-0.728-7.004-2.178-8.921c-1.441-1.919-3.923-2.885-7.454-2.885c-2.455,0-4.665,0.615-6.612,1.844
	c-1.955,1.228-4.131,3.067-6.521,5.529v31.827h-9.354l-0.193-67.096L318.894-51.604z"/>
<g>
	<polygon fill="#050505" points="372.346,-72.483 369.194,-65.904 408.349,-65.739 411.5,-72.447 	"/>
	<polygon fill="#050505" points="369.249,-58.129 365.997,-51.223 405.206,-51.144 408.349,-57.973 	"/>
	<polygon fill="#050505" points="376.891,-43.389 394.854,-81.627 401.77,-81.529 384.02,-43.38 	"/>
</g>
<g>
	<path fill="#050505" d="M162.481-0.869c0,3.097,0.775,5.34,2.332,6.713c1.552,1.364,3.569,2.056,6.069,2.056
		c1.214,0,2.468-0.155,3.748-0.461c1.277-0.306,2.711-0.792,4.293-1.463l2.19,6.765c-1.039,0.358-2.028,0.691-2.968,1.003
		c-0.954,0.302-1.902,0.556-2.877,0.768c-0.973,0.219-1.991,0.4-3.058,0.55c-1.068,0.149-2.239,0.232-3.518,0.232
		c-4.993,0-8.783-1.43-11.37-4.297c-2.588-2.859-3.877-6.994-3.877-12.416v-60.796H138.84l23.641-16.66"/>
</g>
</svg>
