<?xml version="1.0" encoding="utf-8"?>
<!-- Generator: Adobe Illustrator 16.0.0, SVG Export Plug-In . SVG Version: 6.00 Build 0)  -->
<!DOCTYPE svg PUBLIC "-//W3C//DTD SVG 1.1//EN" "http://www.w3.org/Graphics/SVG/1.1/DTD/svg11.dtd">
<svg version="1.1" id="Layer_1" xmlns="http://www.w3.org/2000/svg" xmlns:xlink="http://www.w3.org/1999/xlink" x="0px" y="0px"
	 width="130px" height="35px" viewBox="0 2.5 130 35" enable-background="new 0 2.5 130 35" xml:space="preserve">
<g>
	<path fill="#FFFFFF" d="M36.355,32.42c0-0.518,0.181-1.018,0.545-1.504c0.362-0.488,0.882-0.93,1.557-1.316V29.49
		c-0.354-0.191-0.664-0.467-0.932-0.811c-0.265-0.348-0.399-0.797-0.399-1.346c0-0.426,0.138-0.855,0.415-1.293
		c0.273-0.434,0.662-0.818,1.159-1.156v-0.105c-0.464-0.338-0.854-0.789-1.173-1.35c-0.317-0.557-0.477-1.227-0.477-2.006
		c0-0.729,0.141-1.383,0.423-1.959c0.285-0.578,0.667-1.067,1.148-1.478c0.478-0.409,1.032-0.718,1.664-0.933
		c0.628-0.213,1.299-0.319,2.008-0.319c0.728,0,1.385,0.106,1.971,0.319h5.35v1.997h-3.248c0.268,0.283,0.506,0.637,0.718,1.053
		c0.214,0.418,0.321,0.883,0.321,1.396c0,0.713-0.133,1.344-0.399,1.893c-0.267,0.551-0.631,1.016-1.092,1.396
		c-0.462,0.385-1.003,0.674-1.624,0.863c-0.62,0.195-1.287,0.295-1.998,0.295c-0.317,0-0.66-0.033-1.026-0.105
		c-0.363-0.068-0.721-0.18-1.077-0.32c-0.605,0.393-0.905,0.844-0.905,1.357c0,0.479,0.222,0.826,0.664,1.037
		c0.443,0.217,1.083,0.32,1.916,0.32h2.768c1.707,0,2.968,0.246,3.796,0.73c0.825,0.488,1.237,1.295,1.237,2.41
		c0,0.621-0.174,1.205-0.52,1.758c-0.347,0.551-0.839,1.031-1.479,1.449c-0.637,0.416-1.411,0.748-2.317,0.984
		c-0.904,0.242-1.916,0.363-3.036,0.363c-1.846,0-3.301-0.301-4.365-0.896C36.888,34.447,36.355,33.572,36.355,32.42z
		 M38.589,32.102c0,0.621,0.342,1.121,1.026,1.504c0.684,0.381,1.673,0.572,2.967,0.572c0.692,0,1.318-0.066,1.878-0.199
		c0.559-0.133,1.039-0.311,1.439-0.533s0.703-0.475,0.918-0.756c0.213-0.283,0.317-0.584,0.317-0.908
		c0-0.566-0.236-0.941-0.704-1.131c-0.471-0.186-1.177-0.277-2.117-0.277h-2.29c-0.408,0-0.77-0.016-1.09-0.043
		c-0.321-0.021-0.623-0.08-0.905-0.172c-0.534,0.303-0.905,0.613-1.121,0.932C38.699,31.406,38.589,31.744,38.589,32.102z
		 M42.291,24.244c0.747,0,1.384-0.246,1.919-0.744c0.531-0.498,0.799-1.188,0.799-2.074c0-0.855-0.269-1.537-0.799-2.051
		c-0.536-0.515-1.172-0.773-1.919-0.773s-1.384,0.257-1.916,0.773c-0.531,0.514-0.798,1.197-0.798,2.051
		c0,0.887,0.268,1.576,0.798,2.074C40.907,23.996,41.545,24.244,42.291,24.244z"/>
</g>
<path fill="#FFFFFF" d="M16.389,30.43h-2.231l-0.221-2.23h-0.109c-0.662,0.771-1.384,1.391-2.162,1.859
	c-0.781,0.465-1.686,0.699-2.714,0.699c-1.598,0-2.764-0.463-3.497-1.389c-0.736-0.93-1.102-2.281-1.102-4.064v-6.761l-3.566-0.07
	l6.319-2.432l-0.027,1.839v7.068c0,1.193,0.211,2.07,0.633,2.631c0.423,0.561,1.147,0.844,2.176,0.844
	c0.697,0,1.335-0.174,1.914-0.514c0.578-0.34,1.199-0.914,1.859-1.721v-9.229h2.727L16.389,30.43L16.389,30.43z"/>
<path fill="#FFFFFF" d="M20.907,16.962h2.229l0.221,2.175h0.109c0.681-0.698,1.414-1.291,2.205-1.776
	c0.788-0.487,1.708-0.729,2.754-0.729c1.58,0,2.737,0.469,3.47,1.403c0.734,0.936,1.104,2.287,1.104,4.051v8.344H30.27v-7.988
	c0-1.174-0.209-2.041-0.633-2.602c-0.42-0.562-1.147-0.844-2.176-0.844c-0.718,0-1.358,0.184-1.93,0.537
	c-0.567,0.359-1.204,0.896-1.9,1.613v9.281h-2.725L20.907,16.962L20.907,16.962z"/>
<path fill="#FFFFFF" d="M63.43,23.711c0-1.104,0.194-2.092,0.58-2.963c0.386-0.871,0.898-1.617,1.543-2.23
	c0.641-0.614,1.375-1.084,2.204-1.406c0.826-0.321,1.683-0.48,2.562-0.48c0.992,0,1.867,0.154,2.633,0.468
	c0.758,0.312,1.408,0.747,1.938,1.305c0.535,0.562,0.941,1.231,1.213,2.013c0.275,0.779,0.416,1.639,0.416,2.574
	c0,0.277-0.016,0.539-0.043,0.787c-0.026,0.25-0.059,0.455-0.096,0.619H66.24c0.092,1.32,0.582,2.354,1.475,3.098
	c0.891,0.744,2.014,1.117,3.373,1.117c0.736,0,1.418-0.104,2.053-0.305s1.254-0.486,1.855-0.854l0.967,1.734
	C75.27,29.629,74.48,30,73.607,30.307c-0.871,0.301-1.832,0.451-2.879,0.451c-1.01,0-1.959-0.156-2.85-0.479
	s-1.666-0.785-2.327-1.391c-0.662-0.607-1.182-1.348-1.558-2.221C63.619,25.797,63.43,24.811,63.43,23.711z M73.98,22.527
	c0-1.215-0.316-2.141-0.939-2.783s-1.512-0.963-2.67-0.963c-1.012,0-1.91,0.32-2.699,0.963c-0.791,0.645-1.279,1.568-1.461,2.783
	H73.98z"/>
<path fill="#FFFFFF" d="M85.475,16.535l0.01,14.17h-2.729V20.359h-5.113L85.475,16.535z M83.887,13.758
	c-0.588,0-1.072-0.176-1.463-0.522c-0.381-0.35-0.574-0.819-0.574-1.406s0.193-1.059,0.574-1.417
	c0.391-0.358,0.873-0.537,1.463-0.537c0.586,0,1.076,0.178,1.459,0.537c0.389,0.359,0.582,0.831,0.582,1.417
	c0,0.587-0.193,1.057-0.582,1.406C84.963,13.582,84.473,13.758,83.887,13.758z"/>
<path fill="#FFFFFF" d="M89.264,23.982c0-1.117,0.203-2.121,0.607-2.998c0.404-0.883,0.957-1.627,1.654-2.234
	c0.695-0.605,1.498-1.062,2.408-1.376c0.909-0.311,1.877-0.467,2.905-0.467c1.103,0,2.063,0.187,2.892,0.563
	c0.83,0.375,1.518,0.833,2.067,1.363l-1.319,1.735c-0.535-0.441-1.088-0.787-1.658-1.033c-0.564-0.248-1.182-0.37-1.844-0.37
	c-0.713,0-1.375,0.114-1.984,0.345c-0.604,0.229-1.123,0.553-1.553,0.977c-0.433,0.424-0.769,0.932-1.004,1.529
	c-0.24,0.596-0.359,1.254-0.359,1.967c0,0.717,0.115,1.375,0.344,1.969c0.23,0.6,0.561,1.107,0.99,1.531
	c0.432,0.418,0.941,0.748,1.527,0.977c0.59,0.229,1.239,0.344,1.959,0.344c0.824,0,1.569-0.156,2.229-0.469
	c0.66-0.311,1.258-0.688,1.791-1.133l1.158,1.766c-0.771,0.66-1.617,1.172-2.533,1.527c-0.918,0.357-1.875,0.535-2.865,0.535
	c-1.047,0-2.023-0.154-2.934-0.467c-0.908-0.311-1.691-0.771-2.354-1.377c-0.664-0.607-1.183-1.348-1.558-2.219
	C89.453,26.102,89.264,25.105,89.264,23.982z"/>
<path fill="#FFFFFF" d="M102.209,11.254l5.711-2.831v7.933l-0.166,3.029c0.682-0.697,1.412-1.285,2.205-1.763
	c0.789-0.476,1.705-0.715,2.754-0.715c1.578,0,2.734,0.467,3.469,1.403c0.732,0.936,1.101,2.29,1.101,4.049v8.344h-2.726v-7.988
	c0-1.176-0.211-2.041-0.635-2.602c-0.422-0.561-1.145-0.842-2.176-0.842c-0.715,0-1.359,0.18-1.924,0.537
	c-0.574,0.359-1.205,0.896-1.904,1.613v9.281h-2.727l-0.06-19.565L102.209,11.254z"/>
<g>
	<polygon fill="#FFFFFF" points="117.797,5.167 116.877,7.086 128.295,7.134 129.213,5.178 	"/>
	<polygon fill="#FFFFFF" points="116.893,9.352 115.945,11.366 127.379,11.39 128.295,9.398 	"/>
	<polygon fill="#FFFFFF" points="119.123,13.652 124.359,2.5 126.377,2.53 121.201,13.654 	"/>
</g>
<g>
	<path fill="#FFFFFF" d="M56.6,26.051c0,0.9,0.226,1.557,0.679,1.955c0.452,0.4,1.041,0.602,1.77,0.602
		c0.354,0,0.72-0.047,1.092-0.135c0.372-0.09,0.791-0.232,1.25-0.428l0.639,1.973c-0.302,0.104-0.591,0.199-0.865,0.293
		c-0.278,0.086-0.556,0.16-0.838,0.223c-0.284,0.066-0.581,0.117-0.89,0.16c-0.313,0.045-0.653,0.068-1.025,0.068
		c-1.457,0-2.562-0.416-3.317-1.254c-0.754-0.832-1.131-2.037-1.131-3.619V8.161h-4.261l6.895-4.858"/>
</g>
</svg>
