<?xml version="1.0" encoding="utf-8"?>
<!-- Generator: Adobe Illustrator 16.0.0, SVG Export Plug-In . SVG Version: 6.00 Build 0)  -->
<!DOCTYPE svg PUBLIC "-//W3C//DTD SVG 1.1//EN" "http://www.w3.org/Graphics/SVG/1.1/DTD/svg11.dtd">
<svg version="1.1" id="Layer_1" xmlns="http://www.w3.org/2000/svg" xmlns:xlink="http://www.w3.org/1999/xlink" x="0px" y="0px"
	 width="200px" height="150px" viewBox="0 0 200 150" enable-background="new 0 0 200 150" xml:space="preserve">
<ellipse fill="#FFFFFF" cx="100.14" cy="75.445" rx="68.229" ry="68.69"/>
<g>
	<path d="M62.843,118.639l1.195-0.252c0.145,0.677,0.694,1.014,1.652,1.014c0.437,0,0.773-0.084,1.009-0.261
		c0.235-0.17,0.353-0.388,0.353-0.643c0-0.188-0.054-0.36-0.161-0.52c-0.106-0.157-0.336-0.281-0.685-0.372l-1.306-0.34
		c-0.447-0.117-0.777-0.25-0.99-0.398c-0.214-0.147-0.386-0.358-0.512-0.63c-0.13-0.269-0.193-0.557-0.193-0.863
		c0-0.61,0.226-1.101,0.68-1.471c0.453-0.367,1.033-0.553,1.742-0.553c0.585,0,1.111,0.129,1.573,0.387
		c0.461,0.258,0.756,0.62,0.883,1.092l-1.17,0.29c-0.18-0.518-0.6-0.775-1.261-0.775c-0.384,0-0.676,0.08-0.879,0.239
		c-0.202,0.161-0.302,0.362-0.302,0.61c0,0.392,0.317,0.664,0.951,0.819l1.161,0.291c0.705,0.178,1.175,0.44,1.417,0.783
		c0.239,0.347,0.36,0.726,0.36,1.146c0,0.669-0.252,1.196-0.758,1.582c-0.505,0.385-1.161,0.578-1.964,0.578
		c-0.678,0-1.27-0.143-1.779-0.425C63.348,119.684,63.008,119.24,62.843,118.639z"/>
	<path d="M78.034,115.233l-1.481,5.054h-1.026l-0.91-3.542l-0.906,3.542h-1.057l-1.556-5.054h1.21l0.995,3.399l0.873-3.399h1.035
		l0.886,3.399l0.975-3.399H78.034z"/>
	<path d="M82.298,114.644h-1.14v-1.188h1.14V114.644z M82.298,120.287h-1.14v-5.054h1.14V120.287z"/>
	<path d="M88.348,119.396v0.893c-0.339,0.072-0.604,0.11-0.789,0.11c-0.309,0-0.572-0.062-0.792-0.184
		c-0.22-0.121-0.38-0.29-0.482-0.501c-0.102-0.21-0.153-0.538-0.153-0.979v-2.617h-0.63v-0.885h0.697l0.104-1.315l0.936-0.087v1.402
		h1.016v0.885h-1.016v2.468c0,0.315,0.056,0.533,0.172,0.648c0.115,0.114,0.334,0.173,0.653,0.173
		C88.154,119.407,88.247,119.402,88.348,119.396z"/>
	<path d="M95.014,119.4v0.887h-3.812V119.4l2.438-3.282h-2.208v-0.885h3.583v0.806l-2.497,3.361H95.014z"/>
	<path d="M101.484,118.677l1.033,0.138c-0.135,0.459-0.395,0.836-0.78,1.134c-0.39,0.295-0.874,0.444-1.457,0.444
		c-0.701,0-1.265-0.236-1.692-0.707c-0.426-0.471-0.641-1.107-0.641-1.91c0-0.764,0.214-1.397,0.646-1.898
		c0.43-0.499,1.013-0.75,1.75-0.75c0.721,0,1.279,0.249,1.674,0.742c0.391,0.494,0.589,1.127,0.589,1.901l-0.005,0.129h-3.467
		c0,0.344,0.031,0.62,0.096,0.826c0.066,0.206,0.195,0.386,0.388,0.54c0.193,0.152,0.437,0.23,0.724,0.23
		C100.908,119.496,101.288,119.223,101.484,118.677z M101.416,117.165c-0.005-0.363-0.112-0.66-0.328-0.891
		c-0.216-0.231-0.482-0.346-0.798-0.346c-0.314,0-0.575,0.106-0.787,0.323c-0.208,0.215-0.333,0.52-0.369,0.913H101.416z"/>
	<path d="M107.126,120.287h-1.142v-5.054h1.031v1.205c0.146-0.472,0.349-0.812,0.604-1.03c0.258-0.217,0.521-0.325,0.79-0.325
		c0.038,0,0.087,0.002,0.151,0.005v1.227c-0.58,0-0.966,0.185-1.152,0.555c-0.189,0.37-0.283,0.729-0.283,1.077V120.287
		L107.126,120.287z"/>
	<path d="M112.856,120.287h-1.142v-6.831h1.142V120.287z"/>
	<path d="M120.888,120.287h-1.086c-0.098-0.307-0.156-0.648-0.176-1.021c-0.304,0.749-0.874,1.126-1.71,1.126
		c-0.505,0-0.908-0.147-1.216-0.445c-0.304-0.293-0.456-0.665-0.456-1.111c0-1.162,1.019-1.742,3.058-1.742
		c0.079,0,0.188,0.002,0.324,0.005v-0.38c0-0.524-0.357-0.786-1.068-0.786c-0.695,0-1.09,0.262-1.183,0.786l-0.971-0.145
		c0.054-0.422,0.271-0.766,0.652-1.039c0.379-0.271,0.929-0.408,1.648-0.408c0.392,0,0.709,0.033,0.957,0.099
		c0.246,0.065,0.455,0.175,0.625,0.33c0.171,0.154,0.288,0.323,0.354,0.505c0.065,0.181,0.098,0.49,0.098,0.923v2.282
		C120.738,119.597,120.787,119.937,120.888,120.287z M119.626,117.715c-1.475,0-2.212,0.354-2.212,1.056
		c0,0.21,0.075,0.391,0.223,0.538c0.148,0.15,0.374,0.223,0.675,0.223c0.433,0,0.761-0.138,0.981-0.412
		c0.223-0.277,0.333-0.588,0.333-0.939V117.715L119.626,117.715z"/>
	<path d="M128.625,120.287h-1.142v-3.158c0-0.332-0.077-0.586-0.229-0.754c-0.154-0.166-0.338-0.253-0.555-0.253
		c-0.299,0-0.558,0.132-0.781,0.392c-0.225,0.26-0.336,0.653-0.336,1.178v2.596h-1.141v-5.054h1.04v1.17
		c0.364-0.85,0.875-1.276,1.533-1.276c0.441,0,0.822,0.141,1.137,0.422c0.316,0.28,0.474,0.772,0.474,1.475V120.287L128.625,120.287
		z"/>
	<path d="M136.481,120.287h-1.066v-1.021c-0.294,0.749-0.79,1.126-1.491,1.126c-0.62,0-1.097-0.26-1.426-0.777
		c-0.331-0.516-0.495-1.159-0.495-1.924c0-0.715,0.171-1.337,0.515-1.869c0.343-0.528,0.833-0.793,1.466-0.793
		c0.651,0,1.104,0.295,1.358,0.89v-2.463h1.14V120.287z M135.342,117.306c0-0.41-0.099-0.73-0.296-0.96
		c-0.194-0.228-0.446-0.343-0.758-0.343c-0.337,0-0.6,0.148-0.789,0.44c-0.19,0.296-0.286,0.732-0.286,1.316
		c0,1.128,0.354,1.692,1.061,1.692c0.281,0,0.529-0.122,0.743-0.363c0.216-0.241,0.325-0.55,0.325-0.93V117.306L135.342,117.306z"/>
</g>
<g>
	<g>
		<path d="M76.493,103.567c0-0.437,0.153-0.861,0.462-1.276c0.309-0.415,0.749-0.787,1.321-1.117v-0.094
			c-0.299-0.164-0.564-0.393-0.792-0.688c-0.224-0.294-0.338-0.674-0.338-1.14c0-0.362,0.117-0.728,0.351-1.097
			c0.231-0.369,0.561-0.697,0.984-0.982v-0.091c-0.394-0.286-0.725-0.668-0.997-1.142c-0.269-0.474-0.405-1.042-0.405-1.704
			c0-0.618,0.12-1.172,0.36-1.662c0.241-0.489,0.566-0.906,0.973-1.254c0.406-0.347,0.876-0.609,1.412-0.792
			c0.534-0.18,1.103-0.27,1.706-0.27c0.617,0,1.174,0.09,1.672,0.27h4.541v1.695h-2.756c0.228,0.242,0.43,0.539,0.61,0.893
			c0.182,0.354,0.271,0.751,0.271,1.188c0,0.603-0.113,1.139-0.338,1.604c-0.227,0.469-0.536,0.862-0.927,1.187
			c-0.393,0.324-0.851,0.568-1.378,0.733c-0.526,0.166-1.092,0.25-1.695,0.25c-0.27,0-0.561-0.031-0.871-0.092
			c-0.307-0.059-0.612-0.15-0.914-0.271c-0.513,0.332-0.768,0.716-0.768,1.153c0,0.406,0.188,0.701,0.564,0.881
			c0.375,0.183,0.919,0.272,1.627,0.272h2.349c1.448,0,2.519,0.208,3.222,0.62c0.7,0.414,1.05,1.098,1.05,2.045
			c0,0.528-0.148,1.024-0.44,1.492c-0.295,0.466-0.713,0.877-1.255,1.231c-0.542,0.353-1.197,0.633-1.967,0.836
			c-0.767,0.204-1.626,0.305-2.575,0.305c-1.568,0-2.801-0.252-3.705-0.758C76.946,105.289,76.493,104.546,76.493,103.567z
			 M78.389,103.297c0,0.526,0.291,0.951,0.871,1.276c0.581,0.323,1.42,0.485,2.519,0.485c0.587,0,1.118-0.056,1.593-0.169
			c0.475-0.112,0.882-0.263,1.221-0.452c0.34-0.188,0.597-0.404,0.779-0.644c0.181-0.24,0.271-0.496,0.271-0.77
			c0-0.48-0.2-0.801-0.598-0.958c-0.399-0.16-0.999-0.237-1.796-0.237h-1.943c-0.346,0-0.654-0.012-0.925-0.034
			c-0.272-0.022-0.529-0.071-0.769-0.148c-0.454,0.257-0.769,0.521-0.951,0.792C78.482,102.709,78.389,102.994,78.389,103.297z
			 M81.531,96.631c0.633,0,1.174-0.209,1.628-0.632c0.451-0.423,0.677-1.009,0.677-1.762c0-0.725-0.227-1.304-0.677-1.74
			c-0.455-0.437-0.995-0.656-1.628-0.656s-1.175,0.22-1.627,0.656c-0.451,0.437-0.678,1.016-0.678,1.74
			c0,0.753,0.228,1.339,0.678,1.762C80.355,96.422,80.897,96.631,81.531,96.631z"/>
	</g>
	<path d="M58.166,101.879h-1.894l-0.186-1.892h-0.094c-0.562,0.653-1.174,1.179-1.835,1.577c-0.662,0.396-1.429,0.595-2.302,0.595
		c-1.355,0-2.346-0.392-2.968-1.18c-0.624-0.786-0.935-1.936-0.935-3.447v-5.739l-3.025-0.059l5.362-2.064l-0.023,1.56v5.999
		c0,1.014,0.179,1.757,0.539,2.232c0.358,0.476,0.973,0.714,1.846,0.714c0.593,0,1.133-0.146,1.625-0.435
		c0.49-0.288,1.018-0.775,1.578-1.46v-7.831h2.314V101.879L58.166,101.879z"/>
	<path d="M62.46,90.449h1.893l0.187,1.848h0.092c0.577-0.594,1.2-1.096,1.871-1.508c0.668-0.413,1.45-0.62,2.338-0.62
		c1.339,0,2.322,0.398,2.945,1.191c0.623,0.794,0.936,1.941,0.936,3.437v7.081h-2.315v-6.777c0-0.996-0.178-1.733-0.536-2.207
		c-0.358-0.477-0.974-0.716-1.847-0.716c-0.608,0-1.153,0.155-1.637,0.457c-0.482,0.304-1.022,0.759-1.613,1.368v7.875H62.46V90.449
		L62.46,90.449z"/>
	<path d="M100.392,96.177c0-0.936,0.165-1.773,0.491-2.514c0.327-0.739,0.763-1.372,1.31-1.893c0.544-0.521,1.168-0.92,1.87-1.192
		c0.7-0.272,1.426-0.409,2.172-0.409c0.843,0,1.586,0.133,2.234,0.398c0.646,0.265,1.195,0.633,1.647,1.107
		c0.453,0.478,0.795,1.046,1.028,1.709c0.232,0.661,0.351,1.39,0.351,2.184c0,0.236-0.012,0.456-0.036,0.667
		c-0.023,0.212-0.049,0.386-0.082,0.524h-8.603c0.079,1.122,0.496,2,1.253,2.631c0.756,0.632,1.708,0.945,2.862,0.945
		c0.624,0,1.203-0.085,1.741-0.258c0.539-0.169,1.065-0.41,1.577-0.721l0.818,1.471c-0.59,0.375-1.258,0.689-1.997,0.947
		c-0.741,0.256-1.557,0.385-2.444,0.385c-0.857,0-1.662-0.136-2.417-0.408c-0.757-0.272-1.413-0.665-1.976-1.18
		c-0.562-0.514-1.002-1.142-1.322-1.883C100.552,97.947,100.392,97.11,100.392,96.177z M109.345,95.172
		c0-1.03-0.267-1.816-0.796-2.363c-0.529-0.544-1.285-0.815-2.267-0.815c-0.857,0-1.621,0.271-2.291,0.815
		c-0.671,0.547-1.084,1.333-1.238,2.363H109.345z"/>
	<path d="M120.023,90.088l0.007,12.025h-2.314v-8.779h-4.34L120.023,90.088z M118.675,87.73c-0.5,0-0.912-0.148-1.239-0.444
		c-0.326-0.296-0.49-0.694-0.49-1.191c0-0.499,0.164-0.899,0.49-1.203c0.327-0.305,0.739-0.456,1.239-0.456
		c0.497,0,0.912,0.151,1.238,0.456c0.327,0.304,0.491,0.704,0.491,1.203c0,0.497-0.164,0.896-0.491,1.191
		S119.172,87.73,118.675,87.73z"/>
	<path d="M124.159,96.409c0-0.95,0.172-1.8,0.516-2.547c0.343-0.748,0.811-1.379,1.403-1.896c0.591-0.513,1.272-0.9,2.045-1.167
		c0.771-0.264,1.593-0.396,2.465-0.396c0.936,0,1.753,0.159,2.455,0.478c0.702,0.319,1.287,0.707,1.754,1.158l-1.122,1.472
		c-0.453-0.375-0.922-0.666-1.405-0.876c-0.48-0.211-1.004-0.315-1.565-0.315c-0.605,0-1.167,0.098-1.682,0.293
		c-0.513,0.194-0.955,0.471-1.32,0.829s-0.649,0.791-0.854,1.298c-0.202,0.506-0.303,1.064-0.303,1.67
		c0,0.607,0.097,1.167,0.292,1.673c0.194,0.506,0.475,0.938,0.841,1.297c0.367,0.356,0.799,0.636,1.298,0.83
		c0.499,0.193,1.051,0.29,1.659,0.29c0.7,0,1.333-0.131,1.893-0.396c0.561-0.266,1.066-0.584,1.521-0.959l0.982,1.496
		c-0.655,0.561-1.372,0.994-2.151,1.297c-0.779,0.304-1.591,0.456-2.432,0.456c-0.888,0-1.717-0.133-2.488-0.397
		c-0.771-0.264-1.438-0.654-2-1.169c-0.56-0.516-1-1.142-1.319-1.883C124.32,98.206,124.159,97.361,124.159,96.409z"/>
	<path d="M136.066,85.607l4.847-2.403v6.731l-0.141,2.57c0.577-0.591,1.199-1.091,1.871-1.495c0.67-0.404,1.449-0.606,2.338-0.606
		c1.339,0,2.321,0.396,2.943,1.191s0.935,1.94,0.935,3.437v7.081h-2.313v-6.779c0-0.997-0.179-1.733-0.538-2.208
		c-0.357-0.476-0.972-0.714-1.845-0.714c-0.608,0-1.154,0.151-1.637,0.456c-0.483,0.304-1.022,0.76-1.613,1.368v7.876h-2.314
		l-0.049-16.604L136.066,85.607z"/>
	<g>
		<polygon fill="#040000" points="149.295,80.439 148.515,82.068 158.204,82.108 158.984,80.449 		"/>
		<polygon fill="#040000" points="148.527,83.993 147.724,85.701 157.427,85.721 158.204,84.031 		"/>
		<polygon fill="#040000" points="150.42,87.64 154.863,78.178 156.576,78.202 152.184,87.642 		"/>
	</g>
	<g>
		<path d="M94.134,98.162c0,0.767,0.192,1.321,0.577,1.661c0.384,0.338,0.884,0.509,1.502,0.509c0.301,0,0.611-0.039,0.927-0.115
			c0.316-0.075,0.671-0.195,1.062-0.362l0.542,1.675c-0.256,0.089-0.501,0.171-0.734,0.248c-0.235,0.075-0.471,0.137-0.711,0.19
			c-0.241,0.054-0.494,0.099-0.756,0.136c-0.265,0.037-0.554,0.058-0.87,0.058c-1.236,0-2.173-0.354-2.814-1.062
			c-0.64-0.709-0.959-1.731-0.959-3.073V82.98h-3.615l5.85-4.123"/>
	</g>
</g>
<g>
	<polygon fill="#E71F19" points="86.724,43.61 86.774,69.98 111.895,69.929 111.994,43.61 	"/>
	<rect x="90.912" y="54.153" fill="#FFFFFF" width="16.836" height="5.188"/>
	<rect x="96.849" y="47.991" fill="#FFFFFF" width="4.982" height="17.567"/>
</g>
<path d="M56.763,35.194c0.304-0.325,0.611-0.645,0.92-0.961c1.161,1.135,2.321,2.271,3.482,3.405
	c0.761-0.778,1.538-1.531,2.332-2.256c0.193,0.211,0.386,0.423,0.579,0.634c-1.074,0.982-2.119,2.015-3.131,3.095
	C59.55,37.805,58.156,36.5,56.763,35.194z"/>
<path d="M61.615,32.861c0.86-0.855,1.739-1.68,2.639-2.475c0.947,1.076,1.895,2.152,2.843,3.228
	c-0.292,0.259-0.583,0.521-0.873,0.787c-0.79-0.86-1.58-1.72-2.37-2.581c-0.568,0.523-1.127,1.058-1.677,1.606
	C61.99,33.238,61.803,33.05,61.615,32.861z M63.208,30.311c-0.193,0.174-0.395,0.276-0.606,0.305
	c-0.212,0.029-0.388-0.031-0.527-0.181c-0.139-0.149-0.187-0.331-0.141-0.544c0.046-0.213,0.167-0.41,0.364-0.588
	c0.203-0.183,0.411-0.285,0.625-0.306c0.213-0.021,0.386,0.046,0.521,0.2c0.135,0.153,0.177,0.333,0.131,0.539
	C63.529,29.94,63.406,30.131,63.208,30.311z"/>
<path d="M66.417,29.18c0.265-0.22,0.533-0.438,0.802-0.652c0.16,0.148,0.32,0.297,0.48,0.446c0.011-0.009,0.022-0.018,0.033-0.027
	c0.069-0.316,0.179-0.627,0.33-0.933c0.152-0.305,0.393-0.583,0.723-0.83c0.492-0.367,0.948-0.507,1.354-0.428
	c0.408,0.08,0.77,0.353,1.091,0.812c0.509,0.728,1.018,1.455,1.526,2.183c-0.317,0.222-0.632,0.447-0.945,0.676
	c-0.498-0.682-0.995-1.363-1.494-2.044c-0.207-0.283-0.416-0.447-0.627-0.49c-0.212-0.043-0.465,0.043-0.754,0.263
	c-0.205,0.154-0.355,0.333-0.453,0.534c-0.096,0.201-0.177,0.457-0.238,0.766c0.608,0.767,1.215,1.534,1.823,2.301
	c-0.306,0.242-0.609,0.488-0.91,0.737C68.244,31.391,67.33,30.285,66.417,29.18z"/>
<path d="M78.77,26.978c-0.279,0.137-0.556,0.277-0.833,0.418c-0.131-0.188-0.261-0.377-0.394-0.566
	c-0.011,0.006-0.024,0.012-0.035,0.019c-0.098,0.32-0.236,0.608-0.415,0.866c-0.178,0.257-0.425,0.473-0.743,0.65
	c-0.498,0.277-0.93,0.354-1.307,0.227c-0.377-0.127-0.711-0.429-0.999-0.911c-0.455-0.762-0.909-1.525-1.363-2.288
	c0.354-0.211,0.709-0.418,1.066-0.621c0.417,0.734,0.834,1.468,1.251,2.201c0.173,0.305,0.36,0.492,0.559,0.564
	c0.2,0.072,0.449,0.024,0.75-0.14c0.206-0.112,0.368-0.253,0.488-0.423c0.12-0.169,0.222-0.411,0.31-0.727
	c-0.445-0.857-0.891-1.716-1.336-2.574c0.364-0.189,0.729-0.374,1.095-0.554C77.5,24.406,78.136,25.692,78.77,26.978z"/>
<path d="M81.244,23.314c-0.806-0.386-1.626-0.755-2.462-1.106c0.396-0.199,0.795-0.393,1.194-0.583
	c0.322,0.148,0.641,0.298,0.958,0.452c0.125,0.071,0.257,0.144,0.398,0.218s0.279,0.148,0.418,0.22
	c0.013-0.005,0.025-0.011,0.038-0.017c0.019-0.143,0.042-0.291,0.073-0.446c0.031-0.153,0.057-0.299,0.08-0.437
	c0.078-0.327,0.158-0.654,0.241-0.981c0.393-0.167,0.788-0.33,1.184-0.489c-0.276,0.891-0.531,1.782-0.763,2.673
	c0.843,0.407,1.668,0.833,2.477,1.274c-0.381,0.152-0.76,0.308-1.137,0.468c-0.325-0.17-0.653-0.337-0.983-0.501
	c-0.133-0.069-0.274-0.144-0.423-0.225c-0.15-0.081-0.296-0.156-0.438-0.226c-0.013,0.005-0.025,0.011-0.038,0.017
	c-0.033,0.156-0.062,0.309-0.086,0.458c-0.024,0.149-0.05,0.305-0.078,0.465c-0.076,0.344-0.148,0.688-0.217,1.032
	c-0.359,0.171-0.717,0.347-1.073,0.526C80.794,25.176,81.006,24.245,81.244,23.314z"/>
<path d="M90.795,18.426c0.414-0.049,0.828-0.095,1.242-0.136c0.12,1.2,0.239,2.4,0.359,3.6c0.047,0.471,0.182,0.799,0.399,0.987
	c0.218,0.188,0.499,0.266,0.849,0.239c0.355-0.029,0.627-0.15,0.819-0.371c0.191-0.221,0.274-0.566,0.247-1.039
	c-0.072-1.203-0.145-2.408-0.216-3.611c0.397-0.023,0.795-0.043,1.193-0.059c0.048,1.179,0.095,2.357,0.143,3.536
	c0.032,0.788-0.143,1.373-0.509,1.763c-0.368,0.39-0.9,0.605-1.605,0.662c-0.693,0.055-1.253-0.076-1.692-0.404
	c-0.438-0.328-0.71-0.876-0.804-1.654C91.077,20.768,90.937,19.597,90.795,18.426z"/>
<path d="M98.099,19.342c0.332-0.011,0.665-0.019,0.997-0.024c0.035,0.215,0.07,0.431,0.105,0.646c0.014,0,0.028,0,0.041,0
	c0.24-0.208,0.508-0.387,0.805-0.535c0.296-0.15,0.647-0.222,1.047-0.216c0.597,0.011,1.03,0.176,1.297,0.487
	c0.268,0.312,0.384,0.749,0.358,1.309c-0.04,0.887-0.08,1.773-0.121,2.66c-0.376-0.017-0.754-0.03-1.131-0.04
	c0.021-0.844,0.044-1.687,0.064-2.53c0.009-0.351-0.055-0.607-0.192-0.771c-0.137-0.164-0.384-0.249-0.736-0.252
	c-0.249-0.002-0.471,0.046-0.663,0.146c-0.192,0.099-0.406,0.253-0.636,0.46c0.013,0.978,0.025,1.956,0.037,2.934
	c-0.377,0.005-0.755,0.014-1.132,0.026C98.193,22.208,98.146,20.775,98.099,19.342z"/>
<path d="M104.418,19.466c1.146,0.082,2.29,0.197,3.43,0.345c-0.184,1.421-0.368,2.843-0.553,4.266
	c-0.372-0.049-0.743-0.093-1.115-0.134c0.126-1.161,0.254-2.322,0.38-3.482c-0.731-0.081-1.464-0.147-2.198-0.199
	C104.38,19.996,104.4,19.731,104.418,19.466z M107.249,18.978c-0.247-0.029-0.446-0.113-0.6-0.252
	c-0.153-0.14-0.22-0.311-0.199-0.514c0.021-0.203,0.122-0.359,0.305-0.465c0.183-0.106,0.399-0.146,0.652-0.116
	c0.26,0.03,0.464,0.119,0.612,0.265c0.149,0.146,0.21,0.32,0.184,0.523c-0.027,0.203-0.13,0.354-0.309,0.455
	C107.716,18.972,107.501,19.007,107.249,18.978z"/>
<path d="M111.764,22.555c-0.414-0.787-0.848-1.571-1.305-2.349c0.434,0.075,0.863,0.155,1.295,0.239
	c0.167,0.311,0.333,0.621,0.495,0.932c0.059,0.131,0.12,0.268,0.188,0.411c0.068,0.143,0.135,0.284,0.203,0.425
	c0.013,0.003,0.026,0.006,0.039,0.009c0.102-0.104,0.207-0.209,0.324-0.315c0.115-0.105,0.224-0.208,0.323-0.304
	c0.256-0.217,0.515-0.433,0.775-0.647c0.415,0.099,0.828,0.202,1.24,0.309c-0.752,0.553-1.486,1.119-2.2,1.698
	c0.433,0.827,0.841,1.659,1.226,2.494c-0.396-0.104-0.792-0.203-1.188-0.298c-0.159-0.329-0.322-0.658-0.489-0.986
	c-0.065-0.135-0.133-0.278-0.204-0.432c-0.072-0.154-0.145-0.301-0.218-0.442c-0.013-0.003-0.025-0.006-0.038-0.009
	c-0.12,0.105-0.233,0.211-0.34,0.317c-0.108,0.105-0.221,0.214-0.34,0.327c-0.263,0.232-0.524,0.466-0.782,0.702
	c-0.387-0.075-0.776-0.146-1.164-0.212C110.303,23.788,111.021,23.164,111.764,22.555z"/>
<path d="M121.897,22.412c1.332,0.719,2.641,1.488,3.924,2.309c-0.154,0.241-0.309,0.482-0.463,0.723
	c-0.912-0.583-1.838-1.141-2.776-1.672c-0.266,0.47-0.533,0.94-0.799,1.41c0.776,0.44,1.544,0.898,2.302,1.375
	c-0.151,0.242-0.304,0.484-0.456,0.727c-0.748-0.47-1.504-0.921-2.27-1.354c-0.394,0.693-0.785,1.387-1.179,2.081
	c-0.334-0.188-0.669-0.374-1.007-0.556C120.081,25.773,120.99,24.092,121.897,22.412z"/>
<path d="M126.291,31.342c-0.329-0.193-0.598-0.427-0.808-0.703c-0.208-0.276-0.351-0.58-0.425-0.917
	c-0.073-0.335-0.082-0.697-0.024-1.083c0.058-0.386,0.194-0.786,0.413-1.2c0.215-0.407,0.467-0.742,0.759-1
	c0.292-0.259,0.604-0.44,0.938-0.545c0.333-0.104,0.686-0.129,1.057-0.075c0.37,0.054,0.738,0.189,1.102,0.403
	c0.364,0.214,0.66,0.472,0.89,0.771c0.228,0.298,0.379,0.62,0.451,0.965c0.073,0.344,0.068,0.707-0.016,1.087
	c-0.084,0.382-0.252,0.765-0.504,1.151c-0.257,0.392-0.541,0.703-0.852,0.94c-0.31,0.238-0.631,0.404-0.963,0.501
	c-0.332,0.097-0.669,0.12-1.012,0.069C126.952,31.657,126.618,31.535,126.291,31.342z M126.74,30.579
	c0.18,0.107,0.37,0.163,0.571,0.167c0.199,0.005,0.399-0.039,0.602-0.131c0.201-0.092,0.399-0.23,0.597-0.415
	c0.195-0.184,0.379-0.413,0.549-0.685c0.338-0.545,0.492-1.043,0.452-1.498c-0.041-0.454-0.261-0.8-0.657-1.034
	c-0.396-0.234-0.805-0.257-1.22-0.072c-0.414,0.185-0.774,0.562-1.087,1.123c-0.155,0.281-0.269,0.552-0.337,0.811
	c-0.068,0.259-0.095,0.5-0.079,0.72c0.018,0.221,0.076,0.417,0.177,0.59C126.408,30.329,126.552,30.469,126.74,30.579z"/>
<path d="M130.778,32.405c0.1,0.306,0.245,0.599,0.436,0.884c0.19,0.286,0.417,0.525,0.682,0.724
	c0.332,0.248,0.622,0.386,0.874,0.412c0.253,0.025,0.447-0.048,0.584-0.223c0.072-0.091,0.111-0.188,0.117-0.287
	c0.006-0.099-0.012-0.205-0.058-0.316c-0.043-0.111-0.106-0.232-0.189-0.362c-0.084-0.13-0.178-0.268-0.281-0.412
	c-0.185-0.28-0.371-0.561-0.561-0.838c-0.114-0.157-0.221-0.322-0.315-0.497c-0.094-0.175-0.164-0.354-0.212-0.537
	c-0.047-0.183-0.061-0.365-0.039-0.549c0.021-0.183,0.092-0.363,0.211-0.536c0.13-0.188,0.299-0.328,0.515-0.417
	c0.214-0.09,0.453-0.131,0.719-0.123c0.267,0.01,0.55,0.071,0.85,0.187c0.298,0.116,0.6,0.286,0.9,0.513
	c0.36,0.271,0.662,0.585,0.905,0.942c0.24,0.356,0.41,0.719,0.509,1.085c-0.311,0.026-0.619,0.055-0.928,0.086
	c-0.097-0.27-0.223-0.522-0.38-0.755c-0.158-0.232-0.37-0.45-0.637-0.65c-0.303-0.227-0.579-0.355-0.824-0.386
	c-0.246-0.031-0.43,0.04-0.552,0.211c-0.065,0.09-0.094,0.187-0.088,0.288c0.008,0.104,0.039,0.212,0.095,0.328
	c0.053,0.115,0.127,0.236,0.219,0.362c0.091,0.125,0.186,0.257,0.28,0.394c0.183,0.273,0.365,0.548,0.544,0.824
	c0.135,0.192,0.245,0.383,0.333,0.572c0.089,0.19,0.147,0.375,0.175,0.556c0.031,0.181,0.023,0.358-0.021,0.529
	c-0.044,0.172-0.133,0.339-0.266,0.502c-0.146,0.181-0.33,0.314-0.549,0.399c-0.217,0.087-0.458,0.123-0.721,0.11
	c-0.264-0.013-0.543-0.078-0.842-0.195c-0.298-0.117-0.602-0.291-0.911-0.523c-0.376-0.28-0.693-0.603-0.958-0.969
	c-0.264-0.367-0.46-0.754-0.586-1.165C130.129,32.516,130.452,32.459,130.778,32.405z"/>
<path d="M135.738,36.292c0.069,0.317,0.187,0.629,0.35,0.938c0.162,0.309,0.366,0.577,0.613,0.809
	c0.31,0.289,0.586,0.462,0.838,0.519c0.252,0.056,0.455,0.006,0.61-0.152c0.081-0.083,0.13-0.175,0.145-0.273
	c0.017-0.099,0.009-0.207-0.024-0.323c-0.032-0.117-0.084-0.246-0.155-0.386c-0.069-0.141-0.15-0.289-0.242-0.447
	c-0.157-0.303-0.316-0.606-0.479-0.908c-0.1-0.17-0.188-0.348-0.266-0.535c-0.077-0.186-0.131-0.373-0.16-0.562
	c-0.03-0.188-0.023-0.373,0.017-0.555c0.04-0.181,0.129-0.353,0.267-0.511c0.147-0.173,0.333-0.292,0.559-0.355
	c0.224-0.064,0.47-0.077,0.735-0.036c0.268,0.041,0.547,0.137,0.837,0.289c0.289,0.152,0.573,0.359,0.854,0.623
	c0.337,0.315,0.608,0.668,0.816,1.055c0.207,0.387,0.342,0.772,0.404,1.151c-0.316-0.011-0.629-0.02-0.942-0.026
	c-0.069-0.283-0.174-0.552-0.308-0.805c-0.136-0.253-0.326-0.497-0.575-0.73c-0.281-0.264-0.546-0.425-0.791-0.487
	c-0.244-0.061-0.437-0.011-0.577,0.145c-0.074,0.082-0.112,0.175-0.115,0.278c-0.004,0.103,0.017,0.216,0.06,0.339
	c0.044,0.123,0.106,0.252,0.184,0.39c0.081,0.137,0.162,0.28,0.243,0.43c0.157,0.296,0.312,0.593,0.465,0.892
	c0.114,0.208,0.208,0.414,0.278,0.615c0.07,0.201,0.11,0.395,0.121,0.58c0.011,0.185-0.014,0.361-0.075,0.528
	s-0.167,0.324-0.316,0.471c-0.167,0.163-0.365,0.274-0.593,0.333s-0.475,0.066-0.738,0.021c-0.264-0.045-0.539-0.145-0.828-0.299
	c-0.288-0.154-0.576-0.366-0.863-0.635c-0.351-0.327-0.639-0.688-0.867-1.086c-0.229-0.399-0.386-0.81-0.472-1.237
	C135.074,36.326,135.406,36.307,135.738,36.292z"/>
<g>
	<path d="M86.908,21.56c0-0.24,0.077-0.439,0.23-0.595c0.153-0.156,0.347-0.234,0.583-0.234c0.235,0,0.429,0.078,0.583,0.234
		c0.153,0.156,0.23,0.354,0.23,0.595c0,0.241-0.077,0.439-0.23,0.596c-0.153,0.156-0.347,0.234-0.583,0.234
		c-0.236,0-0.43-0.078-0.583-0.234C86.984,22,86.908,21.801,86.908,21.56z"/>
</g>
<g>
	<path d="M116.873,23.635c0-0.241,0.077-0.439,0.229-0.596c0.153-0.156,0.348-0.234,0.584-0.234s0.429,0.078,0.582,0.234
		c0.154,0.156,0.231,0.354,0.231,0.596s-0.077,0.439-0.231,0.596c-0.153,0.156-0.346,0.233-0.582,0.233s-0.431-0.078-0.584-0.233
		C116.95,24.074,116.873,23.876,116.873,23.635z"/>
</g>
</svg>
