<?xml version="1.0" encoding="utf-8"?>
<!-- Generator: Adobe Illustrator 16.0.0, SVG Export Plug-In . SVG Version: 6.00 Build 0)  -->
<!DOCTYPE svg PUBLIC "-//W3C//DTD SVG 1.1//EN" "http://www.w3.org/Graphics/SVG/1.1/DTD/svg11.dtd">
<svg version="1.1" xmlns="http://www.w3.org/2000/svg" xmlns:xlink="http://www.w3.org/1999/xlink" x="0px" y="0px"
	 width="595.281px" height="841.89px" viewBox="0 0 595.281 841.89" enable-background="new 0 0 595.281 841.89"
	 xml:space="preserve">
<g id="Layer_2">
	<ellipse fill="#FFFFFF" cx="300.14" cy="257.445" rx="148" ry="149"/>
</g>
<g id="레이어_1">
	<g>
		<path d="M219.236,351.141l2.592-0.548c0.313,1.468,1.506,2.199,3.583,2.199c0.947,0,1.678-0.183,2.189-0.564
			c0.51-0.37,0.764-0.843,0.764-1.396c0-0.406-0.117-0.782-0.348-1.127c-0.231-0.34-0.729-0.609-1.486-0.807l-2.833-0.736
			c-0.97-0.254-1.686-0.543-2.148-0.864c-0.465-0.32-0.838-0.777-1.112-1.366c-0.282-0.584-0.419-1.208-0.419-1.874
			c0-1.324,0.49-2.387,1.475-3.188c0.983-0.797,2.242-1.199,3.778-1.199c1.27,0,2.41,0.279,3.413,0.838
			c1,0.56,1.64,1.346,1.915,2.367l-2.539,0.63c-0.391-1.123-1.3-1.681-2.735-1.681c-0.833,0-1.465,0.173-1.907,0.518
			c-0.437,0.352-0.655,0.787-0.655,1.325c0,0.848,0.688,1.438,2.062,1.777l2.519,0.63c1.529,0.386,2.549,0.955,3.073,1.701
			c0.518,0.751,0.782,1.573,0.782,2.482c0,1.452-0.548,2.596-1.645,3.434c-1.097,0.833-2.519,1.254-4.261,1.254
			c-1.47,0-2.755-0.311-3.859-0.924C220.33,353.406,219.594,352.446,219.236,351.141z"/>
		<path d="M252.188,343.752l-3.212,10.964h-2.227l-1.973-7.683l-1.965,7.683h-2.291l-3.377-10.964h2.625l2.158,7.374l1.894-7.374
			h2.245l1.922,7.374l2.115-7.374H252.188z"/>
		<path d="M261.438,342.473h-2.473v-2.574h2.473V342.473z M261.438,354.716h-2.473v-10.964h2.473V354.716z"/>
		<path d="M274.561,352.782v1.935c-0.736,0.158-1.311,0.239-1.711,0.239c-0.67,0-1.239-0.132-1.719-0.396
			c-0.477-0.264-0.825-0.63-1.046-1.087c-0.221-0.457-0.333-1.168-0.333-2.123v-5.678h-1.366v-1.919h1.511l0.226-2.854l2.031-0.188
			v3.042h2.204v1.919h-2.204v5.354c0,0.686,0.122,1.157,0.373,1.406c0.249,0.249,0.724,0.376,1.417,0.376
			C274.139,352.807,274.342,352.797,274.561,352.782z"/>
		<path d="M289.021,352.792v1.924h-8.27v-1.924l5.287-7.12h-4.789v-1.919h7.772v1.747l-5.416,7.292H289.021z"/>
		<path d="M303.057,351.223l2.239,0.3c-0.293,0.995-0.855,1.812-1.693,2.458c-0.844,0.64-1.895,0.965-3.159,0.965
			c-1.521,0-2.744-0.514-3.671-1.534c-0.924-1.021-1.389-2.402-1.389-4.145c0-1.655,0.464-3.031,1.401-4.118
			c0.932-1.082,2.196-1.625,3.796-1.625c1.563,0,2.771,0.539,3.631,1.609c0.849,1.071,1.277,2.443,1.277,4.124l-0.012,0.279h-7.52
			c0,0.747,0.068,1.346,0.209,1.792c0.143,0.447,0.422,0.838,0.842,1.173c0.418,0.33,0.947,0.498,1.57,0.498
			C301.805,353,302.63,352.406,303.057,351.223z M302.908,347.942c-0.012-0.787-0.244-1.433-0.712-1.931
			c-0.468-0.502-1.046-0.751-1.731-0.751c-0.682,0-1.246,0.233-1.707,0.701c-0.451,0.467-0.72,1.127-0.799,1.98H302.908z"/>
		<path d="M315.292,354.716h-2.476v-10.964h2.237v2.615c0.316-1.021,0.756-1.762,1.312-2.234c0.557-0.472,1.129-0.706,1.713-0.706
			c0.082,0,0.188,0.005,0.328,0.011v2.66c-1.26,0-2.095,0.401-2.5,1.204c-0.412,0.803-0.615,1.579-0.615,2.336V354.716
			L315.292,354.716z"/>
		<path d="M327.725,354.716h-2.478v-14.817h2.478V354.716z"/>
		<path d="M345.145,354.716h-2.354c-0.213-0.665-0.34-1.407-0.383-2.214c-0.658,1.625-1.896,2.442-3.709,2.442
			c-1.096,0-1.971-0.32-2.637-0.966c-0.66-0.635-0.99-1.441-0.99-2.411c0-2.52,2.209-3.778,6.633-3.778
			c0.172,0,0.406,0.005,0.703,0.01v-0.823c0-1.137-0.775-1.706-2.318-1.706c-1.508,0-2.363,0.569-2.563,1.706l-2.106-0.314
			c0.117-0.914,0.588-1.66,1.414-2.254c0.824-0.589,2.016-0.884,3.578-0.884c0.85,0,1.537,0.07,2.075,0.213
			c0.533,0.142,0.988,0.381,1.354,0.716c0.373,0.335,0.625,0.701,0.768,1.097c0.143,0.392,0.213,1.062,0.213,2.001v4.951
			C344.82,353.218,344.927,353.955,345.145,354.716z M342.408,349.135c-3.197,0-4.797,0.768-4.797,2.291
			c0,0.457,0.162,0.849,0.482,1.168c0.322,0.325,0.811,0.482,1.463,0.482c0.939,0,1.65-0.3,2.131-0.895
			c0.482-0.6,0.721-1.274,0.721-2.037V349.135L342.408,349.135z"/>
		<path d="M361.929,354.716h-2.477v-6.851c0-0.722-0.168-1.271-0.498-1.635c-0.334-0.36-0.732-0.549-1.205-0.549
			c-0.646,0-1.209,0.285-1.693,0.849c-0.485,0.562-0.729,1.417-0.729,2.554v5.632h-2.475v-10.964h2.258v2.539
			c0.789-1.843,1.896-2.768,3.324-2.768c0.959,0,1.783,0.305,2.467,0.913c0.686,0.609,1.026,1.677,1.026,3.199L361.929,354.716
			L361.929,354.716z"/>
		<path d="M378.971,354.716h-2.313v-2.214c-0.638,1.625-1.714,2.442-3.234,2.442c-1.346,0-2.379-0.563-3.094-1.687
			c-0.719-1.117-1.074-2.514-1.074-4.174c0-1.549,0.371-2.899,1.117-4.052c0.744-1.147,1.808-1.723,3.181-1.723
			c1.411,0,2.392,0.641,2.944,1.931v-5.342h2.474V354.716z M376.498,348.247c0-0.889-0.213-1.584-0.64-2.082
			c-0.422-0.493-0.97-0.741-1.646-0.741c-0.729,0-1.301,0.32-1.711,0.955c-0.414,0.64-0.621,1.589-0.621,2.854
			c0,2.447,0.768,3.671,2.302,3.671c0.608,0,1.147-0.265,1.612-0.787c0.467-0.523,0.703-1.193,0.703-2.017V348.247L376.498,348.247z
			"/>
	</g>
	<g>
		<g>
			<path d="M248.845,318.448c0-0.947,0.333-1.869,1.003-2.769c0.67-0.9,1.625-1.709,2.867-2.425v-0.201
				c-0.65-0.357-1.224-0.854-1.717-1.493c-0.487-0.637-0.733-1.462-0.733-2.473c0-0.784,0.254-1.577,0.762-2.379
				c0.502-0.8,1.216-1.511,2.133-2.13v-0.198c-0.853-0.619-1.572-1.447-2.161-2.476c-0.584-1.028-0.878-2.261-0.878-3.697
				c0-1.341,0.259-2.542,0.782-3.605c0.523-1.062,1.227-1.965,2.11-2.719c0.881-0.752,1.902-1.323,3.062-1.717
				c1.158-0.391,2.392-0.586,3.7-0.586c1.338,0,2.547,0.195,3.628,0.586h9.849v3.677h-5.979c0.493,0.523,0.932,1.17,1.323,1.935
				c0.394,0.77,0.589,1.628,0.589,2.575c0,1.309-0.244,2.472-0.734,3.479c-0.49,1.016-1.161,1.871-2.011,2.574
				c-0.851,0.704-1.846,1.233-2.988,1.59c-1.143,0.36-2.369,0.543-3.677,0.543c-0.586,0-1.216-0.066-1.889-0.198
				c-0.667-0.127-1.328-0.328-1.983-0.589c-1.112,0.721-1.666,1.552-1.666,2.501c0,0.881,0.409,1.521,1.224,1.912
				c0.815,0.394,1.993,0.589,3.529,0.589h5.096c3.141,0,5.464,0.452,6.988,1.346c1.518,0.899,2.277,2.382,2.277,4.437
				c0,1.146-0.32,2.222-0.955,3.235c-0.64,1.013-1.546,1.903-2.722,2.674c-1.175,0.764-2.597,1.371-4.266,1.811
				c-1.663,0.444-3.527,0.663-5.586,0.663c-3.4,0-6.076-0.548-8.036-1.646C249.827,322.183,248.845,320.57,248.845,318.448z
				 M252.958,317.861c0,1.143,0.63,2.063,1.889,2.768c1.259,0.703,3.08,1.054,5.464,1.054c1.275,0,2.425-0.122,3.456-0.367
				c1.031-0.244,1.912-0.569,2.648-0.98c0.737-0.409,1.295-0.876,1.691-1.396c0.391-0.521,0.586-1.077,0.586-1.669
				c0-1.043-0.434-1.736-1.297-2.079c-0.866-0.346-2.166-0.516-3.897-0.516h-4.215c-0.751,0-1.419-0.024-2.006-0.074
				c-0.591-0.048-1.147-0.154-1.668-0.319c-0.983,0.556-1.666,1.13-2.062,1.716C253.159,316.586,252.958,317.204,252.958,317.861z
				 M259.773,303.401c1.374,0,2.547-0.455,3.532-1.371c0.978-0.917,1.47-2.188,1.47-3.821c0-1.572-0.493-2.829-1.47-3.776
				c-0.985-0.947-2.158-1.422-3.532-1.422s-2.549,0.475-3.529,1.422c-0.978,0.947-1.47,2.204-1.47,3.776
				c0,1.633,0.493,2.905,1.47,3.821C257.224,302.946,258.399,303.401,259.773,303.401z"/>
		</g>
		<path d="M209.09,314.784h-4.108l-0.404-4.104h-0.203c-1.219,1.419-2.546,2.558-3.981,3.423c-1.437,0.858-3.1,1.29-4.994,1.29
			c-2.94,0-5.088-0.851-6.439-2.559c-1.353-1.707-2.028-4.2-2.028-7.479v-12.449l-6.562-0.127l11.632-4.477l-0.051,3.382v13.013
			c0,2.199,0.389,3.812,1.168,4.842c0.777,1.033,2.11,1.549,4.004,1.549c1.285,0,2.458-0.314,3.524-0.941
			c1.064-0.625,2.207-1.682,3.423-3.167v-16.987h5.02L209.09,314.784L209.09,314.784z"/>
		<path d="M218.406,289.992h4.106l0.406,4.007h0.2c1.252-1.287,2.603-2.376,4.058-3.271c1.45-0.896,3.144-1.343,5.071-1.343
			c2.905,0,5.038,0.863,6.388,2.584c1.351,1.722,2.029,4.21,2.029,7.455v15.359h-5.022v-14.701c0-2.161-0.386-3.761-1.163-4.789
			c-0.777-1.033-2.113-1.551-4.007-1.551c-1.32,0-2.501,0.335-3.55,0.99c-1.046,0.66-2.217,1.646-3.499,2.968v17.083h-5.017V289.992
			L218.406,289.992z"/>
		<path d="M300.686,302.416c0-2.029,0.356-3.847,1.065-5.452c0.709-1.605,1.654-2.976,2.84-4.106
			c1.181-1.132,2.533-1.996,4.058-2.587c1.519-0.591,3.093-0.886,4.71-0.886c1.828,0,3.439,0.287,4.848,0.863
			c1.398,0.574,2.592,1.374,3.572,2.402c0.982,1.036,1.725,2.268,2.23,3.707c0.507,1.435,0.763,3.014,0.763,4.738
			c0,0.512-0.026,0.988-0.078,1.445c-0.051,0.46-0.108,0.838-0.178,1.14h-18.66c0.17,2.434,1.074,4.337,2.717,5.706
			c1.638,1.369,3.705,2.052,6.208,2.052c1.354,0,2.61-0.186,3.778-0.56c1.168-0.368,2.31-0.891,3.42-1.565l1.774,3.191
			c-1.279,0.813-2.728,1.495-4.332,2.054c-1.606,0.557-3.375,0.835-5.301,0.835c-1.861,0-3.605-0.294-5.244-0.886
			c-1.643-0.591-3.066-1.441-4.285-2.559c-1.219-1.115-2.174-2.477-2.866-4.083C301.033,306.258,300.686,304.442,300.686,302.416z
			 M320.105,300.237c0-2.234-0.577-3.941-1.725-5.126c-1.15-1.181-2.789-1.77-4.918-1.77c-1.859,0-3.516,0.589-4.969,1.77
			c-1.455,1.186-2.351,2.892-2.686,5.126H320.105z"/>
		<path d="M343.27,289.208l0.015,26.086h-5.02v-19.046h-9.415L343.27,289.208z M340.343,284.094c-1.084,0-1.977-0.323-2.688-0.962
			c-0.707-0.643-1.062-1.506-1.062-2.587s0.355-1.95,1.062-2.61c0.711-0.66,1.604-0.988,2.688-0.988c1.08,0,1.98,0.328,2.688,0.988
			c0.709,0.66,1.066,1.529,1.066,2.61s-0.357,1.945-1.066,2.587C342.322,283.771,341.423,284.094,340.343,284.094z"/>
		<path d="M352.242,302.921c0-2.062,0.373-3.905,1.117-5.525c0.744-1.625,1.76-2.991,3.045-4.111
			c1.281-1.112,2.76-1.955,4.436-2.532c1.675-0.574,3.455-0.86,5.349-0.86c2.028,0,3.802,0.345,5.324,1.036
			c1.522,0.693,2.791,1.534,3.804,2.511l-2.434,3.194c-0.981-0.813-1.998-1.445-3.047-1.902c-1.043-0.457-2.178-0.683-3.396-0.683
			c-1.314,0-2.531,0.211-3.648,0.635c-1.113,0.421-2.072,1.021-2.863,1.798c-0.793,0.779-1.409,1.716-1.852,2.816
			c-0.439,1.097-0.658,2.309-0.658,3.623c0,1.318,0.211,2.529,0.635,3.628c0.422,1.097,1.029,2.034,1.824,2.813
			c0.795,0.773,1.733,1.379,2.815,1.8c1.081,0.419,2.279,0.63,3.599,0.63c1.521,0,2.892-0.285,4.106-0.858
			c1.217-0.576,2.312-1.267,3.297-2.08l2.13,3.245c-1.419,1.217-2.976,2.156-4.666,2.813c-1.689,0.658-3.449,0.988-5.273,0.988
			c-1.926,0-3.725-0.287-5.398-0.861c-1.674-0.571-3.117-1.419-4.337-2.536c-1.216-1.118-2.171-2.476-2.864-4.083
			C352.589,306.818,352.242,304.985,352.242,302.921z"/>
		<path d="M378.072,279.488l10.512-5.213v14.603l-0.305,5.576c1.252-1.282,2.602-2.366,4.059-3.245
			c1.453-0.876,3.144-1.315,5.07-1.315c2.904,0,5.035,0.86,6.387,2.584c1.351,1.724,2.027,4.21,2.027,7.455v15.361h-5.02v-14.707
			c0-2.163-0.389-3.76-1.168-4.789c-0.774-1.031-2.107-1.549-4.002-1.549c-1.317,0-2.504,0.33-3.549,0.99
			c-1.049,0.66-2.217,1.648-3.5,2.968v17.085h-5.021l-0.104-36.017L378.072,279.488z"/>
		<g>
			<polygon fill="#040000" points="406.765,268.28 405.074,271.812 426.091,271.901 427.783,268.3 			"/>
			<polygon fill="#040000" points="405.102,275.986 403.357,279.693 424.404,279.736 426.091,276.07 			"/>
			<polygon fill="#040000" points="409.205,283.898 418.846,263.372 422.56,263.425 413.031,283.903 			"/>
		</g>
		<g>
			<path d="M287.112,306.722c0,1.663,0.416,2.867,1.251,3.604c0.833,0.733,1.917,1.104,3.258,1.104c0.652,0,1.325-0.084,2.011-0.249
				c0.686-0.163,1.455-0.424,2.303-0.785l1.176,3.632c-0.556,0.192-1.087,0.371-1.592,0.538c-0.51,0.162-1.021,0.297-1.544,0.413
				c-0.523,0.117-1.069,0.214-1.64,0.295c-0.574,0.08-1.201,0.125-1.887,0.125c-2.681,0-4.715-0.768-6.104-2.307
				c-1.389-1.536-2.082-3.755-2.082-6.665v-32.635h-7.841l12.691-8.943"/>
		</g>
	</g>
	<g>
		<polygon fill="#E71F19" points="271.037,188.389 271.146,245.59 325.638,245.481 325.854,188.389 		"/>
		<rect x="280.122" y="211.259" fill="#FFFFFF" width="36.523" height="11.253"/>
		<rect x="293" y="197.893" fill="#FFFFFF" width="10.807" height="38.107"/>
	</g>
	<path d="M206.048,170.134c0.659-0.705,1.324-1.399,1.995-2.085c2.518,2.461,5.035,4.924,7.553,7.386
		c1.65-1.689,3.336-3.32,5.058-4.894c0.418,0.458,0.837,0.917,1.255,1.375c-2.331,2.131-4.597,4.37-6.793,6.713
		C212.093,175.797,209.07,172.966,206.048,170.134z"/>
	<path d="M216.572,165.073c1.864-1.855,3.772-3.645,5.724-5.368c2.055,2.334,4.111,4.668,6.167,7.002
		c-0.635,0.561-1.265,1.129-1.892,1.706c-1.714-1.866-3.427-3.732-5.142-5.598c-1.231,1.134-2.444,2.295-3.638,3.485
		C217.385,165.891,216.979,165.482,216.572,165.073z M220.029,159.54c-0.419,0.378-0.856,0.599-1.315,0.661
		c-0.459,0.063-0.841-0.067-1.143-0.392c-0.302-0.324-0.405-0.717-0.307-1.18c0.1-0.462,0.363-0.889,0.79-1.276
		c0.44-0.397,0.892-0.618,1.355-0.663c0.461-0.046,0.838,0.101,1.131,0.434c0.292,0.333,0.385,0.723,0.284,1.168
		C220.723,158.737,220.458,159.152,220.029,159.54z"/>
	<path d="M226.988,157.088c0.575-0.478,1.155-0.949,1.738-1.415c0.348,0.322,0.694,0.644,1.042,0.968
		c0.024-0.02,0.049-0.039,0.073-0.058c0.149-0.686,0.387-1.362,0.716-2.024s0.853-1.266,1.569-1.8
		c1.067-0.795,2.056-1.1,2.938-0.927c0.884,0.173,1.669,0.765,2.366,1.762c1.104,1.579,2.208,3.156,3.311,4.735
		c-0.688,0.481-1.372,0.97-2.051,1.467c-1.08-1.479-2.159-2.957-3.24-4.435c-0.448-0.614-0.901-0.97-1.361-1.063
		c-0.46-0.093-1.008,0.095-1.637,0.571c-0.443,0.335-0.771,0.724-0.981,1.158c-0.209,0.435-0.384,0.99-0.517,1.662
		c1.318,1.663,2.636,3.326,3.953,4.99c-0.662,0.525-1.32,1.06-1.973,1.6C230.951,161.883,228.969,159.485,226.988,157.088z"/>
	<path d="M253.784,152.311c-0.604,0.298-1.206,0.6-1.806,0.908c-0.283-0.409-0.567-0.819-0.853-1.228
		c-0.025,0.014-0.052,0.026-0.076,0.041c-0.213,0.695-0.513,1.319-0.899,1.878c-0.387,0.559-0.924,1.026-1.613,1.411
		c-1.079,0.601-2.017,0.77-2.836,0.493c-0.817-0.276-1.542-0.93-2.165-1.976c-0.986-1.654-1.972-3.309-2.958-4.964
		c0.767-0.457,1.539-0.906,2.313-1.347c0.905,1.592,1.81,3.184,2.715,4.775c0.375,0.661,0.78,1.067,1.213,1.224
		c0.433,0.157,0.973,0.053,1.625-0.304c0.447-0.244,0.799-0.549,1.059-0.917c0.259-0.368,0.481-0.892,0.672-1.577
		c-0.965-1.86-1.932-3.722-2.898-5.583c0.789-0.41,1.581-0.81,2.376-1.202C251.03,146.732,252.408,149.522,253.784,152.311z"/>
	<path d="M259.15,144.363c-1.748-0.836-3.528-1.638-5.341-2.4c0.859-0.432,1.724-0.853,2.591-1.264
		c0.697,0.321,1.389,0.648,2.076,0.981c0.271,0.155,0.559,0.312,0.864,0.473c0.305,0.16,0.606,0.32,0.906,0.478
		c0.028-0.013,0.055-0.025,0.083-0.038c0.041-0.31,0.093-0.631,0.159-0.966c0.066-0.333,0.124-0.65,0.174-0.949
		c0.169-0.708,0.342-1.418,0.522-2.128c0.853-0.363,1.71-0.717,2.569-1.061c-0.6,1.933-1.153,3.866-1.656,5.798
		c1.828,0.883,3.619,1.807,5.372,2.765c-0.825,0.329-1.647,0.667-2.466,1.014c-0.705-0.369-1.417-0.731-2.133-1.087
		c-0.288-0.15-0.594-0.313-0.918-0.488c-0.325-0.175-0.643-0.337-0.952-0.489c-0.027,0.011-0.054,0.024-0.081,0.036
		c-0.071,0.338-0.134,0.669-0.186,0.993c-0.053,0.323-0.109,0.66-0.17,1.009c-0.164,0.746-0.321,1.492-0.471,2.238
		c-0.779,0.372-1.555,0.752-2.327,1.142C258.175,148.402,258.636,146.383,259.15,144.363z"/>
	<path d="M279.87,133.761c0.897-0.107,1.795-0.206,2.694-0.294c0.26,2.603,0.52,5.205,0.78,7.808
		c0.102,1.021,0.394,1.733,0.865,2.141c0.473,0.407,1.083,0.577,1.841,0.518c0.77-0.062,1.36-0.326,1.776-0.804
		c0.415-0.478,0.596-1.228,0.536-2.252c-0.156-2.611-0.313-5.223-0.468-7.833c0.862-0.05,1.725-0.093,2.587-0.128
		c0.104,2.557,0.207,5.113,0.31,7.67c0.068,1.709-0.309,2.979-1.105,3.825c-0.799,0.846-1.952,1.313-3.483,1.435
		c-1.503,0.12-2.717-0.164-3.669-0.876c-0.952-0.711-1.541-1.901-1.745-3.587C280.481,138.841,280.176,136.301,279.87,133.761z"/>
	<path d="M295.713,135.748c0.72-0.023,1.441-0.041,2.163-0.052c0.076,0.467,0.152,0.935,0.227,1.402c0.03,0,0.061-0.001,0.089-0.001
		c0.521-0.451,1.103-0.839,1.746-1.161c0.644-0.324,1.403-0.481,2.271-0.467c1.293,0.022,2.235,0.382,2.813,1.057
		c0.58,0.676,0.833,1.624,0.776,2.838c-0.086,1.923-0.174,3.846-0.262,5.77c-0.816-0.037-1.636-0.065-2.453-0.086
		c0.047-1.83,0.094-3.659,0.14-5.489c0.019-0.76-0.118-1.318-0.416-1.672c-0.298-0.356-0.833-0.54-1.599-0.547
		c-0.539-0.004-1.021,0.101-1.438,0.317c-0.417,0.216-0.88,0.549-1.378,0.998c0.026,2.122,0.054,4.243,0.08,6.364
		c-0.818,0.011-1.637,0.03-2.455,0.056C295.917,141.964,295.815,138.856,295.713,135.748z"/>
	<path d="M309.419,136.016c2.486,0.178,4.968,0.428,7.44,0.748c-0.399,3.083-0.8,6.167-1.2,9.252
		c-0.807-0.105-1.611-0.201-2.42-0.289c0.275-2.519,0.553-5.037,0.827-7.555c-1.588-0.174-3.179-0.318-4.771-0.432
		C309.337,137.166,309.38,136.591,309.419,136.016z M315.56,134.957c-0.536-0.063-0.969-0.245-1.301-0.548
		c-0.332-0.304-0.477-0.674-0.432-1.115s0.264-0.779,0.66-1.01s0.868-0.316,1.416-0.252c0.562,0.066,1.006,0.259,1.329,0.575
		c0.324,0.317,0.454,0.695,0.396,1.134c-0.059,0.44-0.28,0.767-0.668,0.986C316.574,134.945,316.107,135.021,315.56,134.957z"/>
	<path d="M325.353,142.717c-0.898-1.708-1.84-3.408-2.829-5.097c0.938,0.163,1.873,0.336,2.808,0.519
		c0.364,0.673,0.724,1.346,1.074,2.021c0.127,0.285,0.262,0.582,0.409,0.892c0.147,0.31,0.293,0.616,0.44,0.921
		c0.027,0.006,0.058,0.013,0.086,0.019c0.219-0.225,0.449-0.453,0.703-0.682c0.25-0.229,0.484-0.45,0.701-0.66
		c0.555-0.471,1.116-0.939,1.683-1.404c0.897,0.214,1.796,0.438,2.688,0.67c-1.631,1.199-3.224,2.426-4.771,3.683
		c0.938,1.794,1.824,3.598,2.658,5.409c-0.857-0.225-1.719-0.44-2.578-0.647c-0.346-0.714-0.699-1.427-1.061-2.139
		c-0.142-0.293-0.289-0.604-0.443-0.938c-0.156-0.333-0.313-0.652-0.473-0.958c-0.027-0.007-0.055-0.014-0.084-0.019
		c-0.26,0.229-0.505,0.458-0.736,0.688c-0.234,0.229-0.479,0.466-0.735,0.71c-0.571,0.503-1.14,1.011-1.698,1.522
		c-0.84-0.163-1.683-0.317-2.525-0.461C322.184,145.39,323.744,144.038,325.353,142.717z"/>
	<path d="M347.335,142.406c2.889,1.559,5.729,3.229,8.513,5.009c-0.334,0.522-0.671,1.045-1.005,1.569
		c-1.979-1.266-3.987-2.476-6.023-3.628c-0.576,1.02-1.156,2.039-1.732,3.059c1.684,0.954,3.35,1.947,4.994,2.981
		c-0.33,0.525-0.66,1.051-0.99,1.577c-1.623-1.019-3.264-1.998-4.924-2.938c-0.853,1.504-1.703,3.009-2.557,4.513
		c-0.725-0.409-1.451-0.811-2.184-1.205C343.396,149.697,345.367,146.052,347.335,142.406z"/>
	<path d="M356.865,161.778c-0.713-0.42-1.294-0.926-1.75-1.524c-0.453-0.598-0.761-1.259-0.922-1.99
		c-0.158-0.728-0.179-1.512-0.053-2.349c0.125-0.838,0.421-1.705,0.896-2.602c0.465-0.884,1.012-1.61,1.646-2.169
		c0.633-0.561,1.312-0.956,2.036-1.182c0.724-0.225,1.486-0.281,2.291-0.163c0.804,0.118,1.602,0.41,2.39,0.875
		c0.79,0.464,1.433,1.023,1.929,1.671c0.495,0.647,0.822,1.346,0.98,2.093c0.158,0.746,0.146,1.533-0.035,2.359
		c-0.182,0.828-0.547,1.659-1.094,2.497c-0.555,0.849-1.172,1.526-1.846,2.041c-0.672,0.515-1.369,0.876-2.09,1.086
		c-0.721,0.211-1.451,0.259-2.195,0.151C358.3,162.461,357.576,162.197,356.865,161.778z M357.839,160.123
		c0.392,0.232,0.805,0.353,1.24,0.363c0.432,0.011,0.865-0.084,1.305-0.284c0.437-0.2,0.867-0.5,1.293-0.899
		c0.426-0.399,0.822-0.895,1.191-1.486c0.735-1.183,1.069-2.264,0.98-3.248c-0.088-0.984-0.564-1.737-1.424-2.243
		c-0.858-0.507-1.746-0.557-2.646-0.156c-0.898,0.401-1.682,1.219-2.357,2.436c-0.338,0.609-0.582,1.196-0.731,1.758
		c-0.149,0.562-0.206,1.083-0.17,1.561c0.037,0.479,0.163,0.905,0.382,1.279C357.121,159.579,357.431,159.884,357.839,160.123z"/>
	<path d="M366.599,164.083c0.218,0.663,0.533,1.3,0.945,1.918c0.414,0.619,0.904,1.14,1.479,1.571
		c0.721,0.538,1.35,0.838,1.896,0.893c0.549,0.055,0.971-0.104,1.269-0.483c0.155-0.199,0.24-0.407,0.252-0.623
		c0.013-0.214-0.026-0.444-0.123-0.685c-0.094-0.242-0.231-0.503-0.413-0.786c-0.182-0.282-0.384-0.58-0.609-0.893
		c-0.4-0.608-0.807-1.216-1.217-1.818c-0.248-0.339-0.478-0.698-0.683-1.077c-0.205-0.38-0.358-0.767-0.462-1.164
		c-0.102-0.396-0.13-0.793-0.084-1.191c0.048-0.398,0.199-0.787,0.459-1.163c0.279-0.407,0.646-0.71,1.113-0.905
		c0.465-0.195,0.984-0.284,1.562-0.266c0.577,0.021,1.191,0.154,1.842,0.406c0.646,0.251,1.301,0.621,1.951,1.111
		c0.783,0.587,1.438,1.27,1.965,2.044c0.521,0.773,0.891,1.56,1.104,2.353c-0.672,0.057-1.342,0.12-2.012,0.188
		c-0.209-0.586-0.483-1.133-0.824-1.638c-0.344-0.505-0.803-0.976-1.381-1.41c-0.655-0.493-1.256-0.771-1.787-0.837
		c-0.535-0.068-0.934,0.087-1.197,0.458c-0.143,0.195-0.203,0.404-0.191,0.625c0.019,0.224,0.086,0.459,0.205,0.71
		c0.115,0.25,0.275,0.513,0.475,0.786c0.197,0.272,0.402,0.558,0.607,0.855c0.399,0.593,0.793,1.188,1.18,1.787
		c0.293,0.417,0.531,0.832,0.725,1.242c0.191,0.412,0.318,0.814,0.38,1.207c0.065,0.392,0.05,0.775-0.045,1.148
		c-0.097,0.373-0.287,0.735-0.576,1.088c-0.319,0.393-0.718,0.682-1.19,0.867c-0.473,0.188-0.994,0.266-1.565,0.239
		c-0.571-0.027-1.179-0.169-1.825-0.423c-0.646-0.254-1.304-0.632-1.976-1.135c-0.815-0.608-1.505-1.307-2.078-2.102
		c-0.573-0.796-0.998-1.636-1.272-2.528C365.192,164.324,365.893,164.2,366.599,164.083z"/>
	<path d="M377.36,172.516c0.149,0.688,0.404,1.366,0.757,2.034c0.354,0.669,0.795,1.252,1.331,1.753
		c0.671,0.627,1.271,1.004,1.817,1.126c0.545,0.122,0.988,0.014,1.324-0.33c0.177-0.181,0.281-0.379,0.313-0.593
		c0.035-0.214,0.019-0.449-0.053-0.702c-0.071-0.254-0.183-0.533-0.336-0.837c-0.153-0.305-0.329-0.627-0.527-0.97
		c-0.341-0.658-0.687-1.316-1.039-1.97c-0.218-0.369-0.409-0.756-0.577-1.161c-0.168-0.404-0.283-0.81-0.347-1.219
		c-0.065-0.409-0.052-0.809,0.036-1.203c0.087-0.394,0.279-0.765,0.576-1.11c0.322-0.374,0.725-0.633,1.214-0.771
		c0.485-0.139,1.019-0.167,1.596-0.078c0.579,0.089,1.185,0.297,1.813,0.627c0.627,0.331,1.244,0.78,1.853,1.351
		c0.729,0.684,1.32,1.449,1.771,2.289c0.449,0.839,0.74,1.674,0.877,2.496c-0.686-0.025-1.363-0.044-2.045-0.057
		c-0.15-0.615-0.375-1.198-0.666-1.746c-0.295-0.548-0.709-1.077-1.248-1.583c-0.609-0.573-1.184-0.923-1.715-1.056
		c-0.529-0.131-0.946-0.025-1.252,0.314c-0.162,0.179-0.244,0.38-0.252,0.604s0.037,0.468,0.131,0.735
		c0.094,0.266,0.229,0.547,0.399,0.845c0.173,0.297,0.349,0.608,0.527,0.933c0.34,0.642,0.678,1.287,1.007,1.934
		c0.248,0.453,0.451,0.899,0.604,1.334c0.152,0.437,0.24,0.857,0.265,1.258c0.022,0.401-0.031,0.784-0.164,1.146
		c-0.134,0.362-0.361,0.702-0.688,1.021c-0.361,0.354-0.791,0.595-1.285,0.724c-0.494,0.129-1.028,0.144-1.602,0.046
		c-0.572-0.098-1.169-0.314-1.796-0.648c-0.626-0.333-1.248-0.793-1.873-1.378c-0.76-0.709-1.384-1.493-1.88-2.357
		c-0.498-0.866-0.838-1.757-1.023-2.683C375.917,172.588,376.639,172.548,377.36,172.516z"/>
	<g>
		<path d="M271.437,140.559c0-0.522,0.166-0.953,0.499-1.292c0.332-0.339,0.753-0.507,1.265-0.507c0.511,0,0.932,0.168,1.264,0.507
			c0.333,0.339,0.5,0.769,0.5,1.292s-0.167,0.953-0.5,1.292c-0.332,0.338-0.753,0.507-1.264,0.507c-0.512,0-0.933-0.169-1.265-0.507
			C271.603,141.512,271.437,141.082,271.437,140.559z"/>
	</g>
	<g>
		<path d="M336.437,145.059c0-0.522,0.166-0.953,0.499-1.292c0.332-0.339,0.753-0.507,1.265-0.507s0.932,0.168,1.264,0.507
			c0.334,0.339,0.5,0.769,0.5,1.292s-0.166,0.953-0.5,1.292c-0.332,0.338-0.752,0.507-1.264,0.507s-0.933-0.169-1.265-0.507
			C336.603,146.012,336.437,145.582,336.437,145.059z"/>
	</g>
</g>
</svg>
